<?xml version="1.0" standalone="no"?> <!DOCTYPE svg PUBLIC "-//W3C//DTD SVG 1.0//EN" "http://www.w3.org/TR/2001/REC-SVG-20010904/DTD/svg10.dtd" > <svg xmlns="http://www.w3.org/2000/svg" width="100%" height="100%">
<defs >
<font id="HolidayExtrasSans-BoldItalic" horiz-adv-x="1137" ><font-face
    font-family="Holiday Extras Sans"
    units-per-em="2048"
    panose-1="2 11 8 3 4 3 2 13 2 4"
    ascent="2048"
    descent="-512"
    alphabetic="0" />
<missing-glyph horiz-adv-x="1024" d="M398 440Q398 375 347 375Q324 375 316 379T300 383Q284 383 284 362Q284 349 294 344Q305 339 318 338T343 336Q399 336 424 362T450 440V686Q450 719 417 719H325Q308 719 308 698Q308 678 325 678H398V440ZM529 360Q529
351 536 346T554 340Q565 340 573 345T581 360V512H722Q736 512 736 532Q736 553 722 553H581V678H738Q755 678 755 698Q755 719 738 719H564Q529 719 529 686V360ZM165 539Q165 613 191 677T263 787T373 860T511 887Q586 887 649 861T759 788T832 677T859 539Q859
464 833 401T760 292T650 219T511 193Q436 193 373 219T264 291T191 401T165 539Z" />
<glyph unicode="&#xd;" glyph-name="CR" horiz-adv-x="0" />
<glyph unicode=" " glyph-name="space" horiz-adv-x="514" />
<glyph unicode="!" glyph-name="exclam" horiz-adv-x="690" d="M341 1321Q344 1343 347 1361T354 1395T364 1422T381 1445Q401 1468 431 1476T504 1485Q540 1485 566 1478T608 1459T633 1430T641 1394Q641 1388 641 1383T639 1369T635 1347T628 1311L468 518Q460
475 426 450T333 424Q274 424 248 449T228 518L341 1321ZM111 135Q111 172 125 204T163 259T220 296T291 309Q327 309 357 298T408 266T442 216T454 153Q454 116 441 85T403 30T346 -7T274 -20Q238 -20 208 -9T157 23T123 72T111 135Z" />
<glyph unicode="&quot;" glyph-name="quotedbl" horiz-adv-x="836" d="M271 1419Q273 1438 283 1452T310 1476T347 1489T390 1494Q415 1494 436 1489T472 1475T497 1452T506 1421Q506 1414 505 1404T498 1374L409 1004Q399 966 374 949T310 932Q272 932 251 947T229
995Q229 1003 229 1012T232 1039L271 1419ZM640 1419Q642 1438 652 1452T679 1476T716 1489T758 1494Q783 1494 804 1489T841 1475T866 1452T875 1421Q875 1414 873 1404T866 1374L777 1004Q768 966 742 949T679 932Q641 932 619 947T597 995Q597 1003 598 1012T601
1039L640 1419Z" />
<glyph unicode="#" glyph-name="numbersign" horiz-adv-x="1468" d="M498 867H359Q324 867 305 886T286 942Q286 989 311 1015T384 1042H580L718 1328Q735 1365 761 1381T821 1398Q842 1398 859 1391T889 1372T908 1343T915 1309Q915 1295 912 1283T903 1259L797
1042H1069L1207 1328Q1225 1365 1250 1381T1310 1398Q1331 1398 1348 1391T1378 1372T1397 1343T1404 1309Q1404 1295 1401 1283T1392 1259L1286 1042H1428Q1462 1042 1480 1024T1499 970Q1499 922 1472 895T1399 867H1205L1033 509H1173Q1207 509 1225 491T1244
437Q1244 389 1217 362T1144 334H951L812 48Q795 11 770 -5T710 -21Q689 -21 672 -14T642 5T622 33T615 67Q615 81 618 93T627 117L732 334H461L323 48Q306 11 281 -5T220 -21Q199 -21 182 -14T152 5T133 33T126 67Q126 81 129 93T138 117L243 334H104Q69 334 50
353T31 409Q31 456 56 482T129 509H325L498 867ZM543 509H815L987 867H715L543 509Z" />
<glyph unicode="$" glyph-name="dollar" horiz-adv-x="1075" d="M374 4Q324 7 283 15T208 34T150 60T110 89Q93 106 86 124T79 165Q79 186 86 204T106 234T136 254T174 262Q198 262 220 254T272 236T346 218T454 210Q514 210 557 222T628 256T669 309T682 378Q682
420 661 450T603 506T522 553T429 599T337 652T255 719T198 809T176 929Q176 1004 200 1068T272 1183T391 1266T559 1312L596 1521Q604 1567 628 1588T698 1610Q742 1610 764 1589T779 1521L743 1315Q781 1312 815 1305T877 1288T926 1265T961 1239Q978 1222 984
1204T991 1163Q991 1142 984 1124T965 1094T935 1074T896 1066Q872 1066 851 1073T801 1089T735 1105T642 1112Q590 1112 553 1102T492 1074T457 1030T446 974Q446 935 467 907T525 855T606 810T699 764T791 711T873 641T930 548T952 423Q952 341 928 271T854 148T731
59T557 10L520 -203Q512 -250 488 -271T418 -293Q374 -293 352 -271T338 -203L374 4Z" />
<glyph unicode="%" glyph-name="percent" horiz-adv-x="1917" d="M1393 1360Q1409 1380 1424 1389T1460 1398Q1478 1398 1494 1392T1524 1374T1544 1347T1552 1316Q1552 1302 1546 1290T1528 1261L587 19Q571 -1 556 -10T520 -19Q502 -19 486 -13T456 5T436 31T428
63Q428 77 434 89T452 118L1393 1360ZM169 899Q169 995 195 1084T273 1243T405 1353T592 1395Q662 1395 717 1376T809 1320T866 1230T886 1109Q886 1013 860 924T782 765T650 655T463 613Q392 613 338 632T246 688T189 778T169 899ZM382 914Q382 841 411 807T490
773Q533 773 567 799T625 870T660 973T673 1094Q673 1167 644 1201T565 1236Q521 1236 487 1210T430 1138T395 1035T382 914ZM1095 270Q1095 366 1121 455T1199 614T1331 724T1518 766Q1588 766 1643 747T1735 691T1792 601T1812 480Q1812 384 1786 295T1708 136T1576
26T1389 -16Q1318 -16 1264 3T1172 59T1115 149T1095 270ZM1308 285Q1308 212 1337 178T1416 144Q1459 144 1493 170T1551 241T1586 344T1599 465Q1599 538 1570 572T1491 607Q1447 607 1413 581T1356 509T1321 406T1308 285Z" />
<glyph unicode="&amp;" glyph-name="ampersand" horiz-adv-x="1743" d="M86 359Q86 457 121 533T214 669T349 774T506 858Q495 910 489 960T483 1060Q483 1159 516 1239T610 1376T757 1464T952 1495Q1036 1495 1100 1474T1209 1415T1277 1326T1300 1215Q1300 1124
1258 1057T1147 937T990 844T808 767Q829 708 858 646T924 523T1001 407T1088 306Q1110 284 1132 265T1177 233T1221 211T1267 203Q1295 203 1318 212T1357 241T1381 291T1390 362Q1390 412 1374 458T1331 539T1265 595T1183 616Q1161 616 1146 614T1116 612Q1103
612 1092 617T1071 632T1057 659T1051 698Q1051 752 1096 786T1237 821Q1334 821 1410 786T1538 693T1618 558T1645 400Q1645 324 1623 250T1551 118T1426 23T1243 -13Q1150 -13 1075 18T929 113Q902 92 862 69T771 27T657 -5T522 -18Q417 -18 336 9T200 87T115
206T86 359ZM346 394Q346 300 401 246T565 191Q604 191 637 198T699 216T750 240T791 267Q726 353 670 456T572 671Q524 646 483 618T411 556T364 482T346 394ZM739 1085Q739 1050 742 1017T751 949Q815 974 868 999T959 1054T1019 1116T1040 1191Q1040 1242 1010
1271T920 1301Q881 1301 848 1287T790 1246T753 1179T739 1085Z" />
<glyph unicode="&apos;" glyph-name="quotesingle" horiz-adv-x="467" d="M271 1419Q273 1438 283 1452T310 1476T347 1489T390 1494Q415 1494 436 1489T472 1475T497 1452T506 1421Q506 1414 505 1404T498 1374L409 1004Q399 966 374 949T310 932Q272 932 251
947T229 995Q229 1003 229 1012T232 1039L271 1419Z" />
<glyph unicode="(" glyph-name="parenleft" horiz-adv-x="666" d="M107 346Q107 520 142 684T244 998T404 1284T615 1536Q646 1568 689 1568Q711 1568 730 1561T765 1540T788 1510T797 1474Q797 1460 793 1447T777 1421Q687 1313 611 1196T479 947T392 666T360
346Q360 251 368 165T391 2T428 -143T478 -269Q482 -279 483 -286T485 -304Q485 -325 476 -342T451 -372T416 -392T375 -399Q348 -399 327 -388T292 -356Q248 -293 214 -214T156 -44T120 144T107 346Z" />
<glyph unicode=")" glyph-name="parenright" horiz-adv-x="666" d="M332 822Q332 916 324 1002T301 1165T264 1310T215 1437Q210 1447 209 1454T207 1472Q207 1493 216 1510T241 1539T277 1559T318 1566Q344 1566 365 1555T401 1524Q444 1460 478 1381T536 1212T572
1024T585 822Q585 648 550 484T448 169T289 -117T78 -369Q47 -400 3 -400Q-18 -400 -37 -393T-72 -373T-96 -343T-105 -307Q-105 -293 -100 -280T-84 -253Q6 -145 82 -28T214 220T301 501T332 822Z" />
<glyph unicode="*" glyph-name="asterisk" horiz-adv-x="834" d="M312 942Q295 933 286 929T264 924Q249 924 236 932T213 952T197 981T191 1014Q191 1037 202 1053T235 1076L399 1140L257 1220Q242 1228 234 1240T226 1270Q226 1287 234 1305T254 1337T283 1361T317
1371Q331 1371 341 1365T368 1344L481 1253L493 1433Q493 1448 499 1459T517 1477T543 1489T574 1493Q590 1493 605 1490T633 1479T652 1461T660 1436Q660 1429 658 1422T651 1401L611 1251L738 1326Q754 1336 764 1340T785 1344Q800 1344 813 1336T837 1316T853
1287T859 1254Q859 1231 848 1215T815 1192L651 1128L793 1049Q808 1041 815 1029T823 998Q823 981 815 963T795 931T766 907T732 897Q719 897 709 903T682 924L569 1016L557 836Q557 821 551 810T533 791T507 780T476 776Q460 776 445 779T417 790T398 807T390
832Q390 839 392 847T398 867L439 1017L312 942Z" />
<glyph unicode="+" glyph-name="plus" horiz-adv-x="1167" d="M244 484Q199 484 177 505T155 566Q155 592 163 613T187 650T224 674T273 683H512L553 918Q563 979 595 1009T678 1039Q729 1039 751 1009T764 918L723 683H953Q998 683 1020 662T1042 600Q1042 574
1034 553T1010 516T973 493T924 484H689L649 249Q638 188 605 158T521 128Q470 128 448 158T437 249L477 484H244Z" />
<glyph unicode="," glyph-name="comma" horiz-adv-x="598" d="M65 143Q65 182 79 216T117 274T175 313T248 327Q323 327 365 280T408 146Q408 93 391 39T347 -67T283 -166T207 -250Q178 -277 154 -295T107 -323T64 -338T23 -343Q-19 -343 -41 -322T-63 -268Q-63
-249 -55 -235T-32 -206T2 -175T42 -134T87 -77T132 4Q118 13 106 26T85 57T71 95T65 143Z" />
<glyph unicode="-" glyph-name="hyphen" horiz-adv-x="918" d="M209 443Q171 443 151 464T130 529Q130 557 138 580T159 619T192 644T234 653H725Q763 653 783 633T804 568Q804 540 796 517T774 478T741 452T699 443H209Z" />
<glyph unicode="." glyph-name="period" horiz-adv-x="598" d="M65 143Q65 182 79 216T117 274T175 313T249 327Q285 327 315 316T366 283T399 231T411 165Q411 126 397 92T359 33T301 -6T228 -20Q192 -20 162 -8T111 25T77 77T65 143Z" />
<glyph unicode="/" glyph-name="slash" horiz-adv-x="858" d="M732 1425Q751 1460 774 1476T831 1493Q851 1493 873 1486T914 1466T945 1433T957 1388Q957 1374 952 1361T938 1330L93 -261Q75 -296 52 -312T-5 -329Q-25 -329 -47 -322T-89 -302T-120 -269T-132
-224Q-132 -210 -127 -197T-112 -166L732 1425Z" />
<glyph unicode="0" glyph-name="zero" horiz-adv-x="1307" d="M115 495Q115 622 135 738T196 955T294 1138T428 1278T594 1367T792 1399Q901 1399 987 1367T1133 1270T1224 1108T1256 883Q1256 756 1236 640T1175 423T1077 241T943 101T777 12T579 -20Q470 -20
384 12T238 109T147 270T115 495ZM388 521Q388 428 404 365T450 263T521 207T611 190Q693 190 761 241T879 382T956 594T984 857Q984 950 968 1013T921 1116T850 1171T760 1188Q678 1188 610 1137T492 997T416 785T388 521Z" />
<glyph unicode="1" glyph-name="one" horiz-adv-x="784" d="M277 1035Q249 1027 232 1024T196 1021Q157 1021 135 1046T112 1108Q112 1134 119 1150T143 1184Q156 1197 178 1212T232 1244T302 1279T385 1317Q430 1336 465 1350T529 1372T582 1385T629 1389Q658
1389 680 1380T716 1353T736 1310T736 1252L540 113Q530 55 495 24T391 -7Q323 -7 293 23T273 113L441 1086L277 1035Z" />
<glyph unicode="2" glyph-name="two" horiz-adv-x="981" d="M774 221Q814 221 835 198T857 127Q857 97 849 74T825 34T790 9T745 0H85Q55 0 32 9T-8 34T-33 72T-42 122Q-42 144 -37 164T-21 203T8 243T51 288L328 547Q430 643 499 713T612 840T673 944T692 1043Q692
1114 649 1152T510 1191Q466 1191 432 1184T370 1168T321 1152T281 1145Q247 1145 226 1167T204 1227Q204 1248 211 1267T236 1303Q254 1321 287 1338T364 1369T463 1391T579 1399Q683 1399 758 1377T883 1313T956 1215T980 1086Q980 1034 970 986T937 890T877
791T788 683T665 559T506 415L291 221H774Z" />
<glyph unicode="3" glyph-name="three" horiz-adv-x="987" d="M331 181Q399 181 452 199T541 249T596 325T615 421Q615 465 600 500T548 561T454 599T308 613Q268 613 249 632Q237 644 232 664T228 708T238 754T262 791Q272 802 288 807T330 813Q425 813 491 830T600
877T661 950T680 1042Q680 1111 637 1151T507 1191Q462 1191 430 1185T372 1173T328 1160T289 1154Q257 1154 236 1176T214 1234Q214 1254 221 1273T246 1308Q264 1326 296 1342T370 1371T465 1390T577 1398Q673 1398 745 1376T864 1313T934 1215T958 1088Q958
1023 939 967T883 866T797 787T684 732V730Q731 719 769 693T835 630T877 546T892 446Q892 349 854 264T742 116T565 17T329 -19Q267 -19 218 -12T132 6T68 31T28 60Q12 76 4 94T-4 137Q-4 177 20 202T83 227Q105 227 126 220T174 204T238 188T331 181Z" />
<glyph unicode="4" glyph-name="four" d="M191 364Q123 364 85 400T47 501Q47 523 51 543T64 583T87 626T123 674L592 1263Q619 1297 645 1322T702 1362T769 1385T852 1393Q897 1393 930 1382T982 1349T1009 1299T1010 1234L897 575H1012Q1091 575 1091 486Q1091
457 1083 435T1061 397T1027 373T983 364H860L817 111Q807 54 773 24T674 -7Q608 -7 580 23T561 111L604 364H191ZM737 1128L299 575H641L737 1128Z" />
<glyph unicode="5" glyph-name="five" horiz-adv-x="1001" d="M421 864Q536 860 626 831T778 752T873 631T906 474Q906 366 867 275T753 119T572 18T329 -19Q268 -19 219 -12T133 6T69 31T29 60Q13 76 5 94T-3 137Q-3 179 21 203T84 228Q106 228 127 221T175 206T239
190T330 183Q401 183 456 202T550 255T608 335T628 434Q628 483 610 523T548 593T432 638T252 655Q201 655 182 683T173 764L287 1278Q298 1329 327 1353T414 1378H924Q964 1378 986 1355T1008 1284Q1008 1254 1000 1231T976 1191T941 1166T898 1157H485L421 864Z"
/>
<glyph unicode="6" glyph-name="six" horiz-adv-x="1145" d="M871 1194Q786 1194 714 1165T584 1082T482 954T410 787Q443 809 486 827Q522 842 573 854T688 867Q776 867 844 843T959 772T1030 659T1054 510Q1054 391 1015 294T905 127T737 19T524 -20Q317 -20
210 96T102 433Q102 545 121 660T182 882T286 1084T436 1248T635 1358T885 1399Q951 1399 993 1390T1060 1365T1094 1328T1104 1283Q1104 1262 1097 1244T1078 1212T1048 1190T1010 1182Q996 1182 983 1184T954 1188T918 1192T871 1194ZM598 660Q547 660 506 647T434
616Q399 597 370 572Q366 540 365 508T363 444Q363 377 375 329T410 250T467 203T545 188Q593 188 636 207T711 262T761 352T780 474Q780 518 768 552T733 611T676 647T598 660Z" />
<glyph unicode="7" glyph-name="seven" horiz-adv-x="907" d="M233 1152Q191 1152 170 1175T148 1249Q148 1280 156 1304T180 1344T216 1369T263 1378H884Q916 1378 939 1371T976 1349T998 1315T1005 1271Q1005 1253 1003 1237T994 1202T977 1163T948 1114Q858
977 778 842T625 574T490 312T373 57Q357 21 330 6T264 -10Q239 -10 216 -2T176 19T149 52T138 94Q138 116 146 141T168 196Q209 297 263 411T383 647T522 896T678 1152H233Z" />
<glyph unicode="8" glyph-name="eight" horiz-adv-x="1108" d="M53 299Q53 374 77 433T144 542T246 631T374 708Q337 733 306 763T253 830T218 908T205 997Q205 1079 239 1152T337 1280T496 1367T709 1399Q804 1399 875 1376T994 1312T1066 1217T1090 1100Q1090
1032 1068 978T1008 880T917 798T803 727Q845 701 882 668T946 596T989 510T1005 413Q1005 321 971 242T870 104T703 13T471 -20Q366 -20 288 4T157 71T79 172T53 299ZM316 335Q316 300 328 271T363 221T422 189T504 177Q559 177 602 192T676 235T722 299T738 381Q738
417 724 448T686 506T626 556T549 602Q495 571 452 542T379 482T332 416T316 335ZM470 1024Q470 992 481 965T512 915T561 872T626 832Q674 859 711 885T775 938T814 997T828 1066Q828 1126 788 1163T669 1201Q624 1201 587 1188T524 1151T484 1095T470 1024Z"
/>
<glyph unicode="9" glyph-name="nine" horiz-adv-x="1145" d="M430 905Q430 861 442 827T477 768T534 732T612 719Q662 719 704 732T776 763Q811 782 840 807Q844 842 845 877T847 947Q846 1011 834 1057T798 1133T741 1177T664 1191Q616 1191 574 1172T499 1117T449
1027T430 905ZM156 869Q156 987 195 1085T305 1252T473 1360T686 1399Q893 1399 1000 1283T1108 946Q1108 834 1089 719T1028 497T924 295T773 131T575 21T325 -20Q236 -20 179 -4T95 37Q82 49 74 65T66 106Q66 127 72 144T91 175T120 196T158 204Q175 204 191
201T228 195T273 188T333 185Q427 185 502 217T634 304T733 433T800 591Q766 569 723 551Q686 536 635 524T521 512Q433 512 365 536T251 607T180 720T156 869Z" />
<glyph unicode=":" glyph-name="colon" horiz-adv-x="598" d="M65 143Q65 182 79 216T117 274T175 313T249 327Q285 327 315 316T366 283T399 231T411 165Q411 126 397 92T359 33T301 -6T228 -20Q192 -20 162 -8T111 25T77 77T65 143ZM169 751Q169 790 183 824T221
882T280 921T353 935Q389 935 419 924T470 891T504 839T516 773Q516 734 502 700T464 641T405 602T332 588Q296 588 266 600T215 633T181 685T169 751Z" />
<glyph unicode=";" glyph-name="semicolon" horiz-adv-x="598" d="M169 751Q169 790 183 824T221 882T280 921T353 935Q389 935 419 924T470 891T504 839T516 773Q516 734 502 700T464 641T405 602T332 588Q296 588 266 600T215 633T181 685T169 751ZM65 143Q65
182 79 216T117 274T175 313T248 327Q323 327 365 280T408 146Q408 93 391 39T347 -67T283 -166T207 -250Q178 -277 154 -295T107 -323T64 -338T23 -343Q-19 -343 -41 -322T-63 -268Q-63 -249 -55 -235T-32 -206T2 -175T42 -134T87 -77T132 4Q118 13 106 26T85
57T71 95T65 143Z" />
<glyph unicode="&lt;" glyph-name="less" horiz-adv-x="1167" d="M824 334Q853 312 863 291T874 244Q874 222 865 202T841 167T804 142T758 133Q737 133 718 140T676 163L267 474Q241 493 230 516T219 568Q219 605 238 635T305 694L830 1010Q848 1021 865 1025T900
1030Q921 1030 939 1022T970 1000T990 969T997 932Q997 904 983 881T938 838L506 578L824 334Z" />
<glyph unicode="=" glyph-name="equal" horiz-adv-x="1167" d="M968 883Q1057 883 1057 801Q1057 775 1049 754T1025 717T988 694T939 685H298Q209 685 209 767Q209 793 217 814T241 851T279 874T328 883H968ZM899 483Q944 483 966 462T989 401Q989 375 981 353T957
316T919 292T870 283H229Q184 283 163 304T142 365Q142 392 150 413T174 450T210 474T259 483H899Z" />
<glyph unicode="&gt;" glyph-name="greater" horiz-adv-x="1167" d="M368 836Q340 858 329 879T318 926Q318 947 327 967T351 1002T388 1027T434 1037Q456 1037 475 1030T516 1007L926 695Q952 675 962 653T973 601Q973 565 954 535T886 475L363 160Q345 149 328
144T292 139Q271 139 253 147T223 169T203 200T196 237Q196 266 209 289T254 331L686 592L368 836Z" />
<glyph unicode="?" glyph-name="question" horiz-adv-x="834" d="M233 567Q233 629 250 678T294 767T357 841T429 905T501 963T563 1021T608 1086T625 1161Q625 1219 588 1251T466 1284Q423 1284 394 1278T342 1266T303 1253T266 1247Q234 1247 214 1270T194 1328Q194
1349 201 1367T228 1406Q246 1424 276 1440T346 1468T435 1488T540 1495Q631 1495 699 1475T814 1417T884 1325T908 1202Q908 1136 891 1085T844 992T779 916T704 851T629 791T563 729T517 659T499 575Q499 558 500 547T501 528Q501 481 467 453T367 424Q301 424
267 459T233 567ZM148 135Q148 172 161 204T199 259T256 296T328 309Q364 309 393 298T444 266T478 216T490 153Q490 116 477 85T439 30T382 -7T310 -20Q274 -20 245 -9T194 23T160 72T148 135Z" />
<glyph unicode="@" glyph-name="at" horiz-adv-x="2089" d="M1416 462Q1405 421 1404 394T1410 349T1434 325T1474 317Q1505 317 1540 331T1610 374T1677 448T1733 553T1771 691T1786 862Q1786 962 1755 1041T1660 1176T1497 1262T1264 1292Q1129 1292 1009 1262T787
1177T605 1043T468 866T381 653T351 410Q351 281 386 182T489 15T659 -87T895 -122Q980 -122 1039 -113T1141 -91T1211 -70T1262 -60Q1300 -60 1321 -84T1342 -143Q1342 -166 1334 -186T1305 -226Q1285 -244 1247 -262T1153 -295T1025 -319T865 -328Q682 -328 541
-279T303 -139T157 85T107 383Q107 546 145 692T255 962T431 1185T667 1355T959 1462T1300 1500Q1480 1500 1616 1456T1845 1331T1983 1140T2030 896Q2030 786 2010 687T1952 501T1860 346T1740 227T1595 151T1429 124Q1373 124 1333 135T1266 165T1223 210T1200
266L1196 268Q1162 228 1117 196Q1079 169 1024 147T898 124Q831 124 776 146T681 211T619 316T597 459Q597 585 640 691T763 875T953 996T1197 1039Q1258 1039 1307 1033T1394 1016T1456 992T1494 967Q1518 944 1522 919T1517 853L1416 462ZM1267 812Q1256 819
1239 825Q1225 830 1202 834T1148 839Q1087 839 1034 815T940 746T877 638T853 497Q853 406 886 368T977 329Q999 329 1019 334T1057 347T1090 367T1119 389Q1150 415 1175 449L1267 812Z" />
<glyph unicode="A" glyph-name="A" horiz-adv-x="1267" d="M242 95Q228 68 221 53T201 25Q187 10 165 0T112 -10Q87 -10 63 -2T18 20T-14 55T-27 101Q-27 121 -20 140T2 186L520 1191Q532 1215 542 1234T563 1268T583 1297T608 1325Q636 1353 676 1368T778 1384Q832
1384 867 1373T926 1339Q951 1314 963 1277T984 1186L1157 168Q1162 139 1163 126T1165 105Q1165 80 1153 59T1120 23T1071 -1T1012 -10Q981 -10 957 -1T916 25Q899 42 894 65T883 118L850 324H354L242 95ZM822 537L762 931Q756 972 751 1007T743 1071Q739 1103
737 1131H733Q721 1103 707 1071Q695 1043 679 1008T642 931L452 537H822Z" />
<glyph unicode="B" glyph-name="B" horiz-adv-x="1221" d="M516 203Q599 203 660 221T762 271T821 346T841 440Q841 478 828 508T786 560T710 592T593 604H446L377 203H516ZM611 811Q683 811 737 827T826 873T879 942T897 1028Q897 1062 886 1089T850 1136T784
1165T684 1175H545L482 811H611ZM292 1261Q303 1321 335 1349T428 1378H724Q845 1378 931 1355T1072 1292T1152 1195T1178 1074Q1178 1007 1159 952T1103 854T1017 778T905 726V723Q956 713 996 691T1064 635T1107 560T1122 466Q1122 368 1083 283T964 135T762
36T474 0H199Q138 0 112 32T96 127L292 1261Z" />
<glyph unicode="C" glyph-name="C" horiz-adv-x="1165" d="M100 518Q100 651 127 768T205 983T325 1157T480 1287T664 1368T868 1396Q929 1396 979 1389T1068 1369T1134 1340T1178 1308Q1195 1290 1203 1270T1212 1224Q1212 1179 1185 1150T1112 1120Q1089 1120
1068 1128T1020 1147T953 1165T855 1174Q765 1174 681 1132T531 1010T426 815T386 553Q386 468 407 403T468 295T564 229T690 207Q750 207 792 216T865 235T919 255T963 264Q1001 264 1021 241T1042 181Q1042 153 1033 131T1004 88Q982 66 946 47T863 14T758 -9T635
-17Q509 -17 410 19T242 125T137 293T100 518Z" />
<glyph unicode="D" glyph-name="D" horiz-adv-x="1391" d="M292 1261Q303 1321 335 1349T428 1378H764Q911 1378 1021 1342T1206 1237T1317 1069T1354 846Q1354 656 1293 500T1120 233T852 61T503 0H199Q138 0 112 32T96 127L292 1261ZM547 215Q662 215 758 255T923
371T1031 560T1070 816Q1070 990 983 1076T716 1163H548L384 215H547Z" />
<glyph unicode="E" glyph-name="E" horiz-adv-x="1065" d="M385 217H837Q879 217 900 194T921 124Q921 95 913 72T890 33T855 9T811 0H199Q147 0 120 24T93 93Q93 104 94 113T97 134L292 1261Q303 1321 335 1349T428 1378H1035Q1076 1378 1097 1356T1118 1286Q1118
1257 1110 1234T1087 1194T1052 1170T1008 1161H548L487 810H871Q911 810 932 788T953 719Q953 690 945 668T923 629T888 605T845 597H450L385 217Z" />
<glyph unicode="F" glyph-name="F" horiz-adv-x="1008" d="M367 116Q357 56 321 25T215 -7Q92 -7 92 88Q92 98 93 110T98 139L292 1261Q303 1321 335 1349T428 1378H1025Q1066 1378 1087 1356T1108 1286Q1108 1257 1100 1234T1077 1194T1042 1170T998 1161H548L483
785H845Q885 785 906 763T927 693Q927 664 919 641T897 603T862 579T819 570H445L367 116Z" />
<glyph unicode="G" glyph-name="G" horiz-adv-x="1372" d="M814 544Q775 544 754 566T733 633Q733 661 741 683T763 721T796 745T839 753H1168Q1226 753 1251 723T1266 633L1195 228Q1189 190 1176 162T1140 111Q1119 90 1079 67T983 25T854 -7T696 -20Q551 -20
440 18T254 127T141 300T102 531Q102 659 130 772T212 982T342 1155T515 1285T724 1367T965 1396Q1031 1396 1086 1388T1186 1365T1263 1333T1315 1296Q1333 1278 1341 1258T1349 1212Q1349 1167 1322 1138T1249 1109Q1225 1109 1202 1119T1145 1141T1059 1164T929
1174Q815 1174 716 1131T544 1009T429 818T387 567Q387 382 480 288T752 193Q798 193 832 198T890 209Q917 216 937 225L992 544H814Z" />
<glyph unicode="H" glyph-name="H" horiz-adv-x="1413" d="M367 116Q357 56 321 25T215 -7Q92 -7 92 88Q92 98 93 110T98 139L293 1262Q303 1322 339 1353T445 1385Q514 1385 545 1354T565 1262L488 815H1032L1109 1262Q1119 1322 1155 1353T1261 1385Q1384 1385
1384 1290Q1384 1280 1383 1268T1378 1239L1183 116Q1173 56 1137 25T1031 -7Q962 -7 931 24T910 116L992 590H449L367 116Z" />
<glyph unicode="I" glyph-name="I" horiz-adv-x="598" d="M293 1263Q303 1323 339 1354T445 1385Q568 1385 568 1290Q568 1280 566 1268T561 1239L367 116Q357 56 321 25T215 -7Q92 -7 92 88Q92 98 93 110T98 139L293 1263Z" />
<glyph unicode="J" glyph-name="J" horiz-adv-x="604" d="M301 1263Q311 1323 347 1354T453 1385Q576 1385 576 1290Q576 1280 574 1268T569 1239L378 133Q365 56 348 -2T308 -104T260 -184T204 -249Q173 -280 138 -305T65 -347T-10 -374T-84 -384Q-141 -384 -170
-358T-200 -289Q-200 -253 -183 -230T-127 -189Q-81 -167 -44 -141T23 -77T73 11T106 135L301 1263Z" />
<glyph unicode="K" glyph-name="K" horiz-adv-x="1195" d="M1016 1321Q1024 1329 1029 1335T1039 1345T1047 1352T1055 1359Q1071 1372 1089 1380T1129 1388Q1157 1388 1182 1377T1228 1348T1260 1305T1272 1255Q1272 1238 1267 1224T1253 1198T1235 1175T1215
1155L754 713L1064 227Q1081 201 1091 178T1101 128Q1101 99 1088 74T1053 30T1003 1T946 -10Q915 -10 892 0T853 27Q841 40 831 55T807 94L465 676L367 116Q357 56 321 25T215 -7Q92 -7 92 88Q92 98 93 110T98 139L293 1263Q303 1323 339 1354T445 1385Q514 1385
545 1354T565 1262L479 760L1016 1321Z" />
<glyph unicode="L" glyph-name="L" horiz-adv-x="987" d="M816 224Q858 224 880 201T903 128Q903 98 895 74T871 34T835 9T790 0H199Q147 0 120 24T93 93Q93 104 94 113T97 134L293 1263Q303 1323 339 1354T445 1385Q514 1385 545 1354T565 1262L386 224H816Z" />
<glyph unicode="M" glyph-name="M" horiz-adv-x="1836" d="M346 1214Q358 1258 377 1290T424 1344T490 1375T581 1385Q630 1385 664 1374T720 1343T753 1292T770 1222L863 474Q868 437 870 403T875 342Q877 311 878 284H881Q892 311 904 342Q915 368 929 402T960
473L1311 1220Q1330 1261 1351 1292T1400 1343T1464 1374T1548 1385Q1603 1385 1639 1373T1699 1338Q1735 1302 1735 1234Q1735 1229 1735 1225T1735 1214T1734 1197T1732 1169L1660 128Q1659 111 1658 97T1653 71T1645 49T1629 28Q1612 11 1583 1T1521 -10Q1462
-10 1425 15T1387 90Q1387 102 1387 114T1390 142L1457 889Q1461 930 1466 967T1476 1034Q1481 1068 1487 1098H1483L1060 190Q1037 139 1018 103T976 44Q965 33 952 24T921 7T882 -3T832 -7Q790 -7 761 3T712 34Q691 55 682 93T665 191L556 1099H552Q546 1069
539 1036Q533 1007 525 970T506 890L310 116Q301 81 294 61T273 27Q257 11 233 1T173 -9Q114 -9 77 17T39 89Q39 100 41 110T49 141L346 1214Z" />
<glyph unicode="N" glyph-name="N" horiz-adv-x="1477" d="M282 1209Q290 1255 306 1288T346 1343T406 1375T488 1385Q537 1385 569 1374T625 1338Q650 1313 669 1272T714 1171L988 534Q1004 496 1017 460T1040 394Q1051 361 1060 330L1065 332Q1066 367 1069
407Q1071 441 1075 484T1088 576L1196 1272Q1204 1327 1237 1356T1334 1385Q1388 1385 1418 1361T1449 1290Q1449 1279 1448 1268T1443 1239L1259 169Q1251 123 1235 90T1195 35T1135 3T1053 -7Q1003 -7 972 4T916 40Q891 65 872 106T827 207L553 844Q537 882 524
918T501 984Q490 1017 481 1048L476 1046Q474 1011 471 971Q468 937 464 893T453 802L345 106Q337 51 304 22T207 -7Q153 -7 123 17T92 88Q92 98 93 110T98 139L282 1209Z" />
<glyph unicode="O" glyph-name="O" horiz-adv-x="1479" d="M104 520Q104 654 131 771T209 987T330 1161T488 1291T675 1371T887 1399Q1016 1399 1118 1361T1291 1253T1400 1083T1438 858Q1438 724 1411 607T1333 392T1212 218T1054 88T866 8T655 -20Q526 -20 424
17T251 125T142 295T104 520ZM388 552Q388 466 410 401T471 291T566 224T690 201Q778 201 861 243T1010 365T1114 561T1154 827Q1154 913 1132 978T1071 1088T975 1154T852 1177Q764 1177 681 1135T532 1013T428 817T388 552Z" />
<glyph unicode="P" glyph-name="P" horiz-adv-x="1145" d="M431 495Q414 400 399 306T366 116Q355 56 319 25T213 -7Q144 -7 114 24T94 116L292 1261Q303 1321 335 1349T428 1378H715Q830 1378 915 1351T1056 1276T1139 1162T1167 1016Q1167 901 1127 806T1008
641T816 534T553 495H431ZM594 705Q661 705 715 725T807 783T865 871T886 985Q886 1029 874 1062T836 1119T770 1153T673 1165H547L467 705H594Z" />
<glyph unicode="Q" glyph-name="Q" horiz-adv-x="1479" d="M104 520Q104 654 131 771T209 987T330 1161T488 1291T675 1371T887 1399Q1016 1399 1118 1361T1291 1253T1400 1083T1438 858Q1438 689 1395 546T1273 292T1085 107T842 2Q870 -51 911 -88T1005 -152T1118
-193T1245 -216Q1293 -221 1314 -244T1336 -306Q1336 -334 1324 -358T1287 -401T1224 -429T1135 -440Q1056 -440 974 -415T820 -337T691 -205T609 -18Q493 -12 400 27T241 135T140 302T104 520ZM388 552Q388 465 410 399T471 288T566 221T690 198Q778 198 861 240T1010
362T1114 559T1154 827Q1154 913 1132 978T1071 1088T975 1154T852 1177Q764 1177 681 1135T532 1013T428 817T388 552Z" />
<glyph unicode="R" glyph-name="R" horiz-adv-x="1203" d="M363 116Q352 56 317 25T212 -7Q144 -7 114 24T94 116L292 1261Q303 1321 335 1349T428 1378H720Q843 1378 932 1353T1080 1283T1167 1174T1195 1035Q1195 950 1169 880T1097 755T986 661T845 598L1029
202Q1039 180 1045 162T1051 122Q1051 94 1038 70T1004 28T956 0T899 -10Q870 -10 847 0T808 26Q792 42 783 61T765 100L579 554H439L363 116ZM608 766Q683 766 739 784T834 834T892 908T912 1001Q912 1039 900 1069T860 1121T788 1154T680 1166H544L475 766H608Z"
/>
<glyph unicode="S" glyph-name="S" horiz-adv-x="1081" d="M184 974Q184 1064 218 1141T318 1275T484 1364T712 1397Q768 1397 814 1391T898 1373T962 1347T1006 1315Q1024 1297 1031 1278T1039 1234Q1039 1189 1012 1160T940 1131Q917 1131 896 1139T848 1156T782
1173T685 1181Q625 1181 584 1169T516 1136T477 1084T465 1018Q465 978 487 948T545 891T626 842T720 791T813 732T895 658T953 559T975 429Q975 331 940 249T836 108T663 16T422 -18Q352 -18 297 -10T199 11T129 41T83 75Q65 93 58 112T50 156Q50 201 77 230T149
259Q173 259 196 250T251 229T329 209T447 199Q511 199 558 212T635 250T679 309T694 384Q694 426 672 458T614 517T533 568T439 619T346 677T264 751T206 847T184 974Z" />
<glyph unicode="T" glyph-name="T" horiz-adv-x="1120" d="M236 1154Q194 1154 172 1177T149 1250Q149 1280 157 1303T181 1343T217 1369T262 1378H1149Q1191 1378 1213 1355T1235 1282Q1235 1252 1227 1228T1203 1188T1168 1163T1123 1154H809L629 116Q619 56
583 25T477 -7Q408 -7 377 24T356 116L536 1154H236Z" />
<glyph unicode="U" glyph-name="U" horiz-adv-x="1397" d="M281 1262Q292 1322 328 1353T434 1385Q503 1385 534 1354T554 1262L446 637Q440 605 436 579T428 529T424 485T422 443Q422 379 439 334T486 259T557 217T647 203Q706 203 760 223T858 286T934 392T981
546L1104 1262Q1115 1322 1151 1353T1257 1385Q1326 1385 1357 1354T1377 1262L1254 551Q1229 406 1175 299T1039 121T851 15T611 -20Q499 -20 413 7T267 87T177 220T146 405Q146 457 154 515T174 645L281 1262Z" />
<glyph unicode="V" glyph-name="V" horiz-adv-x="1217" d="M172 1202Q167 1230 166 1244T165 1270Q165 1296 177 1317T209 1355T256 1379T312 1388Q343 1388 366 1379T404 1356Q411 1348 416 1340T426 1318T433 1287T440 1243L546 468Q551 430 554 394T560 329Q562
296 563 266H567Q578 295 591 328Q602 357 617 393T652 468L1021 1253Q1033 1278 1041 1295T1055 1323T1066 1343T1078 1357Q1094 1373 1115 1380T1160 1388Q1187 1388 1212 1380T1258 1355T1291 1318T1304 1271Q1304 1260 1302 1251T1296 1231T1286 1207T1270
1174L775 187Q753 144 735 111T688 49Q662 23 623 8T524 -7Q474 -7 440 4T382 39Q358 63 347 97T328 178L172 1202Z" />
<glyph unicode="W" glyph-name="W" horiz-adv-x="1919" d="M190 1213Q188 1243 188 1254T187 1274Q187 1300 198 1321T230 1357T276 1380T331 1388Q363 1388 389 1379T431 1353Q441 1343 446 1332T455 1307T459 1275T462 1233L508 467Q510 426 510 391T511 327Q510
294 509 267H513Q521 293 532 326Q541 353 554 389T584 468L899 1234Q916 1276 936 1305T982 1353T1038 1380T1107 1388Q1183 1388 1227 1353T1276 1233L1325 470Q1327 430 1328 394T1329 328Q1329 295 1328 265H1332Q1341 296 1352 329Q1362 358 1375 394T1403
468L1716 1260Q1724 1281 1730 1296T1742 1323T1753 1342T1766 1357Q1781 1372 1802 1380T1850 1388Q1872 1388 1897 1381T1942 1360T1976 1325T1990 1277Q1990 1269 1989 1261T1985 1243T1977 1219T1963 1186L1548 203Q1536 175 1526 153T1507 111T1487 77T1463
49Q1450 36 1435 26T1400 9T1355 -3T1299 -7Q1251 -7 1217 4T1158 40Q1144 53 1136 69T1124 106T1117 152T1112 207L1065 907Q1063 941 1062 975T1061 1038Q1061 1071 1062 1100H1058Q1050 1070 1039 1037Q1030 1009 1018 975T991 906L701 202Q689 173 680 151T660
110T640 76T617 48Q591 22 553 8T454 -7Q403 -7 370 4T313 39Q300 52 292 67T278 103T270 148T265 206L190 1213Z" />
<glyph unicode="X" glyph-name="X" horiz-adv-x="1207" d="M219 1141Q211 1154 205 1166T193 1190T184 1214T181 1240Q181 1271 195 1298T233 1345T285 1376T343 1388Q369 1388 388 1380T422 1357Q433 1346 442 1333T462 1299L673 898L1014 1333Q1037 1362 1061
1375T1114 1388Q1141 1388 1167 1377T1212 1348T1244 1306T1256 1257Q1256 1240 1251 1226T1238 1199T1221 1176T1203 1155L804 700L1070 233Q1078 218 1085 206T1098 181T1107 157T1110 131Q1110 101 1096 75T1058 31T1006 1T949 -10Q920 -10 899 -1T864 23Q853
34 844 48T825 81L599 511L236 46Q213 17 189 4T137 -9Q110 -9 84 1T38 30T6 71T-6 121Q-6 138 -1 152T12 179T29 202T47 223L468 707L219 1141Z" />
<glyph unicode="Y" glyph-name="Y" horiz-adv-x="1127" d="M166 1167Q153 1197 148 1215T142 1254Q142 1282 155 1306T190 1349T240 1377T300 1388Q327 1388 349 1379T385 1356Q399 1342 408 1324T429 1273L572 893Q579 873 585 854T596 820Q601 802 605 786H609Q619
803 630 821Q640 837 652 857T679 897L963 1303Q976 1321 985 1333T1005 1356Q1019 1370 1040 1379T1086 1388Q1113 1388 1138 1378T1182 1351T1214 1312T1226 1264Q1226 1250 1223 1238T1214 1215T1201 1194T1186 1174L701 535L629 116Q618 56 582 25T476 -7Q407
-7 376 24T356 116L428 537L166 1167Z" />
<glyph unicode="Z" glyph-name="Z" horiz-adv-x="1059" d="M308 1154Q266 1154 244 1177T222 1250Q222 1280 230 1303T254 1343T289 1369T334 1378H961Q995 1378 1021 1369T1066 1342T1093 1302T1103 1249Q1103 1227 1099 1208T1086 1170T1062 1128T1026 1079L368
224H848Q890 224 912 201T934 128Q934 98 926 74T902 34T866 9T821 0H153Q118 0 92 9T47 36T20 76T11 129Q11 151 15 169T28 207T52 249T88 299L745 1154H308Z" />
<glyph unicode="[" glyph-name="bracketleft" horiz-adv-x="662" d="M407 -160Q443 -160 462 -180T482 -242Q482 -269 475 -290T454 -325T422 -348T382 -356H110Q66 -356 44 -336T21 -276Q21 -268 21 -260T24 -243L314 1428Q322 1478 349 1501T425 1524H698Q734
1524 753 1504T773 1441Q773 1414 766 1393T745 1358T713 1335T673 1327H539L282 -160H407Z" />
<glyph unicode="\" glyph-name="backslash" horiz-adv-x="864" d="M218 1340Q214 1359 213 1368T212 1385Q212 1410 224 1430T254 1463T296 1484T341 1491Q386 1491 410 1470T442 1410L735 -176Q738 -194 739 -203T741 -220Q741 -246 729 -266T698 -299T656 -320T611
-327Q566 -327 542 -306T510 -246L218 1340Z" />
<glyph unicode="]" glyph-name="bracketright" horiz-adv-x="662" d="M406 1327H281Q245 1327 226 1347T206 1409Q206 1436 213 1457T234 1493T266 1516T305 1524H578Q622 1524 644 1503T667 1443Q667 1435 667 1428T664 1411L374 -260Q366 -311 339 -333T263
-356H-10Q-46 -356 -65 -336T-85 -274Q-85 -247 -78 -226T-57 -191T-25 -168T14 -160H149L406 1327Z" />
<glyph unicode="^" glyph-name="asciicircum" horiz-adv-x="1167" d="M387 750Q365 724 342 713T294 702Q274 702 257 708T226 727T204 755T196 791Q196 808 201 825T221 863L578 1316Q596 1338 612 1354T645 1380T679 1394T715 1399Q756 1399 785 1381T834 1316L1038
847Q1043 833 1045 823T1048 800Q1048 778 1039 759T1014 727T978 706T937 698Q905 698 881 713T839 764L681 1124L387 750Z" />
<glyph unicode="_" glyph-name="underscore" horiz-adv-x="1167" d="M-83 -512Q-121 -512 -141 -492T-162 -429Q-162 -401 -155 -378T-133 -338T-100 -313T-58 -304H932Q970 -304 990 -324T1011 -387Q1011 -416 1003 -439T982 -478T949 -503T907 -512H-83Z" />
<glyph unicode="`" glyph-name="grave" horiz-adv-x="1024" d="M495 1361Q484 1372 474 1386T464 1420Q464 1442 475 1464T506 1505T548 1534T595 1545Q616 1545 631 1537T658 1511L811 1276Q820 1264 824 1253T829 1228Q829 1210 821 1194T800 1166T770 1147T734
1139Q716 1139 704 1145T677 1165L495 1361Z" />
<glyph unicode="a" glyph-name="a" horiz-adv-x="1171" d="M1003 369Q995 326 990 293T982 233T977 188T975 152Q975 134 976 122T977 94Q977 48 948 20T863 -9Q830 -9 806 2T766 33T743 81T735 143H732Q700 97 653 62Q633 47 608 32T553 6T488 -12T413 -19Q336
-19 273 6T165 81T95 205T70 375Q70 531 115 654T245 862T448 992T717 1037Q795 1037 853 1028T953 1007T1019 980T1057 953Q1065 945 1072 935T1083 911T1087 879T1084 835L1003 369ZM810 795Q796 804 776 811Q759 817 733 822T672 828Q605 828 546 802T442 722T372
591T346 409Q346 353 357 313T388 248T436 210T498 198Q524 198 548 205T594 223T634 250T669 280Q706 316 735 363L810 795Z" />
<glyph unicode="b" glyph-name="b" horiz-adv-x="1171" d="M291 1362Q301 1421 337 1451T441 1482Q509 1482 539 1452T558 1362L507 1064Q499 1023 491 986T469 906H472Q502 942 544 971Q562 983 584 994T633 1015T691 1030T758 1036Q835 1036 898 1011T1007 936T1076
812T1101 642Q1101 486 1056 363T926 155T723 25T455 -20Q380 -20 322 -11T221 10T153 37T114 64Q106 72 99 82T89 106T85 138T88 182L291 1362ZM361 222Q375 212 395 205Q412 198 438 193T499 188Q566 188 625 214T729 294T799 425T825 608Q825 664 814 704T783
769T735 807T673 819Q646 819 622 812T577 793T537 766T502 736Q465 700 436 654L361 222Z" />
<glyph unicode="c" glyph-name="c" horiz-adv-x="922" d="M67 394Q67 537 113 655T240 858T430 989T668 1036Q748 1036 804 1017T889 968Q906 951 913 932T921 891Q921 869 914 851T894 820T864 800T826 792Q807 792 791 797T757 810T714 822T653 828Q595 828
540 801T441 722T372 597T346 432Q346 312 401 253T554 193Q592 193 619 198T668 211T705 223T738 229Q773 229 793 207T813 150Q813 124 805 104T777 63Q744 30 673 5T494 -20Q394 -20 315 9T181 92T97 222T67 394Z" />
<glyph unicode="d" glyph-name="d" horiz-adv-x="1171" d="M908 1362Q919 1421 954 1451T1058 1482Q1126 1482 1155 1452T1175 1362L1003 369Q995 326 990 293T982 233T977 188T975 152Q975 134 976 122T977 94Q977 48 948 20T863 -9Q830 -9 806 2T766 33T743
81T735 143H732Q700 97 653 62Q633 47 608 32T553 6T488 -12T413 -19Q336 -19 273 6T165 81T95 205T70 375Q70 531 115 654T245 862T448 992T717 1037Q746 1037 770 1035T812 1029Q832 1025 849 1021L852 1022Q855 1048 859 1074T868 1130L908 1362ZM810 795Q796
804 776 811Q759 817 733 822T672 828Q605 828 546 802T442 722T372 591T346 409Q346 353 357 313T388 248T436 210T499 198Q525 198 549 205T594 223T634 250T669 280Q705 316 735 363L810 795Z" />
<glyph unicode="e" glyph-name="e" horiz-adv-x="1059" d="M67 393Q67 540 111 659T235 862T422 991T658 1037Q745 1037 811 1017T920 960T986 873T1008 765Q1008 676 969 607T847 492T638 422T337 400Q338 351 353 312T398 246T471 205T573 190Q625 190 662 197T726
212T773 227T813 234Q849 234 869 212T889 158Q889 130 881 109T855 71Q837 53 806 37T733 8T639 -12T525 -20Q412 -20 327 9T184 93T97 224T67 393ZM353 580Q457 577 532 586T655 617T726 669T749 742Q749 789 719 816T626 844Q581 844 540 828T462 779T398 697T353
580Z" />
<glyph unicode="f" glyph-name="f" horiz-adv-x="692" d="M172 814Q134 814 114 835T93 900Q93 927 101 949T122 986T155 1009T197 1017H277L296 1125Q312 1220 348 1289T437 1404T557 1471T702 1493Q775 1493 817 1478T880 1442Q894 1428 902 1410T911 1369Q911
1346 904 1328T885 1296T855 1276T819 1269Q806 1269 795 1271T772 1277T745 1283T708 1286Q647 1286 609 1242T556 1103L543 1017H670Q708 1017 728 996T749 931Q749 904 741 882T720 845T687 822T645 814H509L348 -112Q329 -219 290 -291T197 -408T78 -471T-59
-490Q-132 -490 -174 -475T-237 -439Q-251 -425 -259 -407T-268 -366Q-268 -343 -261 -325T-242 -294T-213 -275T-176 -268Q-163 -268 -153 -270T-131 -275T-105 -280T-72 -283Q-44 -283 -20 -274T25 -242T60 -183T85 -93L242 814H172Z" />
<glyph unicode="g" glyph-name="g" horiz-adv-x="1171" d="M943 21Q919 -117 871 -214T749 -373T577 -463T355 -492Q237 -492 158 -471T44 -414Q28 -398 20 -379T12 -335Q12 -314 19 -296T38 -265T67 -245T105 -237Q126 -237 149 -244T202 -260T270 -276T359 -283Q428
-283 480 -267T571 -217T634 -132T673 -8Q677 9 680 23T686 51T693 79T702 111H699Q669 74 627 46Q591 21 538 1T413 -19Q336 -19 273 6T165 81T95 205T70 375Q70 531 115 654T245 862T448 992T717 1037Q793 1037 851 1028T951 1007T1019 980T1057 953Q1065 945
1072 935T1083 911T1087 879T1084 835L943 21ZM810 795Q796 804 776 811Q759 817 734 822T673 828Q605 828 546 802T442 722T372 591T346 409Q346 353 357 313T388 248T436 210T498 198Q524 198 548 205T594 223T634 250T669 280Q706 316 735 363L810 795Z" />
<glyph unicode="h" glyph-name="h" horiz-adv-x="1200" d="M292 1362Q302 1421 337 1451T442 1482Q509 1482 539 1452T559 1362L507 1064Q499 1023 491 986T470 906H472Q502 942 546 971Q565 983 588 994T640 1015T701 1030T772 1036Q848 1036 908 1015T1009 953T1072
853T1094 715Q1094 678 1088 631T1073 531T1052 426T1032 322T1016 228T1010 152Q1010 134 1011 122T1012 94Q1012 47 981 20T888 -7Q817 -7 780 30T742 136Q742 167 748 210T763 303T782 405T801 507T816 599T822 673Q822 748 786 783T680 819Q652 819 627 812T580
793T538 766T503 736Q466 700 437 654L343 113Q333 54 297 24T193 -7Q125 -7 96 23T76 113L292 1362Z" />
<glyph unicode="i" glyph-name="i" horiz-adv-x="554" d="M213 904Q223 963 258 993T362 1024Q430 1024 459 994T479 904L342 113Q332 54 297 24T193 -7Q125 -7 96 23T76 113L213 904ZM255 1312Q255 1346 267 1375T302 1426T356 1460T425 1473Q460 1473 488 1462T537
1432T569 1385T580 1326Q580 1292 568 1263T533 1212T479 1178T410 1165Q375 1165 347 1176T298 1206T266 1253T255 1312Z" />
<glyph unicode="j" glyph-name="j" horiz-adv-x="557" d="M216 904Q226 963 261 993T365 1024Q433 1024 462 994T482 904L329 18Q315 -61 298 -120T260 -225T214 -304T161 -366Q107 -420 39 -453T-101 -486Q-161 -486 -191 -459T-222 -388Q-222 -356 -207 -334T-160
-294Q-112 -270 -75 -243T-11 -179T34 -89T66 37L216 904ZM258 1312Q258 1346 270 1375T305 1426T359 1460T428 1473Q463 1473 491 1462T540 1432T572 1385T583 1326Q583 1292 571 1263T536 1212T482 1178T413 1165Q378 1165 350 1176T301 1206T269 1253T258 1312Z"
/>
<glyph unicode="k" glyph-name="k" horiz-adv-x="1123" d="M291 1362Q301 1421 336 1451T441 1482Q508 1482 538 1452T558 1362L506 1064Q498 1023 490 986T469 906H471Q502 942 548 971Q567 983 592 994T647 1015T712 1030T788 1036Q855 1036 907 1018T994 968T1048
892T1067 793Q1067 729 1047 676T989 580T897 505T772 451L947 212Q954 202 961 191T973 169T982 145T985 118Q985 90 972 67T939 26T892 0T840 -10Q811 -10 790 -1T753 26Q742 38 732 51T705 90L534 342Q507 381 494 413T480 475Q480 509 499 535T561 567Q674
583 735 623T797 736Q797 777 772 800T693 824Q663 824 637 817T587 797T543 770T506 739Q466 701 436 654L342 113Q336 80 325 57T296 20T252 -1T191 -8Q122 -8 94 24T77 121L291 1362Z" />
<glyph unicode="l" glyph-name="l" horiz-adv-x="600" d="M288 1362Q298 1421 334 1451T438 1482Q498 1482 527 1459T557 1390Q557 1379 556 1367T550 1334L376 322Q369 284 369 261T376 224T394 205T419 200Q434 200 444 202T465 204Q494 204 509 183T524 129Q524
100 516 80T490 42Q481 33 467 24T431 7T382 -6T317 -11Q208 -11 152 42T96 205Q96 229 99 255T108 317L288 1362Z" />
<glyph unicode="m" glyph-name="m" horiz-adv-x="1825" d="M216 924Q225 976 254 1001T335 1027Q386 1027 414 999T442 919Q442 911 441 904T439 889Q438 881 437 874H441Q473 919 520 955Q540 970 565 984T620 1010T687 1029T764 1036Q821 1036 867 1024T950
988T1011 933T1052 861Q1090 909 1143 948Q1165 964 1193 980T1253 1008T1324 1028T1404 1036Q1477 1036 1535 1015T1634 954T1695 853T1717 715Q1717 678 1711 631T1696 531T1676 426T1656 322T1640 228T1634 152Q1634 134 1635 122T1636 94Q1636 47 1605 20T1512
-7Q1441 -7 1404 30T1366 136Q1366 167 1372 210T1387 303T1406 405T1425 507T1440 599T1446 673Q1446 748 1411 783T1312 819Q1285 819 1261 812T1214 792T1174 765T1139 734Q1102 696 1073 649Q1071 638 1069 620T1062 574L982 113Q972 56 936 25T831 -7Q763
-7 735 24T716 113L798 588Q802 611 804 632T806 673Q806 748 771 783T672 819Q646 819 622 812T576 793T535 766T501 736Q464 699 436 653L342 113Q332 54 297 24T193 -7Q125 -7 96 23T76 113L216 924Z" />
<glyph unicode="n" glyph-name="n" horiz-adv-x="1200" d="M216 924Q225 976 254 1001T335 1027Q386 1027 414 999T442 919Q442 911 441 904T439 889Q438 881 437 874H441Q473 919 521 955Q541 970 567 984T624 1010T692 1029T772 1036Q848 1036 907 1015T1008
953T1071 853T1093 715Q1093 678 1087 631T1072 531T1052 426T1032 322T1016 228T1010 152Q1010 134 1011 122T1012 94Q1012 47 981 20T888 -7Q817 -7 780 30T742 136Q742 167 748 210T763 303T782 405T801 507T816 599T822 673Q822 748 786 783T680 819Q652 819
627 812T579 793T537 766T502 736Q464 699 436 653L342 113Q332 54 297 24T193 -7Q125 -7 96 23T76 113L216 924Z" />
<glyph unicode="o" glyph-name="o" horiz-adv-x="1180" d="M70 389Q70 537 115 657T240 861T432 991T677 1037Q777 1037 857 1008T993 926T1079 797T1109 628Q1109 480 1064 360T939 156T747 26T502 -20Q402 -20 322 9T186 91T100 220T70 389ZM346 418Q346 361
360 318T399 247T460 204T539 189Q597 189 650 216T744 295T809 423T834 599Q834 656 820 699T781 770T720 813T641 828Q583 828 530 801T436 722T371 594T346 418Z" />
<glyph unicode="p" glyph-name="p" horiz-adv-x="1171" d="M216 924Q225 976 254 1001T335 1027Q386 1027 414 999T442 919Q442 911 441 904T439 889Q438 881 437 874H441Q473 919 520 955Q540 970 564 984T619 1010T683 1029T758 1036Q835 1036 898 1011T1007
936T1076 812T1101 642Q1101 486 1056 363T926 155T723 25T455 -20Q425 -20 401 -18T359 -12Q339 -8 323 -4Q322 -4 322 -4T320 -5Q316 -31 313 -57T304 -113L261 -358Q250 -417 215 -447T111 -478Q43 -478 14 -448T-6 -358L216 924ZM361 220Q375 210 395 203Q412
197 438 192T499 187Q566 187 625 213T729 293T799 425T825 608Q825 664 814 704T783 769T735 807T672 819Q646 819 622 812T576 793T535 766T501 736Q464 700 436 654L361 220Z" />
<glyph unicode="q" glyph-name="q" horiz-adv-x="1169" d="M665 -47Q672 -8 680 30T702 111H699Q669 74 627 46Q591 21 538 1T413 -19Q336 -19 273 6T165 81T95 205T70 375Q70 531 115 654T245 862T448 992T717 1037Q793 1037 851 1028T951 1007T1019 980T1057
953Q1065 945 1072 935T1083 911T1087 879T1084 835L877 -358Q867 -417 832 -447T728 -478Q661 -478 631 -448T611 -358L665 -47ZM810 795Q796 804 776 811Q759 817 733 822T672 828Q605 828 546 802T442 722T372 591T346 409Q346 353 357 313T388 248T436 210T498
198Q524 198 548 205T594 223T634 250T669 280Q706 316 735 363L810 795Z" />
<glyph unicode="r" glyph-name="r" horiz-adv-x="748" d="M216 924Q225 976 254 1001T335 1027Q386 1027 414 999T442 919Q442 909 441 898T438 877Q436 866 435 854H438Q463 895 494 928T559 986T630 1023T702 1037Q757 1037 785 1010T813 925Q813 893 804 862T779
806T742 766T697 751Q683 751 673 753T654 758T637 763T616 766Q593 766 568 754T518 721T471 675T431 622L342 113Q332 54 297 24T193 -7Q132 -7 103 16T74 85Q74 96 75 108T81 141L216 924Z" />
<glyph unicode="s" glyph-name="s" horiz-adv-x="893" d="M128 709Q128 779 154 839T233 943T365 1011T552 1036Q649 1036 710 1016T800 968Q817 951 824 933T832 892Q832 853 807 828T740 803Q720 803 702 809T662 822T609 836T535 843Q461 843 429 816T397 745Q397
708 426 683T498 637T592 592T686 534T758 449T787 323Q787 251 759 189T677 80T540 8T350 -19Q290 -19 243 -12T161 6T101 30T63 58Q46 75 39 93T31 134Q31 172 56 197T123 223Q144 223 164 216T212 199T277 183T368 175Q407 175 435 183T481 207T509 242T518
287Q518 316 501 337T457 377T395 411T323 445T251 487T189 540T145 612T128 709Z" />
<glyph unicode="t" glyph-name="t" horiz-adv-x="748" d="M168 814Q130 814 110 835T89 900Q89 927 97 949T119 986T152 1009T194 1017H283L341 1188Q351 1214 364 1234T393 1268T431 1289T479 1297Q531 1297 554 1268T569 1186L540 1017H700Q738 1017 758 996T779
931Q779 904 771 882T749 845T716 822T674 814H506L421 323Q410 258 429 230T494 202Q511 202 523 203T546 207T565 211T583 213Q615 213 633 193T651 140Q651 112 643 91T615 50Q587 23 533 6T403 -11Q253 -11 189 69T152 309L239 814H168Z" />
<glyph unicode="u" glyph-name="u" horiz-adv-x="1196" d="M205 904Q215 963 250 993T354 1024Q422 1024 451 994T471 904L389 429Q384 403 382 384T380 344Q380 269 416 234T518 198Q546 198 571 205T618 223T660 250T695 281Q732 317 761 364L855 904Q866 963
901 993T1005 1024Q1073 1024 1102 994T1122 904L1029 369Q1022 326 1017 293T1009 233T1004 188T1002 152Q1002 134 1003 122T1004 94Q1004 48 974 20T890 -9Q823 -9 792 32T761 143H757Q724 97 676 62Q655 47 630 32T573 6T505 -12T426 -19Q351 -19 293 2T193
64T131 164T109 302Q109 328 112 359T121 423L205 904Z" />
<glyph unicode="v" glyph-name="v" horiz-adv-x="1034" d="M466 251Q506 317 547 388T630 540T709 715T782 919Q790 945 797 963T820 997Q834 1011 856 1019T904 1028Q929 1028 953 1021T996 1001T1026 968T1038 924Q1038 913 1036 899T1025 862Q998 775 961 688T882
517T797 359T714 224T641 119T587 55Q574 42 558 31T522 11T475 -2T416 -7Q366 -7 333 3T279 33T246 83T228 155Q202 337 170 515T99 863Q96 878 94 892T91 915Q91 942 104 963T138 998T185 1020T238 1028Q268 1028 291 1020T330 996Q344 982 350 965T361 922Q377
841 392 757T420 588T443 417T462 251H466Z" />
<glyph unicode="w" glyph-name="w" horiz-adv-x="1640" d="M439 241Q471 314 499 380T558 519T625 680T708 881Q715 898 721 912T733 938T746 960T763 979Q783 999 816 1013T900 1027Q941 1027 971 1017T1021 986Q1042 965 1048 938T1060 869Q1071 763 1079 680T1093
525T1102 384T1109 241H1112Q1149 312 1184 389T1251 551T1314 728T1373 922Q1379 945 1386 963T1408 996Q1422 1011 1443 1019T1493 1028Q1519 1028 1542 1021T1584 999T1612 966T1623 924Q1623 910 1620 898T1610 863Q1587 787 1559 710T1500 558T1438 415T1377
288T1321 183T1276 106Q1258 77 1239 56T1197 21T1144 0T1077 -7Q1029 -7 998 3T947 33T918 81T906 145Q900 215 895 284T885 427T874 579T859 749H855Q817 654 786 576T724 428T664 290T601 150Q585 115 571 91T537 46Q510 19 472 6T378 -7Q331 -7 299 3T245 33T212
83T196 155Q187 251 179 336T163 505T143 677T117 867Q113 891 113 899T112 913Q112 940 124 961T156 997T203 1020T257 1028Q287 1028 310 1019T348 996Q365 979 370 958T380 905Q391 809 399 727T415 565T426 408T435 241H439Z" />
<glyph unicode="x" glyph-name="x" horiz-adv-x="1048" d="M489 355Q452 318 421 285T360 217T301 146T240 63Q228 46 220 36T203 17Q190 4 172 -3T130 -10Q107 -10 84 -1T42 24T11 62T-1 110Q-1 120 2 132T16 162Q23 174 36 191T68 230T110 276T159 328Q182 351
205 374T255 421T310 470T372 523L182 801Q174 812 167 822T155 842T147 865T143 891Q143 920 157 945T192 988T240 1017T292 1028Q316 1028 334 1020T369 996Q379 986 386 977T406 948L571 682Q600 711 628 740T684 802T741 872T802 955Q814 972 822 981T840 1001Q853
1014 870 1021T912 1028Q935 1028 958 1019T1000 994T1031 955T1043 908Q1043 898 1040 886T1025 856Q1017 844 1004 827T973 788T932 742T883 691Q860 668 839 647T795 605T747 562T689 512L889 220Q898 206 906 195T919 172T928 148T932 122Q932 94 919 70T884
28T836 0T783 -10Q757 -10 737 -2T701 24Q693 33 684 44T661 78L489 355Z" />
<glyph unicode="y" glyph-name="y" horiz-adv-x="1036" d="M477 176Q518 249 557 327T634 496T711 691T787 919Q795 945 802 963T825 997Q839 1011 861 1019T910 1028Q935 1028 959 1021T1002 1001T1032 968T1044 924Q1044 913 1041 899T1030 862Q980 707 920
561T791 281T646 31T488 -181Q419 -262 352 -319T218 -412T86 -466T-42 -483Q-99 -483 -133 -471T-187 -440Q-203 -425 -211 -406T-219 -361Q-219 -340 -212 -322T-193 -291T-164 -271T-127 -263Q-100 -263 -79 -267T-29 -272Q5 -272 39 -264T109 -234T184 -178T266
-88Q246 66 226 196T187 441T147 659T105 863Q102 878 100 892T97 915Q97 942 110 963T144 998T191 1020T243 1028Q274 1028 297 1019T335 996Q349 982 355 965T367 922Q399 757 426 572T473 176H477Z" />
<glyph unicode="z" glyph-name="z" horiz-adv-x="941" d="M241 814Q203 814 183 835T162 900Q162 927 170 949T191 986T224 1009T266 1017H771Q805 1017 832 1008T877 981T904 941T914 888Q914 867 910 848T897 811T874 773T838 733L350 194Q368 196 392 197T446
200T506 202T569 203Q652 203 706 197T787 178Q813 166 823 145T834 98Q834 75 827 56T805 22T771 -1T724 -9Q705 -9 683 -8T632 -5T565 -2T476 0Q386 0 309 -4T159 -9Q123 -9 96 0T50 27T22 67T13 120Q13 141 17 159T30 196T53 234T89 274L577 814H241Z" />
<glyph unicode="{" glyph-name="braceleft" horiz-adv-x="715" d="M186 243Q193 283 197 318T201 381T194 432T172 470Q160 482 148 489T126 501T106 511T88 525Q77 536 72 551T66 591Q66 623 74 644T96 680Q107 691 123 697T157 711T195 728T235 758Q249 773
260 794T281 844T298 905T312 974L349 1186Q364 1274 393 1339T466 1446T565 1509T689 1530H693Q728 1530 754 1523T797 1502T822 1471T831 1432Q831 1390 808 1365T736 1339H727Q698 1339 677 1331T639 1305T611 1257T592 1184L555 970Q540 884 522 825T480 724T424
654T350 603V601Q383 578 405 550T437 480T445 376T427 226L383 -24Q375 -70 376 -99T386 -144T413 -167T456 -173H464Q502 -173 521 -194T540 -249Q540 -274 530 -295T500 -331T449 -354T374 -363H370Q301 -363 252 -342T173 -277T135 -170T141 -19L186 243Z"
/>
<glyph unicode="|" glyph-name="bar" horiz-adv-x="637" d="M357 1385Q367 1442 399 1468T487 1495Q535 1495 561 1473T587 1407Q587 1399 586 1390T583 1367L279 -382Q269 -439 237 -465T149 -492Q101 -492 75 -470T49 -404Q49 -396 50 -387T53 -364L357 1385Z" />
<glyph unicode="}" glyph-name="braceright" horiz-adv-x="715" d="M193 236Q208 322 226 381T269 482T324 552T398 603L399 605Q365 628 343 656T311 726T303 830T321 980L358 1190Q366 1236 365 1265T355 1311T329 1334T286 1340H277Q239 1340 221 1361T202
1415Q202 1440 211 1461T241 1497T293 1521T368 1530H372Q440 1530 490 1509T569 1444T607 1336T600 1185L562 963Q555 923 551 889T547 825T555 774T577 736Q589 724 600 717T623 705T643 695T661 682Q672 671 677 656T683 615Q683 583 675 562T652 526Q641 515
625 509T591 496T553 479T513 448Q499 434 488 412T467 363T451 302T437 233L393 -20Q378 -108 348 -172T275 -279T176 -342T52 -363H48Q13 -363 -12 -356T-55 -336T-80 -305T-89 -266Q-89 -224 -66 -199T6 -173H15Q43 -173 65 -165T103 -139T130 -91T149 -17L193
236Z" />
<glyph unicode="~" glyph-name="asciitilde" horiz-adv-x="1167" d="M468 752Q506 752 536 743T592 719T640 689T683 658T726 635T774 625Q793 625 812 631T849 650T884 678T916 713Q931 731 947 738T980 745Q1015 745 1036 723T1058 664Q1058 650 1054 636T1041
604Q1020 567 988 534T917 475T831 434T736 419Q697 419 667 428T612 452T564 482T521 513T478 536T430 546Q411 546 392 540T355 521T320 493T288 458Q273 440 257 433T224 426Q189 426 168 448T146 508Q146 522 150 536T163 567Q184 604 216 638T287 697T372
737T468 752Z" />
<glyph unicode="&#xa0;" glyph-name="uni00A0" horiz-adv-x="514" />
<glyph unicode="&#xa1;" glyph-name="exclamdown" horiz-adv-x="637" d="M207 551Q215 594 248 619T341 645Q400 645 426 620T447 551L334 -251Q331 -274 329 -292T322 -326T312 -353T294 -376Q273 -397 243 -406T171 -416Q135 -416 109 -409T67 -390T42 -362T34
-325Q34 -319 34 -314T36 -300T40 -278T48 -242L207 551ZM221 916Q221 953 234 984T272 1039T329 1076T401 1089Q437 1089 466 1078T517 1046T551 997T563 934Q563 896 550 865T512 810T455 773T384 760Q348 760 318 771T267 804T233 853T221 916Z" />
<glyph unicode="&#xa2;" glyph-name="cent" horiz-adv-x="1012" d="M419 140Q343 155 285 188T188 271T130 386T110 529Q110 636 142 730T236 900T385 1028T585 1101L622 1310Q630 1356 654 1377T724 1399Q768 1399 790 1378T805 1310L771 1112Q839 1107 888 1089T961
1048Q978 1031 985 1012T992 971Q992 949 985 931T966 900T936 880T898 872Q879 872 863 877T826 888T777 899T707 904Q638 904 580 880T478 811T411 704T387 566Q387 455 446 397T615 339Q658 339 688 345T742 359T782 373T817 380Q852 380 872 358T892 301Q892
275 884 255T856 214Q842 200 818 186T762 160T689 140T601 128L566 -72Q558 -118 533 -139T463 -161Q420 -161 398 -140T383 -72L419 140Z" />
<glyph unicode="&#xa3;" glyph-name="sterling" horiz-adv-x="1075" d="M551 604Q545 542 529 488T490 387T438 299T374 222L375 219H861Q899 219 921 196T943 126Q943 96 935 73T911 34T876 9T831 0H185Q125 0 91 33T57 128Q57 149 61 167T73 204T95 240T129
279Q156 307 182 340T229 414T266 501T287 604H208Q170 604 150 624T129 688Q129 715 137 737T159 774T192 797T234 805H281Q279 833 276 860T273 917Q273 1021 308 1108T412 1257T578 1354T801 1389Q890 1389 950 1371T1037 1326Q1054 1309 1061 1290T1069 1249Q1069
1227 1062 1209T1042 1177T1012 1157T974 1149Q954 1149 936 1154T895 1165T845 1176T778 1181Q723 1181 679 1165T603 1117T555 1041T538 939Q538 901 541 869T548 805H838Q876 805 896 784T917 720Q917 693 909 672T888 635T855 612T813 604H551Z" />
<glyph unicode="&#xa4;" glyph-name="currency" horiz-adv-x="1055" d="M212 472Q192 507 181 549T170 642Q170 739 202 821T294 963L208 1080Q200 1092 196 1102T191 1126Q191 1145 200 1162T226 1193T261 1215T301 1223Q345 1223 366 1184L434 1054Q474 1071
518 1080T613 1089Q667 1089 712 1079T794 1049L897 1169Q911 1186 925 1194T960 1203Q978 1203 996 1195T1028 1174T1051 1143T1060 1107Q1060 1087 1050 1072T1023 1040L912 942Q954 871 954 772Q954 674 922 593T829 451L915 334Q923 323 927 312T932 288Q932
269 923 252T897 221T862 199T822 191Q778 191 757 231L690 360Q608 325 510 325Q403 325 329 366L226 245Q212 229 198 220T163 211Q145 211 127 219T95 240T72 271T63 307Q63 327 73 343T101 374L212 472ZM367 661Q367 574 410 528T532 481Q578 481 618 499T690
553T739 638T757 753Q757 840 714 887T592 934Q547 934 506 915T434 861T385 776T367 661Z" />
<glyph unicode="&#xa5;" glyph-name="yen" horiz-adv-x="1223" d="M265 501Q197 501 197 567Q197 609 220 634T290 660H465L235 1205Q228 1222 225 1235T221 1262Q221 1290 234 1313T268 1353T315 1379T366 1388Q409 1388 433 1366T470 1309L621 912Q628 892 634
873T645 839Q650 821 654 806H658Q667 822 678 840Q687 855 700 875T727 915L1013 1325Q1032 1354 1054 1370T1113 1387Q1137 1387 1161 1378T1204 1353T1234 1316T1246 1270Q1246 1247 1239 1231T1215 1194L804 660H977Q1012 660 1028 642T1045 592Q1045 550 1022
526T952 501H739L718 377H928Q962 377 979 359T996 309Q996 267 973 243T902 218H692L674 115Q663 56 628 25T525 -7Q457 -7 427 23T406 114L424 218H216Q148 218 148 284Q148 326 171 351T241 377H454L475 501H265Z" />
<glyph unicode="&#xa6;" glyph-name="brokenbar" horiz-adv-x="637" d="M357 1385Q367 1442 399 1468T487 1495Q535 1495 561 1473T587 1407Q587 1399 586 1390T583 1367L475 747Q465 690 432 664T344 637Q289 637 263 666T247 753L357 1385ZM163 271Q173 328
206 354T294 381Q349 381 375 352T391 265L279 -382Q269 -439 237 -465T149 -492Q101 -492 75 -470T49 -404Q49 -396 50 -387T53 -364L163 271Z" />
<glyph unicode="&#xa7;" glyph-name="section" horiz-adv-x="1124" d="M115 498Q115 565 134 620T187 719T269 798T374 863Q342 898 324 942T305 1046Q305 1119 333 1183T419 1295T561 1371T761 1399Q813 1399 854 1393T926 1377T978 1355T1013 1329Q1030 1312
1037 1294T1044 1253Q1044 1233 1038 1217T1019 1189T990 1171T953 1164Q930 1164 912 1170T870 1184T816 1198T737 1205Q693 1205 662 1196T610 1171T581 1132T571 1082Q571 1048 590 1022T640 974T712 930T794 885T876 833T948 767T999 683T1018 573Q1018 505
999 451T945 352T863 273T758 208Q789 173 808 129T828 25Q828 -48 799 -112T713 -224T571 -300T372 -328Q319 -328 278 -322T206 -306T154 -284T120 -258Q103 -241 96 -223T88 -182Q88 -163 95 -147T114 -118T143 -100T180 -93Q202 -93 221 -99T263 -113T317 -127T396
-134Q440 -134 471 -125T522 -100T551 -61T561 -11Q561 23 542 49T492 97T420 141T338 186T256 238T185 304T134 388T115 498ZM386 538Q386 501 402 473T446 421T508 376T583 334Q626 354 657 375T708 420T737 472T747 533Q747 568 731 596T687 649T624 694T549
736Q506 716 475 695T425 650T396 599T386 538Z" />
<glyph unicode="&#xa8;" glyph-name="dieresis" horiz-adv-x="1024" d="M280 1306Q280 1340 292 1369T325 1419T376 1452T441 1464Q471 1464 496 1454T540 1426T569 1383T580 1328Q580 1294 568 1265T535 1215T485 1181T420 1169Q390 1169 365 1179T320 1208T291
1252T280 1306ZM703 1306Q703 1340 715 1369T748 1419T799 1452T864 1464Q894 1464 919 1454T963 1426T992 1383T1003 1328Q1003 1294 991 1265T958 1215T908 1181T843 1169Q813 1169 787 1179T743 1208T714 1252T703 1306Z" />
<glyph unicode="&#xa9;" glyph-name="copyright" horiz-adv-x="1585" d="M474 598Q474 709 508 799T602 953T742 1051T914 1086Q951 1086 980 1081T1032 1069T1071 1051T1096 1032Q1118 1011 1118 978Q1118 949 1101 930T1054 910Q1041 910 1029 914T1000 925T963
935T910 940Q863 940 819 919T741 856T686 756T665 621Q665 533 708 490T824 447Q855 447 877 452T918 463T949 474T976 479Q1000 479 1013 464T1027 425Q1027 407 1021 393T1001 364Q988 352 967 340T917 319T856 305T785 299Q712 299 654 319T556 378T495 471T474
598ZM111 640Q111 805 167 944T325 1184T565 1342T869 1399Q1022 1399 1145 1352T1356 1219T1490 1010T1538 739Q1538 629 1513 530T1439 347T1324 195T1172 79T988 6T779 -20Q627 -20 504 27T293 160T159 369T111 640ZM287 657Q287 534 322 437T424 273T586 171T803
135Q925 135 1027 177T1204 296T1320 481T1362 722Q1362 845 1327 942T1225 1106T1063 1208T846 1244Q724 1244 621 1202T444 1083T329 898T287 657Z" />
<glyph unicode="&#xaa;" glyph-name="ordfeminine" horiz-adv-x="840" d="M780 949Q775 920 772 898T766 858T763 827T762 804Q762 791 762 783T763 764Q763 732 742 712T683 692Q637 692 616 719T593 792H591Q570 762 539 738Q513 718 473 702T379 685Q328 685
286 702T213 752T167 835T150 949Q150 1053 180 1135T266 1273T403 1360T584 1390Q637 1390 677 1384T745 1370T789 1352T814 1334Q820 1328 825 1321T832 1305T835 1282T833 1252L780 949ZM641 1223Q632 1229 619 1234Q608 1238 592 1241T553 1245Q510 1245 472
1228T405 1176T360 1091T343 972Q343 901 370 869T441 837Q474 837 502 853T550 890Q574 914 592 944L641 1223ZM704 590Q735 590 753 572T771 521Q771 479 748 456T682 433H136Q104 433 87 451T69 502Q69 543 92 566T157 590H704Z" />
<glyph unicode="&#xab;" glyph-name="guillemotleft" horiz-adv-x="1214" d="M1027 231Q1042 207 1042 180Q1042 157 1032 137T1004 102T964 79T920 70Q897 70 875 80T837 114L629 406Q616 425 607 446T598 494Q598 529 616 557T664 611L1037 928Q1053 941 1068
946T1100 952Q1121 952 1140 944T1175 921T1198 887T1207 847Q1207 829 1200 811T1175 778L861 493L1027 231ZM544 214Q552 201 555 189T559 163Q559 139 548 119T519 83T479 59T433 50Q408 50 387 60T349 94L113 426Q100 445 92 466T83 514Q83 549 101 577T149
631L522 948Q550 972 585 972Q607 972 627 963T662 939T686 905T695 864Q695 845 688 828T663 794L352 513L544 214Z" />
<glyph unicode="&#xac;" glyph-name="logicalnot" horiz-adv-x="1167" d="M256 484Q211 484 189 505T167 566Q167 619 199 651T284 683H905Q1009 683 1009 595Q1009 584 1008 572T1004 546L960 295Q949 233 917 204T834 174Q784 174 762 203T751 295L785 484H256Z" />
<glyph unicode="&#xad;" glyph-name="uni00AD" horiz-adv-x="918" d="M209 443Q171 443 151 464T130 529Q130 557 138 580T159 619T192 644T234 653H725Q763 653 783 633T804 568Q804 540 796 517T774 478T741 452T699 443H209Z" />
<glyph unicode="&#xae;" glyph-name="registered" horiz-adv-x="961" d="M500 924Q495 901 483 890T446 878Q421 878 410 890T402 924L459 1253Q463 1275 476 1286T510 1297H613Q652 1297 680 1289T727 1266T754 1231T763 1186Q763 1138 736 1105T667 1057Q673
1028 681 1009T697 978T714 958T728 944Q733 939 736 934T739 918Q739 901 725 890T685 878Q668 878 654 884T625 904Q608 921 593 956T572 1040H520L500 924ZM585 1116Q625 1116 643 1133T661 1176Q661 1197 647 1208T598 1219H550L532 1116H585ZM158 1063Q158
1159 190 1238T280 1375T419 1463T600 1495Q691 1495 765 1467T893 1387T974 1266T1003 1111Q1003 1015 972 936T882 799T743 711T561 679Q469 679 395 707T268 787T187 908T158 1063ZM263 1071Q263 1005 285 950T347 856T444 794T571 772Q646 772 706 795T809
861T875 965T898 1103Q898 1169 876 1224T814 1318T717 1380T590 1402Q516 1402 456 1379T352 1313T286 1209T263 1071Z" />
<glyph unicode="&#xaf;" glyph-name="macron" horiz-adv-x="1024" d="M906 1411Q944 1411 963 1391T983 1331Q983 1305 976 1285T954 1250T921 1228T880 1220H378Q340 1220 320 1240T300 1299Q300 1325 307 1345T329 1380T361 1403T403 1411H906Z" />
<glyph unicode="&#xb0;" glyph-name="degree" horiz-adv-x="844" d="M211 1178Q211 1243 236 1301T308 1402T417 1470T555 1495Q629 1495 687 1474T786 1415T848 1323T870 1206Q870 1141 845 1084T773 983T664 915T526 890Q452 890 394 911T295 970T233 1061T211
1178ZM400 1191Q400 1158 410 1132T438 1087T483 1058T540 1047Q571 1047 596 1057T641 1087T670 1133T681 1193Q681 1259 643 1298T541 1338Q510 1338 484 1328T440 1298T411 1251T400 1191Z" />
<glyph unicode="&#xb1;" glyph-name="plusminus" horiz-adv-x="1167" d="M285 670Q240 670 218 691T196 754Q196 780 204 801T228 838T266 861T315 870H539L577 1094Q588 1156 621 1186T705 1216Q756 1216 777 1186T788 1094L751 870H972Q1017 870 1038 849T1060
787Q1060 761 1052 740T1028 703T991 679T942 670H717L678 446Q667 384 635 355T551 325Q501 325 478 354T466 446L506 670H285ZM855 199Q900 199 922 178T944 117Q944 91 936 70T912 33T875 9T827 0H169Q124 0 102 21T79 83Q79 109 87 130T112 167T149 190T198
199H855Z" />
<glyph unicode="&#xb2;" glyph-name="two.superior" horiz-adv-x="694" d="M601 795Q662 795 662 726Q662 683 640 657T579 630H192Q148 630 122 656T95 725Q95 760 109 786T156 838L300 953Q354 996 390 1027T448 1081T479 1125T489 1168Q489 1199 470 1216T407
1234Q383 1234 364 1230T329 1222T299 1214T272 1210Q247 1210 233 1226T219 1270Q219 1287 224 1300T244 1327Q257 1340 278 1351T329 1372T393 1386T468 1392Q534 1392 581 1379T659 1342T704 1283T719 1207Q719 1163 706 1126T662 1050T578 968T448 867L351
795H601Z" />
<glyph unicode="&#xb3;" glyph-name="three.superior" horiz-adv-x="696" d="M328 765Q362 765 387 772T428 793T453 823T462 859Q462 877 455 891T428 916T376 931T291 937Q268 937 257 948Q248 957 244 973T241 1007T249 1042T267 1070Q275 1078 284 1081T309
1085Q363 1085 398 1092T454 1112T483 1142T492 1179Q492 1206 473 1222T407 1238Q384 1238 366 1235T332 1227T304 1219T278 1215Q255 1215 241 1231T227 1273Q227 1291 233 1305T254 1333Q268 1345 289 1356T338 1375T396 1387T463 1392Q528 1392 575 1379T652
1342T696 1286T711 1217Q711 1149 673 1102T570 1029L569 1028Q620 1014 650 976T681 876Q681 820 657 773T588 691T478 636T328 616Q251 616 204 631T135 665Q110 687 110 719Q110 751 128 769T174 788Q189 788 202 785T232 777T271 769T328 765Z" />
<glyph unicode="&#xb4;" glyph-name="acute" horiz-adv-x="1024" d="M676 1517Q698 1539 729 1539Q751 1539 772 1528T809 1498T836 1457T846 1412Q846 1392 838 1377T813 1350L558 1159Q547 1151 536 1148T513 1144Q496 1144 480 1151T452 1171T433 1198T426
1230Q426 1245 432 1258T452 1286L676 1517Z" />
<glyph unicode="&#xb5;" glyph-name="mu" horiz-adv-x="1204" d="M213 904Q223 963 258 993T362 1024Q430 1024 459 994T479 904L397 429Q392 404 391 384T389 344Q389 269 424 234T525 198Q553 198 578 205T625 223T667 250T703 281Q741 317 770 364L864 905Q874
963 909 993T1013 1024Q1073 1024 1102 1001T1132 932Q1132 921 1131 909T1125 876L1037 369Q1030 326 1025 293T1017 233T1012 188T1010 152Q1010 134 1011 122T1012 94Q1012 48 983 20T898 -9Q831 -9 800 32T769 143H765Q731 97 687 62Q668 47 645 32T595 6T537
-12T472 -19Q428 -19 398 -10T347 10Q324 22 309 39L306 37L270 -263Q268 -289 265 -314T258 -362Q247 -421 208 -449T107 -478Q47 -478 20 -455T-7 -386Q-7 -375 -6 -364T-2 -336L213 904Z" />
<glyph unicode="&#xb6;" glyph-name="paragraph" horiz-adv-x="1278" d="M606 -219Q589 -315 494 -315Q443 -315 422 -290T409 -219L531 488Q451 492 386 516T275 586T204 698T179 853Q179 973 215 1070T327 1236T522 1341T805 1378H1128Q1179 1378 1206 1354T1233
1285Q1233 1274 1232 1265T1229 1244L977 -219Q959 -315 865 -315Q814 -315 793 -290T779 -219L1021 1180H847L606 -219Z" />
<glyph unicode="&#xb7;" glyph-name="periodcentered" horiz-adv-x="592" d="M133 540Q133 578 147 610T185 667T241 705T312 719Q347 719 377 707T428 674T462 624T474 559Q474 521 460 488T422 431T366 393T295 379Q259 379 230 391T179 424T145 475T133 540Z" />
<glyph unicode="&#xb8;" glyph-name="cedilla" horiz-adv-x="1024" d="M502 0L464 -91Q497 -96 523 -108T569 -139T598 -186T609 -247Q609 -298 587 -342T523 -420T418 -473T277 -492Q237 -492 210 -486T166 -470T142 -444T135 -411Q135 -383 152 -365T198 -347Q213
-347 227 -348T262 -350Q299 -350 325 -344T368 -328T392 -303T400 -272Q400 -249 385 -236T335 -222H318Q292 -222 282 -205T285 -154L348 0H502Z" />
<glyph unicode="&#xb9;" glyph-name="one.superior" horiz-adv-x="563" d="M274 1140Q259 1136 246 1134T220 1131Q191 1131 174 1151T156 1199Q156 1219 162 1233T183 1262Q202 1281 244 1302T341 1345Q395 1367 428 1376T489 1386Q531 1386 551 1364T572 1307Q572
1299 572 1291T569 1272L473 716Q465 671 437 647T354 623Q301 623 278 647T262 716L339 1160L274 1140Z" />
<glyph unicode="&#xba;" glyph-name="ordmasculine" horiz-adv-x="887" d="M183 959Q183 1058 213 1137T297 1273T426 1360T593 1391Q662 1391 716 1372T809 1316T867 1230T887 1117Q887 1018 857 939T773 803T643 716T476 685Q407 685 353 704T261 760T203 846T183
959ZM376 979Q376 904 410 868T502 831Q540 831 574 848T635 899T678 982T694 1097Q694 1172 660 1208T568 1245Q530 1245 495 1228T434 1177T392 1093T376 979ZM730 590Q761 590 779 572T797 521Q797 479 774 456T708 433H158Q127 433 109 451T91 502Q91 543 114
566T180 590H730Z" />
<glyph unicode="&#xbb;" glyph-name="guillemotright" horiz-adv-x="1214" d="M188 786Q173 811 173 837Q173 860 183 880T211 916T251 939T296 948Q319 948 340 938T379 904L587 612Q600 593 608 572T617 524Q617 489 599 461T552 407L178 89Q162 76 147 71T115
65Q94 65 75 74T40 97T17 131T8 170Q8 189 16 206T41 240L354 524L188 786ZM671 803Q663 817 660 829T656 855Q656 878 667 898T696 934T736 958T782 967Q807 967 828 957T866 924L1102 592Q1115 573 1123 552T1132 504Q1132 469 1114 441T1067 387L694 69Q664
45 631 45Q608 45 588 54T553 78T529 113T520 154Q520 173 527 189T553 223L863 504L671 803Z" />
<glyph unicode="&#xbc;" glyph-name="onequarter" horiz-adv-x="1579" d="M1163 1360Q1179 1380 1194 1389T1230 1398Q1248 1398 1264 1392T1294 1374T1314 1347T1322 1316Q1322 1302 1316 1290T1298 1261L357 19Q341 -1 326 -10T290 -19Q272 -19 256 -13T226
5T206 31T198 63Q198 77 204 89T222 118L1163 1360ZM274 1140Q259 1136 246 1134T220 1131Q191 1131 174 1151T156 1199Q156 1219 162 1233T183 1262Q202 1281 244 1302T341 1345Q395 1367 428 1376T489 1386Q531 1386 551 1364T572 1307Q572 1299 572 1291T569
1272L473 716Q465 671 437 647T354 623Q301 623 278 647T262 716L339 1160L274 1140ZM921 182Q870 182 842 208T814 282Q814 316 828 343T873 405L1118 675Q1139 699 1159 715T1200 741T1247 755T1303 760Q1340 760 1366 753T1406 731T1425 697T1426 651L1371 336H1428Q1452
336 1465 321T1479 275Q1479 231 1460 207T1406 182H1344L1327 83Q1320 38 1293 16T1216 -6Q1166 -6 1145 17T1130 83L1146 182H921ZM1217 587L990 336H1173L1217 587Z" />
<glyph unicode="&#xbd;" glyph-name="onehalf" horiz-adv-x="1602" d="M1163 1360Q1179 1380 1194 1389T1230 1398Q1248 1398 1264 1392T1294 1374T1314 1347T1322 1316Q1322 1302 1316 1290T1298 1261L357 19Q341 -1 326 -10T290 -19Q272 -19 256 -13T226 5T206
31T198 63Q198 77 204 89T222 118L1163 1360ZM274 1140Q259 1136 246 1134T220 1131Q191 1131 174 1151T156 1199Q156 1219 162 1233T183 1262Q202 1281 244 1302T341 1345Q395 1367 428 1376T489 1386Q531 1386 551 1364T572 1307Q572 1299 572 1291T569 1272L473
716Q465 671 437 647T354 623Q301 623 278 647T262 716L339 1160L274 1140ZM1398 166Q1459 166 1459 97Q1459 54 1437 28T1376 1H989Q945 1 919 27T892 96Q892 131 906 157T953 209L1097 324Q1151 367 1187 398T1245 452T1276 496T1286 539Q1286 570 1267 587T1204
605Q1180 605 1161 601T1126 593T1096 585T1069 581Q1044 581 1030 597T1016 641Q1016 658 1021 671T1041 698Q1054 711 1075 722T1126 743T1190 757T1265 763Q1331 763 1378 750T1456 713T1501 654T1516 578Q1516 534 1503 497T1459 421T1375 339T1245 238L1148
166H1398Z" />
<glyph unicode="&#xbe;" glyph-name="threequarters" horiz-adv-x="1681" d="M1267 1360Q1283 1380 1298 1389T1334 1398Q1352 1398 1368 1392T1398 1374T1418 1347T1426 1316Q1426 1302 1420 1290T1402 1261L461 19Q445 -1 430 -10T394 -19Q376 -19 360 -13T330
5T310 31T302 63Q302 77 308 89T326 118L1267 1360ZM1024 182Q973 182 945 208T917 282Q917 316 931 343T976 405L1221 675Q1242 699 1262 715T1303 741T1350 755T1406 760Q1443 760 1469 753T1509 731T1528 697T1529 651L1474 336H1531Q1555 336 1568 321T1582
275Q1582 231 1563 207T1509 182H1447L1430 83Q1423 38 1396 16T1319 -6Q1269 -6 1248 17T1233 83L1249 182H1024ZM1320 587L1093 336H1276L1320 587ZM582 765Q616 765 641 772T682 793T707 823T716 859Q716 877 709 891T682 916T630 931T545 937Q522 937 511 948Q502
957 498 973T495 1007T503 1042T521 1070Q529 1078 538 1081T563 1085Q617 1085 652 1092T708 1112T737 1142T746 1179Q746 1206 727 1222T661 1238Q638 1238 620 1235T586 1227T558 1219T532 1215Q509 1215 495 1231T481 1273Q481 1291 487 1305T508 1333Q522
1345 543 1356T592 1375T650 1387T717 1392Q782 1392 829 1379T906 1342T950 1286T965 1217Q965 1149 927 1102T824 1029L823 1028Q874 1014 904 976T935 876Q935 820 911 773T842 691T732 636T582 616Q505 616 458 631T389 665Q364 687 364 719Q364 751 382 769T428
788Q443 788 456 785T486 777T525 769T582 765Z" />
<glyph unicode="&#xbf;" glyph-name="questiondown" horiz-adv-x="793" d="M-70 -134Q-70 -68 -53 -17T-6 77T59 153T134 218T209 278T275 339T321 409T339 494Q339 510 338 521T337 540Q337 588 371 616T471 645Q537 645 571 610T605 502Q605 419 576 359T504
251T409 164T315 87T242 6T213 -92Q213 -150 250 -182T372 -215Q415 -215 444 -209T496 -197T535 -184T572 -178Q604 -178 624 -201T644 -259Q644 -280 637 -299T610 -337Q592 -355 562 -371T491 -399T402 -418T298 -426Q207 -426 139 -406T24 -349T-46 -257T-70
-134ZM348 916Q348 953 361 984T399 1039T456 1076T528 1089Q564 1089 593 1078T644 1046T678 997T690 934Q690 896 677 865T639 810T582 773T510 760Q474 760 445 771T394 803T360 852T348 916Z" />
<glyph unicode="&#xc0;" glyph-name="Agrave" horiz-adv-x="1267" d="M242 95Q228 68 221 53T201 25Q187 10 165 0T112 -10Q87 -10 63 -2T18 20T-14 55T-27 101Q-27 121 -20 140T2 186L520 1191Q532 1215 542 1234T563 1268T583 1297T608 1325Q636 1353 676 1368T778
1384Q832 1384 867 1373T926 1339Q951 1314 963 1277T984 1186L1157 168Q1162 139 1163 126T1165 105Q1165 80 1153 59T1120 23T1071 -1T1012 -10Q981 -10 957 -1T916 25Q899 42 894 65T883 118L850 324H354L242 95ZM822 537L762 931Q756 972 751 1007T743 1071Q739
1103 737 1131H733Q721 1103 707 1071Q695 1043 679 1008T642 931L452 537H822ZM547 1656Q527 1668 518 1684T509 1720Q509 1744 520 1769T550 1815T590 1849T636 1862Q651 1862 662 1857T685 1842L902 1635Q916 1621 924 1606T931 1572Q930 1554 922 1537T900
1508T869 1488T833 1482Q824 1483 815 1486T795 1495L547 1656Z" />
<glyph unicode="&#xc1;" glyph-name="Aacute" horiz-adv-x="1267" d="M242 95Q228 68 221 53T201 25Q187 10 165 0T112 -10Q87 -10 63 -2T18 20T-14 55T-27 101Q-27 121 -20 140T2 186L520 1191Q532 1215 542 1234T563 1268T583 1297T608 1325Q636 1353 676 1368T778
1384Q832 1384 867 1373T926 1339Q951 1314 963 1277T984 1186L1157 168Q1162 139 1163 126T1165 105Q1165 80 1153 59T1120 23T1071 -1T1012 -10Q981 -10 957 -1T916 25Q899 42 894 65T883 118L850 324H354L242 95ZM822 537L762 931Q756 972 751 1007T743 1071Q739
1103 737 1131H733Q721 1103 707 1071Q695 1043 679 1008T642 931L452 537H822ZM960 1840Q982 1854 1002 1854Q1024 1854 1044 1842T1080 1810T1105 1766T1114 1720Q1114 1697 1105 1679T1072 1649L778 1496Q769 1491 761 1489T743 1486Q725 1486 710 1494T684
1515T666 1545T659 1579Q659 1597 666 1613T691 1642L960 1840Z" />
<glyph unicode="&#xc2;" glyph-name="Acircumflex" horiz-adv-x="1267" d="M242 95Q228 68 221 53T201 25Q187 10 165 0T112 -10Q87 -10 63 -2T18 20T-14 55T-27 101Q-27 121 -20 140T2 186L520 1191Q532 1215 542 1234T563 1268T583 1297T608 1325Q636 1353 676
1368T778 1384Q832 1384 867 1373T926 1339Q951 1314 963 1277T984 1186L1157 168Q1162 139 1163 126T1165 105Q1165 80 1153 59T1120 23T1071 -1T1012 -10Q981 -10 957 -1T916 25Q899 42 894 65T883 118L850 324H354L242 95ZM822 537L762 931Q756 972 751 1007T743
1071Q739 1103 737 1131H733Q721 1103 707 1071Q695 1043 679 1008T642 931L452 537H822ZM593 1498Q584 1493 576 1491T556 1488Q539 1488 524 1495T498 1514T480 1541T473 1573Q473 1607 503 1630L726 1807Q753 1828 778 1841T838 1854Q873 1854 896 1842T939
1808L1100 1626Q1111 1615 1115 1603T1120 1576Q1120 1558 1112 1542T1092 1514T1063 1494T1028 1487Q1014 1487 1004 1490T982 1502L812 1630L593 1498Z" />
<glyph unicode="&#xc3;" glyph-name="Atilde" horiz-adv-x="1267" d="M242 95Q228 68 221 53T201 25Q187 10 165 0T112 -10Q87 -10 63 -2T18 20T-14 55T-27 101Q-27 121 -20 140T2 186L520 1191Q532 1215 542 1234T563 1268T583 1297T608 1325Q636 1353 676 1368T778
1384Q832 1384 867 1373T926 1339Q951 1314 963 1277T984 1186L1157 168Q1162 139 1163 126T1165 105Q1165 80 1153 59T1120 23T1071 -1T1012 -10Q981 -10 957 -1T916 25Q899 42 894 65T883 118L850 324H354L242 95ZM822 537L762 931Q756 972 751 1007T743 1071Q739
1103 737 1131H733Q721 1103 707 1071Q695 1043 679 1008T642 931L452 537H822ZM664 1605Q634 1605 614 1593T575 1566T539 1539T498 1526Q469 1526 448 1545T427 1603Q427 1635 447 1670T502 1735T586 1784T691 1803Q742 1803 780 1788T850 1755T909 1721T967
1706Q997 1706 1018 1718T1057 1746T1092 1773T1133 1786Q1162 1786 1183 1767T1205 1709Q1205 1676 1185 1641T1129 1577T1045 1528T941 1509Q889 1509 851 1524T782 1557T722 1590T664 1605Z" />
<glyph unicode="&#xc4;" glyph-name="Adieresis" horiz-adv-x="1267" d="M242 95Q228 68 221 53T201 25Q187 10 165 0T112 -10Q87 -10 63 -2T18 20T-14 55T-27 101Q-27 121 -20 140T2 186L520 1191Q532 1215 542 1234T563 1268T583 1297T608 1325Q636 1353 676
1368T778 1384Q832 1384 867 1373T926 1339Q951 1314 963 1277T984 1186L1157 168Q1162 139 1163 126T1165 105Q1165 80 1153 59T1120 23T1071 -1T1012 -10Q981 -10 957 -1T916 25Q899 42 894 65T883 118L850 324H354L242 95ZM822 537L762 931Q756 972 751 1007T743
1071Q739 1103 737 1131H733Q721 1103 707 1071Q695 1043 679 1008T642 931L452 537H822ZM435 1648Q435 1682 447 1711T480 1761T531 1795T596 1807Q627 1807 653 1797T697 1767T726 1723T737 1668Q737 1634 725 1605T692 1554T642 1520T577 1508Q546 1508 520
1518T475 1548T446 1592T435 1648ZM884 1648Q884 1682 896 1711T929 1761T980 1795T1045 1807Q1076 1807 1102 1797T1146 1767T1175 1723T1186 1668Q1186 1634 1174 1605T1141 1554T1091 1520T1026 1508Q995 1508 969 1518T924 1548T895 1592T884 1648Z" />
<glyph unicode="&#xc5;" glyph-name="Aring" horiz-adv-x="1267" d="M242 95Q228 68 221 53T201 25Q187 10 165 0T112 -10Q87 -10 63 -2T18 20T-14 55T-27 101Q-27 121 -20 140T2 186L520 1191Q532 1215 542 1234T563 1268T583 1297T608 1325Q636 1353 676 1368T778
1384Q832 1384 867 1373T926 1339Q951 1314 963 1277T984 1186L1157 168Q1162 139 1163 126T1165 105Q1165 80 1153 59T1120 23T1071 -1T1012 -10Q981 -10 957 -1T916 25Q899 42 894 65T883 118L850 324H354L242 95ZM822 537L762 931Q756 972 751 1007T743 1071Q739
1103 737 1131H733Q721 1103 707 1071Q695 1043 679 1008T642 931L452 537H822ZM536 1713Q536 1767 558 1813T619 1894T711 1949T828 1969Q888 1969 937 1952T1022 1904T1076 1831T1096 1737Q1096 1683 1074 1636T1013 1555T921 1501T804 1481Q744 1481 695 1498T610
1546T555 1619T536 1713ZM698 1725Q698 1671 730 1640T816 1609Q870 1609 902 1640T934 1725Q934 1778 902 1809T816 1841Q763 1841 731 1810T698 1725Z" />
<glyph unicode="&#xc6;" glyph-name="AE" horiz-adv-x="1740" d="M199 80Q191 68 185 60T174 46T165 34T155 24Q121 -10 70 -10Q44 -10 20 -1T-24 23T-54 60T-66 107Q-66 133 -56 152T-28 197L746 1272Q768 1303 788 1323T830 1356T879 1373T942 1378H1710Q1751
1378 1772 1356T1794 1286Q1794 1257 1786 1234T1763 1194T1728 1170T1684 1161H1224L1163 810H1546Q1587 810 1607 788T1628 719Q1628 690 1620 668T1598 629T1564 605T1521 597H1126L1060 217H1513Q1554 217 1575 194T1597 124Q1597 95 1589 72T1566 33T1531
9T1487 0H874Q814 0 788 32T772 128L806 324H372L199 80ZM843 537L950 1161H947L511 537H843Z" />
<glyph unicode="&#xc7;" glyph-name="Ccedilla" horiz-adv-x="1165" d="M478 0Q388 20 318 64T200 175T126 327T100 518Q100 651 127 768T205 983T325 1157T480 1287T664 1368T868 1396Q929 1396 979 1389T1068 1369T1134 1340T1178 1308Q1195 1290 1203 1270T1212
1224Q1212 1179 1185 1150T1112 1120Q1089 1120 1068 1128T1020 1147T953 1165T855 1174Q765 1174 681 1132T531 1010T426 815T386 553Q386 468 407 403T468 295T564 229T690 207Q750 207 792 216T865 235T919 255T963 264Q1001 264 1021 241T1042 181Q1042 153
1033 131T1004 88Q982 66 946 47T863 14T758 -9T635 -17H625L594 -91Q627 -96 653 -108T699 -139T728 -186T739 -247Q739 -298 717 -342T653 -420T548 -473T407 -492Q367 -492 340 -486T296 -470T272 -444T265 -411Q265 -383 282 -365T328 -347Q343 -347 357 -348T392
-350Q430 -350 456 -344T498 -328T522 -303T530 -272Q530 -249 515 -236T465 -222H448Q422 -222 412 -205T416 -154L478 0Z" />
<glyph unicode="&#xc8;" glyph-name="Egrave" horiz-adv-x="1065" d="M385 217H837Q879 217 900 194T921 124Q921 95 913 72T890 33T855 9T811 0H199Q147 0 120 24T93 93Q93 104 94 113T97 134L292 1261Q303 1321 335 1349T428 1378H1035Q1076 1378 1097 1356T1118
1286Q1118 1257 1110 1234T1087 1194T1052 1170T1008 1161H548L487 810H871Q911 810 932 788T953 719Q953 690 945 668T923 629T888 605T845 597H450L385 217ZM739 1656Q719 1668 710 1684T701 1720Q701 1744 712 1769T742 1815T782 1849T828 1862Q843 1862 854
1857T877 1842L1094 1635Q1108 1621 1116 1606T1123 1572Q1122 1554 1114 1537T1092 1508T1061 1488T1025 1482Q1016 1483 1007 1486T987 1495L739 1656Z" />
<glyph unicode="&#xc9;" glyph-name="Eacute" horiz-adv-x="1065" d="M385 217H837Q879 217 900 194T921 124Q921 95 913 72T890 33T855 9T811 0H199Q147 0 120 24T93 93Q93 104 94 113T97 134L292 1261Q303 1321 335 1349T428 1378H1035Q1076 1378 1097 1356T1118
1286Q1118 1257 1110 1234T1087 1194T1052 1170T1008 1161H548L487 810H871Q911 810 932 788T953 719Q953 690 945 668T923 629T888 605T845 597H450L385 217ZM931 1840Q953 1854 973 1854Q995 1854 1015 1842T1051 1810T1076 1766T1085 1720Q1085 1697 1076 1679T1043
1649L749 1496Q740 1491 732 1489T714 1486Q696 1486 681 1494T655 1515T637 1545T630 1579Q630 1597 637 1613T662 1642L931 1840Z" />
<glyph unicode="&#xca;" glyph-name="Ecircumflex" horiz-adv-x="1065" d="M385 217H837Q879 217 900 194T921 124Q921 95 913 72T890 33T855 9T811 0H199Q147 0 120 24T93 93Q93 104 94 113T97 134L292 1261Q303 1321 335 1349T428 1378H1035Q1076 1378 1097
1356T1118 1286Q1118 1257 1110 1234T1087 1194T1052 1170T1008 1161H548L487 810H871Q911 810 932 788T953 719Q953 690 945 668T923 629T888 605T845 597H450L385 217ZM544 1498Q535 1493 527 1491T507 1488Q490 1488 475 1495T449 1514T431 1541T424 1573Q424
1607 454 1630L677 1807Q704 1828 729 1841T789 1854Q824 1854 847 1842T890 1808L1051 1626Q1062 1615 1066 1603T1071 1576Q1071 1558 1063 1542T1043 1514T1014 1494T979 1487Q965 1487 955 1490T933 1502L763 1630L544 1498Z" />
<glyph unicode="&#xcb;" glyph-name="Edieresis" horiz-adv-x="1065" d="M385 217H837Q879 217 900 194T921 124Q921 95 913 72T890 33T855 9T811 0H199Q147 0 120 24T93 93Q93 104 94 113T97 134L292 1261Q303 1321 335 1349T428 1378H1035Q1076 1378 1097 1356T1118
1286Q1118 1257 1110 1234T1087 1194T1052 1170T1008 1161H548L487 810H871Q911 810 932 788T953 719Q953 690 945 668T923 629T888 605T845 597H450L385 217ZM381 1648Q381 1682 393 1711T426 1761T477 1795T542 1807Q573 1807 599 1797T643 1767T672 1723T683
1668Q683 1634 671 1605T638 1554T588 1520T523 1508Q492 1508 466 1518T421 1548T392 1592T381 1648ZM830 1648Q830 1682 842 1711T875 1761T926 1795T991 1807Q1022 1807 1048 1797T1092 1767T1121 1723T1132 1668Q1132 1634 1120 1605T1087 1554T1037 1520T972
1508Q941 1508 915 1518T870 1548T841 1592T830 1648Z" />
<glyph unicode="&#xcc;" glyph-name="Igrave" horiz-adv-x="598" d="M293 1263Q303 1323 339 1354T445 1385Q568 1385 568 1290Q568 1280 566 1268T561 1239L367 116Q357 56 321 25T215 -7Q92 -7 92 88Q92 98 93 110T98 139L293 1263ZM235 1656Q215 1668 206 1684T197
1720Q197 1744 208 1769T238 1815T278 1849T324 1862Q339 1862 350 1857T373 1842L590 1635Q604 1621 612 1606T619 1572Q618 1554 610 1537T588 1508T557 1488T521 1482Q512 1483 503 1486T483 1495L235 1656Z" />
<glyph unicode="&#xcd;" glyph-name="Iacute" horiz-adv-x="598" d="M293 1263Q303 1323 339 1354T445 1385Q568 1385 568 1290Q568 1280 566 1268T561 1239L367 116Q357 56 321 25T215 -7Q92 -7 92 88Q92 98 93 110T98 139L293 1263ZM618 1840Q640 1854 660 1854Q682
1854 702 1842T738 1810T763 1766T772 1720Q772 1697 763 1679T730 1649L436 1496Q427 1491 419 1489T401 1486Q383 1486 368 1494T342 1515T324 1545T317 1579Q317 1597 324 1613T349 1642L618 1840Z" />
<glyph unicode="&#xce;" glyph-name="Icircumflex" horiz-adv-x="598" d="M293 1263Q303 1323 339 1354T445 1385Q568 1385 568 1290Q568 1280 566 1268T561 1239L367 116Q357 56 321 25T215 -7Q92 -7 92 88Q92 98 93 110T98 139L293 1263ZM271 1498Q262 1493
254 1491T234 1488Q217 1488 202 1495T176 1514T158 1541T151 1573Q151 1607 181 1630L404 1807Q431 1828 456 1841T516 1854Q551 1854 574 1842T617 1808L778 1626Q789 1615 793 1603T798 1576Q798 1558 790 1542T770 1514T741 1494T706 1487Q692 1487 682 1490T660
1502L490 1630L271 1498Z" />
<glyph unicode="&#xcf;" glyph-name="Idieresis" horiz-adv-x="598" d="M293 1263Q303 1323 339 1354T445 1385Q568 1385 568 1290Q568 1280 566 1268T561 1239L367 116Q357 56 321 25T215 -7Q92 -7 92 88Q92 98 93 110T98 139L293 1263ZM110 1648Q110 1682 122
1711T155 1761T206 1795T271 1807Q302 1807 328 1797T372 1767T401 1723T412 1668Q412 1634 400 1605T367 1554T317 1520T252 1508Q221 1508 195 1518T150 1548T121 1592T110 1648ZM559 1648Q559 1682 571 1711T604 1761T655 1795T720 1807Q751 1807 777 1797T821
1767T850 1723T861 1668Q861 1634 849 1605T816 1554T766 1520T701 1508Q670 1508 644 1518T599 1548T570 1592T559 1648Z" />
<glyph unicode="&#xd0;" glyph-name="Eth" horiz-adv-x="1427" d="M148 618Q110 618 90 638T69 700Q69 727 76 748T98 784T131 807T173 815H252L329 1261Q340 1321 372 1349T465 1378H801Q948 1378 1058 1342T1243 1237T1354 1069T1392 846Q1392 656 1331 500T1158
233T889 61T540 0H236Q176 0 150 32T134 127L218 618H148ZM422 215H584Q699 215 795 255T960 371T1069 560T1108 816Q1108 990 1020 1076T753 1163H585L525 815H713Q751 815 771 795T792 732Q792 705 784 684T763 649T730 626T688 618H491L422 215Z" />
<glyph unicode="&#xd1;" glyph-name="Ntilde" horiz-adv-x="1477" d="M282 1209Q290 1255 306 1288T346 1343T406 1375T488 1385Q537 1385 569 1374T625 1338Q650 1313 669 1272T714 1171L988 534Q1004 496 1017 460T1040 394Q1051 361 1060 330L1065 332Q1066
367 1069 407Q1071 441 1075 484T1088 576L1196 1272Q1204 1327 1237 1356T1334 1385Q1388 1385 1418 1361T1449 1290Q1449 1279 1448 1268T1443 1239L1259 169Q1251 123 1235 90T1195 35T1135 3T1053 -7Q1003 -7 972 4T916 40Q891 65 872 106T827 207L553 844Q537
882 524 918T501 984Q490 1017 481 1048L476 1046Q474 1011 471 971Q468 937 464 893T453 802L345 106Q337 51 304 22T207 -7Q153 -7 123 17T92 88Q92 98 93 110T98 139L282 1209ZM778 1605Q748 1605 728 1593T689 1566T653 1539T612 1526Q583 1526 562 1545T541
1603Q541 1635 561 1670T616 1735T700 1784T805 1803Q856 1803 894 1788T964 1755T1023 1721T1081 1706Q1111 1706 1132 1718T1171 1746T1206 1773T1247 1786Q1276 1786 1297 1767T1319 1709Q1319 1676 1299 1641T1243 1577T1159 1528T1055 1509Q1003 1509 965
1524T896 1557T836 1590T778 1605Z" />
<glyph unicode="&#xd2;" glyph-name="Ograve" horiz-adv-x="1479" d="M104 520Q104 654 131 771T209 987T330 1161T488 1291T675 1371T887 1399Q1016 1399 1118 1361T1291 1253T1400 1083T1438 858Q1438 724 1411 607T1333 392T1212 218T1054 88T866 8T655 -20Q526
-20 424 17T251 125T142 295T104 520ZM388 552Q388 466 410 401T471 291T566 224T690 201Q778 201 861 243T1010 365T1114 561T1154 827Q1154 913 1132 978T1071 1088T975 1154T852 1177Q764 1177 681 1135T532 1013T428 817T388 552ZM643 1656Q623 1668 614 1684T605
1720Q605 1744 616 1769T646 1815T686 1849T732 1862Q747 1862 758 1857T781 1842L998 1635Q1012 1621 1020 1606T1027 1572Q1026 1554 1018 1537T996 1508T965 1488T929 1482Q920 1483 911 1486T891 1495L643 1656Z" />
<glyph unicode="&#xd3;" glyph-name="Oacute" horiz-adv-x="1479" d="M104 520Q104 654 131 771T209 987T330 1161T488 1291T675 1371T887 1399Q1016 1399 1118 1361T1291 1253T1400 1083T1438 858Q1438 724 1411 607T1333 392T1212 218T1054 88T866 8T655 -20Q526
-20 424 17T251 125T142 295T104 520ZM388 552Q388 466 410 401T471 291T566 224T690 201Q778 201 861 243T1010 365T1114 561T1154 827Q1154 913 1132 978T1071 1088T975 1154T852 1177Q764 1177 681 1135T532 1013T428 817T388 552ZM1084 1840Q1106 1854 1126
1854Q1148 1854 1168 1842T1204 1810T1229 1766T1238 1720Q1238 1697 1229 1679T1196 1649L902 1496Q893 1491 885 1489T867 1486Q849 1486 834 1494T808 1515T790 1545T783 1579Q783 1597 790 1613T815 1642L1084 1840Z" />
<glyph unicode="&#xd4;" glyph-name="Ocircumflex" horiz-adv-x="1479" d="M104 520Q104 654 131 771T209 987T330 1161T488 1291T675 1371T887 1399Q1016 1399 1118 1361T1291 1253T1400 1083T1438 858Q1438 724 1411 607T1333 392T1212 218T1054 88T866 8T655
-20Q526 -20 424 17T251 125T142 295T104 520ZM388 552Q388 466 410 401T471 291T566 224T690 201Q778 201 861 243T1010 365T1114 561T1154 827Q1154 913 1132 978T1071 1088T975 1154T852 1177Q764 1177 681 1135T532 1013T428 817T388 552ZM715 1498Q706 1493
698 1491T678 1488Q661 1488 646 1495T620 1514T602 1541T595 1573Q595 1607 625 1630L848 1807Q875 1828 900 1841T960 1854Q995 1854 1018 1842T1061 1808L1222 1626Q1233 1615 1237 1603T1242 1576Q1242 1558 1234 1542T1214 1514T1185 1494T1150 1487Q1136
1487 1126 1490T1104 1502L934 1630L715 1498Z" />
<glyph unicode="&#xd5;" glyph-name="Otilde" horiz-adv-x="1479" d="M104 520Q104 654 131 771T209 987T330 1161T488 1291T675 1371T887 1399Q1016 1399 1118 1361T1291 1253T1400 1083T1438 858Q1438 724 1411 607T1333 392T1212 218T1054 88T866 8T655 -20Q526
-20 424 17T251 125T142 295T104 520ZM388 552Q388 466 410 401T471 291T566 224T690 201Q778 201 861 243T1010 365T1114 561T1154 827Q1154 913 1132 978T1071 1088T975 1154T852 1177Q764 1177 681 1135T532 1013T428 817T388 552ZM771 1605Q741 1605 721 1593T682
1566T646 1539T605 1526Q576 1526 555 1545T534 1603Q534 1635 554 1670T609 1735T693 1784T798 1803Q849 1803 887 1788T957 1755T1016 1721T1074 1706Q1104 1706 1125 1718T1164 1746T1199 1773T1240 1786Q1269 1786 1290 1767T1312 1709Q1312 1676 1292 1641T1236
1577T1152 1528T1048 1509Q996 1509 958 1524T889 1557T829 1590T771 1605Z" />
<glyph unicode="&#xd6;" glyph-name="Odieresis" horiz-adv-x="1479" d="M104 520Q104 654 131 771T209 987T330 1161T488 1291T675 1371T887 1399Q1016 1399 1118 1361T1291 1253T1400 1083T1438 858Q1438 724 1411 607T1333 392T1212 218T1054 88T866 8T655
-20Q526 -20 424 17T251 125T142 295T104 520ZM388 552Q388 466 410 401T471 291T566 224T690 201Q778 201 861 243T1010 365T1114 561T1154 827Q1154 913 1132 978T1071 1088T975 1154T852 1177Q764 1177 681 1135T532 1013T428 817T388 552ZM549 1648Q549 1682
561 1711T594 1761T645 1795T710 1807Q741 1807 767 1797T811 1767T840 1723T851 1668Q851 1634 839 1605T806 1554T756 1520T691 1508Q660 1508 634 1518T589 1548T560 1592T549 1648ZM998 1648Q998 1682 1010 1711T1043 1761T1094 1795T1159 1807Q1190 1807 1216
1797T1260 1767T1289 1723T1300 1668Q1300 1634 1288 1605T1255 1554T1205 1520T1140 1508Q1109 1508 1083 1518T1038 1548T1009 1592T998 1648Z" />
<glyph unicode="&#xd7;" glyph-name="multiply" horiz-adv-x="1167" d="M885 951Q905 967 923 975T962 983Q981 983 998 976T1028 956T1048 927T1056 892Q1056 869 1046 849T1013 809L741 578L933 359Q950 339 957 322T964 284Q964 263 957 245T936 214T904 192T863
184Q840 184 818 194T775 229L588 449L319 216Q302 201 283 193T245 184Q224 184 207 191T177 211T157 240T149 276Q149 298 158 318T191 359L462 589L270 809Q254 827 246 844T238 885Q238 905 246 922T268 953T300 974T339 982Q365 982 385 972T427 938L616 718L885
951Z" />
<glyph unicode="&#xd8;" glyph-name="Oslash" horiz-adv-x="1511" d="M259 122Q184 192 144 292T104 520Q104 654 132 771T211 987T334 1161T496 1291T689 1371T908 1399Q976 1399 1034 1389T1144 1359L1261 1522Q1268 1531 1273 1538T1282 1550T1289 1559T1296
1566Q1318 1589 1354 1589Q1375 1589 1394 1582T1430 1561T1455 1530T1465 1492Q1465 1474 1455 1457T1428 1416L1316 1260Q1391 1190 1430 1089T1470 858Q1470 657 1411 495T1245 218T994 42T676 -20Q607 -20 546 -10T430 23L311 -143Q297 -162 290 -171T276 -187Q254
-210 219 -210Q198 -210 179 -203T143 -182T118 -151T108 -113Q108 -95 118 -78T145 -37L259 122ZM566 220Q597 206 631 199T711 192Q810 192 899 234T1054 357T1160 556T1199 827Q1199 893 1186 944T1149 1036L566 220ZM1008 1161Q979 1174 946 1180T873 1187Q807
1187 744 1168T626 1113T524 1022T445 898T393 740T374 552Q374 489 387 438T426 346L1008 1161Z" />
<glyph unicode="&#xd9;" glyph-name="Ugrave" horiz-adv-x="1397" d="M281 1262Q292 1322 328 1353T434 1385Q503 1385 534 1354T554 1262L446 637Q440 605 436 579T428 529T424 485T422 443Q422 379 439 334T486 259T557 217T647 203Q706 203 760 223T858 286T934
392T981 546L1104 1262Q1115 1322 1151 1353T1257 1385Q1326 1385 1357 1354T1377 1262L1254 551Q1229 406 1175 299T1039 121T851 15T611 -20Q499 -20 413 7T267 87T177 220T146 405Q146 457 154 515T174 645L281 1262ZM575 1656Q555 1668 546 1684T537 1720Q537
1744 548 1769T578 1815T618 1849T664 1862Q679 1862 690 1857T713 1842L930 1635Q944 1621 952 1606T959 1572Q958 1554 950 1537T928 1508T897 1488T861 1482Q852 1483 843 1486T823 1495L575 1656Z" />
<glyph unicode="&#xda;" glyph-name="Uacute" horiz-adv-x="1397" d="M281 1262Q292 1322 328 1353T434 1385Q503 1385 534 1354T554 1262L446 637Q440 605 436 579T428 529T424 485T422 443Q422 379 439 334T486 259T557 217T647 203Q706 203 760 223T858 286T934
392T981 546L1104 1262Q1115 1322 1151 1353T1257 1385Q1326 1385 1357 1354T1377 1262L1254 551Q1229 406 1175 299T1039 121T851 15T611 -20Q499 -20 413 7T267 87T177 220T146 405Q146 457 154 515T174 645L281 1262ZM1061 1840Q1083 1854 1103 1854Q1125 1854
1145 1842T1181 1810T1206 1766T1215 1720Q1215 1697 1206 1679T1173 1649L879 1496Q870 1491 862 1489T844 1486Q826 1486 811 1494T785 1515T767 1545T760 1579Q760 1597 767 1613T792 1642L1061 1840Z" />
<glyph unicode="&#xdb;" glyph-name="Ucircumflex" horiz-adv-x="1397" d="M281 1262Q292 1322 328 1353T434 1385Q503 1385 534 1354T554 1262L446 637Q440 605 436 579T428 529T424 485T422 443Q422 379 439 334T486 259T557 217T647 203Q706 203 760 223T858
286T934 392T981 546L1104 1262Q1115 1322 1151 1353T1257 1385Q1326 1385 1357 1354T1377 1262L1254 551Q1229 406 1175 299T1039 121T851 15T611 -20Q499 -20 413 7T267 87T177 220T146 405Q146 457 154 515T174 645L281 1262ZM668 1498Q659 1493 651 1491T631
1488Q614 1488 599 1495T573 1514T555 1541T548 1573Q548 1607 578 1630L801 1807Q828 1828 853 1841T913 1854Q948 1854 971 1842T1014 1808L1175 1626Q1186 1615 1190 1603T1195 1576Q1195 1558 1187 1542T1167 1514T1138 1494T1103 1487Q1089 1487 1079 1490T1057
1502L887 1630L668 1498Z" />
<glyph unicode="&#xdc;" glyph-name="Udieresis" horiz-adv-x="1397" d="M281 1262Q292 1322 328 1353T434 1385Q503 1385 534 1354T554 1262L446 637Q440 605 436 579T428 529T424 485T422 443Q422 379 439 334T486 259T557 217T647 203Q706 203 760 223T858
286T934 392T981 546L1104 1262Q1115 1322 1151 1353T1257 1385Q1326 1385 1357 1354T1377 1262L1254 551Q1229 406 1175 299T1039 121T851 15T611 -20Q499 -20 413 7T267 87T177 220T146 405Q146 457 154 515T174 645L281 1262ZM503 1648Q503 1682 515 1711T548
1761T599 1795T664 1807Q695 1807 721 1797T765 1767T794 1723T805 1668Q805 1634 793 1605T760 1554T710 1520T645 1508Q614 1508 588 1518T543 1548T514 1592T503 1648ZM952 1648Q952 1682 964 1711T997 1761T1048 1795T1113 1807Q1144 1807 1170 1797T1214 1767T1243
1723T1254 1668Q1254 1634 1242 1605T1209 1554T1159 1520T1094 1508Q1063 1508 1037 1518T992 1548T963 1592T952 1648Z" />
<glyph unicode="&#xdd;" glyph-name="Yacute" horiz-adv-x="1127" d="M166 1167Q153 1197 148 1215T142 1254Q142 1282 155 1306T190 1349T240 1377T300 1388Q327 1388 349 1379T385 1356Q399 1342 408 1324T429 1273L572 893Q579 873 585 854T596 820Q601 802
605 786H609Q619 803 630 821Q640 837 652 857T679 897L963 1303Q976 1321 985 1333T1005 1356Q1019 1370 1040 1379T1086 1388Q1113 1388 1138 1378T1182 1351T1214 1312T1226 1264Q1226 1250 1223 1238T1214 1215T1201 1194T1186 1174L701 535L629 116Q618 56
582 25T476 -7Q407 -7 376 24T356 116L428 537L166 1167ZM910 1840Q932 1854 952 1854Q974 1854 994 1842T1030 1810T1055 1766T1064 1720Q1064 1697 1055 1679T1022 1649L728 1496Q719 1491 711 1489T693 1486Q675 1486 660 1494T634 1515T616 1545T609 1579Q609
1597 616 1613T641 1642L910 1840Z" />
<glyph unicode="&#xde;" glyph-name="Thorn" horiz-adv-x="1140" d="M365 116Q355 56 319 25T214 -7Q145 -7 115 24T94 116L293 1263Q303 1323 339 1354T444 1385Q478 1385 503 1377T543 1353T563 1316T565 1268L541 1129H672Q788 1129 873 1103T1015 1030T1098
919T1126 777Q1126 666 1086 572T967 410T775 304T512 265H391L365 116ZM554 475Q622 475 676 494T767 550T825 636T845 746Q845 787 833 819T795 872T729 905T630 916H503L427 475H554Z" />
<glyph unicode="&#xdf;" glyph-name="germandbls" horiz-adv-x="1265" d="M241 1066Q259 1172 304 1252T420 1387T585 1468T796 1495Q890 1495 960 1474T1077 1415T1147 1327T1170 1218Q1170 1150 1148 1099T1092 1007T1020 934T947 873T892 814T869 751Q869 717
892 692T951 642T1027 592T1104 532T1162 450T1186 337Q1186 260 1158 195T1075 82T937 8T746 -19Q651 -19 591 1T506 45Q490 61 482 79T474 123Q474 143 480 160T499 189T527 209T564 216Q584 216 601 211T640 198T687 186T753 180Q795 180 826 189T877 214T907
252T917 300Q917 337 893 364T834 414T756 462T679 518T619 593T595 700Q595 765 617 813T671 900T742 969T813 1030T868 1094T890 1171Q890 1225 856 1256T748 1287Q702 1287 662 1273T591 1229T537 1157T505 1058L303 -112Q285 -219 246 -291T152 -408T33 -471T-105
-490Q-178 -490 -220 -475T-282 -439Q-296 -425 -304 -407T-313 -366Q-313 -343 -306 -325T-287 -294T-258 -275T-221 -268Q-208 -268 -198 -270T-176 -275T-150 -280T-117 -283Q-89 -283 -65 -274T-20 -242T15 -183T40 -93L241 1066Z" />
<glyph unicode="&#xe0;" glyph-name="agrave" horiz-adv-x="1171" d="M1003 369Q995 326 990 293T982 233T977 188T975 152Q975 134 976 122T977 94Q977 48 948 20T863 -9Q830 -9 806 2T766 33T743 81T735 143H732Q700 97 653 62Q633 47 608 32T553 6T488 -12T413
-19Q336 -19 273 6T165 81T95 205T70 375Q70 531 115 654T245 862T448 992T717 1037Q795 1037 853 1028T953 1007T1019 980T1057 953Q1065 945 1072 935T1083 911T1087 879T1084 835L1003 369ZM810 795Q796 804 776 811Q759 817 733 822T672 828Q605 828 546 802T442
722T372 591T346 409Q346 353 357 313T388 248T436 210T498 198Q524 198 548 205T594 223T634 250T669 280Q706 316 735 363L810 795ZM495 1361Q484 1372 474 1386T464 1420Q464 1442 475 1464T506 1505T548 1534T595 1545Q616 1545 631 1537T658 1511L811 1276Q820
1264 824 1253T829 1228Q829 1210 821 1194T800 1166T770 1147T734 1139Q716 1139 704 1145T677 1165L495 1361Z" />
<glyph unicode="&#xe1;" glyph-name="aacute" horiz-adv-x="1171" d="M1003 369Q995 326 990 293T982 233T977 188T975 152Q975 134 976 122T977 94Q977 48 948 20T863 -9Q830 -9 806 2T766 33T743 81T735 143H732Q700 97 653 62Q633 47 608 32T553 6T488 -12T413
-19Q336 -19 273 6T165 81T95 205T70 375Q70 531 115 654T245 862T448 992T717 1037Q795 1037 853 1028T953 1007T1019 980T1057 953Q1065 945 1072 935T1083 911T1087 879T1084 835L1003 369ZM810 795Q796 804 776 811Q759 817 733 822T672 828Q605 828 546 802T442
722T372 591T346 409Q346 353 357 313T388 248T436 210T498 198Q524 198 548 205T594 223T634 250T669 280Q706 316 735 363L810 795ZM848 1517Q870 1539 901 1539Q923 1539 944 1528T981 1498T1008 1457T1018 1412Q1018 1392 1010 1377T985 1350L730 1159Q719
1151 708 1148T685 1144Q668 1144 652 1151T624 1171T605 1198T598 1230Q598 1245 604 1258T624 1286L848 1517Z" />
<glyph unicode="&#xe2;" glyph-name="acircumflex" horiz-adv-x="1171" d="M1003 369Q995 326 990 293T982 233T977 188T975 152Q975 134 976 122T977 94Q977 48 948 20T863 -9Q830 -9 806 2T766 33T743 81T735 143H732Q700 97 653 62Q633 47 608 32T553 6T488
-12T413 -19Q336 -19 273 6T165 81T95 205T70 375Q70 531 115 654T245 862T448 992T717 1037Q795 1037 853 1028T953 1007T1019 980T1057 953Q1065 945 1072 935T1083 911T1087 879T1084 835L1003 369ZM810 795Q796 804 776 811Q759 817 733 822T672 828Q605 828
546 802T442 722T372 591T346 409Q346 353 357 313T388 248T436 210T498 198Q524 198 548 205T594 223T634 250T669 280Q706 316 735 363L810 795ZM541 1163Q519 1149 498 1149Q481 1149 467 1156T443 1174T427 1199T421 1227Q421 1244 427 1258T448 1286L666 1480Q692
1503 716 1515T771 1527Q802 1527 824 1515T863 1481L1019 1281Q1028 1270 1032 1259T1036 1234Q1036 1216 1028 1200T1007 1172T978 1153T943 1145Q913 1145 890 1165L743 1305L541 1163Z" />
<glyph unicode="&#xe3;" glyph-name="atilde" horiz-adv-x="1171" d="M1003 369Q995 326 990 293T982 233T977 188T975 152Q975 134 976 122T977 94Q977 48 948 20T863 -9Q830 -9 806 2T766 33T743 81T735 143H732Q700 97 653 62Q633 47 608 32T553 6T488 -12T413
-19Q336 -19 273 6T165 81T95 205T70 375Q70 531 115 654T245 862T448 992T717 1037Q795 1037 853 1028T953 1007T1019 980T1057 953Q1065 945 1072 935T1083 911T1087 879T1084 835L1003 369ZM810 795Q796 804 776 811Q759 817 733 822T672 828Q605 828 546 802T442
722T372 591T346 409Q346 353 357 313T388 248T436 210T498 198Q524 198 548 205T594 223T634 250T669 280Q706 316 735 363L810 795ZM589 1270Q560 1270 540 1257T501 1228T464 1199T421 1186Q406 1186 393 1190T371 1204T355 1228T349 1262Q349 1297 369 1333T426
1399T509 1448T611 1467Q662 1467 698 1451T763 1417T817 1382T872 1366Q901 1366 922 1379T961 1408T997 1437T1040 1450Q1055 1450 1068 1446T1091 1432T1107 1408T1113 1374Q1113 1339 1092 1303T1036 1237T953 1188T851 1169Q799 1169 763 1185T699 1219T645
1254T589 1270Z" />
<glyph unicode="&#xe4;" glyph-name="adieresis" horiz-adv-x="1171" d="M1003 369Q995 326 990 293T982 233T977 188T975 152Q975 134 976 122T977 94Q977 48 948 20T863 -9Q830 -9 806 2T766 33T743 81T735 143H732Q700 97 653 62Q633 47 608 32T553 6T488 -12T413
-19Q336 -19 273 6T165 81T95 205T70 375Q70 531 115 654T245 862T448 992T717 1037Q795 1037 853 1028T953 1007T1019 980T1057 953Q1065 945 1072 935T1083 911T1087 879T1084 835L1003 369ZM810 795Q796 804 776 811Q759 817 733 822T672 828Q605 828 546 802T442
722T372 591T346 409Q346 353 357 313T388 248T436 210T498 198Q524 198 548 205T594 223T634 250T669 280Q706 316 735 363L810 795ZM364 1306Q364 1340 376 1369T409 1419T460 1452T525 1464Q555 1464 580 1454T624 1426T653 1383T664 1328Q664 1294 652 1265T619
1215T569 1181T504 1169Q474 1169 449 1179T404 1208T375 1252T364 1306ZM787 1306Q787 1340 799 1369T832 1419T883 1452T948 1464Q978 1464 1003 1454T1047 1426T1076 1383T1087 1328Q1087 1294 1075 1265T1042 1215T992 1181T927 1169Q897 1169 871 1179T827
1208T798 1252T787 1306Z" />
<glyph unicode="&#xe5;" glyph-name="aring" horiz-adv-x="1171" d="M1003 369Q995 326 990 293T982 233T977 188T975 152Q975 134 976 122T977 94Q977 48 948 20T863 -9Q830 -9 806 2T766 33T743 81T735 143H732Q700 97 653 62Q633 47 608 32T553 6T488 -12T413
-19Q336 -19 273 6T165 81T95 205T70 375Q70 531 115 654T245 862T448 992T717 1037Q795 1037 853 1028T953 1007T1019 980T1057 953Q1065 945 1072 935T1083 911T1087 879T1084 835L1003 369ZM810 795Q796 804 776 811Q759 817 733 822T672 828Q605 828 546 802T442
722T372 591T346 409Q346 353 357 313T388 248T436 210T498 198Q524 198 548 205T594 223T634 250T669 280Q706 316 735 363L810 795ZM470 1345Q470 1399 491 1445T551 1526T642 1580T755 1600Q812 1600 859 1584T941 1537T994 1466T1013 1374Q1013 1320 991 1273T931
1192T841 1138T727 1118Q670 1118 623 1134T541 1181T489 1253T470 1345ZM629 1359Q629 1307 659 1277T741 1247Q790 1247 821 1277T853 1359Q853 1412 823 1441T741 1471Q691 1471 660 1441T629 1359Z" />
<glyph unicode="&#xe6;" glyph-name="ae" horiz-adv-x="1655" d="M676 285Q673 303 670 322Q668 339 666 359T665 403Q647 408 626 412Q607 415 582 418T525 421Q422 421 366 387T310 289Q310 239 343 209T448 178Q499 178 541 194T613 231Q648 255 676 285ZM705
657Q714 704 710 737T686 790T630 820T540 829Q480 829 437 821T361 803T305 785T261 776Q224 776 204 799T183 856Q183 880 190 899T215 935Q235 955 272 973T359 1005T470 1027T599 1036Q668 1036 719 1026T806 999T866 958T904 907Q933 935 969 958T1048 999T1143
1027T1256 1037Q1343 1037 1409 1017T1518 960T1584 873T1606 765Q1606 676 1567 607T1445 492T1236 422T935 400Q936 350 951 311T996 245T1069 204T1171 190Q1223 190 1260 197T1324 212T1371 227T1411 234Q1447 234 1467 212T1487 158Q1487 130 1479 109T1453
71Q1435 53 1404 37T1331 8T1236 -12T1121 -20Q1054 -20 998 -10T897 20T814 68T749 133Q733 119 701 94T622 43T514 0T380 -19Q298 -19 236 1T131 59T67 147T45 259Q45 338 80 398T178 498T330 560T526 581Q563 581 592 579T643 573Q668 569 687 566L705 657ZM951
580Q1055 577 1130 586T1253 617T1324 669T1347 742Q1347 789 1317 816T1224 844Q1179 844 1138 828T1060 779T996 697T951 580Z" />
<glyph unicode="&#xe7;" glyph-name="ccedilla" horiz-adv-x="922" d="M340 1Q275 20 225 56T139 142T86 255T67 394Q67 537 113 655T240 858T430 989T668 1036Q748 1036 804 1017T889 968Q906 951 913 932T921 891Q921 869 914 851T894 820T864 800T826 792Q807
792 791 797T757 810T714 822T653 828Q595 828 540 801T441 722T372 597T346 432Q346 312 401 253T554 193Q592 193 619 198T668 211T705 223T738 229Q773 229 793 207T813 150Q813 124 805 104T777 63Q742 28 668 3T486 -20L457 -91Q490 -96 516 -108T562 -139T591
-186T602 -247Q602 -298 580 -342T515 -420T410 -473T269 -492Q229 -492 202 -486T159 -470T135 -444T128 -411Q128 -383 145 -365T191 -347Q206 -347 219 -348T254 -350Q292 -350 318 -344T361 -328T385 -303T393 -272Q393 -249 378 -236T327 -222H310Q284 -222
274 -205T278 -154L340 1Z" />
<glyph unicode="&#xe8;" glyph-name="egrave" horiz-adv-x="1059" d="M67 393Q67 540 111 659T235 862T422 991T658 1037Q745 1037 811 1017T920 960T986 873T1008 765Q1008 676 969 607T847 492T638 422T337 400Q338 351 353 312T398 246T471 205T573 190Q625
190 662 197T726 212T773 227T813 234Q849 234 869 212T889 158Q889 130 881 109T855 71Q837 53 806 37T733 8T639 -12T525 -20Q412 -20 327 9T184 93T97 224T67 393ZM353 580Q457 577 532 586T655 617T726 669T749 742Q749 789 719 816T626 844Q581 844 540 828T462
779T398 697T353 580ZM696 1361Q685 1372 675 1386T665 1420Q665 1442 676 1464T707 1505T749 1534T796 1545Q817 1545 832 1537T859 1511L1012 1276Q1021 1264 1025 1253T1030 1228Q1030 1210 1022 1194T1001 1166T971 1147T935 1139Q917 1139 905 1145T878 1165L696
1361Z" />
<glyph unicode="&#xe9;" glyph-name="eacute" horiz-adv-x="1059" d="M67 393Q67 540 111 659T235 862T422 991T658 1037Q745 1037 811 1017T920 960T986 873T1008 765Q1008 676 969 607T847 492T638 422T337 400Q338 351 353 312T398 246T471 205T573 190Q625
190 662 197T726 212T773 227T813 234Q849 234 869 212T889 158Q889 130 881 109T855 71Q837 53 806 37T733 8T639 -12T525 -20Q412 -20 327 9T184 93T97 224T67 393ZM353 580Q457 577 532 586T655 617T726 669T749 742Q749 789 719 816T626 844Q581 844 540 828T462
779T398 697T353 580ZM783 1517Q805 1539 836 1539Q858 1539 879 1528T916 1498T943 1457T953 1412Q953 1392 945 1377T920 1350L665 1159Q654 1151 643 1148T620 1144Q603 1144 587 1151T559 1171T540 1198T533 1230Q533 1245 539 1258T559 1286L783 1517Z" />
<glyph unicode="&#xea;" glyph-name="ecircumflex" horiz-adv-x="1059" d="M67 393Q67 540 111 659T235 862T422 991T658 1037Q745 1037 811 1017T920 960T986 873T1008 765Q1008 676 969 607T847 492T638 422T337 400Q338 351 353 312T398 246T471 205T573 190Q625
190 662 197T726 212T773 227T813 234Q849 234 869 212T889 158Q889 130 881 109T855 71Q837 53 806 37T733 8T639 -12T525 -20Q412 -20 327 9T184 93T97 224T67 393ZM353 580Q457 577 532 586T655 617T726 669T749 742Q749 789 719 816T626 844Q581 844 540 828T462
779T398 697T353 580ZM479 1163Q457 1149 436 1149Q419 1149 405 1156T381 1174T365 1199T359 1227Q359 1244 365 1258T386 1286L604 1480Q630 1503 654 1515T709 1527Q740 1527 762 1515T801 1481L957 1281Q966 1270 970 1259T974 1234Q974 1216 966 1200T945
1172T916 1153T881 1145Q851 1145 828 1165L681 1305L479 1163Z" />
<glyph unicode="&#xeb;" glyph-name="edieresis" horiz-adv-x="1059" d="M67 393Q67 540 111 659T235 862T422 991T658 1037Q745 1037 811 1017T920 960T986 873T1008 765Q1008 676 969 607T847 492T638 422T337 400Q338 351 353 312T398 246T471 205T573 190Q625
190 662 197T726 212T773 227T813 234Q849 234 869 212T889 158Q889 130 881 109T855 71Q837 53 806 37T733 8T639 -12T525 -20Q412 -20 327 9T184 93T97 224T67 393ZM353 580Q457 577 532 586T655 617T726 669T749 742Q749 789 719 816T626 844Q581 844 540 828T462
779T398 697T353 580ZM313 1306Q313 1340 325 1369T358 1419T409 1452T474 1464Q504 1464 529 1454T573 1426T602 1383T613 1328Q613 1294 601 1265T568 1215T518 1181T453 1169Q423 1169 398 1179T353 1208T324 1252T313 1306ZM736 1306Q736 1340 748 1369T781
1419T832 1452T897 1464Q927 1464 952 1454T996 1426T1025 1383T1036 1328Q1036 1294 1024 1265T991 1215T941 1181T876 1169Q846 1169 820 1179T776 1208T747 1252T736 1306Z" />
<glyph unicode="&#xec;" glyph-name="igrave" horiz-adv-x="554" d="M223 1361Q212 1372 202 1386T192 1420Q192 1442 203 1464T234 1505T276 1534T323 1545Q344 1545 359 1537T386 1511L539 1276Q548 1264 552 1253T557 1228Q557 1210 549 1194T528 1166T498
1147T462 1139Q444 1139 432 1145T405 1165L223 1361ZM213 904Q223 963 258 993T362 1024Q422 1024 451 1001T481 932Q481 921 480 909T474 876L342 113Q332 54 297 24T193 -7Q132 -7 103 16T74 85Q74 96 75 108T81 141L213 904Z" />
<glyph unicode="&#xed;" glyph-name="iacute" horiz-adv-x="554" d="M469 1517Q491 1539 522 1539Q544 1539 565 1528T602 1498T629 1457T639 1412Q639 1392 631 1377T606 1350L351 1159Q340 1151 329 1148T306 1144Q289 1144 273 1151T245 1171T226 1198T219
1230Q219 1245 225 1258T245 1286L469 1517ZM213 904Q223 963 258 993T362 1024Q422 1024 451 1001T481 932Q481 921 480 909T474 876L342 113Q332 54 297 24T193 -7Q132 -7 103 16T74 85Q74 96 75 108T81 141L213 904Z" />
<glyph unicode="&#xee;" glyph-name="icircumflex" horiz-adv-x="554" d="M213 904Q223 963 258 993T362 1024Q422 1024 451 1001T481 932Q481 921 480 909T474 876L342 113Q332 54 297 24T193 -7Q132 -7 103 16T74 85Q74 96 75 108T81 141L213 904ZM233 1166Q222
1158 211 1154T186 1150Q171 1150 157 1156T133 1172T116 1197T109 1227Q109 1242 115 1256T134 1283L337 1480Q362 1503 386 1515T440 1527Q470 1527 492 1516T531 1481L670 1279Q686 1259 686 1234Q686 1216 678 1200T656 1171T625 1152T591 1145Q575 1145 562
1151T537 1168L412 1305L233 1166Z" />
<glyph unicode="&#xef;" glyph-name="idieresis" horiz-adv-x="554" d="M213 904Q223 963 258 993T362 1024Q422 1024 451 1001T481 932Q481 921 480 909T474 876L342 113Q332 54 297 24T193 -7Q132 -7 103 16T74 85Q74 96 75 108T81 141L213 904ZM57 1306Q57
1339 69 1368T102 1418T152 1451T216 1463Q246 1463 271 1453T314 1425T342 1382T352 1328Q352 1295 341 1266T308 1216T258 1183T195 1171Q165 1171 140 1181T97 1209T68 1252T57 1306ZM457 1306Q457 1339 469 1368T502 1418T552 1451T616 1463Q646 1463 671 1453T714
1425T742 1382T752 1328Q752 1295 740 1266T707 1216T657 1183T594 1171Q565 1171 540 1181T497 1209T468 1252T457 1306Z" />
<glyph unicode="&#xf0;" glyph-name="eth" horiz-adv-x="1153" d="M913 1298Q1000 1195 1045 1054T1091 745Q1091 557 1046 414T921 175T731 29T491 -20Q389 -20 310 8T177 89T95 216T67 380Q67 518 112 631T237 825T428 949T674 993Q698 993 718 991T753 987T777
982T790 979Q762 1088 701 1164L559 1067Q546 1059 536 1055T513 1051Q496 1051 481 1058T455 1078T438 1106T431 1137Q431 1157 441 1173T471 1201L577 1276Q555 1290 539 1298T509 1312T487 1323T470 1336Q459 1347 454 1360T448 1389Q448 1407 456 1425T480
1458T519 1482T574 1492Q599 1492 628 1485T686 1467T742 1441T790 1412L928 1505Q941 1513 951 1517T975 1521Q992 1521 1006 1514T1032 1494T1049 1467T1056 1435Q1056 1415 1046 1399T1016 1371L913 1298ZM816 642Q818 671 818 700T817 758Q792 772 756 780T669
788Q599 788 539 762T436 687T368 568T343 408Q343 354 356 313T393 245T450 203T525 189Q581 189 632 214T722 293T787 434T816 642Z" />
<glyph unicode="&#xf1;" glyph-name="ntilde" horiz-adv-x="1200" d="M216 924Q225 976 254 1001T335 1027Q386 1027 414 999T442 919Q442 911 441 904T439 889Q438 881 437 874H441Q473 919 521 955Q541 970 567 984T624 1010T692 1029T772 1036Q848 1036 907
1015T1008 953T1071 853T1093 715Q1093 678 1087 631T1072 531T1052 426T1032 322T1016 228T1010 152Q1010 134 1011 122T1012 94Q1012 47 981 20T888 -7Q817 -7 780 30T742 136Q742 167 748 210T763 303T782 405T801 507T816 599T822 673Q822 748 786 783T680
819Q652 819 627 812T579 793T537 766T502 736Q464 699 436 653L342 113Q332 54 297 24T193 -7Q125 -7 96 23T76 113L216 924ZM585 1270Q556 1270 536 1257T497 1228T460 1199T417 1186Q402 1186 389 1190T367 1204T351 1228T345 1262Q345 1297 365 1333T422 1399T505
1448T607 1467Q658 1467 694 1451T759 1417T813 1382T868 1366Q897 1366 918 1379T957 1408T993 1437T1036 1450Q1051 1450 1064 1446T1087 1432T1103 1408T1109 1374Q1109 1339 1088 1303T1032 1237T949 1188T847 1169Q795 1169 759 1185T695 1219T641 1254T585
1270Z" />
<glyph unicode="&#xf2;" glyph-name="ograve" horiz-adv-x="1180" d="M70 389Q70 537 115 657T240 861T432 991T677 1037Q777 1037 857 1008T993 926T1079 797T1109 628Q1109 480 1064 360T939 156T747 26T502 -20Q402 -20 322 9T186 91T100 220T70 389ZM346 418Q346
361 360 318T399 247T460 204T539 189Q597 189 650 216T744 295T809 423T834 599Q834 656 820 699T781 770T720 813T641 828Q583 828 530 801T436 722T371 594T346 418ZM740 1361Q729 1372 719 1386T709 1420Q709 1442 720 1464T751 1505T793 1534T840 1545Q861
1545 876 1537T903 1511L1056 1276Q1065 1264 1069 1253T1074 1228Q1074 1210 1066 1194T1045 1166T1015 1147T979 1139Q961 1139 949 1145T922 1165L740 1361Z" />
<glyph unicode="&#xf3;" glyph-name="oacute" horiz-adv-x="1180" d="M70 389Q70 537 115 657T240 861T432 991T677 1037Q777 1037 857 1008T993 926T1079 797T1109 628Q1109 480 1064 360T939 156T747 26T502 -20Q402 -20 322 9T186 91T100 220T70 389ZM346 418Q346
361 360 318T399 247T460 204T539 189Q597 189 650 216T744 295T809 423T834 599Q834 656 820 699T781 770T720 813T641 828Q583 828 530 801T436 722T371 594T346 418ZM814 1517Q836 1539 867 1539Q889 1539 910 1528T947 1498T974 1457T984 1412Q984 1392 976
1377T951 1350L696 1159Q685 1151 674 1148T651 1144Q634 1144 618 1151T590 1171T571 1198T564 1230Q564 1245 570 1258T590 1286L814 1517Z" />
<glyph unicode="&#xf4;" glyph-name="ocircumflex" horiz-adv-x="1180" d="M70 389Q70 537 115 657T240 861T432 991T677 1037Q777 1037 857 1008T993 926T1079 797T1109 628Q1109 480 1064 360T939 156T747 26T502 -20Q402 -20 322 9T186 91T100 220T70 389ZM346
418Q346 361 360 318T399 247T460 204T539 189Q597 189 650 216T744 295T809 423T834 599Q834 656 820 699T781 770T720 813T641 828Q583 828 530 801T436 722T371 594T346 418ZM517 1163Q495 1149 474 1149Q457 1149 443 1156T419 1174T403 1199T397 1227Q397
1244 403 1258T424 1286L642 1480Q668 1503 692 1515T747 1527Q778 1527 800 1515T839 1481L995 1281Q1004 1270 1008 1259T1012 1234Q1012 1216 1004 1200T983 1172T954 1153T919 1145Q889 1145 866 1165L719 1305L517 1163Z" />
<glyph unicode="&#xf5;" glyph-name="otilde" horiz-adv-x="1180" d="M70 389Q70 537 115 657T240 861T432 991T677 1037Q777 1037 857 1008T993 926T1079 797T1109 628Q1109 480 1064 360T939 156T747 26T502 -20Q402 -20 322 9T186 91T100 220T70 389ZM346 418Q346
361 360 318T399 247T460 204T539 189Q597 189 650 216T744 295T809 423T834 599Q834 656 820 699T781 770T720 813T641 828Q583 828 530 801T436 722T371 594T346 418ZM567 1270Q538 1270 518 1257T479 1228T442 1199T399 1186Q384 1186 371 1190T349 1204T333
1228T327 1262Q327 1297 347 1333T404 1399T487 1448T589 1467Q640 1467 676 1451T741 1417T795 1382T850 1366Q879 1366 900 1379T939 1408T975 1437T1018 1450Q1033 1450 1046 1446T1069 1432T1085 1408T1091 1374Q1091 1339 1070 1303T1014 1237T931 1188T829
1169Q777 1169 741 1185T677 1219T623 1254T567 1270Z" />
<glyph unicode="&#xf6;" glyph-name="odieresis" horiz-adv-x="1180" d="M70 389Q70 537 115 657T240 861T432 991T677 1037Q777 1037 857 1008T993 926T1079 797T1109 628Q1109 480 1064 360T939 156T747 26T502 -20Q402 -20 322 9T186 91T100 220T70 389ZM346
418Q346 361 360 318T399 247T460 204T539 189Q597 189 650 216T744 295T809 423T834 599Q834 656 820 699T781 770T720 813T641 828Q583 828 530 801T436 722T371 594T346 418ZM349 1306Q349 1340 361 1369T394 1419T445 1452T510 1464Q540 1464 565 1454T609
1426T638 1383T649 1328Q649 1294 637 1265T604 1215T554 1181T489 1169Q459 1169 434 1179T389 1208T360 1252T349 1306ZM772 1306Q772 1340 784 1369T817 1419T868 1452T933 1464Q963 1464 988 1454T1032 1426T1061 1383T1072 1328Q1072 1294 1060 1265T1027
1215T977 1181T912 1169Q882 1169 856 1179T812 1208T783 1252T772 1306Z" />
<glyph unicode="&#xf7;" glyph-name="divide" horiz-adv-x="1167" d="M954 683Q998 683 1020 662T1042 600Q1042 574 1034 553T1010 516T973 493T925 484H244Q199 484 177 505T155 566Q155 592 163 613T187 650T224 674T273 683H954ZM518 923Q518 954 529 981T560
1028T607 1059T666 1071Q694 1071 718 1061T761 1034T789 992T800 939Q800 907 789 880T757 834T710 803T650 791Q622 791 598 801T556 829T528 871T518 923ZM396 228Q396 259 407 286T439 334T486 365T545 377Q573 377 597 367T640 339T668 297T678 244Q678 212
667 185T635 139T588 108T528 96Q500 96 476 106T434 134T406 176T396 228Z" />
<glyph unicode="&#xf8;" glyph-name="oslash" horiz-adv-x="1180" d="M169 110Q122 161 96 231T70 389Q70 537 115 657T240 861T432 991T677 1037Q725 1037 768 1030T848 1007L965 1161Q981 1182 997 1192T1038 1203Q1058 1203 1077 1196T1112 1175T1136 1145T1146
1109Q1146 1095 1141 1083T1124 1056L1011 907Q1060 853 1084 783T1109 628Q1109 480 1064 360T939 156T747 26T502 -20Q453 -20 412 -12T332 10L217 -142Q201 -162 185 -173T144 -184Q124 -184 105 -176T70 -155T46 -125T36 -89Q36 -75 41 -63T58 -36L169 110ZM725
825Q705 835 685 839T641 843Q576 843 519 816T418 736T349 603T323 418Q323 388 327 365T342 321L725 825ZM456 192Q474 182 495 178T539 174Q603 174 661 201T762 281T831 414T857 599Q857 629 852 652T838 696L456 192Z" />
<glyph unicode="&#xf9;" glyph-name="ugrave" horiz-adv-x="1196" d="M205 904Q215 963 250 993T354 1024Q422 1024 451 994T471 904L389 429Q384 403 382 384T380 344Q380 269 416 234T518 198Q546 198 571 205T618 223T660 250T695 281Q732 317 761 364L855
904Q866 963 901 993T1005 1024Q1073 1024 1102 994T1122 904L1029 369Q1022 326 1017 293T1009 233T1004 188T1002 152Q1002 134 1003 122T1004 94Q1004 48 974 20T890 -9Q823 -9 792 32T761 143H757Q724 97 676 62Q655 47 630 32T573 6T505 -12T426 -19Q351 -19
293 2T193 64T131 164T109 302Q109 328 112 359T121 423L205 904ZM723 1361Q712 1372 702 1386T692 1420Q692 1442 703 1464T734 1505T776 1534T823 1545Q844 1545 859 1537T886 1511L1039 1276Q1048 1264 1052 1253T1057 1228Q1057 1210 1049 1194T1028 1166T998
1147T962 1139Q944 1139 932 1145T905 1165L723 1361Z" />
<glyph unicode="&#xfa;" glyph-name="uacute" horiz-adv-x="1196" d="M205 904Q215 963 250 993T354 1024Q422 1024 451 994T471 904L389 429Q384 403 382 384T380 344Q380 269 416 234T518 198Q546 198 571 205T618 223T660 250T695 281Q732 317 761 364L855
904Q866 963 901 993T1005 1024Q1073 1024 1102 994T1122 904L1029 369Q1022 326 1017 293T1009 233T1004 188T1002 152Q1002 134 1003 122T1004 94Q1004 48 974 20T890 -9Q823 -9 792 32T761 143H757Q724 97 676 62Q655 47 630 32T573 6T505 -12T426 -19Q351 -19
293 2T193 64T131 164T109 302Q109 328 112 359T121 423L205 904ZM837 1517Q859 1539 890 1539Q912 1539 933 1528T970 1498T997 1457T1007 1412Q1007 1392 999 1377T974 1350L719 1159Q708 1151 697 1148T674 1144Q657 1144 641 1151T613 1171T594 1198T587 1230Q587
1245 593 1258T613 1286L837 1517Z" />
<glyph unicode="&#xfb;" glyph-name="ucircumflex" horiz-adv-x="1196" d="M205 904Q215 963 250 993T354 1024Q422 1024 451 994T471 904L389 429Q384 403 382 384T380 344Q380 269 416 234T518 198Q546 198 571 205T618 223T660 250T695 281Q732 317 761 364L855
904Q866 963 901 993T1005 1024Q1073 1024 1102 994T1122 904L1029 369Q1022 326 1017 293T1009 233T1004 188T1002 152Q1002 134 1003 122T1004 94Q1004 48 974 20T890 -9Q823 -9 792 32T761 143H757Q724 97 676 62Q655 47 630 32T573 6T505 -12T426 -19Q351 -19
293 2T193 64T131 164T109 302Q109 328 112 359T121 423L205 904ZM521 1163Q499 1149 478 1149Q461 1149 447 1156T423 1174T407 1199T401 1227Q401 1244 407 1258T428 1286L646 1480Q672 1503 696 1515T751 1527Q782 1527 804 1515T843 1481L999 1281Q1008 1270
1012 1259T1016 1234Q1016 1216 1008 1200T987 1172T958 1153T923 1145Q893 1145 870 1165L723 1305L521 1163Z" />
<glyph unicode="&#xfc;" glyph-name="udieresis" horiz-adv-x="1196" d="M205 904Q215 963 250 993T354 1024Q422 1024 451 994T471 904L389 429Q384 403 382 384T380 344Q380 269 416 234T518 198Q546 198 571 205T618 223T660 250T695 281Q732 317 761 364L855
904Q866 963 901 993T1005 1024Q1073 1024 1102 994T1122 904L1029 369Q1022 326 1017 293T1009 233T1004 188T1002 152Q1002 134 1003 122T1004 94Q1004 48 974 20T890 -9Q823 -9 792 32T761 143H757Q724 97 676 62Q655 47 630 32T573 6T505 -12T426 -19Q351 -19
293 2T193 64T131 164T109 302Q109 328 112 359T121 423L205 904ZM355 1306Q355 1340 367 1369T400 1419T451 1452T516 1464Q546 1464 571 1454T615 1426T644 1383T655 1328Q655 1294 643 1265T610 1215T560 1181T495 1169Q465 1169 440 1179T395 1208T366 1252T355
1306ZM778 1306Q778 1340 790 1369T823 1419T874 1452T939 1464Q969 1464 994 1454T1038 1426T1067 1383T1078 1328Q1078 1294 1066 1265T1033 1215T983 1181T918 1169Q888 1169 862 1179T818 1208T789 1252T778 1306Z" />
<glyph unicode="&#xfd;" glyph-name="yacute" horiz-adv-x="1036" d="M477 176Q518 249 557 327T634 496T711 691T787 919Q795 945 802 963T825 997Q839 1011 861 1019T910 1028Q935 1028 959 1021T1002 1001T1032 968T1044 924Q1044 913 1041 899T1030 862Q980
707 920 561T791 281T646 31T488 -181Q419 -262 352 -319T218 -412T86 -466T-42 -483Q-99 -483 -133 -471T-187 -440Q-203 -425 -211 -406T-219 -361Q-219 -340 -212 -322T-193 -291T-164 -271T-127 -263Q-100 -263 -79 -267T-29 -272Q5 -272 39 -264T109 -234T184
-178T266 -88Q246 66 226 196T187 441T147 659T105 863Q102 878 100 892T97 915Q97 942 110 963T144 998T191 1020T243 1028Q274 1028 297 1019T335 996Q349 982 355 965T367 922Q399 757 426 572T473 176H477ZM763 1517Q785 1539 816 1539Q838 1539 859 1528T896
1498T923 1457T933 1412Q933 1392 925 1377T900 1350L645 1159Q634 1151 623 1148T600 1144Q583 1144 567 1151T539 1171T520 1198T513 1230Q513 1245 519 1258T539 1286L763 1517Z" />
<glyph unicode="&#xfe;" glyph-name="thorn" horiz-adv-x="1171" d="M361 220Q375 210 395 203Q412 197 438 192T499 187Q566 187 625 213T729 293T799 425T825 608Q825 664 814 704T783 769T735 807T672 819Q646 819 622 812T576 793T535 766T501 736Q464 700
436 654L361 220ZM291 1362Q301 1421 337 1451T441 1482Q509 1482 539 1452T558 1362L507 1064Q499 1023 491 986T469 906H472Q502 942 544 971Q562 983 584 994T633 1015T691 1030T758 1036Q835 1036 898 1011T1007 936T1076 812T1101 642Q1101 486 1056 363T926
155T723 25T455 -20Q425 -20 401 -18T359 -12Q339 -8 323 -4L320 -5Q316 -31 313 -57T304 -113Q293 -175 283 -235T261 -358Q250 -417 215 -447T111 -478Q43 -478 14 -448T-6 -358L291 1362Z" />
<glyph unicode="&#xff;" glyph-name="ydieresis" horiz-adv-x="1036" d="M477 176Q518 249 557 327T634 496T711 691T787 919Q795 945 802 963T825 997Q839 1011 861 1019T910 1028Q935 1028 959 1021T1002 1001T1032 968T1044 924Q1044 913 1041 899T1030 862Q980
707 920 561T791 281T646 31T488 -181Q419 -262 352 -319T218 -412T86 -466T-42 -483Q-99 -483 -133 -471T-187 -440Q-203 -425 -211 -406T-219 -361Q-219 -340 -212 -322T-193 -291T-164 -271T-127 -263Q-100 -263 -79 -267T-29 -272Q5 -272 39 -264T109 -234T184
-178T266 -88Q246 66 226 196T187 441T147 659T105 863Q102 878 100 892T97 915Q97 942 110 963T144 998T191 1020T243 1028Q274 1028 297 1019T335 996Q349 982 355 965T367 922Q399 757 426 572T473 176H477ZM531 1306Q531 1340 543 1369T576 1419T627 1452T692
1464Q722 1464 747 1454T791 1426T820 1383T831 1328Q831 1294 819 1265T786 1215T736 1181T671 1169Q641 1169 616 1179T571 1208T542 1252T531 1306ZM954 1306Q954 1340 966 1369T999 1419T1050 1452T1115 1464Q1145 1464 1170 1454T1214 1426T1243 1383T1254
1328Q1254 1294 1242 1265T1209 1215T1159 1181T1094 1169Q1064 1169 1038 1179T994 1208T965 1252T954 1306Z" />
<glyph unicode="&#x100;" glyph-name="Amacron" horiz-adv-x="1267" d="M242 95Q228 68 221 53T201 25Q187 10 165 0T112 -10Q87 -10 63 -2T18 20T-14 55T-27 101Q-27 121 -20 140T2 186L520 1191Q532 1215 542 1234T563 1268T583 1297T608 1325Q636 1353 676
1368T778 1384Q832 1384 867 1373T926 1339Q951 1314 963 1277T984 1186L1157 168Q1162 139 1163 126T1165 105Q1165 80 1153 59T1120 23T1071 -1T1012 -10Q981 -10 957 -1T916 25Q899 42 894 65T883 118L850 324H354L242 95ZM822 537L762 931Q756 972 751 1007T743
1071Q739 1103 737 1131H733Q721 1103 707 1071Q695 1043 679 1008T642 931L452 537H822ZM1074 1746Q1113 1746 1132 1726T1152 1665Q1152 1639 1145 1619T1124 1584T1091 1561T1049 1553H540Q501 1553 481 1573T461 1633Q461 1659 468 1680T490 1715T523 1738T565
1746H1074Z" />
<glyph unicode="&#x101;" glyph-name="amacron" horiz-adv-x="1171" d="M1003 369Q995 326 990 293T982 233T977 188T975 152Q975 134 976 122T977 94Q977 48 948 20T863 -9Q830 -9 806 2T766 33T743 81T735 143H732Q700 97 653 62Q633 47 608 32T553 6T488 -12T413
-19Q336 -19 273 6T165 81T95 205T70 375Q70 531 115 654T245 862T448 992T717 1037Q795 1037 853 1028T953 1007T1019 980T1057 953Q1065 945 1072 935T1083 911T1087 879T1084 835L1003 369ZM810 795Q796 804 776 811Q759 817 733 822T672 828Q605 828 546 802T442
722T372 591T346 409Q346 353 357 313T388 248T436 210T498 198Q524 198 548 205T594 223T634 250T669 280Q706 316 735 363L810 795ZM999 1411Q1037 1411 1056 1391T1076 1331Q1076 1305 1069 1285T1047 1250T1014 1228T973 1220H471Q433 1220 413 1240T393 1299Q393
1325 400 1345T422 1380T454 1403T496 1411H999Z" />
<glyph unicode="&#x102;" glyph-name="Abreve" horiz-adv-x="1267" d="M242 95Q228 68 221 53T201 25Q187 10 165 0T112 -10Q87 -10 63 -2T18 20T-14 55T-27 101Q-27 121 -20 140T2 186L520 1191Q532 1215 542 1234T563 1268T583 1297T608 1325Q636 1353 676 1368T778
1384Q832 1384 867 1373T926 1339Q951 1314 963 1277T984 1186L1157 168Q1162 139 1163 126T1165 105Q1165 80 1153 59T1120 23T1071 -1T1012 -10Q981 -10 957 -1T916 25Q899 42 894 65T883 118L850 324H354L242 95ZM822 537L762 931Q756 972 751 1007T743 1071Q739
1103 737 1131H733Q721 1103 707 1071Q695 1043 679 1008T642 931L452 537H822ZM509 1728Q509 1793 538 1821T613 1849Q647 1849 666 1832T687 1779Q688 1726 718 1699T814 1672Q880 1672 921 1702T979 1785Q990 1817 1011 1833T1067 1849Q1105 1849 1125 1827T1145
1767Q1145 1709 1117 1658T1039 1569T926 1509T792 1487Q727 1487 675 1505T586 1556T529 1632T509 1728Z" />
<glyph unicode="&#x103;" glyph-name="abreve" horiz-adv-x="1171" d="M1003 369Q995 326 990 293T982 233T977 188T975 152Q975 134 976 122T977 94Q977 48 948 20T863 -9Q830 -9 806 2T766 33T743 81T735 143H732Q700 97 653 62Q633 47 608 32T553 6T488 -12T413
-19Q336 -19 273 6T165 81T95 205T70 375Q70 531 115 654T245 862T448 992T717 1037Q795 1037 853 1028T953 1007T1019 980T1057 953Q1065 945 1072 935T1083 911T1087 879T1084 835L1003 369ZM810 795Q796 804 776 811Q759 817 733 822T672 828Q605 828 546 802T442
722T372 591T346 409Q346 353 357 313T388 248T436 210T498 198Q524 198 548 205T594 223T634 250T669 280Q706 316 735 363L810 795ZM440 1379Q440 1412 448 1435T470 1474T503 1496T545 1503Q577 1503 595 1487T616 1435Q618 1380 644 1348T732 1316Q798 1316
836 1350T891 1441Q910 1503 975 1503Q1053 1503 1053 1423Q1053 1364 1028 1312T958 1221T849 1159T710 1136Q651 1136 602 1153T516 1201T460 1278T440 1379Z" />
<glyph unicode="&#x104;" glyph-name="Aogonek" horiz-adv-x="1267" d="M822 537L762 931Q756 972 751 1007T743 1071Q739 1103 737 1131H733Q721 1103 707 1071Q695 1043 679 1008T642 931L452 537H822ZM242 95Q228 68 221 53T201 25Q187 10 165 0T112 -10Q87
-10 63 -2T18 20T-14 55T-27 101Q-27 121 -20 140T2 186L520 1191Q532 1215 542 1234T563 1268T583 1297T608 1325Q636 1353 676 1368T778 1384Q832 1384 867 1373T926 1339Q951 1314 963 1277T984 1186L1157 168Q1162 139 1163 126T1165 105Q1165 79 1154 60T1129
29Q1083 -12 1041 -50T966 -124T915 -194T895 -260Q895 -312 949 -312Q965 -312 977 -310T1001 -305T1022 -300T1044 -297Q1069 -297 1084 -314T1099 -356Q1099 -398 1069 -428Q1040 -457 987 -474T863 -492Q760 -492 705 -446T649 -316Q649 -266 672 -219T733
-129T819 -48T919 23Q911 30 906 38T897 56T891 78T885 106L850 324H354L242 95Z" />
<glyph unicode="&#x105;" glyph-name="aogonek" horiz-adv-x="1171" d="M1003 369Q995 326 990 293T982 233T977 188T975 152Q975 134 976 122T977 94Q977 72 971 54T949 20Q939 10 924 -3T889 -33T848 -68T804 -108Q762 -150 739 -187T716 -260Q716 -312 771
-312Q787 -312 799 -310T823 -305T844 -300T866 -297Q891 -297 906 -314T921 -356Q921 -398 891 -428Q862 -457 809 -474T684 -492Q581 -492 526 -446T470 -316Q470 -263 496 -215T564 -123T659 -42T768 27Q753 45 744 73T735 143H732Q700 97 653 62Q633 47 608
32T553 6T488 -12T413 -19Q336 -19 273 6T165 81T95 205T70 375Q70 531 115 654T245 862T448 992T717 1037Q795 1037 853 1028T953 1007T1019 980T1057 953Q1065 945 1072 935T1083 911T1087 879T1084 835L1003 369ZM810 795Q796 804 776 811Q759 817 733 822T672
828Q605 828 546 802T442 722T372 591T346 409Q346 353 357 313T388 248T436 210T498 198Q524 198 548 205T594 223T634 250T669 280Q706 316 735 363L810 795Z" />
<glyph unicode="&#x106;" glyph-name="Cacute" horiz-adv-x="1165" d="M100 518Q100 651 127 768T205 983T325 1157T480 1287T664 1368T868 1396Q929 1396 979 1389T1068 1369T1134 1340T1178 1308Q1195 1290 1203 1270T1212 1224Q1212 1179 1185 1150T1112 1120Q1089
1120 1068 1128T1020 1147T953 1165T855 1174Q765 1174 681 1132T531 1010T426 815T386 553Q386 468 407 403T468 295T564 229T690 207Q750 207 792 216T865 235T919 255T963 264Q1001 264 1021 241T1042 181Q1042 153 1033 131T1004 88Q982 66 946 47T863 14T758
-9T635 -17Q509 -17 410 19T242 125T137 293T100 518ZM1015 1840Q1037 1854 1057 1854Q1079 1854 1099 1842T1135 1810T1160 1766T1169 1720Q1169 1697 1160 1679T1127 1649L833 1496Q824 1491 816 1489T798 1486Q780 1486 765 1494T739 1515T721 1545T714 1579Q714
1597 721 1613T746 1642L1015 1840Z" />
<glyph unicode="&#x107;" glyph-name="cacute" horiz-adv-x="922" d="M67 394Q67 537 113 655T240 858T430 989T668 1036Q748 1036 804 1017T889 968Q906 951 913 932T921 891Q921 869 914 851T894 820T864 800T826 792Q807 792 791 797T757 810T714 822T653 828Q595
828 540 801T441 722T372 597T346 432Q346 312 401 253T554 193Q592 193 619 198T668 211T705 223T738 229Q773 229 793 207T813 150Q813 124 805 104T777 63Q744 30 673 5T494 -20Q394 -20 315 9T181 92T97 222T67 394ZM763 1517Q785 1539 816 1539Q838 1539 859
1528T896 1498T923 1457T933 1412Q933 1392 925 1377T900 1350L645 1159Q634 1151 623 1148T600 1144Q583 1144 567 1151T539 1171T520 1198T513 1230Q513 1245 519 1258T539 1286L763 1517Z" />
<glyph unicode="&#x108;" glyph-name="Ccircumflex" horiz-adv-x="1165" d="M100 518Q100 651 127 768T205 983T325 1157T480 1287T664 1368T868 1396Q929 1396 979 1389T1068 1369T1134 1340T1178 1308Q1195 1290 1203 1270T1212 1224Q1212 1179 1185 1150T1112
1120Q1089 1120 1068 1128T1020 1147T953 1165T855 1174Q765 1174 681 1132T531 1010T426 815T386 553Q386 468 407 403T468 295T564 229T690 207Q750 207 792 216T865 235T919 255T963 264Q1001 264 1021 241T1042 181Q1042 153 1033 131T1004 88Q982 66 946 47T863
14T758 -9T635 -17Q509 -17 410 19T242 125T137 293T100 518ZM658 1498Q649 1493 641 1491T621 1488Q604 1488 589 1495T563 1514T545 1541T538 1573Q538 1607 568 1630L791 1807Q818 1828 843 1841T903 1854Q938 1854 961 1842T1004 1808L1165 1626Q1176 1615
1180 1603T1185 1576Q1185 1558 1177 1542T1157 1514T1128 1494T1093 1487Q1079 1487 1069 1490T1047 1502L877 1630L658 1498Z" />
<glyph unicode="&#x109;" glyph-name="ccircumflex" horiz-adv-x="922" d="M67 394Q67 537 113 655T240 858T430 989T668 1036Q748 1036 804 1017T889 968Q906 951 913 932T921 891Q921 869 914 851T894 820T864 800T826 792Q807 792 791 797T757 810T714 822T653
828Q595 828 540 801T441 722T372 597T346 432Q346 312 401 253T554 193Q592 193 619 198T668 211T705 223T738 229Q773 229 793 207T813 150Q813 124 805 104T777 63Q744 30 673 5T494 -20Q394 -20 315 9T181 92T97 222T67 394ZM462 1163Q440 1149 419 1149Q402
1149 388 1156T364 1174T348 1199T342 1227Q342 1244 348 1258T369 1286L587 1480Q613 1503 637 1515T692 1527Q723 1527 745 1515T784 1481L940 1281Q949 1270 953 1259T957 1234Q957 1216 949 1200T928 1172T899 1153T864 1145Q834 1145 811 1165L664 1305L462
1163Z" />
<glyph unicode="&#x10a;" glyph-name="Cdotaccent" horiz-adv-x="1165" d="M100 518Q100 651 127 768T205 983T325 1157T480 1287T664 1368T868 1396Q929 1396 979 1389T1068 1369T1134 1340T1178 1308Q1195 1290 1203 1270T1212 1224Q1212 1179 1185 1150T1112
1120Q1089 1120 1068 1128T1020 1147T953 1165T855 1174Q765 1174 681 1132T531 1010T426 815T386 553Q386 468 407 403T468 295T564 229T690 207Q750 207 792 216T865 235T919 255T963 264Q1001 264 1021 241T1042 181Q1042 153 1033 131T1004 88Q982 66 946 47T863
14T758 -9T635 -17Q509 -17 410 19T242 125T137 293T100 518ZM721 1652Q721 1686 733 1715T766 1765T817 1799T882 1811Q913 1811 939 1801T983 1772T1012 1728T1023 1672Q1023 1638 1011 1609T978 1559T928 1525T863 1513Q832 1513 806 1523T761 1553T732 1597T721
1652Z" />
<glyph unicode="&#x10b;" glyph-name="cdotaccent" horiz-adv-x="922" d="M67 394Q67 537 113 655T240 858T430 989T668 1036Q748 1036 804 1017T889 968Q906 951 913 932T921 891Q921 869 914 851T894 820T864 800T826 792Q807 792 791 797T757 810T714 822T653
828Q595 828 540 801T441 722T372 597T346 432Q346 312 401 253T554 193Q592 193 619 198T668 211T705 223T738 229Q773 229 793 207T813 150Q813 124 805 104T777 63Q744 30 673 5T494 -20Q394 -20 315 9T181 92T97 222T67 394ZM512 1312Q512 1346 524 1375T557
1425T609 1458T674 1470Q704 1470 729 1460T773 1431T802 1388T813 1334Q813 1300 801 1271T768 1221T717 1187T652 1175Q622 1175 597 1185T553 1214T523 1257T512 1312Z" />
<glyph unicode="&#x10c;" glyph-name="Ccaron" horiz-adv-x="1165" d="M100 518Q100 651 127 768T205 983T325 1157T480 1287T664 1368T868 1396Q929 1396 979 1389T1068 1369T1134 1340T1178 1308Q1195 1290 1203 1270T1212 1224Q1212 1179 1185 1150T1112 1120Q1089
1120 1068 1128T1020 1147T953 1165T855 1174Q765 1174 681 1132T531 1010T426 815T386 553Q386 468 407 403T468 295T564 229T690 207Q750 207 792 216T865 235T919 255T963 264Q1001 264 1021 241T1042 181Q1042 153 1033 131T1004 88Q982 66 946 47T863 14T758
-9T635 -17Q509 -17 410 19T242 125T137 293T100 518ZM1089 1845Q1105 1855 1126 1855Q1143 1855 1158 1848T1184 1829T1201 1802T1208 1771Q1208 1736 1179 1713L955 1536Q928 1515 903 1502T844 1489Q809 1489 786 1502T742 1536L581 1717Q570 1729 566 1741T561
1768Q561 1786 569 1802T590 1830T619 1849T653 1856Q667 1856 678 1853T700 1841L870 1713L1089 1845Z" />
<glyph unicode="&#x10d;" glyph-name="ccaron" horiz-adv-x="922" d="M67 394Q67 537 113 655T240 858T430 989T668 1036Q748 1036 804 1017T889 968Q906 951 913 932T921 891Q921 869 914 851T894 820T864 800T826 792Q807 792 791 797T757 810T714 822T653 828Q595
828 540 801T441 722T372 597T346 432Q346 312 401 253T554 193Q592 193 619 198T668 211T705 223T738 229Q773 229 793 207T813 150Q813 124 805 104T777 63Q744 30 673 5T494 -20Q394 -20 315 9T181 92T97 222T67 394ZM854 1505Q876 1519 898 1519Q915 1519 929
1512T953 1494T969 1469T975 1441Q975 1424 969 1410T947 1382L729 1188Q703 1165 679 1153T624 1141Q593 1141 571 1153T532 1187L377 1387Q367 1398 363 1409T359 1434Q359 1452 367 1468T388 1496T418 1515T453 1523Q482 1523 505 1503L652 1363L854 1505Z"
/>
<glyph unicode="&#x10e;" glyph-name="Dcaron" horiz-adv-x="1391" d="M292 1261Q303 1321 335 1349T428 1378H764Q911 1378 1021 1342T1206 1237T1317 1069T1354 846Q1354 656 1293 500T1120 233T852 61T503 0H199Q138 0 112 32T96 127L292 1261ZM547 215Q662
215 758 255T923 371T1031 560T1070 816Q1070 990 983 1076T716 1163H548L384 215H547ZM1049 1845Q1065 1855 1086 1855Q1103 1855 1118 1848T1144 1829T1161 1802T1168 1771Q1168 1736 1139 1713L915 1536Q888 1515 863 1502T804 1489Q769 1489 746 1502T702 1536L541
1717Q530 1729 526 1741T521 1768Q521 1786 529 1802T550 1830T579 1849T613 1856Q627 1856 638 1853T660 1841L830 1713L1049 1845Z" />
<glyph unicode="&#x10f;" glyph-name="dcaron" horiz-adv-x="1335" d="M908 1362Q919 1421 954 1451T1058 1482Q1126 1482 1155 1452T1175 1362L1003 369Q995 326 990 293T982 233T977 188T975 152Q975 134 976 122T977 94Q977 48 948 20T863 -9Q830 -9 806 2T766
33T743 81T735 143H732Q700 97 653 62Q633 47 608 32T553 6T488 -12T413 -19Q336 -19 273 6T165 81T95 205T70 375Q70 531 115 654T245 862T448 992T717 1037Q746 1037 770 1035T812 1029Q832 1025 849 1021L852 1022Q855 1048 859 1074T868 1130L908 1362ZM810
795Q796 804 776 811Q759 817 733 822T672 828Q605 828 546 802T442 722T372 591T346 409Q346 353 357 313T388 248T436 210T499 198Q525 198 549 205T594 223T634 250T669 280Q705 316 735 363L810 795ZM1372 1534Q1383 1560 1403 1570T1450 1580Q1472 1580 1495
1573T1536 1553T1565 1523T1577 1485Q1577 1474 1574 1464T1562 1441L1401 1177Q1390 1158 1373 1150T1333 1142Q1316 1142 1300 1147T1271 1162T1250 1185T1242 1215Q1242 1224 1244 1232T1251 1252L1372 1534Z" />
<glyph unicode="&#x110;" glyph-name="Dcroat" horiz-adv-x="1427" d="M148 618Q110 618 90 638T69 700Q69 727 76 748T98 784T131 807T173 815H252L329 1261Q340 1321 372 1349T465 1378H801Q948 1378 1058 1342T1243 1237T1354 1069T1392 846Q1392 656 1331
500T1158 233T889 61T540 0H236Q176 0 150 32T134 127L218 618H148ZM422 215H584Q699 215 795 255T960 371T1069 560T1108 816Q1108 990 1020 1076T753 1163H585L525 815H713Q751 815 771 795T792 732Q792 705 784 684T763 649T730 626T688 618H491L422 215Z" />
<glyph unicode="&#x111;" glyph-name="dcroat" horiz-adv-x="1179" d="M678 1144Q646 1144 627 1163T607 1218Q607 1269 633 1296T703 1323H902L915 1396Q923 1443 960 1466T1059 1489Q1120 1489 1153 1465T1179 1395L1168 1323H1237Q1270 1323 1289 1304T1308
1249Q1308 1198 1283 1171T1213 1144H1137L1003 369Q995 326 990 293T982 233T977 188T975 152Q975 134 976 122T977 94Q977 48 948 20T863 -9Q830 -9 806 2T766 33T743 81T735 143H732Q700 97 653 62Q633 47 608 32T553 6T488 -12T413 -19Q336 -19 273 6T165 81T95
205T70 375Q70 525 115 645T243 848T446 977T714 1022Q743 1022 767 1020T810 1014Q831 1010 848 1006L851 1007Q853 1030 856 1054T864 1103L870 1144H678ZM807 779Q793 788 773 795Q756 801 730 806T669 812Q602 812 543 786T441 708T372 581T346 409Q346 353
357 313T388 248T436 210T499 198Q525 198 549 205T594 223T634 250T669 280Q705 316 735 363L807 779Z" />
<glyph unicode="&#x112;" glyph-name="Emacron" horiz-adv-x="1065" d="M385 217H837Q879 217 900 194T921 124Q921 95 913 72T890 33T855 9T811 0H199Q147 0 120 24T93 93Q93 104 94 113T97 134L292 1261Q303 1321 335 1349T428 1378H1035Q1076 1378 1097 1356T1118
1286Q1118 1257 1110 1234T1087 1194T1052 1170T1008 1161H548L487 810H871Q911 810 932 788T953 719Q953 690 945 668T923 629T888 605T845 597H450L385 217ZM1018 1746Q1057 1746 1076 1726T1096 1665Q1096 1639 1089 1619T1068 1584T1035 1561T993 1553H484Q445
1553 425 1573T405 1633Q405 1659 412 1680T434 1715T467 1738T509 1746H1018Z" />
<glyph unicode="&#x113;" glyph-name="emacron" horiz-adv-x="1059" d="M67 393Q67 540 111 659T235 862T422 991T658 1037Q745 1037 811 1017T920 960T986 873T1008 765Q1008 676 969 607T847 492T638 422T337 400Q338 351 353 312T398 246T471 205T573 190Q625
190 662 197T726 212T773 227T813 234Q849 234 869 212T889 158Q889 130 881 109T855 71Q837 53 806 37T733 8T639 -12T525 -20Q412 -20 327 9T184 93T97 224T67 393ZM353 580Q457 577 532 586T655 617T726 669T749 742Q749 789 719 816T626 844Q581 844 540 828T462
779T398 697T353 580ZM940 1411Q978 1411 997 1391T1017 1331Q1017 1305 1010 1285T988 1250T955 1228T914 1220H412Q374 1220 354 1240T334 1299Q334 1325 341 1345T363 1380T395 1403T437 1411H940Z" />
<glyph unicode="&#x114;" glyph-name="Ebreve" horiz-adv-x="1065" d="M385 217H837Q879 217 900 194T921 124Q921 95 913 72T890 33T855 9T811 0H199Q147 0 120 24T93 93Q93 104 94 113T97 134L292 1261Q303 1321 335 1349T428 1378H1035Q1076 1378 1097 1356T1118
1286Q1118 1257 1110 1234T1087 1194T1052 1170T1008 1161H548L487 810H871Q911 810 932 788T953 719Q953 690 945 668T923 629T888 605T845 597H450L385 217ZM455 1728Q455 1793 484 1821T559 1849Q593 1849 612 1832T633 1779Q634 1726 664 1699T760 1672Q826
1672 867 1702T925 1785Q936 1817 957 1833T1013 1849Q1051 1849 1071 1827T1091 1767Q1091 1709 1063 1658T985 1569T872 1509T738 1487Q673 1487 621 1505T532 1556T475 1632T455 1728Z" />
<glyph unicode="&#x115;" glyph-name="ebreve" horiz-adv-x="1059" d="M67 393Q67 540 111 659T235 862T422 991T658 1037Q745 1037 811 1017T920 960T986 873T1008 765Q1008 676 969 607T847 492T638 422T337 400Q338 351 353 312T398 246T471 205T573 190Q625
190 662 197T726 212T773 227T813 234Q849 234 869 212T889 158Q889 130 881 109T855 71Q837 53 806 37T733 8T639 -12T525 -20Q412 -20 327 9T184 93T97 224T67 393ZM353 580Q457 577 532 586T655 617T726 669T749 742Q749 789 719 816T626 844Q581 844 540 828T462
779T398 697T353 580ZM385 1379Q385 1412 393 1435T415 1474T448 1496T490 1503Q522 1503 540 1487T561 1435Q563 1380 589 1348T677 1316Q743 1316 781 1350T836 1441Q855 1503 920 1503Q998 1503 998 1423Q998 1364 973 1312T903 1221T794 1159T655 1136Q596
1136 547 1153T461 1201T405 1278T385 1379Z" />
<glyph unicode="&#x116;" glyph-name="Edotaccent" horiz-adv-x="1065" d="M385 217H837Q879 217 900 194T921 124Q921 95 913 72T890 33T855 9T811 0H199Q147 0 120 24T93 93Q93 104 94 113T97 134L292 1261Q303 1321 335 1349T428 1378H1035Q1076 1378 1097
1356T1118 1286Q1118 1257 1110 1234T1087 1194T1052 1170T1008 1161H548L487 810H871Q911 810 932 788T953 719Q953 690 945 668T923 629T888 605T845 597H450L385 217ZM624 1652Q624 1686 636 1715T669 1765T720 1799T785 1811Q816 1811 842 1801T886 1772T915
1728T926 1672Q926 1638 914 1609T881 1559T831 1525T766 1513Q735 1513 709 1523T664 1553T635 1597T624 1652Z" />
<glyph unicode="&#x117;" glyph-name="edotaccent" horiz-adv-x="1059" d="M67 393Q67 540 111 659T235 862T422 991T658 1037Q745 1037 811 1017T920 960T986 873T1008 765Q1008 676 969 607T847 492T638 422T337 400Q338 351 353 312T398 246T471 205T573 190Q625
190 662 197T726 212T773 227T813 234Q849 234 869 212T889 158Q889 130 881 109T855 71Q837 53 806 37T733 8T639 -12T525 -20Q412 -20 327 9T184 93T97 224T67 393ZM353 580Q457 577 532 586T655 617T726 669T749 742Q749 789 719 816T626 844Q581 844 540 828T462
779T398 697T353 580ZM530 1312Q530 1346 542 1375T575 1425T627 1458T692 1470Q722 1470 747 1460T791 1431T820 1388T831 1334Q831 1300 819 1271T786 1221T735 1187T670 1175Q640 1175 615 1185T571 1214T541 1257T530 1312Z" />
<glyph unicode="&#x118;" glyph-name="Eogonek" horiz-adv-x="1065" d="M385 217H837Q879 217 900 194T921 124Q921 103 917 87T905 55T885 27T854 0Q819 -29 782 -60T713 -125T661 -192T641 -260Q641 -312 696 -312Q712 -312 724 -310T748 -305T769 -300T791
-297Q816 -297 831 -314T846 -356Q846 -398 816 -428Q787 -457 734 -474T610 -492Q506 -492 451 -446T396 -316Q396 -267 418 -222T477 -136T557 -62T647 0H199Q138 0 112 32T96 127L292 1261Q303 1321 335 1349T428 1378H1035Q1076 1378 1097 1356T1118 1286Q1118
1257 1110 1234T1087 1194T1052 1170T1008 1161H548L487 810H871Q911 810 932 788T953 719Q953 690 945 668T923 629T888 605T845 597H450L385 217Z" />
<glyph unicode="&#x119;" glyph-name="eogonek" horiz-adv-x="1059" d="M67 393Q67 540 111 659T235 862T423 991T659 1037Q746 1037 811 1017T920 960T986 873T1008 765Q1008 675 969 606T847 491T638 421T337 400Q338 351 353 312T398 246T471 205T573 190Q625
190 662 197T726 212T773 227T813 234Q849 234 869 212T889 158Q889 130 881 109T854 70Q836 53 808 30T746 -19T680 -74T619 -134T575 -197T558 -260Q558 -312 613 -312Q629 -312 641 -310T665 -305T686 -300T708 -297Q733 -297 748 -314T763 -356Q763 -387 746
-412T698 -455T623 -482T526 -492Q423 -492 368 -446T312 -316Q312 -269 332 -226T385 -145T457 -75T536 -18Q527 -19 521 -19T504 -19Q452 -19 400 -10T299 20T208 72T135 150T85 256T67 393ZM353 580Q457 577 532 586T655 617T726 669T749 742Q749 789 719 816T626
844Q581 844 540 828T462 779T398 697T353 580Z" />
<glyph unicode="&#x11a;" glyph-name="Ecaron" horiz-adv-x="1065" d="M385 217H837Q879 217 900 194T921 124Q921 95 913 72T890 33T855 9T811 0H199Q147 0 120 24T93 93Q93 104 94 113T97 134L292 1261Q303 1321 335 1349T428 1378H1035Q1076 1378 1097 1356T1118
1286Q1118 1257 1110 1234T1087 1194T1052 1170T1008 1161H548L487 810H871Q911 810 932 788T953 719Q953 690 945 668T923 629T888 605T845 597H450L385 217ZM975 1845Q991 1855 1012 1855Q1029 1855 1044 1848T1070 1829T1087 1802T1094 1771Q1094 1736 1065
1713L841 1536Q814 1515 789 1502T730 1489Q695 1489 672 1502T628 1536L467 1717Q456 1729 452 1741T447 1768Q447 1786 455 1802T476 1830T505 1849T539 1856Q553 1856 564 1853T586 1841L756 1713L975 1845Z" />
<glyph unicode="&#x11b;" glyph-name="ecaron" horiz-adv-x="1059" d="M67 393Q67 540 111 659T235 862T422 991T658 1037Q745 1037 811 1017T920 960T986 873T1008 765Q1008 676 969 607T847 492T638 422T337 400Q338 351 353 312T398 246T471 205T573 190Q625
190 662 197T726 212T773 227T813 234Q849 234 869 212T889 158Q889 130 881 109T855 71Q837 53 806 37T733 8T639 -12T525 -20Q412 -20 327 9T184 93T97 224T67 393ZM353 580Q457 577 532 586T655 617T726 669T749 742Q749 789 719 816T626 844Q581 844 540 828T462
779T398 697T353 580ZM878 1505Q900 1519 922 1519Q939 1519 953 1512T977 1494T993 1469T999 1441Q999 1424 993 1410T971 1382L753 1188Q727 1165 703 1153T648 1141Q617 1141 595 1153T556 1187L401 1387Q391 1398 387 1409T383 1434Q383 1452 391 1468T412
1496T442 1515T477 1523Q506 1523 529 1503L676 1363L878 1505Z" />
<glyph unicode="&#x11c;" glyph-name="Gcircumflex" horiz-adv-x="1372" d="M814 544Q775 544 754 566T733 633Q733 661 741 683T763 721T796 745T839 753H1168Q1226 753 1251 723T1266 633L1195 228Q1189 190 1176 162T1140 111Q1119 90 1079 67T983 25T854 -7T696
-20Q551 -20 440 18T254 127T141 300T102 531Q102 659 130 772T212 982T342 1155T515 1285T724 1367T965 1396Q1031 1396 1086 1388T1186 1365T1263 1333T1315 1296Q1333 1278 1341 1258T1349 1212Q1349 1167 1322 1138T1249 1109Q1225 1109 1202 1119T1145 1141T1059
1164T929 1174Q815 1174 716 1131T544 1009T429 818T387 567Q387 382 480 288T752 193Q798 193 832 198T890 209Q917 216 937 225L992 544H814ZM728 1498Q719 1493 711 1491T691 1488Q674 1488 659 1495T633 1514T615 1541T608 1573Q608 1607 638 1630L861 1807Q888
1828 913 1841T973 1854Q1008 1854 1031 1842T1074 1808L1235 1626Q1246 1615 1250 1603T1255 1576Q1255 1558 1247 1542T1227 1514T1198 1494T1163 1487Q1149 1487 1139 1490T1117 1502L947 1630L728 1498Z" />
<glyph unicode="&#x11d;" glyph-name="gcircumflex" horiz-adv-x="1171" d="M943 21Q919 -117 871 -214T749 -373T577 -463T355 -492Q237 -492 158 -471T44 -414Q28 -398 20 -379T12 -335Q12 -314 19 -296T38 -265T67 -245T105 -237Q126 -237 149 -244T202 -260T270
-276T359 -283Q428 -283 480 -267T571 -217T634 -132T673 -8Q677 9 680 23T686 51T693 79T702 111H699Q669 74 627 46Q591 21 538 1T413 -19Q336 -19 273 6T165 81T95 205T70 375Q70 531 115 654T245 862T448 992T717 1037Q793 1037 851 1028T951 1007T1019 980T1057
953Q1065 945 1072 935T1083 911T1087 879T1084 835L943 21ZM810 795Q796 804 776 811Q759 817 734 822T673 828Q605 828 546 802T442 722T372 591T346 409Q346 353 357 313T388 248T436 210T498 198Q524 198 548 205T594 223T634 250T669 280Q706 316 735 363L810
795ZM541 1163Q519 1149 498 1149Q481 1149 467 1156T443 1174T427 1199T421 1227Q421 1244 427 1258T448 1286L666 1480Q692 1503 716 1515T771 1527Q802 1527 824 1515T863 1481L1019 1281Q1028 1270 1032 1259T1036 1234Q1036 1216 1028 1200T1007 1172T978
1153T943 1145Q913 1145 890 1165L743 1305L541 1163Z" />
<glyph unicode="&#x11e;" glyph-name="Gbreve" horiz-adv-x="1372" d="M814 544Q775 544 754 566T733 633Q733 661 741 683T763 721T796 745T839 753H1168Q1226 753 1251 723T1266 633L1195 228Q1189 190 1176 162T1140 111Q1119 90 1079 67T983 25T854 -7T696
-20Q551 -20 440 18T254 127T141 300T102 531Q102 659 130 772T212 982T342 1155T515 1285T724 1367T965 1396Q1031 1396 1086 1388T1186 1365T1263 1333T1315 1296Q1333 1278 1341 1258T1349 1212Q1349 1167 1322 1138T1249 1109Q1225 1109 1202 1119T1145 1141T1059
1164T929 1174Q815 1174 716 1131T544 1009T429 818T387 567Q387 382 480 288T752 193Q798 193 832 198T890 209Q917 216 937 225L992 544H814ZM622 1728Q622 1793 651 1821T726 1849Q760 1849 779 1832T800 1779Q801 1726 831 1699T927 1672Q993 1672 1034 1702T1092
1785Q1103 1817 1124 1833T1180 1849Q1218 1849 1238 1827T1258 1767Q1258 1709 1230 1658T1152 1569T1039 1509T905 1487Q840 1487 788 1505T699 1556T642 1632T622 1728Z" />
<glyph unicode="&#x11f;" glyph-name="gbreve" horiz-adv-x="1171" d="M943 21Q919 -117 871 -214T749 -373T577 -463T355 -492Q237 -492 158 -471T44 -414Q28 -398 20 -379T12 -335Q12 -314 19 -296T38 -265T67 -245T105 -237Q126 -237 149 -244T202 -260T270
-276T359 -283Q428 -283 480 -267T571 -217T634 -132T673 -8Q677 9 680 23T686 51T693 79T702 111H699Q669 74 627 46Q591 21 538 1T413 -19Q336 -19 273 6T165 81T95 205T70 375Q70 531 115 654T245 862T448 992T717 1037Q793 1037 851 1028T951 1007T1019 980T1057
953Q1065 945 1072 935T1083 911T1087 879T1084 835L943 21ZM810 795Q796 804 776 811Q759 817 734 822T673 828Q605 828 546 802T442 722T372 591T346 409Q346 353 357 313T388 248T436 210T498 198Q524 198 548 205T594 223T634 250T669 280Q706 316 735 363L810
795ZM440 1379Q440 1412 448 1435T470 1474T503 1496T545 1503Q577 1503 595 1487T616 1435Q618 1380 644 1348T732 1316Q798 1316 836 1350T891 1441Q910 1503 975 1503Q1053 1503 1053 1423Q1053 1364 1028 1312T958 1221T849 1159T710 1136Q651 1136 602 1153T516
1201T460 1278T440 1379Z" />
<glyph unicode="&#x120;" glyph-name="Gdotaccent" horiz-adv-x="1372" d="M814 544Q775 544 754 566T733 633Q733 661 741 683T763 721T796 745T839 753H1168Q1226 753 1251 723T1266 633L1195 228Q1189 190 1176 162T1140 111Q1119 90 1079 67T983 25T854 -7T696
-20Q551 -20 440 18T254 127T141 300T102 531Q102 659 130 772T212 982T342 1155T515 1285T724 1367T965 1396Q1031 1396 1086 1388T1186 1365T1263 1333T1315 1296Q1333 1278 1341 1258T1349 1212Q1349 1167 1322 1138T1249 1109Q1225 1109 1202 1119T1145 1141T1059
1164T929 1174Q815 1174 716 1131T544 1009T429 818T387 567Q387 382 480 288T752 193Q798 193 832 198T890 209Q917 216 937 225L992 544H814ZM776 1652Q776 1686 788 1715T821 1765T872 1799T937 1811Q968 1811 994 1801T1038 1772T1067 1728T1078 1672Q1078
1638 1066 1609T1033 1559T983 1525T918 1513Q887 1513 861 1523T816 1553T787 1597T776 1652Z" />
<glyph unicode="&#x121;" glyph-name="gdotaccent" horiz-adv-x="1171" d="M943 21Q919 -117 871 -214T749 -373T577 -463T355 -492Q237 -492 158 -471T44 -414Q28 -398 20 -379T12 -335Q12 -314 19 -296T38 -265T67 -245T105 -237Q126 -237 149 -244T202 -260T270
-276T359 -283Q428 -283 480 -267T571 -217T634 -132T673 -8Q677 9 680 23T686 51T693 79T702 111H699Q669 74 627 46Q591 21 538 1T413 -19Q336 -19 273 6T165 81T95 205T70 375Q70 531 115 654T245 862T448 992T717 1037Q793 1037 851 1028T951 1007T1019 980T1057
953Q1065 945 1072 935T1083 911T1087 879T1084 835L943 21ZM810 795Q796 804 776 811Q759 817 734 822T673 828Q605 828 546 802T442 722T372 591T346 409Q346 353 357 313T388 248T436 210T498 198Q524 198 548 205T594 223T634 250T669 280Q706 316 735 363L810
795ZM576 1312Q576 1346 588 1375T621 1425T673 1458T738 1470Q768 1470 793 1460T837 1431T866 1388T877 1334Q877 1300 865 1271T832 1221T781 1187T716 1175Q686 1175 661 1185T617 1214T587 1257T576 1312Z" />
<glyph unicode="&#x122;" glyph-name="Gcommaaccent" horiz-adv-x="1372" d="M814 544Q775 544 754 566T733 633Q733 661 741 683T763 721T796 745T839 753H1168Q1226 753 1251 723T1266 633L1195 228Q1189 190 1176 162T1140 111Q1119 90 1079 67T983 25T854
-7T696 -20Q551 -20 440 18T254 127T141 300T102 531Q102 659 130 772T212 982T342 1155T515 1285T724 1367T965 1396Q1031 1396 1086 1388T1186 1365T1263 1333T1315 1296Q1333 1278 1341 1258T1349 1212Q1349 1167 1322 1138T1249 1109Q1225 1109 1202 1119T1145
1141T1059 1164T929 1174Q815 1174 716 1131T544 1009T429 818T387 567Q387 382 480 288T752 193Q798 193 832 198T890 209Q917 216 937 225L992 544H814ZM519 -239Q519 -212 529 -188T558 -144T603 -114T663 -103Q722 -103 755 -137T788 -228Q788 -271 769 -307T719
-374T648 -427T564 -466T477 -490T396 -498Q346 -498 323 -480T299 -430Q299 -416 303 -404T318 -382Q331 -369 354 -361T406 -344T467 -323T530 -286Q525 -278 522 -267T519 -239Z" />
<glyph unicode="&#x123;" glyph-name="gcommaaccent" horiz-adv-x="1171" d="M943 21Q919 -117 871 -214T749 -373T577 -463T355 -492Q237 -492 158 -471T44 -414Q28 -398 20 -379T12 -335Q12 -314 19 -296T38 -265T67 -245T105 -237Q126 -237 149 -244T202 -260T270
-276T359 -283Q428 -283 480 -267T571 -217T634 -132T673 -8Q677 9 680 23T686 51T693 79T702 111H699Q669 74 627 46Q591 21 538 1T413 -19Q336 -19 273 6T165 81T95 205T70 375Q70 531 115 654T245 862T448 992T717 1037Q793 1037 851 1028T951 1007T1019 980T1057
953Q1065 945 1072 935T1083 911T1087 879T1084 835L943 21ZM810 795Q796 804 776 811Q759 817 734 822T673 828Q605 828 546 802T442 722T372 591T346 409Q346 353 357 313T388 248T436 210T498 198Q524 198 548 205T594 223T634 250T669 280Q706 316 735 363L810
795ZM559 1264Q559 1307 578 1343T628 1410T700 1463T784 1502T871 1526T952 1534Q1002 1534 1025 1516T1049 1466Q1049 1452 1045 1440T1029 1417Q1016 1404 993 1397T942 1380T881 1359T817 1322Q822 1314 825 1303T829 1275Q829 1248 819 1224T790 1180T744
1150T684 1139Q626 1139 593 1173T559 1264Z" />
<glyph unicode="&#x124;" glyph-name="Hcircumflex" horiz-adv-x="1413" d="M367 116Q357 56 321 25T215 -7Q92 -7 92 88Q92 98 93 110T98 139L293 1262Q303 1322 339 1353T445 1385Q514 1385 545 1354T565 1262L488 815H1032L1109 1262Q1119 1322 1155 1353T1261
1385Q1384 1385 1384 1290Q1384 1280 1383 1268T1378 1239L1183 116Q1173 56 1137 25T1031 -7Q962 -7 931 24T910 116L992 590H449L367 116ZM677 1498Q668 1493 660 1491T640 1488Q623 1488 608 1495T582 1514T564 1541T557 1573Q557 1607 587 1630L810 1807Q837
1828 862 1841T922 1854Q957 1854 980 1842T1023 1808L1184 1626Q1195 1615 1199 1603T1204 1576Q1204 1558 1196 1542T1176 1514T1147 1494T1112 1487Q1098 1487 1088 1490T1066 1502L896 1630L677 1498Z" />
<glyph unicode="&#x125;" glyph-name="hcircumflex" horiz-adv-x="1200" d="M292 1362Q302 1421 337 1451T442 1482Q509 1482 539 1452T559 1362L507 1064Q499 1023 491 986T470 906H472Q502 942 546 971Q565 983 588 994T640 1015T701 1030T772 1036Q848 1036
908 1015T1009 953T1072 853T1094 715Q1094 678 1088 631T1073 531T1052 426T1032 322T1016 228T1010 152Q1010 134 1011 122T1012 94Q1012 47 981 20T888 -7Q817 -7 780 30T742 136Q742 167 748 210T763 303T782 405T801 507T816 599T822 673Q822 748 786 783T680
819Q652 819 627 812T580 793T538 766T503 736Q466 700 437 654L343 113Q333 54 297 24T193 -7Q125 -7 96 23T76 113L292 1362ZM258 1563Q249 1558 241 1556T221 1553Q204 1553 189 1560T163 1579T145 1606T138 1638Q138 1672 168 1695L391 1872Q418 1893 443 1906T503
1919Q538 1919 561 1907T604 1873L765 1691Q776 1680 780 1668T785 1641Q785 1623 777 1607T757 1579T728 1559T693 1552Q679 1552 669 1555T647 1567L477 1695L258 1563Z" />
<glyph unicode="&#x126;" glyph-name="Hbar" horiz-adv-x="1488" d="M404 116Q394 56 358 25T252 -7Q182 -7 152 24T131 116L274 943H204Q166 943 146 963T125 1024Q125 1050 133 1071T155 1106T188 1129T230 1137H308L330 1262Q340 1322 376 1353T482 1385Q551
1385 582 1354T602 1262L581 1137H1124L1146 1262Q1156 1322 1192 1353T1298 1385Q1368 1385 1398 1354T1419 1262L1397 1137H1468Q1506 1137 1526 1117T1547 1056Q1547 1030 1539 1009T1518 974T1485 951T1443 943H1363L1220 116Q1210 56 1174 25T1068 -7Q999
-7 968 24T947 116L1023 552H480L404 116ZM1061 770L1091 943H547L517 770H1061Z" />
<glyph unicode="&#x127;" glyph-name="hbar" horiz-adv-x="1208" d="M193 1144Q161 1144 142 1163T122 1218Q122 1269 148 1296T218 1323H294L307 1396Q315 1443 352 1466T452 1489Q482 1489 505 1483T544 1465T567 1436T572 1395L560 1323H748Q781 1323 800 1304T819
1249Q819 1198 794 1171T724 1144H530L510 1034Q504 1004 496 970T476 895H479Q509 931 553 960Q572 972 595 984T646 1005T707 1020T778 1026Q854 1026 914 1005T1015 943T1078 842T1100 704Q1100 667 1094 620T1079 523T1060 420T1040 319T1025 227T1019 152Q1019
134 1020 122T1021 94Q1021 47 990 20T897 -7Q826 -7 789 30T751 136Q751 167 756 209T771 300T789 400T808 499T822 589T828 662Q828 737 792 772T687 808Q659 808 634 801T586 782T544 755T509 725Q472 689 443 643L352 113Q341 54 306 24T202 -7Q134 -7 105
23T85 113L263 1144H193Z" />
<glyph unicode="&#x128;" glyph-name="Itilde" horiz-adv-x="598" d="M293 1263Q303 1323 339 1354T445 1385Q568 1385 568 1290Q568 1280 566 1268T561 1239L367 116Q357 56 321 25T215 -7Q92 -7 92 88Q92 98 93 110T98 139L293 1263ZM334 1605Q304 1605 284
1593T245 1566T209 1539T168 1526Q139 1526 118 1545T97 1603Q97 1635 117 1670T172 1735T256 1784T361 1803Q412 1803 450 1788T520 1755T579 1721T637 1706Q667 1706 688 1718T727 1746T762 1773T803 1786Q832 1786 853 1767T875 1709Q875 1676 855 1641T799
1577T715 1528T611 1509Q559 1509 521 1524T452 1557T392 1590T334 1605Z" />
<glyph unicode="&#x129;" glyph-name="itilde" horiz-adv-x="554" d="M213 904Q223 963 258 993T362 1024Q422 1024 451 1001T481 932Q481 921 480 909T474 876L342 113Q332 54 297 24T193 -7Q132 -7 103 16T74 85Q74 96 75 108T81 141L213 904ZM278 1270Q253
1270 236 1257T203 1228T171 1199T130 1186Q115 1186 102 1190T80 1204T64 1228T58 1262Q58 1297 76 1333T127 1399T204 1448T298 1467Q344 1467 376 1451T435 1417T483 1382T531 1366Q556 1366 573 1379T607 1408T639 1437T679 1450Q694 1450 707 1446T730 1432T746
1408T752 1374Q752 1339 733 1303T682 1237T606 1188T512 1169Q466 1169 433 1185T374 1219T326 1254T278 1270Z" />
<glyph unicode="&#x12a;" glyph-name="Imacron" horiz-adv-x="598" d="M293 1263Q303 1323 339 1354T445 1385Q568 1385 568 1290Q568 1280 566 1268T561 1239L367 116Q357 56 321 25T215 -7Q92 -7 92 88Q92 98 93 110T98 139L293 1263ZM750 1746Q789 1746 808
1726T828 1665Q828 1639 821 1619T800 1584T767 1561T725 1553H216Q177 1553 157 1573T137 1633Q137 1659 144 1680T166 1715T199 1738T241 1746H750Z" />
<glyph unicode="&#x12b;" glyph-name="imacron" horiz-adv-x="554" d="M213 904Q223 963 258 993T362 1024Q422 1024 451 1001T481 932Q481 921 480 909T474 876L342 113Q332 54 297 24T193 -7Q132 -7 103 16T74 85Q74 96 75 108T81 141L213 904ZM632 1411Q670
1411 689 1391T709 1331Q709 1305 702 1285T681 1250T648 1228T607 1220H179Q141 1220 121 1240T101 1299Q101 1325 108 1345T130 1380T162 1403T204 1411H632Z" />
<glyph unicode="&#x12c;" glyph-name="Ibreve" horiz-adv-x="598" d="M293 1263Q303 1323 339 1354T445 1385Q568 1385 568 1290Q568 1280 566 1268T561 1239L367 116Q357 56 321 25T215 -7Q92 -7 92 88Q92 98 93 110T98 139L293 1263ZM182 1728Q182 1793 211
1821T286 1849Q320 1849 339 1832T360 1779Q361 1726 391 1699T487 1672Q553 1672 594 1702T652 1785Q663 1817 684 1833T740 1849Q778 1849 798 1827T818 1767Q818 1709 790 1658T712 1569T599 1509T465 1487Q400 1487 348 1505T259 1556T202 1632T182 1728Z"
/>
<glyph unicode="&#x12d;" glyph-name="ibreve" horiz-adv-x="554" d="M213 904Q223 963 258 993T362 1024Q422 1024 451 1001T481 932Q481 921 480 909T474 876L342 113Q332 54 297 24T193 -7Q132 -7 103 16T74 85Q74 96 75 108T81 141L213 904ZM123 1379Q123
1412 131 1435T153 1474T186 1496T228 1503Q260 1503 278 1487T299 1435Q301 1380 323 1348T404 1316Q435 1316 459 1325T501 1350T531 1390T552 1441Q571 1503 636 1503Q714 1503 714 1423Q714 1364 690 1312T622 1221T517 1159T383 1136Q327 1136 280 1153T197
1201T143 1278T123 1379Z" />
<glyph unicode="&#x12e;" glyph-name="Iogonek" horiz-adv-x="598" d="M293 1263Q303 1323 339 1354T445 1385Q568 1385 568 1290Q568 1281 566 1269T561 1239L367 116Q362 84 348 59T305 9Q277 -14 249 -46T198 -113T161 -186T146 -258Q146 -287 159 -299T200
-312Q215 -312 226 -310T248 -305T269 -300T290 -298Q315 -298 330 -314T345 -357Q345 -399 315 -429Q286 -458 235 -475T114 -492Q10 -492 -45 -446T-100 -313Q-100 -263 -81 -216T-30 -126T42 -47T122 19Q111 28 102 43T92 88Q92 98 93 110T98 139L293 1263Z"
/>
<glyph unicode="&#x12f;" glyph-name="iogonek" horiz-adv-x="554" d="M213 904Q223 963 258 993T362 1024Q430 1024 459 994T479 904L342 113Q337 81 326 61T292 18Q269 -5 245 -30T197 -88Q161 -133 143 -174T124 -250Q124 -284 138 -298T177 -312Q193 -312
205 -310T227 -305T248 -300T269 -298Q293 -298 308 -314T323 -357Q323 -400 294 -429Q264 -458 213 -475T92 -492Q-11 -492 -66 -446T-122 -311Q-122 -263 -103 -216T-51 -127T21 -47T103 18Q85 32 78 55T76 113L213 904ZM255 1312Q255 1346 267 1375T302 1426T356
1460T425 1473Q460 1473 488 1462T537 1432T569 1385T580 1326Q580 1292 568 1263T533 1212T479 1178T410 1165Q375 1165 347 1176T298 1206T266 1253T255 1312Z" />
<glyph unicode="&#x130;" glyph-name="Idotaccent" horiz-adv-x="598" d="M293 1263Q303 1323 339 1354T445 1385Q568 1385 568 1290Q568 1280 566 1268T561 1239L367 116Q357 56 321 25T215 -7Q92 -7 92 88Q92 98 93 110T98 139L293 1263ZM335 1652Q335 1686
347 1715T380 1765T431 1799T496 1811Q527 1811 553 1801T597 1772T626 1728T637 1672Q637 1638 625 1609T592 1559T542 1525T477 1513Q446 1513 420 1523T375 1553T346 1597T335 1652Z" />
<glyph unicode="&#x131;" glyph-name="dotlessi" horiz-adv-x="554" d="M213 904Q223 963 258 993T362 1024Q422 1024 451 1001T481 932Q481 921 480 909T474 876L342 113Q332 54 297 24T193 -7Q132 -7 103 16T74 85Q74 96 75 108T81 141L213 904Z" />
<glyph unicode="&#x132;" glyph-name="IJ" horiz-adv-x="1202" d="M293 1263Q303 1323 339 1354T445 1385Q568 1385 568 1290Q568 1280 566 1268T561 1239L367 116Q357 56 321 25T215 -7Q92 -7 92 88Q92 98 93 110T98 139L293 1263ZM898 1263Q908 1323 944 1354T1050
1385Q1173 1385 1173 1290Q1173 1280 1171 1268T1166 1239L975 133Q962 56 945 -2T905 -104T857 -184T801 -249Q770 -280 735 -305T662 -347T587 -374T513 -384Q456 -384 427 -358T397 -289Q397 -253 414 -230T470 -189Q516 -167 553 -141T620 -77T670 11T703 135L898
1263Z" />
<glyph unicode="&#x133;" glyph-name="ij" horiz-adv-x="1111" d="M213 904Q223 963 258 993T362 1024Q430 1024 459 994T479 904L342 113Q332 54 297 24T193 -7Q125 -7 96 23T76 113L213 904ZM255 1312Q255 1346 267 1375T302 1426T356 1460T425 1473Q460 1473
488 1462T537 1432T569 1385T580 1326Q580 1292 568 1263T533 1212T479 1178T410 1165Q375 1165 347 1176T298 1206T266 1253T255 1312ZM770 904Q780 963 815 993T919 1024Q987 1024 1016 994T1036 904L883 18Q869 -61 852 -120T814 -225T768 -304T715 -366Q661
-420 593 -453T453 -486Q393 -486 363 -459T332 -388Q332 -356 347 -334T394 -294Q442 -270 479 -243T543 -179T588 -89T620 37L770 904ZM812 1312Q812 1346 824 1375T859 1426T913 1460T982 1473Q1017 1473 1045 1462T1094 1432T1126 1385T1137 1326Q1137 1292
1125 1263T1090 1212T1036 1178T967 1165Q932 1165 904 1176T855 1206T823 1253T812 1312Z" />
<glyph unicode="&#x134;" glyph-name="Jcircumflex" horiz-adv-x="604" d="M301 1263Q311 1323 347 1354T453 1385Q576 1385 576 1290Q576 1280 574 1268T569 1239L378 133Q365 56 348 -2T308 -104T260 -184T204 -249Q173 -280 138 -305T65 -347T-10 -374T-84
-384Q-141 -384 -170 -358T-200 -289Q-200 -253 -183 -230T-127 -189Q-81 -167 -44 -141T23 -77T73 11T106 135L301 1263ZM280 1498Q271 1493 263 1491T243 1488Q226 1488 211 1495T185 1514T167 1541T160 1573Q160 1607 190 1630L413 1807Q440 1828 465 1841T525
1854Q560 1854 583 1842T626 1808L787 1626Q798 1615 802 1603T807 1576Q807 1558 799 1542T779 1514T750 1494T715 1487Q701 1487 691 1490T669 1502L499 1630L280 1498Z" />
<glyph unicode="&#x135;" glyph-name="jcircumflex" horiz-adv-x="557" d="M216 904Q226 963 261 993T365 1024Q425 1024 454 1001T484 932Q484 921 483 909T477 876L329 18Q315 -61 298 -120T260 -225T214 -304T161 -366Q108 -420 39 -453T-101 -486Q-161 -486
-191 -459T-222 -388Q-222 -356 -207 -334T-160 -294Q-112 -270 -75 -243T-11 -179T34 -89T66 37L216 904ZM207 1163Q185 1149 164 1149Q147 1149 133 1156T109 1174T93 1199T87 1227Q87 1244 93 1258T114 1286L332 1480Q358 1503 382 1515T437 1527Q468 1527 490
1515T529 1481L685 1281Q694 1270 698 1259T702 1234Q702 1216 694 1200T673 1172T644 1153T609 1145Q579 1145 556 1165L409 1305L207 1163Z" />
<glyph unicode="&#x136;" glyph-name="Kcommaaccent" horiz-adv-x="1196" d="M1016 1321Q1024 1329 1029 1335T1039 1345T1047 1352T1055 1359Q1071 1372 1089 1380T1129 1388Q1157 1388 1182 1377T1228 1348T1260 1305T1272 1255Q1272 1238 1267 1224T1253 1198T1235
1175T1215 1155L754 713L1064 227Q1081 201 1091 178T1101 128Q1101 99 1088 74T1053 30T1003 1T946 -10Q915 -10 892 0T853 27Q841 40 831 55T807 94L465 676L367 116Q357 56 321 25T215 -7Q92 -7 92 88Q92 98 93 110T98 139L293 1263Q303 1323 339 1354T445 1385Q514
1385 545 1354T565 1262L479 760L1016 1321ZM402 -239Q402 -212 412 -188T441 -144T486 -114T546 -103Q605 -103 638 -137T671 -228Q671 -271 652 -307T602 -374T531 -427T447 -466T360 -490T279 -498Q229 -498 206 -480T182 -430Q182 -416 186 -404T201 -382Q214
-369 237 -361T289 -344T350 -323T413 -286Q408 -278 405 -267T402 -239Z" />
<glyph unicode="&#x137;" glyph-name="kcommaaccent" horiz-adv-x="1123" d="M291 1362Q301 1421 336 1451T441 1482Q508 1482 538 1452T558 1362L506 1064Q498 1023 490 986T469 906H471Q502 942 548 971Q567 983 592 994T647 1015T712 1030T788 1036Q855 1036
907 1018T994 968T1048 892T1067 793Q1067 729 1047 676T989 580T897 505T772 451L947 212Q954 202 961 191T973 169T982 145T985 118Q985 90 972 67T939 26T892 0T840 -10Q811 -10 790 -1T753 26Q742 38 732 51T705 90L534 342Q507 381 494 413T480 475Q480 509
499 535T561 567Q674 583 735 623T797 736Q797 777 772 800T693 824Q663 824 637 817T587 797T543 770T506 739Q466 701 436 654L342 113Q336 80 325 57T296 20T252 -1T191 -8Q122 -8 94 24T77 121L291 1362ZM341 -239Q341 -212 351 -188T380 -144T425 -114T485
-103Q544 -103 577 -137T610 -228Q610 -271 591 -307T541 -374T470 -427T386 -466T299 -490T218 -498Q168 -498 145 -480T121 -430Q121 -416 125 -404T140 -382Q153 -369 176 -361T228 -344T289 -323T352 -286Q347 -278 344 -267T341 -239Z" />
<glyph unicode="&#x138;" glyph-name="kgreenlandic" horiz-adv-x="1049" d="M213 904Q223 963 258 993T362 1024Q430 1024 460 994T479 904L421 571Q474 616 519 656T607 738T691 824T781 922Q799 942 814 960T845 994Q882 1028 927 1028Q954 1028 978 1018T1020
992T1048 955T1059 912Q1059 890 1049 872T1017 829Q983 790 945 751T865 673T780 597T693 526L902 210Q917 187 927 166T937 120Q937 93 925 69T891 28T844 0T789 -10Q761 -10 740 -1T701 27Q690 38 681 53T659 90L410 504L342 113Q332 54 297 24T193 -7Q132 -7
103 16T74 85Q74 96 75 108T81 141L213 904Z" />
<glyph unicode="&#x139;" glyph-name="Lacute" horiz-adv-x="987" d="M816 224Q858 224 880 201T903 128Q903 98 895 74T871 34T835 9T790 0H199Q147 0 120 24T93 93Q93 104 94 113T97 134L293 1263Q303 1323 339 1354T445 1385Q514 1385 545 1354T565 1262L386
224H816ZM1004 1840Q1026 1854 1046 1854Q1068 1854 1088 1842T1124 1810T1149 1766T1158 1720Q1158 1697 1149 1679T1116 1649L822 1496Q813 1491 805 1489T787 1486Q769 1486 754 1494T728 1515T710 1545T703 1579Q703 1597 710 1613T735 1642L1004 1840Z" />
<glyph unicode="&#x13a;" glyph-name="lacute" horiz-adv-x="600" d="M288 1362Q298 1421 334 1451T438 1482Q498 1482 527 1459T557 1390Q557 1379 556 1367T550 1334L376 322Q369 284 369 261T376 224T394 205T419 200Q434 200 444 202T465 204Q494 204 509
183T524 129Q524 100 516 80T490 42Q481 33 467 24T431 7T382 -6T317 -11Q208 -11 152 42T96 205Q96 229 99 255T108 317L288 1362ZM606 1942Q628 1956 648 1956Q670 1956 690 1944T726 1912T751 1868T760 1822Q760 1799 751 1781T718 1751L424 1598Q415 1593 407
1591T389 1588Q371 1588 356 1596T330 1617T312 1647T305 1681Q305 1699 312 1715T337 1744L606 1942Z" />
<glyph unicode="&#x13b;" glyph-name="Lcommaaccent" horiz-adv-x="987" d="M816 224Q858 224 880 201T903 128Q903 98 895 74T871 34T835 9T790 0H199Q147 0 120 24T93 93Q93 104 94 113T97 134L293 1263Q303 1323 339 1354T445 1385Q514 1385 545 1354T565 1262L386
224H816ZM323 -239Q323 -212 333 -188T362 -144T407 -114T467 -103Q526 -103 559 -137T592 -228Q592 -271 573 -307T523 -374T452 -427T368 -466T281 -490T200 -498Q150 -498 127 -480T103 -430Q103 -416 107 -404T122 -382Q135 -369 158 -361T210 -344T271 -323T334
-286Q329 -278 326 -267T323 -239Z" />
<glyph unicode="&#x13c;" glyph-name="lcommaaccent" horiz-adv-x="600" d="M288 1362Q298 1421 334 1451T438 1482Q498 1482 527 1459T557 1390Q557 1379 556 1367T550 1334L376 322Q369 284 369 261T376 224T394 205T419 200Q434 200 444 202T465 204Q494 204
509 183T524 129Q524 100 516 80T490 42Q481 33 467 24T431 7T382 -6T317 -11Q208 -11 152 42T96 205Q96 229 99 255T108 317L288 1362ZM98 -239Q98 -212 108 -188T137 -144T182 -114T242 -103Q301 -103 334 -137T367 -228Q367 -271 348 -307T298 -374T227 -427T143
-466T56 -490T-25 -498Q-75 -498 -98 -480T-122 -430Q-122 -416 -118 -404T-103 -382Q-90 -369 -67 -361T-15 -344T46 -323T109 -286Q104 -278 101 -267T98 -239Z" />
<glyph unicode="&#x13d;" glyph-name="Lcaron" horiz-adv-x="987" d="M816 224Q858 224 880 201T903 128Q903 98 895 74T871 34T835 9T790 0H199Q147 0 120 24T93 93Q93 104 94 113T97 134L293 1263Q303 1323 339 1354T445 1385Q514 1385 545 1354T565 1262L386
224H816ZM708 1845Q724 1855 745 1855Q762 1855 777 1848T803 1829T820 1802T827 1771Q827 1736 798 1713L574 1536Q547 1515 522 1502T463 1489Q428 1489 405 1502T361 1536L200 1717Q189 1729 185 1741T180 1768Q180 1786 188 1802T209 1830T238 1849T272 1856Q286
1856 297 1853T319 1841L489 1713L708 1845Z" />
<glyph unicode="&#x13e;" glyph-name="lcaron" horiz-adv-x="715" d="M288 1362Q298 1421 334 1451T438 1482Q498 1482 527 1459T557 1390Q557 1379 556 1367T550 1334L376 322Q369 284 369 261T376 224T394 205T419 200Q434 200 444 202T465 204Q494 204 509
183T524 129Q524 100 516 80T490 42Q481 33 467 24T431 7T382 -6T317 -11Q208 -11 152 42T96 205Q96 229 99 255T108 317L288 1362ZM752 1534Q763 1560 783 1570T830 1580Q852 1580 875 1573T916 1553T945 1523T957 1485Q957 1474 954 1464T942 1441L781 1177Q770
1158 753 1150T713 1142Q696 1142 680 1147T651 1162T630 1185T622 1215Q622 1224 624 1232T631 1252L752 1534Z" />
<glyph unicode="&#x13f;" glyph-name="Ldot" horiz-adv-x="1024" d="M816 224Q858 224 880 201T903 128Q903 98 895 74T871 34T835 9T790 0H199Q147 0 120 24T93 93Q93 104 94 113T97 134L293 1263Q303 1323 339 1354T445 1385Q514 1385 545 1354T565 1262L386
224H816ZM682 763Q682 801 696 833T734 890T790 928T861 942Q896 942 926 930T977 897T1011 847T1023 782Q1023 744 1009 711T971 654T915 616T844 602Q808 602 779 614T728 647T694 698T682 763Z" />
<glyph unicode="&#x140;" glyph-name="ldot" horiz-adv-x="905" d="M288 1362Q298 1421 334 1451T438 1482Q498 1482 527 1459T557 1390Q557 1379 556 1367T550 1334L376 322Q369 284 369 261T376 224T394 205T419 200Q434 200 444 202T465 204Q494 204 509 183T524
129Q524 100 516 80T490 42Q481 33 467 24T431 7T382 -6T317 -11Q208 -11 152 42T96 205Q96 229 99 255T108 317L288 1362ZM586 703Q586 741 600 773T638 830T694 868T765 882Q800 882 830 870T881 837T915 787T927 722Q927 684 913 651T875 594T819 556T748 542Q712
542 683 554T632 587T598 638T586 703Z" />
<glyph unicode="&#x141;" glyph-name="Lslash" horiz-adv-x="1036" d="M865 224Q907 224 929 201T952 128Q952 98 944 74T920 34T884 9T839 0H247Q187 0 161 32T145 127L236 653L186 632Q178 629 171 628T153 626Q132 626 116 635T89 659T71 692T65 730Q65 749
70 765T90 795Q100 805 116 812T155 829L275 877L341 1263Q352 1323 388 1354T494 1385Q563 1385 594 1354T614 1262L567 990L700 1045Q712 1050 722 1052T744 1055Q764 1055 780 1046T808 1022T826 989T832 951Q832 931 826 915T807 887Q796 876 780 868T742 852L529
766L435 224H865Z" />
<glyph unicode="&#x142;" glyph-name="lslash" horiz-adv-x="672" d="M183 749Q173 745 165 743T148 741Q131 741 116 749T91 772T74 804T68 842Q68 874 84 896T132 932L273 990L338 1362Q348 1421 383 1451T488 1482Q555 1482 584 1452T604 1362L560 1108L633
1138Q646 1143 655 1145T674 1148Q692 1148 706 1140T732 1118T749 1086T755 1048Q755 1015 739 993T691 958L523 888L424 322Q418 284 418 261T425 224T442 205T467 200Q483 200 493 202T513 204Q542 204 557 183T572 129Q572 100 564 80T539 42Q530 33 516 24T480
7T431 -6T366 -11Q238 -11 182 65T152 291L235 772L183 749Z" />
<glyph unicode="&#x143;" glyph-name="Nacute" horiz-adv-x="1477" d="M282 1209Q290 1255 306 1288T346 1343T406 1375T488 1385Q537 1385 569 1374T625 1338Q650 1313 669 1272T714 1171L988 534Q1004 496 1017 460T1040 394Q1051 361 1060 330L1065 332Q1066
367 1069 407Q1071 441 1075 484T1088 576L1196 1272Q1204 1327 1237 1356T1334 1385Q1388 1385 1418 1361T1449 1290Q1449 1279 1448 1268T1443 1239L1259 169Q1251 123 1235 90T1195 35T1135 3T1053 -7Q1003 -7 972 4T916 40Q891 65 872 106T827 207L553 844Q537
882 524 918T501 984Q490 1017 481 1048L476 1046Q474 1011 471 971Q468 937 464 893T453 802L345 106Q337 51 304 22T207 -7Q153 -7 123 17T92 88Q92 98 93 110T98 139L282 1209ZM1113 1840Q1135 1854 1155 1854Q1177 1854 1197 1842T1233 1810T1258 1766T1267
1720Q1267 1697 1258 1679T1225 1649L931 1496Q922 1491 914 1489T896 1486Q878 1486 863 1494T837 1515T819 1545T812 1579Q812 1597 819 1613T844 1642L1113 1840Z" />
<glyph unicode="&#x144;" glyph-name="nacute" horiz-adv-x="1200" d="M216 924Q225 976 254 1001T335 1027Q386 1027 414 999T442 919Q442 911 441 904T439 889Q438 881 437 874H441Q473 919 521 955Q541 970 567 984T624 1010T692 1029T772 1036Q848 1036 907
1015T1008 953T1071 853T1093 715Q1093 678 1087 631T1072 531T1052 426T1032 322T1016 228T1010 152Q1010 134 1011 122T1012 94Q1012 47 981 20T888 -7Q817 -7 780 30T742 136Q742 167 748 210T763 303T782 405T801 507T816 599T822 673Q822 748 786 783T680
819Q652 819 627 812T579 793T537 766T502 736Q464 699 436 653L342 113Q332 54 297 24T193 -7Q125 -7 96 23T76 113L216 924ZM855 1517Q877 1539 908 1539Q930 1539 951 1528T988 1498T1015 1457T1025 1412Q1025 1392 1017 1377T992 1350L737 1159Q726 1151 715
1148T692 1144Q675 1144 659 1151T631 1171T612 1198T605 1230Q605 1245 611 1258T631 1286L855 1517Z" />
<glyph unicode="&#x145;" glyph-name="Ncommaaccent" horiz-adv-x="1477" d="M282 1209Q290 1255 306 1288T346 1343T406 1375T488 1385Q537 1385 569 1374T625 1338Q650 1313 669 1272T714 1171L988 534Q1004 496 1017 460T1040 394Q1051 361 1060 330L1065 332Q1066
367 1069 407Q1071 441 1075 484T1088 576L1196 1272Q1204 1327 1237 1356T1334 1385Q1388 1385 1418 1361T1449 1290Q1449 1279 1448 1268T1443 1239L1259 169Q1251 123 1235 90T1195 35T1135 3T1053 -7Q1003 -7 972 4T916 40Q891 65 872 106T827 207L553 844Q537
882 524 918T501 984Q490 1017 481 1048L476 1046Q474 1011 471 971Q468 937 464 893T453 802L345 106Q337 51 304 22T207 -7Q153 -7 123 17T92 88Q92 98 93 110T98 139L282 1209ZM543 -239Q543 -212 553 -188T582 -144T627 -114T687 -103Q746 -103 779 -137T812
-228Q812 -271 793 -307T743 -374T672 -427T588 -466T501 -490T420 -498Q370 -498 347 -480T323 -430Q323 -416 327 -404T342 -382Q355 -369 378 -361T430 -344T491 -323T554 -286Q549 -278 546 -267T543 -239Z" />
<glyph unicode="&#x146;" glyph-name="ncommaaccent" horiz-adv-x="1200" d="M216 924Q225 976 254 1001T335 1027Q386 1027 414 999T442 919Q442 911 441 904T439 889Q438 881 437 874H441Q473 919 521 955Q541 970 567 984T624 1010T692 1029T772 1036Q848 1036
907 1015T1008 953T1071 853T1093 715Q1093 678 1087 631T1072 531T1052 426T1032 322T1016 228T1010 152Q1010 134 1011 122T1012 94Q1012 47 981 20T888 -7Q817 -7 780 30T742 136Q742 167 748 210T763 303T782 405T801 507T816 599T822 673Q822 748 786 783T680
819Q652 819 627 812T579 793T537 766T502 736Q464 699 436 653L342 113Q332 54 297 24T193 -7Q125 -7 96 23T76 113L216 924ZM373 -239Q373 -212 383 -188T412 -144T457 -114T517 -103Q576 -103 609 -137T642 -228Q642 -271 623 -307T573 -374T502 -427T418 -466T331
-490T250 -498Q200 -498 177 -480T153 -430Q153 -416 157 -404T172 -382Q185 -369 208 -361T260 -344T321 -323T384 -286Q379 -278 376 -267T373 -239Z" />
<glyph unicode="&#x147;" glyph-name="Ncaron" horiz-adv-x="1477" d="M282 1209Q290 1255 306 1288T346 1343T406 1375T488 1385Q537 1385 569 1374T625 1338Q650 1313 669 1272T714 1171L988 534Q1004 496 1017 460T1040 394Q1051 361 1060 330L1065 332Q1066
367 1069 407Q1071 441 1075 484T1088 576L1196 1272Q1204 1327 1237 1356T1334 1385Q1388 1385 1418 1361T1449 1290Q1449 1279 1448 1268T1443 1239L1259 169Q1251 123 1235 90T1195 35T1135 3T1053 -7Q1003 -7 972 4T916 40Q891 65 872 106T827 207L553 844Q537
882 524 918T501 984Q490 1017 481 1048L476 1046Q474 1011 471 971Q468 937 464 893T453 802L345 106Q337 51 304 22T207 -7Q153 -7 123 17T92 88Q92 98 93 110T98 139L282 1209ZM1156 1845Q1172 1855 1193 1855Q1210 1855 1225 1848T1251 1829T1268 1802T1275
1771Q1275 1736 1246 1713L1022 1536Q995 1515 970 1502T911 1489Q876 1489 853 1502T809 1536L648 1717Q637 1729 633 1741T628 1768Q628 1786 636 1802T657 1830T686 1849T720 1856Q734 1856 745 1853T767 1841L937 1713L1156 1845Z" />
<glyph unicode="&#x148;" glyph-name="ncaron" horiz-adv-x="1200" d="M216 924Q225 976 254 1001T335 1027Q386 1027 414 999T442 919Q442 911 441 904T439 889Q438 881 437 874H441Q473 919 521 955Q541 970 567 984T624 1010T692 1029T772 1036Q848 1036 907
1015T1008 953T1071 853T1093 715Q1093 678 1087 631T1072 531T1052 426T1032 322T1016 228T1010 152Q1010 134 1011 122T1012 94Q1012 47 981 20T888 -7Q817 -7 780 30T742 136Q742 167 748 210T763 303T782 405T801 507T816 599T822 673Q822 748 786 783T680
819Q652 819 627 812T579 793T537 766T502 736Q464 699 436 653L342 113Q332 54 297 24T193 -7Q125 -7 96 23T76 113L216 924ZM918 1505Q940 1519 962 1519Q979 1519 993 1512T1017 1494T1033 1469T1039 1441Q1039 1424 1033 1410T1011 1382L793 1188Q767 1165
743 1153T688 1141Q657 1141 635 1153T596 1187L441 1387Q431 1398 427 1409T423 1434Q423 1452 431 1468T452 1496T482 1515T517 1523Q546 1523 569 1503L716 1363L918 1505Z" />
<glyph unicode="&#x149;" glyph-name="napostrophe" horiz-adv-x="1343" d="M358 924Q367 976 396 1001T477 1027Q528 1027 556 999T584 919Q584 911 583 904T581 889Q580 881 579 874H583Q615 919 663 955Q683 970 709 984T766 1010T834 1029T914 1036Q990 1036
1049 1015T1150 953T1213 853T1235 715Q1235 678 1229 631T1214 531T1194 426T1174 322T1158 228T1152 152Q1152 134 1153 122T1154 94Q1154 47 1123 20T1030 -7Q959 -7 922 30T884 136Q884 167 890 210T905 303T924 405T943 507T958 599T964 673Q964 748 928 783T822
819Q794 819 769 812T721 793T679 766T644 736Q606 699 578 653L484 113Q474 54 439 24T335 -7Q267 -7 238 23T218 113L358 924ZM218 1460Q218 1489 229 1514T259 1558T306 1588T364 1599Q423 1599 457 1564T492 1464Q492 1427 478 1388T440 1310T385 1236T320
1171Q282 1139 252 1127T193 1114Q161 1114 145 1128T128 1167Q128 1191 140 1206T173 1239T218 1284T267 1359Q247 1373 233 1397T218 1460Z" />
<glyph unicode="&#x14a;" glyph-name="Eng" horiz-adv-x="1477" d="M282 1209Q290 1255 306 1288T346 1343T406 1375T488 1385Q537 1385 569 1374T625 1338Q650 1313 669 1272T714 1171L988 534Q1004 496 1017 460T1040 394Q1051 361 1060 330L1065 332Q1066 367
1069 407Q1071 441 1075 484T1088 576L1196 1272Q1204 1327 1237 1356T1334 1385Q1388 1385 1418 1361T1449 1290Q1449 1279 1448 1268T1443 1239L1235 36Q1224 -30 1210 -81T1177 -175T1137 -251T1088 -316Q1056 -354 1018 -384T938 -436T854 -470T772 -482Q715
-482 686 -456T657 -387Q657 -351 674 -328T730 -287Q773 -266 811 -242T880 -183T933 -103T966 7Q953 12 941 19T916 40Q891 65 872 106T827 207L553 844Q537 882 524 918T501 984Q490 1017 481 1048L476 1046Q474 1011 471 971Q468 937 464 893T453 802L345 106Q337
51 304 22T207 -7Q153 -7 123 17T92 88Q92 98 93 110T98 139L282 1209Z" />
<glyph unicode="&#x14b;" glyph-name="eng" horiz-adv-x="1200" d="M216 924Q225 976 254 1001T335 1027Q386 1027 414 999T442 919Q442 911 441 904T439 889Q438 881 437 874H441Q473 919 521 955Q541 970 567 984T624 1010T692 1029T772 1036Q848 1036 907 1015T1008
954T1070 853T1092 716Q1092 673 1089 626T1080 525T1062 406T1036 263Q1006 113 977 11T917 -162T854 -278T785 -360Q758 -387 728 -409T664 -446T597 -471T528 -480Q469 -480 439 -453T409 -384Q409 -354 424 -332T471 -292Q503 -276 531 -259T585 -217T633 -155T678
-62T721 74T765 263Q780 337 790 397T807 508T817 598T820 674Q820 749 785 784T680 819Q652 819 627 812T579 793T537 766T502 736Q464 699 436 653L342 113Q332 54 297 24T193 -7Q125 -7 96 23T76 113L216 924Z" />
<glyph unicode="&#x14c;" glyph-name="Omacron" horiz-adv-x="1479" d="M104 520Q104 654 131 771T209 987T330 1161T488 1291T675 1371T887 1399Q1016 1399 1118 1361T1291 1253T1400 1083T1438 858Q1438 724 1411 607T1333 392T1212 218T1054 88T866 8T655 -20Q526
-20 424 17T251 125T142 295T104 520ZM388 552Q388 466 410 401T471 291T566 224T690 201Q778 201 861 243T1010 365T1114 561T1154 827Q1154 913 1132 978T1071 1088T975 1154T852 1177Q764 1177 681 1135T532 1013T428 817T388 552ZM1188 1746Q1227 1746 1246
1726T1266 1665Q1266 1639 1259 1619T1238 1584T1205 1561T1163 1553H654Q615 1553 595 1573T575 1633Q575 1659 582 1680T604 1715T637 1738T679 1746H1188Z" />
<glyph unicode="&#x14d;" glyph-name="omacron" horiz-adv-x="1180" d="M70 389Q70 537 115 657T240 861T432 991T677 1037Q777 1037 857 1008T993 926T1079 797T1109 628Q1109 480 1064 360T939 156T747 26T502 -20Q402 -20 322 9T186 91T100 220T70 389ZM346
418Q346 361 360 318T399 247T460 204T539 189Q597 189 650 216T744 295T809 423T834 599Q834 656 820 699T781 770T720 813T641 828Q583 828 530 801T436 722T371 594T346 418ZM976 1411Q1014 1411 1033 1391T1053 1331Q1053 1305 1046 1285T1024 1250T991 1228T950
1220H448Q410 1220 390 1240T370 1299Q370 1325 377 1345T399 1380T431 1403T473 1411H976Z" />
<glyph unicode="&#x14e;" glyph-name="Obreve" horiz-adv-x="1479" d="M104 520Q104 654 131 771T209 987T330 1161T488 1291T675 1371T887 1399Q1016 1399 1118 1361T1291 1253T1400 1083T1438 858Q1438 724 1411 607T1333 392T1212 218T1054 88T866 8T655 -20Q526
-20 424 17T251 125T142 295T104 520ZM388 552Q388 466 410 401T471 291T566 224T690 201Q778 201 861 243T1010 365T1114 561T1154 827Q1154 913 1132 978T1071 1088T975 1154T852 1177Q764 1177 681 1135T532 1013T428 817T388 552ZM622 1728Q622 1793 651 1821T726
1849Q760 1849 779 1832T800 1779Q801 1726 831 1699T927 1672Q993 1672 1034 1702T1092 1785Q1103 1817 1124 1833T1180 1849Q1218 1849 1238 1827T1258 1767Q1258 1709 1230 1658T1152 1569T1039 1509T905 1487Q840 1487 788 1505T699 1556T642 1632T622 1728Z"
/>
<glyph unicode="&#x14f;" glyph-name="obreve" horiz-adv-x="1180" d="M70 389Q70 537 115 657T240 861T432 991T677 1037Q777 1037 857 1008T993 926T1079 797T1109 628Q1109 480 1064 360T939 156T747 26T502 -20Q402 -20 322 9T186 91T100 220T70 389ZM346
418Q346 361 360 318T399 247T460 204T539 189Q597 189 650 216T744 295T809 423T834 599Q834 656 820 699T781 770T720 813T641 828Q583 828 530 801T436 722T371 594T346 418ZM418 1379Q418 1412 426 1435T448 1474T481 1496T523 1503Q555 1503 573 1487T594
1435Q596 1380 622 1348T710 1316Q776 1316 814 1350T869 1441Q888 1503 953 1503Q1031 1503 1031 1423Q1031 1364 1006 1312T936 1221T827 1159T688 1136Q629 1136 580 1153T494 1201T438 1278T418 1379Z" />
<glyph unicode="&#x150;" glyph-name="Ohungarumlaut" horiz-adv-x="1479" d="M104 520Q104 654 131 771T209 987T330 1161T488 1291T675 1371T887 1399Q1016 1399 1118 1361T1291 1253T1400 1083T1438 858Q1438 724 1411 607T1333 392T1212 218T1054 88T866 8T655
-20Q526 -20 424 17T251 125T142 295T104 520ZM388 552Q388 466 410 401T471 291T566 224T690 201Q778 201 861 243T1010 365T1114 561T1154 827Q1154 913 1132 978T1071 1088T975 1154T852 1177Q764 1177 681 1135T532 1013T428 817T388 552ZM830 1834Q844 1850
860 1856T894 1863Q915 1863 935 1854T972 1829T997 1793T1007 1751Q1007 1731 999 1716T974 1688L729 1496Q707 1480 681 1480Q664 1480 650 1486T624 1504T606 1529T599 1559Q599 1571 603 1583T618 1607L830 1834ZM1266 1792Q1278 1800 1289 1804T1315 1809Q1337
1809 1356 1798T1390 1769T1413 1729T1422 1685Q1422 1662 1411 1642T1376 1610L1105 1469Q1095 1464 1087 1462T1067 1459Q1051 1459 1037 1466T1011 1484T994 1511T987 1544Q987 1561 994 1576T1018 1604L1266 1792Z" />
<glyph unicode="&#x151;" glyph-name="ohungarumlaut" horiz-adv-x="1180" d="M70 389Q70 537 115 657T240 861T432 991T677 1037Q777 1037 857 1008T993 926T1079 797T1109 628Q1109 480 1064 360T939 156T747 26T502 -20Q402 -20 322 9T186 91T100 220T70 389ZM346
418Q346 361 360 318T399 247T460 204T539 189Q597 189 650 216T744 295T809 423T834 599Q834 656 820 699T781 770T720 813T641 828Q583 828 530 801T436 722T371 594T346 418ZM599 1524Q612 1541 628 1548T662 1556Q684 1556 705 1547T742 1522T769 1488T780
1449Q780 1434 775 1422T755 1396L528 1180Q514 1168 501 1163T473 1157Q456 1157 441 1163T415 1179T397 1204T390 1234Q390 1245 393 1255T405 1276L599 1524ZM994 1500Q1005 1511 1018 1517T1047 1523Q1069 1523 1089 1513T1125 1485T1150 1446T1160 1404Q1160
1364 1124 1339L879 1157Q867 1148 855 1144T830 1139Q813 1139 798 1145T772 1163T754 1190T747 1222Q747 1236 753 1249T772 1276L994 1500Z" />
<glyph unicode="&#x152;" glyph-name="OE" horiz-adv-x="1848" d="M1056 1148Q1019 1162 974 1170T867 1178Q773 1178 687 1136T534 1014T428 818T388 552Q388 466 410 400T473 290T573 223T706 200Q765 200 810 208T897 230L1056 1148ZM1168 217H1621Q1662 217
1683 194T1704 124Q1704 95 1696 72T1673 33T1638 9T1594 0H886Q835 -9 785 -14T670 -20Q535 -20 430 17T253 125T142 295T104 520Q104 654 131 771T209 987T331 1161T491 1291T683 1371T902 1399Q965 1399 1020 1394T1125 1378H1818Q1859 1378 1880 1356T1901
1286Q1901 1257 1893 1234T1870 1194T1835 1170T1791 1161H1331L1270 810H1654Q1694 810 1715 788T1736 719Q1736 690 1728 668T1706 629T1671 605T1628 597H1234L1168 217Z" />
<glyph unicode="&#x153;" glyph-name="oe" horiz-adv-x="1810" d="M70 389Q70 537 115 657T240 861T430 991T673 1037Q733 1037 785 1025T879 992T954 939T1009 870Q1045 908 1087 939T1180 991T1288 1025T1412 1037Q1499 1037 1565 1017T1674 960T1740 874T1762
766Q1762 676 1723 607T1601 492T1392 422T1091 400Q1092 351 1107 312T1152 246T1225 205T1327 190Q1379 190 1416 197T1480 212T1527 227T1567 234Q1603 234 1623 212T1643 158Q1643 130 1635 109T1609 71Q1591 53 1560 37T1487 8T1393 -12T1279 -20Q1133 -20
1044 25T907 147Q842 71 741 26T502 -20Q402 -20 322 9T186 91T100 220T70 389ZM346 418Q346 361 360 318T399 247T460 204T539 189Q597 189 650 216T744 295T809 423T834 599Q834 656 820 699T781 770T720 813T641 828Q583 828 530 801T436 722T371 594T346 418ZM1107
580Q1211 577 1286 586T1409 617T1480 669T1503 741Q1503 789 1473 816T1380 844Q1335 844 1294 828T1216 779T1152 697T1107 580Z" />
<glyph unicode="&#x154;" glyph-name="Racute" horiz-adv-x="1202" d="M363 116Q352 56 317 25T212 -7Q144 -7 114 24T94 116L292 1261Q303 1321 335 1349T428 1378H720Q843 1378 932 1353T1080 1283T1167 1174T1195 1035Q1195 950 1169 880T1097 755T986 661T845
598L1029 202Q1039 180 1045 162T1051 122Q1051 94 1038 70T1004 28T956 0T899 -10Q870 -10 847 0T808 26Q792 42 783 61T765 100L579 554H439L363 116ZM608 766Q683 766 739 784T834 834T892 908T912 1001Q912 1039 900 1069T860 1121T788 1154T680 1166H544L475
766H608ZM951 1840Q973 1854 993 1854Q1015 1854 1035 1842T1071 1810T1096 1766T1105 1720Q1105 1697 1096 1679T1063 1649L769 1496Q760 1491 752 1489T734 1486Q716 1486 701 1494T675 1515T657 1545T650 1579Q650 1597 657 1613T682 1642L951 1840Z" />
<glyph unicode="&#x155;" glyph-name="racute" horiz-adv-x="748" d="M216 924Q225 976 254 1001T335 1027Q386 1027 414 999T442 919Q442 909 441 898T438 877Q436 866 435 854H438Q463 895 494 928T559 986T630 1023T702 1037Q757 1037 785 1010T813 925Q813
893 804 862T779 806T742 766T697 751Q683 751 673 753T654 758T637 763T616 766Q593 766 568 754T518 721T471 675T431 622L342 113Q332 54 297 24T193 -7Q132 -7 103 16T74 85Q74 96 75 108T81 141L216 924ZM701 1517Q723 1539 754 1539Q776 1539 797 1528T834
1498T861 1457T871 1412Q871 1392 863 1377T838 1350L583 1159Q572 1151 561 1148T538 1144Q521 1144 505 1151T477 1171T458 1198T451 1230Q451 1245 457 1258T477 1286L701 1517Z" />
<glyph unicode="&#x156;" glyph-name="Rcommaaccent" horiz-adv-x="1202" d="M363 116Q352 56 317 25T212 -7Q144 -7 114 24T94 116L292 1261Q303 1321 335 1349T428 1378H720Q843 1378 932 1353T1080 1283T1167 1174T1195 1035Q1195 950 1169 880T1097 755T986
661T845 598L1029 202Q1039 180 1045 162T1051 122Q1051 94 1038 70T1004 28T956 0T899 -10Q870 -10 847 0T808 26Q792 42 783 61T765 100L579 554H439L363 116ZM608 766Q683 766 739 784T834 834T892 908T912 1001Q912 1039 900 1069T860 1121T788 1154T680 1166H544L475
766H608ZM403 -239Q403 -212 413 -188T442 -144T487 -114T547 -103Q606 -103 639 -137T672 -228Q672 -271 653 -307T603 -374T532 -427T448 -466T361 -490T280 -498Q230 -498 207 -480T183 -430Q183 -416 187 -404T202 -382Q215 -369 238 -361T290 -344T351 -323T414
-286Q409 -278 406 -267T403 -239Z" />
<glyph unicode="&#x157;" glyph-name="rcommaaccent" horiz-adv-x="748" d="M216 924Q225 976 254 1001T335 1027Q386 1027 414 999T442 919Q442 909 441 898T438 877Q436 866 435 854H438Q463 895 494 928T559 986T630 1023T702 1037Q757 1037 785 1010T813 925Q813
893 804 862T779 806T742 766T697 751Q683 751 673 753T654 758T637 763T616 766Q593 766 568 754T518 721T471 675T431 622L342 113Q332 54 297 24T193 -7Q132 -7 103 16T74 85Q74 96 75 108T81 141L216 924ZM67 -239Q67 -212 77 -188T106 -144T151 -114T211 -103Q270
-103 303 -137T336 -228Q336 -271 317 -307T267 -374T196 -427T112 -466T25 -490T-56 -498Q-106 -498 -129 -480T-153 -430Q-153 -416 -149 -404T-134 -382Q-121 -369 -98 -361T-46 -344T15 -323T78 -286Q73 -278 70 -267T67 -239Z" />
<glyph unicode="&#x158;" glyph-name="Rcaron" horiz-adv-x="1202" d="M363 116Q352 56 317 25T212 -7Q144 -7 114 24T94 116L292 1261Q303 1321 335 1349T428 1378H720Q843 1378 932 1353T1080 1283T1167 1174T1195 1035Q1195 950 1169 880T1097 755T986 661T845
598L1029 202Q1039 180 1045 162T1051 122Q1051 94 1038 70T1004 28T956 0T899 -10Q870 -10 847 0T808 26Q792 42 783 61T765 100L579 554H439L363 116ZM608 766Q683 766 739 784T834 834T892 908T912 1001Q912 1039 900 1069T860 1121T788 1154T680 1166H544L475
766H608ZM989 1845Q1005 1855 1026 1855Q1043 1855 1058 1848T1084 1829T1101 1802T1108 1771Q1108 1736 1079 1713L855 1536Q828 1515 803 1502T744 1489Q709 1489 686 1502T642 1536L481 1717Q470 1729 466 1741T461 1768Q461 1786 469 1802T490 1830T519 1849T553
1856Q567 1856 578 1853T600 1841L770 1713L989 1845Z" />
<glyph unicode="&#x159;" glyph-name="rcaron" horiz-adv-x="748" d="M216 924Q225 976 254 1001T335 1027Q386 1027 414 999T442 919Q442 909 441 898T438 877Q436 866 435 854H438Q463 895 494 928T559 986T630 1023T702 1037Q757 1037 785 1010T813 925Q813
893 804 862T779 806T742 766T697 751Q683 751 673 753T654 758T637 763T616 766Q593 766 568 754T518 721T471 675T431 622L342 113Q332 54 297 24T193 -7Q132 -7 103 16T74 85Q74 96 75 108T81 141L216 924ZM1004 1505Q1026 1519 1048 1519Q1065 1519 1079 1512T1103
1494T1119 1469T1125 1441Q1125 1424 1119 1410T1097 1382L879 1188Q853 1165 829 1153T774 1141Q743 1141 721 1153T682 1187L527 1387Q517 1398 513 1409T509 1434Q509 1452 517 1468T538 1496T568 1515T603 1523Q632 1523 655 1503L802 1363L1004 1505Z" />
<glyph unicode="&#x15a;" glyph-name="Sacute" horiz-adv-x="1081" d="M184 974Q184 1064 218 1141T318 1275T484 1364T712 1397Q768 1397 814 1391T898 1373T962 1347T1006 1315Q1024 1297 1031 1278T1039 1234Q1039 1189 1012 1160T940 1131Q917 1131 896 1139T848
1156T782 1173T685 1181Q625 1181 584 1169T516 1136T477 1084T465 1018Q465 978 487 948T545 891T626 842T720 791T813 732T895 658T953 559T975 429Q975 331 940 249T836 108T663 16T422 -18Q352 -18 297 -10T199 11T129 41T83 75Q65 93 58 112T50 156Q50 201
77 230T149 259Q173 259 196 250T251 229T329 209T447 199Q511 199 558 212T635 250T679 309T694 384Q694 426 672 458T614 517T533 568T439 619T346 677T264 751T206 847T184 974ZM877 1840Q899 1854 919 1854Q941 1854 961 1842T997 1810T1022 1766T1031 1720Q1031
1697 1022 1679T989 1649L695 1496Q686 1491 678 1489T660 1486Q642 1486 627 1494T601 1515T583 1545T576 1579Q576 1597 583 1613T608 1642L877 1840Z" />
<glyph unicode="&#x15b;" glyph-name="sacute" horiz-adv-x="893" d="M128 709Q128 779 154 839T233 943T365 1011T552 1036Q649 1036 710 1016T800 968Q817 951 824 933T832 892Q832 853 807 828T740 803Q720 803 702 809T662 822T609 836T535 843Q461 843 429
816T397 745Q397 708 426 683T498 637T592 592T686 534T758 449T787 323Q787 251 759 189T677 80T540 8T350 -19Q290 -19 243 -12T161 6T101 30T63 58Q46 75 39 93T31 134Q31 172 56 197T123 223Q144 223 164 216T212 199T277 183T368 175Q407 175 435 183T481
207T509 242T518 287Q518 316 501 337T457 377T395 411T323 445T251 487T189 540T145 612T128 709ZM685 1517Q707 1539 738 1539Q760 1539 781 1528T818 1498T845 1457T855 1412Q855 1392 847 1377T822 1350L567 1159Q556 1151 545 1148T522 1144Q505 1144 489
1151T461 1171T442 1198T435 1230Q435 1245 441 1258T461 1286L685 1517Z" />
<glyph unicode="&#x15c;" glyph-name="Scircumflex" horiz-adv-x="1081" d="M184 974Q184 1064 218 1141T318 1275T484 1364T712 1397Q768 1397 814 1391T898 1373T962 1347T1006 1315Q1024 1297 1031 1278T1039 1234Q1039 1189 1012 1160T940 1131Q917 1131 896
1139T848 1156T782 1173T685 1181Q625 1181 584 1169T516 1136T477 1084T465 1018Q465 978 487 948T545 891T626 842T720 791T813 732T895 658T953 559T975 429Q975 331 940 249T836 108T663 16T422 -18Q352 -18 297 -10T199 11T129 41T83 75Q65 93 58 112T50 156Q50
201 77 230T149 259Q173 259 196 250T251 229T329 209T447 199Q511 199 558 212T635 250T679 309T694 384Q694 426 672 458T614 517T533 568T439 619T346 677T264 751T206 847T184 974ZM519 1498Q510 1493 502 1491T482 1488Q465 1488 450 1495T424 1514T406 1541T399
1573Q399 1607 429 1630L652 1807Q679 1828 704 1841T764 1854Q799 1854 822 1842T865 1808L1026 1626Q1037 1615 1041 1603T1046 1576Q1046 1558 1038 1542T1018 1514T989 1494T954 1487Q940 1487 930 1490T908 1502L738 1630L519 1498Z" />
<glyph unicode="&#x15d;" glyph-name="scircumflex" horiz-adv-x="893" d="M128 709Q128 779 154 839T233 943T365 1011T552 1036Q649 1036 710 1016T800 968Q817 951 824 933T832 892Q832 853 807 828T740 803Q720 803 702 809T662 822T609 836T535 843Q461 843
429 816T397 745Q397 708 426 683T498 637T592 592T686 534T758 449T787 323Q787 251 759 189T677 80T540 8T350 -19Q290 -19 243 -12T161 6T101 30T63 58Q46 75 39 93T31 134Q31 172 56 197T123 223Q144 223 164 216T212 199T277 183T368 175Q407 175 435 183T481
207T509 242T518 287Q518 316 501 337T457 377T395 411T323 445T251 487T189 540T145 612T128 709ZM642 1163Q620 1149 599 1149Q582 1149 568 1156T544 1174T528 1199T522 1227Q522 1244 528 1258T549 1286L767 1480Q793 1503 817 1515T872 1527Q903 1527 925
1515T964 1481L1120 1281Q1129 1270 1133 1259T1137 1234Q1137 1216 1129 1200T1108 1172T1079 1153T1044 1145Q1014 1145 991 1165L844 1305L642 1163Z" />
<glyph unicode="&#x15e;" glyph-name="Scedilla" horiz-adv-x="1081" d="M347 -15Q241 -7 177 19T83 75Q65 93 58 112T50 156Q50 201 77 230T149 259Q173 259 196 250T251 229T329 209T447 199Q511 199 558 212T635 250T679 309T694 384Q694 426 672 458T614 517T533
568T439 619T346 677T264 751T206 847T184 974Q184 1064 218 1141T318 1275T484 1364T712 1397Q768 1397 814 1391T898 1373T962 1347T1006 1315Q1024 1297 1031 1278T1039 1234Q1039 1189 1012 1160T940 1131Q917 1131 896 1139T848 1156T782 1173T685 1181Q625
1181 584 1169T516 1136T477 1084T465 1018Q465 978 487 948T545 891T626 842T720 791T813 732T895 658T953 559T975 429Q975 338 945 261T856 126T708 32T502 -15L470 -91Q503 -96 529 -108T574 -139T603 -186T614 -247Q614 -298 592 -342T528 -420T423 -473T282
-492Q242 -492 215 -486T171 -470T147 -444T140 -411Q140 -383 157 -365T203 -347Q219 -347 232 -348T267 -350Q305 -350 331 -344T373 -328T397 -303T405 -272Q405 -249 390 -236T340 -222H323Q297 -222 287 -205T291 -154L347 -15Z" />
<glyph unicode="&#x15f;" glyph-name="scedilla" horiz-adv-x="893" d="M275 -16Q238 -13 206 -6T146 11T98 32T63 58Q46 75 39 93T31 134Q31 172 56 197T123 223Q144 223 164 216T212 199T277 183T368 175Q407 175 435 183T481 207T509 242T518 287Q518 316 501
337T457 377T395 411T323 445T251 487T189 540T145 612T128 709Q128 779 154 839T233 943T365 1011T552 1036Q649 1036 710 1016T800 968Q817 951 824 933T832 892Q832 853 807 828T740 803Q720 803 702 809T662 822T609 836T535 843Q461 843 429 816T397 745Q397
708 426 683T498 637T592 592T686 534T758 449T787 323Q787 253 762 195T691 93T578 22T429 -15L398 -91Q431 -96 457 -108T503 -139T532 -186T543 -247Q543 -298 521 -342T456 -420T351 -473T210 -492Q170 -492 143 -486T100 -470T76 -444T69 -411Q69 -383 86
-365T132 -347Q147 -347 160 -348T195 -350Q233 -350 259 -344T302 -328T326 -303T334 -272Q334 -249 319 -236T268 -222H251Q225 -222 215 -205T219 -154L275 -16Z" />
<glyph unicode="&#x160;" glyph-name="Scaron" horiz-adv-x="1081" d="M184 974Q184 1064 218 1141T318 1275T484 1364T712 1397Q768 1397 814 1391T898 1373T962 1347T1006 1315Q1024 1297 1031 1278T1039 1234Q1039 1189 1012 1160T940 1131Q917 1131 896 1139T848
1156T782 1173T685 1181Q625 1181 584 1169T516 1136T477 1084T465 1018Q465 978 487 948T545 891T626 842T720 791T813 732T895 658T953 559T975 429Q975 331 940 249T836 108T663 16T422 -18Q352 -18 297 -10T199 11T129 41T83 75Q65 93 58 112T50 156Q50 201
77 230T149 259Q173 259 196 250T251 229T329 209T447 199Q511 199 558 212T635 250T679 309T694 384Q694 426 672 458T614 517T533 568T439 619T346 677T264 751T206 847T184 974ZM936 1845Q952 1855 973 1855Q990 1855 1005 1848T1031 1829T1048 1802T1055 1771Q1055
1736 1026 1713L802 1536Q775 1515 750 1502T691 1489Q656 1489 633 1502T589 1536L428 1717Q417 1729 413 1741T408 1768Q408 1786 416 1802T437 1830T466 1849T500 1856Q514 1856 525 1853T547 1841L717 1713L936 1845Z" />
<glyph unicode="&#x161;" glyph-name="scaron" horiz-adv-x="893" d="M128 709Q128 779 154 839T233 943T365 1011T552 1036Q649 1036 710 1016T800 968Q817 951 824 933T832 892Q832 853 807 828T740 803Q720 803 702 809T662 822T609 836T535 843Q461 843 429
816T397 745Q397 708 426 683T498 637T592 592T686 534T758 449T787 323Q787 251 759 189T677 80T540 8T350 -19Q290 -19 243 -12T161 6T101 30T63 58Q46 75 39 93T31 134Q31 172 56 197T123 223Q144 223 164 216T212 199T277 183T368 175Q407 175 435 183T481
207T509 242T518 287Q518 316 501 337T457 377T395 411T323 445T251 487T189 540T145 612T128 709ZM1034 1505Q1056 1519 1078 1519Q1095 1519 1109 1512T1133 1494T1149 1469T1155 1441Q1155 1424 1149 1410T1127 1382L909 1188Q883 1165 859 1153T804 1141Q773
1141 751 1153T712 1187L557 1387Q547 1398 543 1409T539 1434Q539 1452 547 1468T568 1496T598 1515T633 1523Q662 1523 685 1503L832 1363L1034 1505Z" />
<glyph unicode="&#x162;" glyph-name="uni0162" horiz-adv-x="1120" d="M236 1154Q194 1154 172 1177T149 1250Q149 1280 157 1303T181 1343T217 1369T262 1378H1149Q1191 1378 1213 1355T1235 1282Q1235 1252 1227 1228T1203 1188T1168 1163T1123 1154H809L629
116Q621 68 597 40T529 1L491 -91Q524 -96 550 -108T596 -139T625 -186T636 -247Q636 -298 614 -342T549 -420T444 -473T303 -492Q263 -492 236 -486T193 -470T169 -444T162 -411Q162 -383 179 -365T225 -347Q240 -347 254 -348T289 -350Q326 -350 352 -344T395
-328T419 -303T427 -272Q427 -249 412 -236T362 -222H344Q318 -222 308 -205T312 -154L383 20Q345 50 356 116L536 1154H236Z" />
<glyph unicode="&#x163;" glyph-name="uni0163" horiz-adv-x="748" d="M168 814Q130 814 110 835T89 900Q89 927 97 949T119 986T152 1009T194 1017H283L341 1188Q351 1214 364 1234T393 1268T431 1289T479 1297Q531 1297 554 1268T569 1186L540 1017H700Q738
1017 758 996T779 931Q779 904 771 882T749 845T716 822T674 814H505L420 323Q409 258 428 230T494 202Q511 202 523 203T546 207T565 211T583 213Q615 213 633 193T651 140Q651 112 643 91T615 50Q601 36 580 25T532 6T472 -6T403 -10L369 -91Q401 -96 427 -108T473
-139T502 -186T513 -247Q513 -298 491 -342T427 -420T322 -473T181 -492Q141 -492 114 -486T71 -470T47 -444T40 -411Q40 -383 56 -365T102 -347Q118 -347 131 -348T166 -350Q204 -350 230 -344T273 -328T297 -303T305 -272Q305 -249 290 -236T239 -222H222Q196
-222 186 -205T190 -154L259 16Q226 31 201 56T162 117T145 201T152 309L239 814H168Z" />
<glyph unicode="&#x164;" glyph-name="Tcaron" horiz-adv-x="1120" d="M236 1154Q194 1154 172 1177T149 1250Q149 1280 157 1303T181 1343T217 1369T262 1378H1149Q1191 1378 1213 1355T1235 1282Q1235 1252 1227 1228T1203 1188T1168 1163T1123 1154H809L629
116Q619 56 583 25T477 -7Q408 -7 377 24T356 116L536 1154H236ZM966 1845Q982 1855 1003 1855Q1020 1855 1035 1848T1061 1829T1078 1802T1085 1771Q1085 1736 1056 1713L832 1536Q805 1515 780 1502T721 1489Q686 1489 663 1502T619 1536L458 1717Q447 1729 443
1741T438 1768Q438 1786 446 1802T467 1830T496 1849T530 1856Q544 1856 555 1853T577 1841L747 1713L966 1845Z" />
<glyph unicode="&#x165;" glyph-name="tcaron" horiz-adv-x="784" d="M168 814Q130 814 110 835T89 900Q89 927 97 949T119 986T152 1009T194 1017H283L341 1188Q351 1214 364 1234T393 1268T431 1289T479 1297Q531 1297 554 1268T569 1186L540 1017H700Q738 1017
758 996T779 931Q779 904 771 882T749 845T716 822T674 814H506L421 323Q410 258 429 230T494 202Q511 202 523 203T546 207T565 211T583 213Q615 213 633 193T651 140Q651 112 643 91T615 50Q587 23 533 6T403 -11Q253 -11 189 69T152 309L239 814H168ZM796 1534Q807
1560 827 1570T874 1580Q896 1580 919 1573T960 1553T989 1523T1001 1485Q1001 1474 998 1464T986 1441L825 1177Q814 1158 797 1150T757 1142Q740 1142 724 1147T695 1162T674 1185T666 1215Q666 1224 668 1232T675 1252L796 1534Z" />
<glyph unicode="&#x166;" glyph-name="Tbar" horiz-adv-x="1120" d="M236 1154Q194 1154 172 1177T149 1250Q149 1280 157 1303T181 1343T217 1369T262 1378H1149Q1191 1378 1213 1355T1235 1282Q1235 1252 1227 1228T1203 1188T1168 1163T1123 1154H809L745 784H929Q967
784 987 764T1007 702Q1007 675 1000 654T978 619T945 596T903 588H711L629 116Q619 56 583 25T477 -7Q408 -7 377 24T356 116L438 588H255Q217 588 197 608T176 670Q176 697 184 718T205 753T238 776T280 784H472L536 1154H236Z" />
<glyph unicode="&#x167;" glyph-name="tbar" horiz-adv-x="803" d="M204 814Q165 814 145 835T125 900Q125 927 132 949T154 986T187 1009T229 1017H318L376 1188Q386 1214 399 1234T428 1268T466 1289T514 1297Q566 1297 589 1268T604 1186L576 1017H735Q773
1017 793 996T814 931Q814 904 806 882T785 845T752 822T710 814H541L515 662H666Q701 662 721 641T742 582Q742 528 715 500T641 471H481L455 318Q445 256 464 229T529 202Q546 202 558 203T581 207T600 211T618 213Q650 213 668 193T686 140Q686 112 678 91T650
50Q623 23 568 6T438 -11Q288 -11 225 69T187 310L215 471H143Q108 471 88 492T67 551Q67 604 94 633T168 662H248L274 814H204Z" />
<glyph unicode="&#x168;" glyph-name="Utilde" horiz-adv-x="1397" d="M281 1262Q292 1322 328 1353T434 1385Q503 1385 534 1354T554 1262L446 637Q440 605 436 579T428 529T424 485T422 443Q422 379 439 334T486 259T557 217T647 203Q706 203 760 223T858 286T934
392T981 546L1104 1262Q1115 1322 1151 1353T1257 1385Q1326 1385 1357 1354T1377 1262L1254 551Q1229 406 1175 299T1039 121T851 15T611 -20Q499 -20 413 7T267 87T177 220T146 405Q146 457 154 515T174 645L281 1262ZM728 1605Q698 1605 678 1593T639 1566T603
1539T562 1526Q533 1526 512 1545T491 1603Q491 1635 511 1670T566 1735T650 1784T755 1803Q806 1803 844 1788T914 1755T973 1721T1031 1706Q1061 1706 1082 1718T1121 1746T1156 1773T1197 1786Q1226 1786 1247 1767T1269 1709Q1269 1676 1249 1641T1193 1577T1109
1528T1005 1509Q953 1509 915 1524T846 1557T786 1590T728 1605Z" />
<glyph unicode="&#x169;" glyph-name="utilde" horiz-adv-x="1196" d="M205 904Q215 963 250 993T354 1024Q422 1024 451 994T471 904L389 429Q384 403 382 384T380 344Q380 269 416 234T518 198Q546 198 571 205T618 223T660 250T695 281Q732 317 761 364L855
904Q866 963 901 993T1005 1024Q1073 1024 1102 994T1122 904L1029 369Q1022 326 1017 293T1009 233T1004 188T1002 152Q1002 134 1003 122T1004 94Q1004 48 974 20T890 -9Q823 -9 792 32T761 143H757Q724 97 676 62Q655 47 630 32T573 6T505 -12T426 -19Q351 -19
293 2T193 64T131 164T109 302Q109 328 112 359T121 423L205 904ZM583 1270Q554 1270 534 1257T495 1228T458 1199T415 1186Q400 1186 387 1190T365 1204T349 1228T343 1262Q343 1297 363 1333T420 1399T503 1448T605 1467Q656 1467 692 1451T757 1417T811 1382T866
1366Q895 1366 916 1379T955 1408T991 1437T1034 1450Q1049 1450 1062 1446T1085 1432T1101 1408T1107 1374Q1107 1339 1086 1303T1030 1237T947 1188T845 1169Q793 1169 757 1185T693 1219T639 1254T583 1270Z" />
<glyph unicode="&#x16a;" glyph-name="Umacron" horiz-adv-x="1397" d="M281 1262Q292 1322 328 1353T434 1385Q503 1385 534 1354T554 1262L446 637Q440 605 436 579T428 529T424 485T422 443Q422 379 439 334T486 259T557 217T647 203Q706 203 760 223T858 286T934
392T981 546L1104 1262Q1115 1322 1151 1353T1257 1385Q1326 1385 1357 1354T1377 1262L1254 551Q1229 406 1175 299T1039 121T851 15T611 -20Q499 -20 413 7T267 87T177 220T146 405Q146 457 154 515T174 645L281 1262ZM1148 1746Q1187 1746 1206 1726T1226 1665Q1226
1639 1219 1619T1198 1584T1165 1561T1123 1553H614Q575 1553 555 1573T535 1633Q535 1659 542 1680T564 1715T597 1738T639 1746H1148Z" />
<glyph unicode="&#x16b;" glyph-name="umacron" horiz-adv-x="1196" d="M205 904Q215 963 250 993T354 1024Q422 1024 451 994T471 904L389 429Q384 403 382 384T380 344Q380 269 416 234T518 198Q546 198 571 205T618 223T660 250T695 281Q732 317 761 364L855
904Q866 963 901 993T1005 1024Q1073 1024 1102 994T1122 904L1029 369Q1022 326 1017 293T1009 233T1004 188T1002 152Q1002 134 1003 122T1004 94Q1004 48 974 20T890 -9Q823 -9 792 32T761 143H757Q724 97 676 62Q655 47 630 32T573 6T505 -12T426 -19Q351 -19
293 2T193 64T131 164T109 302Q109 328 112 359T121 423L205 904ZM983 1411Q1021 1411 1040 1391T1060 1331Q1060 1305 1053 1285T1031 1250T998 1228T957 1220H455Q417 1220 397 1240T377 1299Q377 1325 384 1345T406 1380T438 1403T480 1411H983Z" />
<glyph unicode="&#x16c;" glyph-name="Ubreve" horiz-adv-x="1397" d="M281 1262Q292 1322 328 1353T434 1385Q503 1385 534 1354T554 1262L446 637Q440 605 436 579T428 529T424 485T422 443Q422 379 439 334T486 259T557 217T647 203Q706 203 760 223T858 286T934
392T981 546L1104 1262Q1115 1322 1151 1353T1257 1385Q1326 1385 1357 1354T1377 1262L1254 551Q1229 406 1175 299T1039 121T851 15T611 -20Q499 -20 413 7T267 87T177 220T146 405Q146 457 154 515T174 645L281 1262ZM581 1728Q581 1793 610 1821T685 1849Q719
1849 738 1832T759 1779Q760 1726 790 1699T886 1672Q952 1672 993 1702T1051 1785Q1062 1817 1083 1833T1139 1849Q1177 1849 1197 1827T1217 1767Q1217 1709 1189 1658T1111 1569T998 1509T864 1487Q799 1487 747 1505T658 1556T601 1632T581 1728Z" />
<glyph unicode="&#x16d;" glyph-name="ubreve" horiz-adv-x="1196" d="M205 904Q215 963 250 993T354 1024Q422 1024 451 994T471 904L389 429Q384 403 382 384T380 344Q380 269 416 234T518 198Q546 198 571 205T618 223T660 250T695 281Q732 317 761 364L855
904Q866 963 901 993T1005 1024Q1073 1024 1102 994T1122 904L1029 369Q1022 326 1017 293T1009 233T1004 188T1002 152Q1002 134 1003 122T1004 94Q1004 48 974 20T890 -9Q823 -9 792 32T761 143H757Q724 97 676 62Q655 47 630 32T573 6T505 -12T426 -19Q351 -19
293 2T193 64T131 164T109 302Q109 328 112 359T121 423L205 904ZM423 1379Q423 1412 431 1435T453 1474T486 1496T528 1503Q560 1503 578 1487T599 1435Q601 1380 627 1348T715 1316Q781 1316 819 1350T874 1441Q893 1503 958 1503Q1036 1503 1036 1423Q1036 1364
1011 1312T941 1221T832 1159T693 1136Q634 1136 585 1153T499 1201T443 1278T423 1379Z" />
<glyph unicode="&#x16e;" glyph-name="Uring" horiz-adv-x="1397" d="M281 1262Q292 1322 328 1353T434 1385Q503 1385 534 1354T554 1262L446 637Q440 605 436 579T428 529T424 485T422 443Q422 379 439 334T486 259T557 217T647 203Q706 203 760 223T858 286T934
392T981 546L1104 1262Q1115 1322 1151 1353T1257 1385Q1326 1385 1357 1354T1377 1262L1254 551Q1229 406 1175 299T1039 121T851 15T611 -20Q499 -20 413 7T267 87T177 220T146 405Q146 457 154 515T174 645L281 1262ZM611 1713Q611 1767 633 1813T694 1894T786
1949T903 1969Q963 1969 1012 1952T1097 1904T1151 1831T1171 1737Q1171 1683 1149 1636T1088 1555T996 1501T879 1481Q819 1481 770 1498T685 1546T630 1619T611 1713ZM773 1725Q773 1671 805 1640T891 1609Q945 1609 977 1640T1009 1725Q1009 1778 977 1809T891
1841Q838 1841 806 1810T773 1725Z" />
<glyph unicode="&#x16f;" glyph-name="uring" horiz-adv-x="1196" d="M205 904Q215 963 250 993T354 1024Q422 1024 451 994T471 904L389 429Q384 403 382 384T380 344Q380 269 416 234T518 198Q546 198 571 205T618 223T660 250T695 281Q732 317 761 364L855
904Q866 963 901 993T1005 1024Q1073 1024 1102 994T1122 904L1029 369Q1022 326 1017 293T1009 233T1004 188T1002 152Q1002 134 1003 122T1004 94Q1004 48 974 20T890 -9Q823 -9 792 32T761 143H757Q724 97 676 62Q655 47 630 32T573 6T505 -12T426 -19Q351 -19
293 2T193 64T131 164T109 302Q109 328 112 359T121 423L205 904ZM454 1345Q454 1399 475 1445T535 1526T626 1580T739 1600Q796 1600 843 1584T925 1537T978 1466T997 1374Q997 1320 975 1273T915 1192T825 1138T711 1118Q654 1118 607 1134T525 1181T473 1253T454
1345ZM613 1359Q613 1307 643 1277T725 1247Q774 1247 805 1277T837 1359Q837 1412 807 1441T725 1471Q675 1471 644 1441T613 1359Z" />
</font>
</defs>
</svg>
