<?xml version="1.0" standalone="no"?> <!DOCTYPE svg PUBLIC "-//W3C//DTD SVG 1.0//EN" "http://www.w3.org/TR/2001/REC-SVG-20010904/DTD/svg10.dtd" > <svg xmlns="http://www.w3.org/2000/svg" width="100%" height="100%">
<defs >
<font id="HolidayExtrasSans-Light" horiz-adv-x="1113" ><font-face
    font-family="HolidayExtrasSans"
    units-per-em="2048"
    panose-1="2 11 3 3 4 3 2 6 2 4"
    ascent="2048"
    descent="-512"
    alphabetic="0" />
<missing-glyph horiz-adv-x="1024" d="M398 440Q398 375 347 375Q324 375 316 379T300 383Q284 383 284 362Q284 349 294 344Q305 339 318 338T343 336Q399 336 424 362T450 440V686Q450 719 417 719H325Q308 719 308 698Q308 678 325 678H398V440ZM529 360Q529
351 536 346T554 340Q565 340 573 345T581 360V512H722Q736 512 736 532Q736 553 722 553H581V678H738Q755 678 755 698Q755 719 738 719H564Q529 719 529 686V360ZM165 539Q165 613 191 677T263 787T373 860T511 887Q586 887 649 861T759 788T832 677T859 539Q859
464 833 401T760 292T650 219T511 193Q436 193 373 219T264 291T191 401T165 539Z" />
<glyph unicode="&#xd;" glyph-name="CR" horiz-adv-x="0" />
<glyph unicode=" " glyph-name="space" horiz-adv-x="553" />
<glyph unicode="!" glyph-name="exclam" horiz-adv-x="676" d="M256 1280Q255 1306 255 1326T254 1363T254 1393T254 1419Q254 1433 258 1445T273 1467T299 1481T338 1487Q361 1487 377 1482T403 1467T417 1446T422 1419Q422 1407 422 1394T422 1364T422 1327T420
1280L406 432Q406 403 388 386T338 369Q306 369 289 386T270 432L256 1280ZM221 96Q221 121 230 143T255 181T292 206T340 215Q365 215 386 207T423 183T446 147T455 100Q455 75 446 54T421 16T383 -9T336 -18Q310 -18 289 -10T253 14T230 50T221 96Z" />
<glyph unicode="&quot;" glyph-name="quotedbl" horiz-adv-x="756" d="M141 1394Q140 1410 140 1418T139 1434Q139 1462 158 1478T215 1495Q252 1495 271 1479T291 1434Q291 1427 291 1419T289 1394L271 1054Q269 1028 254 1016T215 1004Q192 1004 177 1016T159
1054L141 1394ZM467 1394Q466 1410 466 1418T465 1434Q465 1462 484 1478T541 1495Q578 1495 597 1479T617 1434Q617 1427 617 1419T615 1394L597 1054Q595 1028 580 1016T541 1004Q518 1004 503 1016T485 1054L467 1394Z" />
<glyph unicode="#" glyph-name="numbersign" horiz-adv-x="1454" d="M115 370Q89 370 75 384T61 425Q61 452 75 466T115 480H356L495 896H290Q264 896 250 910T236 951Q236 978 250 992T290 1006H532L645 1348Q653 1374 668 1384T705 1395Q718 1395 730 1391T750
1380T763 1362T768 1339Q768 1330 767 1323T762 1305L663 1006H1002L1116 1348Q1124 1374 1139 1384T1176 1395Q1189 1395 1201 1391T1221 1380T1234 1362T1239 1339Q1239 1330 1238 1323T1233 1305L1134 1006H1338Q1364 1006 1378 992T1393 951Q1393 925 1379
911T1338 896H1097L959 480H1163Q1189 480 1203 466T1218 425Q1218 399 1204 385T1163 370H922L809 29Q800 3 786 -7T750 -18Q736 -18 725 -14T705 -3T691 14T686 37Q686 46 687 53T692 72L791 370H452L338 29Q329 3 315 -7T279 -18Q265 -18 254 -14T234 -3T220
14T215 37Q215 46 216 53T221 72L320 370H115ZM488 480H827L966 896H626L488 480Z" />
<glyph unicode="$" glyph-name="dollar" horiz-adv-x="1069" d="M476 3Q410 3 357 11T265 31T199 58T160 85Q146 99 141 111T135 141Q135 167 152 182T196 198Q215 198 236 188T290 165T371 142T495 131Q574 131 631 147T725 194T780 265T798 358Q798 419 770
460T695 532T589 585T467 630T345 679T239 744T164 834T135 962Q135 1028 156 1085T220 1187T326 1262T476 1303V1535Q476 1564 492 1578T537 1593Q566 1593 582 1579T598 1535V1310Q650 1309 693 1302T770 1283T827 1259T863 1233Q877 1219 882 1207T888 1178Q888
1153 871 1138T827 1122Q807 1122 786 1131T735 1152T664 1172T563 1182Q490 1182 438 1168T352 1126T302 1062T286 980Q286 925 314 887T389 822T495 773T617 728T739 678T845 610T920 513T949 376Q949 305 928 244T862 135T752 56T598 11V-229Q598 -258 582 -272T537
-287Q508 -287 492 -273T476 -229V3Z" />
<glyph unicode="%" glyph-name="percent" horiz-adv-x="1911" d="M1285 1361Q1295 1378 1306 1387T1337 1396Q1349 1396 1360 1392T1381 1380T1396 1362T1402 1339Q1402 1330 1399 1322T1388 1300L626 18Q616 1 605 -8T574 -17Q562 -17 551 -13T530 -1T515 17T509
40Q509 49 512 57T523 79L1285 1361ZM112 994Q112 1093 137 1168T207 1293T313 1369T448 1395Q518 1395 577 1371T678 1299T745 1180T769 1013Q769 914 744 839T674 714T568 638T433 612Q363 612 304 636T203 707T136 826T112 994ZM254 1004Q254 929 269 876T310
788T370 737T442 721Q479 721 512 737T571 787T612 874T627 1003Q627 1078 612 1131T571 1219T511 1270T439 1286Q402 1286 369 1270T310 1220T269 1133T254 1004ZM1142 366Q1142 465 1167 540T1237 665T1343 741T1478 767Q1548 767 1607 743T1708 671T1775 552T1799
385Q1799 286 1774 211T1704 86T1598 10T1463 -16Q1393 -16 1334 8T1233 79T1166 198T1142 366ZM1284 376Q1284 301 1299 248T1340 160T1400 109T1472 93Q1509 93 1542 109T1601 159T1642 246T1657 375Q1657 450 1642 503T1601 591T1541 642T1469 658Q1432 658
1399 642T1340 592T1299 505T1284 376Z" />
<glyph unicode="&amp;" glyph-name="ampersand" horiz-adv-x="1581" d="M1337 1004Q1363 1004 1378 988T1394 943Q1394 914 1379 898T1337 882H1138Q1171 847 1196 807T1237 724T1262 632T1271 533Q1271 455 1255 385T1207 255Q1264 218 1311 191T1410 137Q1426
128 1441 121T1469 106T1488 86T1495 59Q1495 45 1490 33T1476 10T1454 -6T1424 -12Q1417 -12 1409 -11T1390 -7T1363 3T1325 20Q1299 32 1276 44T1229 70T1179 100T1121 138Q1084 101 1039 72T938 23T820 -7T685 -18Q554 -18 454 15T287 107T184 246T149 420Q149
474 160 520T189 607T231 681T279 741Q336 803 410 847Q371 920 351 989T330 1124Q330 1211 355 1279T430 1396T549 1469T710 1495Q759 1495 797 1489T863 1474T910 1454T938 1434Q951 1421 956 1409T961 1380Q961 1368 957 1359T945 1342T927 1330T904 1326Q889
1326 871 1333T828 1349T771 1365T694 1372Q590 1372 534 1314T477 1144Q477 1054 520 955T642 753T836 545T1092 336Q1106 374 1113 418T1121 513Q1121 586 1108 639T1070 735T1014 810T944 876Q920 896 911 911T903 947Q902 973 917 988T959 1004H1337ZM706 107Q757
107 801 113T885 133T956 166T1015 212Q840 342 702 476T473 744Q424 713 386 669Q353 631 326 575T299 440Q299 365 324 304T399 199T526 131T706 107Z" />
<glyph unicode="&apos;" glyph-name="quotesingle" horiz-adv-x="430" d="M141 1394Q140 1410 140 1418T139 1434Q139 1462 158 1478T215 1495Q252 1495 271 1479T291 1434Q291 1427 291 1419T289 1394L271 1054Q269 1028 254 1016T215 1004Q192 1004 177 1016T159
1054L141 1394Z" />
<glyph unicode="(" glyph-name="parenleft" horiz-adv-x="638" d="M146 578Q146 724 168 857T232 1109T334 1332T472 1525Q483 1538 496 1543T522 1549Q535 1549 546 1545T565 1533T577 1516T582 1496Q582 1486 578 1477T565 1455Q503 1368 454 1272T371 1068T319
837T300 578Q300 441 318 319T371 89T454 -116T565 -299Q574 -311 578 -320T582 -340Q582 -351 578 -360T565 -377T546 -388T522 -393Q509 -393 496 -388T472 -369Q395 -281 335 -177T232 47T168 299T146 578Z" />
<glyph unicode=")" glyph-name="parenright" horiz-adv-x="638" d="M338 578Q338 715 320 837T267 1067T184 1272T73 1455Q64 1467 60 1476T56 1496Q56 1506 60 1516T73 1533T92 1544T116 1549Q129 1549 142 1544T166 1525Q242 1436 302 1332T405 1109T469 857T492
578Q492 432 470 299T405 47T303 -176T166 -369Q155 -382 142 -387T116 -393Q103 -393 92 -389T73 -377T61 -361T56 -340Q56 -330 60 -321T73 -299Q134 -212 183 -116T267 88T319 319T338 578Z" />
<glyph unicode="*" glyph-name="asterisk" horiz-adv-x="856" d="M215 955Q198 944 189 939T167 934Q155 934 144 940T126 955T114 977T109 1000Q109 1020 123 1032T165 1058L334 1141L158 1232Q133 1245 122 1255T110 1286Q110 1298 114 1310T127 1331T145 1347T166
1353Q179 1353 189 1348T213 1334L380 1228L370 1425Q369 1439 369 1443T369 1449Q369 1470 387 1482T428 1495Q451 1495 469 1483T487 1449Q487 1447 487 1443T486 1425L476 1227L641 1331Q658 1342 667 1347T689 1352Q701 1352 712 1346T730 1331T742 1309T747
1286Q747 1266 733 1254T691 1228L522 1145L698 1054Q723 1041 734 1031T746 1000Q746 988 742 976T729 955T711 939T690 933Q677 933 667 938T643 952L476 1058L486 861Q487 847 487 843T487 837Q487 816 469 804T428 791Q405 791 387 803T369 837Q369 839 369
843T370 861L380 1059L215 955Z" />
<glyph unicode="+" glyph-name="plus" horiz-adv-x="1168" d="M212 521Q186 521 171 538T155 582Q155 609 170 626T212 643H518V956Q518 988 536 1005T584 1022Q614 1022 632 1005T650 956V643H955Q981 643 997 626T1013 582Q1013 555 997 538T955 521H650V208Q650
176 632 159T584 142Q554 142 536 159T518 208V521H212Z" />
<glyph unicode="," glyph-name="comma" horiz-adv-x="557" d="M162 96Q162 121 171 143T196 181T233 206T281 215Q308 215 329 206T364 179T387 138T395 82Q395 41 384 2T357 -74T321 -141T283 -196Q245 -246 208 -275T138 -305Q114 -305 101 -293T88 -260Q88
-242 102 -227T137 -185T182 -117T227 -6Q215 -2 204 6T183 28T168 58T162 96Z" />
<glyph unicode="-" glyph-name="hyphen" horiz-adv-x="971" d="M741 596Q769 596 784 581T799 535Q799 504 784 489T741 473H229Q202 473 187 488T172 535Q172 565 187 580T229 596H741Z" />
<glyph unicode="." glyph-name="period" horiz-adv-x="557" d="M162 96Q162 121 171 143T196 181T233 206T281 215Q306 215 327 207T363 183T386 147T395 100Q395 75 386 54T361 16T323 -9T276 -18Q251 -18 230 -10T194 14T171 50T162 96Z" />
<glyph unicode="/" glyph-name="slash" horiz-adv-x="829" d="M624 1437Q634 1464 648 1477T687 1490Q701 1490 714 1486T738 1473T755 1453T762 1429Q762 1421 760 1412T752 1388L141 -287Q131 -314 117 -327T78 -340Q64 -340 51 -336T27 -323T10 -303T3 -279Q3
-271 5 -262T13 -238L624 1437Z" />
<glyph unicode="0" glyph-name="zero" horiz-adv-x="1298" d="M133 672Q133 858 173 995T284 1221T452 1353T662 1397Q767 1397 858 1355T1018 1228T1126 1013T1165 709Q1165 521 1125 384T1014 158T847 26T637 -18Q532 -18 440 24T280 151T172 367T133 672ZM285
692Q285 535 314 424T394 243T510 139T651 106Q726 106 792 138T907 240T985 420T1014 688Q1014 844 985 954T905 1135T789 1239T647 1272Q573 1272 507 1240T392 1138T314 958T285 692Z" />
<glyph unicode="1" glyph-name="one" horiz-adv-x="708" d="M164 1116Q141 1105 126 1098T101 1087T83 1082T67 1080Q56 1080 47 1085T30 1097T19 1115T15 1135Q15 1157 33 1175Q47 1189 94 1220T218 1295Q259 1319 289 1336T344 1365T389 1383T429 1389Q463 1389
483 1369T503 1313V61Q503 29 485 12T429 -6Q392 -6 374 11T356 61V1208L164 1116Z" />
<glyph unicode="2" glyph-name="two" horiz-adv-x="952" d="M813 131Q839 131 855 114T872 66Q872 35 856 18T813 0H119Q71 0 46 24T20 88Q20 113 32 135T70 186L348 498Q436 596 498 668T600 801T658 916T676 1036Q676 1148 610 1210T406 1272Q354 1272 313 1263T238
1243T181 1223T141 1214Q118 1214 104 1228T90 1266Q90 1292 109 1311Q121 1323 150 1338T221 1366T317 1388T430 1397Q528 1397 602 1373T727 1306T802 1201T827 1067Q827 986 806 916T739 771T623 614T455 424L186 131H813Z" />
<glyph unicode="3" glyph-name="three" horiz-adv-x="958" d="M397 103Q466 103 522 124T617 184T678 274T700 388Q700 452 679 503T609 590T480 645T280 664Q262 664 253 667T237 676Q229 684 226 697T222 725T225 753T237 775Q244 781 253 784T280 787Q379 787
450 806T566 862T633 947T655 1057Q655 1160 595 1216T407 1272Q357 1272 319 1264T250 1245T198 1226T160 1217Q137 1217 123 1231T108 1268Q108 1282 112 1293T127 1313Q139 1325 166 1340T233 1367T323 1388T432 1397Q524 1397 594 1374T711 1308T783 1205T807
1070Q807 1013 789 962T737 869T659 794T561 742V740Q631 726 685 697T777 624T834 525T854 402Q854 312 822 235T728 102T579 14T381 -18Q319 -18 272 -11T191 6T135 29T104 50Q93 61 88 72T82 101Q82 127 98 142T139 158Q154 158 173 150T220 131T291 112T397
103Z" />
<glyph unicode="4" glyph-name="four" horiz-adv-x="1074" d="M130 399Q85 399 63 421T40 481Q40 492 41 501T45 520T55 540T71 565L579 1295Q598 1322 614 1340T647 1369T679 1384T714 1389Q754 1389 776 1367T798 1299V526H970Q998 526 1013 510T1029 463Q1029
432 1014 416T970 399H798V61Q798 29 780 12T724 -6Q689 -6 671 11T652 61V399H130ZM652 1190L196 526H652V1190Z" />
<glyph unicode="5" glyph-name="five" horiz-adv-x="986" d="M283 854Q446 851 559 817T743 724T846 589T878 422Q878 324 846 243T750 104T595 14T385 -18Q323 -18 276 -11T195 6T139 29T108 50Q97 61 92 72T86 101Q86 127 102 142T143 158Q158 158 177 150T224
131T295 112T401 103Q478 103 538 124T639 185T703 280T725 404Q725 472 698 530T611 631T456 698T225 723Q187 723 168 741T151 797L176 1299Q178 1339 199 1359T264 1379H780Q806 1379 823 1362T840 1313Q840 1282 823 1265T780 1248H301L283 854Z" />
<glyph unicode="6" glyph-name="six" horiz-adv-x="1119" d="M133 580Q133 788 181 941T311 1196T505 1347T745 1397Q780 1397 807 1394T856 1386T891 1373T913 1358Q921 1350 925 1341T929 1317Q929 1288 912 1274T872 1260Q860 1260 849 1262T823 1266T785 1270T731
1272Q644 1272 571 1238T440 1138T346 976T293 753Q326 779 372 800Q411 818 468 833T600 848Q696 848 772 820T901 740T983 613T1011 444Q1011 337 980 252T891 106T754 14T577 -18Q476 -18 394 16T254 122T165 307T133 580ZM569 725Q502 725 450 708T360 670Q317
646 284 616Q284 472 305 374T366 216T462 130T591 104Q650 104 699 124T784 185T840 286T860 424Q860 495 840 551T782 645T690 704T569 725Z" />
<glyph unicode="7" glyph-name="seven" horiz-adv-x="880" d="M90 1248Q64 1248 48 1265T31 1313Q31 1344 47 1361T90 1379H764Q786 1379 802 1374T830 1359T846 1336T852 1305Q852 1283 846 1266T829 1229Q743 1062 672 902T544 593T444 311T369 66Q363 47 357
33T342 10T322 -3T296 -7Q281 -7 269 -3T247 9T233 29T228 57Q228 68 230 79T237 108Q265 219 308 351T408 628T531 930T674 1248H90Z" />
<glyph unicode="8" glyph-name="eight" horiz-adv-x="1075" d="M104 332Q104 406 128 464T194 570T288 654T398 723Q347 748 301 779T219 851T162 942T141 1055Q141 1127 168 1189T248 1298T377 1370T551 1397Q641 1397 711 1373T830 1307T904 1210T930 1092Q930
1024 909 972T853 879T772 805T674 744Q729 717 782 680T877 597T945 493T971 369Q971 283 942 212T856 89T715 10T522 -18Q423 -18 346 9T214 83T132 194T104 332ZM254 352Q254 296 272 251T327 173T416 122T541 104Q609 104 661 121T748 171T801 248T819 348Q819
408 796 455T732 540T639 608T526 666Q468 635 419 603T333 534T275 452T254 352ZM293 1075Q293 1022 312 983T365 911T445 853T547 802Q598 830 641 858T714 918T762 988T780 1071Q780 1114 764 1151T716 1215T638 1258T532 1274Q475 1274 431 1259T356 1217T309
1154T293 1075Z" />
<glyph unicode="9" glyph-name="nine" horiz-adv-x="1120" d="M260 955Q260 883 280 827T338 733T429 674T551 654Q617 654 669 671T759 708Q802 732 835 762Q838 916 814 1015T748 1171T648 1251T528 1274Q469 1274 420 1254T336 1193T280 1093T260 955ZM108
934Q108 1042 139 1127T228 1273T366 1365T543 1397Q644 1397 726 1363T866 1257T955 1072T987 799Q987 591 939 438T804 183T597 32T334 -18Q298 -18 271 -15T223 -7T189 5T166 21Q158 29 154 38T149 62Q149 91 166 105T207 119Q218 119 229 117T256 113T294 109T348
107Q462 107 546 147T689 258T780 424T827 627Q795 600 749 579Q710 561 653 546T520 531Q424 531 348 559T218 639T137 765T108 934Z" />
<glyph unicode=":" glyph-name="colon" horiz-adv-x="557" d="M162 96Q162 121 171 143T196 181T233 206T281 215Q306 215 327 207T363 183T386 147T395 100Q395 75 386 54T361 16T323 -9T276 -18Q251 -18 230 -10T194 14T171 50T162 96ZM162 711Q162 736 171
757T196 795T233 820T281 829Q306 829 327 821T363 797T386 761T395 715Q395 689 386 668T361 630T323 605T276 596Q251 596 230 604T194 628T171 664T162 711Z" />
<glyph unicode=";" glyph-name="semicolon" horiz-adv-x="557" d="M162 711Q162 736 171 757T196 795T233 820T281 829Q306 829 327 821T363 797T386 761T395 715Q395 689 386 668T361 630T323 605T276 596Q251 596 230 604T194 628T171 664T162 711ZM162 96Q162
121 171 143T196 181T233 206T281 215Q308 215 329 206T364 179T387 138T395 82Q395 41 384 2T357 -74T321 -141T283 -196Q245 -246 208 -275T138 -305Q114 -305 101 -293T88 -260Q88 -242 102 -227T137 -185T182 -117T227 -6Q215 -2 204 6T183 28T168 58T162 96Z"
/>
<glyph unicode="&lt;" glyph-name="less" horiz-adv-x="1168" d="M863 276Q883 263 891 250T899 221Q899 208 894 195T880 172T858 156T830 149Q819 149 810 152T786 165L253 512Q227 529 219 545T210 582Q210 602 219 619T253 653L790 1002Q806 1012 816 1016T837
1020Q851 1020 863 1014T883 999T897 978T902 954Q902 937 894 924T867 899L390 588L863 276Z" />
<glyph unicode="=" glyph-name="equal" horiz-adv-x="1168" d="M935 461Q961 461 977 444T993 400Q993 373 977 356T935 339H232Q206 339 191 356T175 400Q175 427 190 444T231 461H935ZM935 823Q961 823 977 806T993 762Q993 735 977 718T935 701H232Q206 701
191 718T175 762Q175 789 190 806T232 823H935Z" />
<glyph unicode="&gt;" glyph-name="greater" horiz-adv-x="1168" d="M305 892Q285 905 277 918T269 947Q269 960 274 973T288 996T310 1012T338 1019Q349 1019 358 1016T382 1003L915 656Q941 639 949 623T958 586Q958 566 949 549T915 515L378 166Q362 156 352
152T331 148Q317 148 305 154T285 169T271 190T266 214Q266 231 274 244T301 269L778 580L305 892Z" />
<glyph unicode="?" glyph-name="question" horiz-adv-x="797" d="M246 551Q246 624 270 680T332 782T412 868T492 951T553 1041T578 1151Q578 1201 562 1241T515 1310T436 1354T326 1370Q275 1370 242 1364T187 1349T149 1334T117 1327Q94 1327 80 1340T66 1376Q66
1390 70 1401T86 1423Q98 1435 121 1447T177 1470T255 1488T352 1495Q447 1495 519 1472T639 1406T711 1303T735 1169Q735 1092 710 1034T646 929T564 841T482 758T419 669T393 561Q393 529 396 508T403 473T410 449T414 428Q414 402 396 386T344 369Q325 369 307
378T276 409T254 465T246 551ZM234 96Q234 121 243 143T268 181T305 206T352 215Q377 215 398 207T435 183T458 147T467 100Q467 75 458 54T433 16T395 -9T348 -18Q323 -18 302 -10T266 14T243 50T234 96Z" />
<glyph unicode="@" glyph-name="at" horiz-adv-x="2106" d="M1404 419Q1400 371 1405 338T1425 285T1464 257T1522 248Q1571 248 1623 274T1717 360T1787 521T1815 768Q1815 915 1776 1027T1658 1216T1462 1331T1188 1370Q1056 1370 939 1341T724 1258T547 1125T413
950T329 737T300 493Q300 145 482 -35T1030 -215Q1131 -215 1202 -204T1320 -180T1396 -156T1441 -145Q1464 -145 1477 -158T1491 -195Q1491 -208 1487 -218T1472 -240Q1458 -254 1422 -271T1329 -303T1193 -329T1015 -340Q804 -340 643 -285T372 -125T206 131T150
473Q150 624 184 758T282 1006T438 1210T648 1364T904 1461T1202 1495Q1387 1495 1528 1447T1766 1308T1911 1087T1960 793Q1960 628 1924 504T1826 297T1681 173T1504 131Q1406 131 1353 172T1281 280L1277 282Q1247 239 1204 206Q1167 177 1111 154T980 131Q903
131 841 155T734 226T666 337T641 485Q641 609 678 709T783 879T945 986T1153 1024Q1202 1024 1243 1020T1316 1008T1372 990T1411 969Q1433 952 1439 934T1444 887L1404 419ZM1298 864Q1282 874 1258 882Q1238 889 1206 895T1130 901Q1057 901 995 875T888 797T817
673T791 505Q791 377 847 316T1003 254Q1068 254 1116 279T1197 336Q1235 372 1261 419L1298 864Z" />
<glyph unicode="A" glyph-name="A" horiz-adv-x="1224" d="M219 76Q208 45 202 31T186 7Q179 0 167 -4T140 -9Q126 -9 112 -5T87 8T68 29T60 58Q60 68 62 79T76 119L500 1296Q504 1307 508 1316T516 1332T525 1346T536 1358Q549 1371 567 1377T611 1384Q637 1384
655 1378T686 1358Q692 1352 696 1346T705 1333T714 1316T722 1296L1148 120Q1159 91 1161 80T1164 61Q1164 44 1156 31T1136 9T1109 -4T1079 -9Q1065 -9 1053 -5T1033 8Q1025 16 1019 29T1002 73L893 382H323L219 76ZM849 509L672 1014Q658 1056 646 1092T625
1156Q614 1188 606 1215H602Q594 1188 584 1155Q576 1127 564 1091T538 1014L366 509H849Z" />
<glyph unicode="B" glyph-name="B" horiz-adv-x="1193" d="M542 130Q643 130 715 149T832 204T899 288T921 395Q921 453 901 500T836 580T719 632T542 650H356V130H542ZM534 778Q623 778 686 796T790 845T850 921T869 1018Q869 1070 851 1112T794 1185T693 1231T542
1248H356V778H534ZM204 1302Q204 1339 223 1358T280 1378H554Q679 1378 768 1354T915 1284T998 1176T1025 1034Q1025 977 1009 928T962 840T891 773T800 727V725Q866 713 917 687T1005 621T1059 529T1078 412Q1078 324 1045 249T943 119T771 32T529 0H280Q243 0
224 19T204 76V1302Z" />
<glyph unicode="C" glyph-name="C" horiz-adv-x="1195" d="M112 649Q112 826 160 965T295 1199T501 1345T763 1395Q827 1395 879 1385T971 1360T1037 1329T1076 1300Q1090 1286 1095 1273T1101 1243Q1101 1230 1097 1219T1084 1201T1065 1189T1039 1184Q1019 1184
997 1196T942 1224T861 1251T738 1264Q639 1264 554 1226T405 1112T305 926T268 670Q268 538 304 436T404 262T558 154T753 117Q822 117 870 129T953 155T1010 181T1052 193Q1064 193 1074 189T1090 178T1101 160T1105 139Q1105 124 1100 112T1081 87Q1065 71 1034
53T957 20T854 -6T726 -16Q591 -16 478 30T284 162T158 372T112 649Z" />
<glyph unicode="D" glyph-name="D" horiz-adv-x="1384" d="M204 1302Q204 1339 223 1358T280 1378H595Q762 1378 889 1335T1103 1207T1233 1001T1277 719Q1277 550 1229 417T1089 191T866 49T570 0H280Q243 0 224 19T204 76V1302ZM583 130Q707 130 806 168T976
278T1083 457T1121 698Q1121 834 1086 937T983 1109T815 1213T583 1248H356V130H583Z" />
<glyph unicode="E" glyph-name="E" horiz-adv-x="1064" d="M356 130H909Q938 130 954 114T970 65Q970 33 954 17T909 0H280Q243 0 224 19T204 76V1302Q204 1339 223 1358T280 1378H905Q934 1378 950 1362T966 1314Q966 1282 950 1265T905 1248H356V775H831Q860
775 876 759T892 710Q892 678 876 662T831 645H356V130Z" />
<glyph unicode="F" glyph-name="F" horiz-adv-x="1005" d="M356 61Q356 29 337 12T280 -6Q242 -6 223 11T204 61V1302Q204 1339 223 1358T280 1378H896Q925 1378 941 1362T957 1314Q957 1282 941 1265T897 1248H356V754H813Q841 754 857 738T873 689Q873 657 857
641T813 624H356V61Z" />
<glyph unicode="G" glyph-name="G" horiz-adv-x="1365" d="M792 581Q764 581 748 598T732 647Q732 678 748 694T792 711H1133Q1167 711 1186 692T1205 639V176Q1205 135 1193 111T1158 70Q1137 54 1102 38T1018 10T907 -10T769 -18Q619 -18 498 27T291 159T159
372T112 659Q112 833 163 969T306 1200T527 1345T812 1395Q890 1395 951 1384T1058 1356T1132 1322T1173 1292Q1187 1278 1192 1265T1198 1235Q1198 1222 1194 1211T1181 1193T1162 1181T1136 1176Q1116 1176 1093 1189T1032 1219T936 1250T787 1264Q671 1264 575
1225T411 1110T306 927T268 680Q268 540 306 434T413 257T580 149T796 113Q863 113 911 120T992 136Q1029 147 1054 160V581H792Z" />
<glyph unicode="H" glyph-name="H" horiz-adv-x="1425" d="M356 61Q356 29 337 12T280 -6Q242 -6 223 11T204 61V1317Q204 1349 223 1366T280 1384Q318 1384 337 1367T356 1317V774H1069V1317Q1069 1349 1088 1366T1145 1384Q1183 1384 1202 1367T1221 1317V61Q1221
29 1202 12T1145 -6Q1107 -6 1088 11T1069 61V647H356V61Z" />
<glyph unicode="I" glyph-name="I" horiz-adv-x="560" d="M204 1317Q204 1349 223 1366T280 1384Q318 1384 337 1367T356 1317V61Q356 29 337 12T280 -6Q242 -6 223 11T204 61V1317Z" />
<glyph unicode="J" glyph-name="J" horiz-adv-x="568" d="M212 1317Q212 1349 231 1366T288 1384Q326 1384 345 1367T364 1317V160Q364 73 357 6T335 -113T296 -207T236 -283Q184 -335 132 -360T40 -385Q6 -385 -10 -369T-26 -328Q-26 -309 -18 -296T9 -272Q52
-248 89 -221T153 -153T196 -51T212 104V1317Z" />
<glyph unicode="K" glyph-name="K" horiz-adv-x="1126" d="M914 1334Q925 1345 931 1352T941 1362Q952 1373 964 1380T993 1387Q1009 1387 1023 1381T1048 1365T1065 1342T1072 1314Q1072 1300 1067 1288T1051 1265L520 720L1047 133Q1053 126 1059 119T1070 104T1078
88T1081 70Q1081 54 1074 40T1054 15T1028 -2T998 -9Q985 -9 973 -4T950 11Q945 16 941 20T927 35L356 674V61Q356 29 337 12T280 -6Q242 -6 223 11T204 61V1317Q204 1349 223 1366T280 1384Q318 1384 337 1367T356 1317V737L914 1334Z" />
<glyph unicode="L" glyph-name="L" horiz-adv-x="985" d="M894 130Q923 130 939 114T955 65Q955 33 939 17T894 0H280Q243 0 224 19T204 76V1317Q204 1349 223 1366T280 1384Q318 1384 337 1367T356 1317V130H894Z" />
<glyph unicode="M" glyph-name="M" horiz-adv-x="1765" d="M267 1274Q270 1303 278 1322T300 1355Q313 1368 334 1376T384 1384Q410 1384 430 1378T467 1358T495 1325T516 1276L828 356Q841 317 851 283T870 222Q879 191 886 166H890Q897 191 906 222Q914 248
924 282T948 356L1260 1274Q1270 1303 1281 1323T1308 1357T1343 1377T1389 1384Q1415 1384 1433 1378T1466 1357Q1481 1342 1488 1322T1498 1275L1619 100Q1621 86 1622 75T1623 55Q1623 41 1617 29T1600 9T1575 -4T1544 -9Q1527 -9 1512 -4T1487 11Q1476 22 1473
40T1466 90L1385 987Q1381 1029 1380 1067T1377 1136Q1376 1170 1376 1201H1372L994 88Q986 63 977 47T956 19Q942 5 925 0T884 -6Q860 -6 843 -1T811 19Q800 30 791 46T773 88L395 1201H391Q390 1170 388 1136Q386 1107 384 1069T378 989L294 90Q291 58 287 40T272
11Q262 1 249 -4T218 -9Q203 -9 189 -5T165 8T148 28T142 55Q142 64 143 75T146 102L267 1274Z" />
<glyph unicode="N" glyph-name="N" horiz-adv-x="1483" d="M204 1274Q204 1328 231 1356T313 1384Q337 1384 355 1378T388 1360T415 1332T441 1296L1018 397Q1043 359 1065 322T1104 255Q1123 221 1141 189L1145 191Q1142 227 1140 267Q1138 301 1137 344T1135
432L1133 1317Q1133 1349 1151 1366T1206 1384Q1243 1384 1261 1367T1279 1317V105Q1279 50 1252 22T1170 -6Q1146 -6 1128 0T1095 18T1068 46T1042 82L465 981Q440 1019 418 1056T379 1123Q359 1157 342 1189L338 1187Q340 1151 343 1111Q345 1077 346 1034T348
946L350 61Q350 29 332 12T277 -6Q240 -6 222 11T204 61V1274Z" />
<glyph unicode="O" glyph-name="O" horiz-adv-x="1478" d="M112 671Q112 843 159 978T292 1206T494 1348T751 1397Q886 1397 999 1351T1193 1216T1320 999T1366 708Q1366 536 1319 401T1186 173T984 31T727 -18Q592 -18 479 28T285 163T158 380T112 671ZM268 691Q268
553 305 445T405 264T555 152T741 113Q840 113 925 151T1074 262T1173 442T1210 687Q1210 826 1173 933T1073 1115T923 1227T737 1266Q638 1266 553 1228T404 1117T305 937T268 691Z" />
<glyph unicode="P" glyph-name="P" horiz-adv-x="1095" d="M356 61Q356 29 337 12T280 -6Q242 -6 223 11T204 61V1302Q204 1339 223 1358T280 1378H548Q669 1378 758 1351T906 1274T992 1151T1021 989Q1021 894 988 815T892 679T736 590T523 558H356V61ZM536 687Q699
687 781 764T864 973Q864 1104 786 1176T536 1248H356V687H536Z" />
<glyph unicode="Q" glyph-name="Q" horiz-adv-x="1479" d="M112 671Q112 843 159 978T292 1206T495 1348T752 1397Q887 1397 1000 1351T1194 1216T1320 999T1366 708Q1366 560 1331 439T1230 227T1074 78T872 -3Q911 -66 963 -112T1079 -191T1215 -241T1364 -265Q1403
-268 1419 -284T1436 -326Q1436 -343 1430 -358T1408 -383T1369 -400T1309 -406Q1260 -406 1206 -394T1096 -359T986 -303T884 -226T795 -131T727 -18Q592 -18 479 28T285 163T158 380T112 671ZM268 690Q268 551 305 444T405 262T555 150T741 111Q840 111 925 149T1074
260T1173 441T1210 687Q1210 826 1173 933T1073 1115T923 1227T737 1266Q638 1266 553 1228T404 1117T305 936T268 690Z" />
<glyph unicode="R" glyph-name="R" horiz-adv-x="1152" d="M356 61Q356 29 337 12T280 -6Q242 -6 223 11T204 61V1303Q204 1339 223 1358T280 1378H552Q678 1378 769 1352T920 1277T1008 1163T1037 1016Q1037 939 1012 874T941 759T831 676T688 630L1028 124Q1037
110 1044 97T1052 68Q1052 52 1045 38T1025 14T997 -3T966 -9Q949 -9 938 -3T918 11Q915 14 913 17T907 23T900 33T890 49L522 611H356V61ZM540 740Q628 740 692 759T798 812T860 894T880 999Q880 1056 861 1102T802 1181T696 1230T540 1248H356V740H540Z" />
<glyph unicode="S" glyph-name="S" horiz-adv-x="1085" d="M140 1022Q140 1103 169 1171T256 1290T398 1368T593 1397Q651 1397 699 1390T783 1371T845 1345T883 1319Q897 1305 902 1292T908 1262Q908 1236 891 1220T846 1204Q826 1204 806 1213T756 1235T684
1256T577 1266Q506 1266 454 1249T366 1202T313 1131T295 1040Q295 976 323 934T399 861T505 809T627 764T749 713T856 641T931 536T960 383Q960 295 929 222T838 95T688 12T480 -18Q412 -18 358 -10T262 11T195 38T155 66Q141 80 136 93T130 123Q130 149 147 165T192
182Q212 182 232 171T284 148T367 124T497 113Q573 113 630 131T727 183T785 263T805 365Q805 434 777 480T701 559T595 615T473 662T351 712T244 779T169 878T140 1022Z" />
<glyph unicode="T" glyph-name="T" horiz-adv-x="1104" d="M90 1248Q62 1248 46 1265T30 1314Q30 1345 46 1361T90 1378H1013Q1042 1378 1058 1362T1074 1314Q1074 1282 1058 1265T1013 1248H628V61Q628 29 609 12T552 -6Q514 -6 495 11T476 61V1248H90Z" />
<glyph unicode="U" glyph-name="U" horiz-adv-x="1419" d="M191 1317Q191 1349 210 1366T267 1384Q305 1384 324 1367T343 1317V565Q343 445 370 360T447 220T564 139T716 113Q794 113 860 138T974 216T1049 349T1076 541V1317Q1076 1349 1095 1366T1152 1384Q1190
1384 1209 1367T1228 1317V565Q1228 417 1191 308T1084 126T918 18T702 -18Q581 -18 486 16T326 120T226 295T191 541V1317Z" />
<glyph unicode="V" glyph-name="V" horiz-adv-x="1193" d="M76 1254Q65 1284 63 1295T60 1315Q60 1332 67 1345T87 1368T114 1382T144 1387Q158 1387 170 1383T191 1369Q199 1361 204 1348T220 1305L539 365Q553 323 564 287T584 223Q593 191 600 165H604Q611
191 621 223Q629 250 640 286T665 365L976 1305Q986 1334 992 1348T1007 1371Q1014 1378 1026 1382T1053 1387Q1067 1387 1081 1383T1106 1370T1125 1349T1133 1320Q1133 1313 1131 1301T1117 1259L707 85Q699 63 691 48T670 20Q656 6 638 0T596 -6Q571 -6 553
0T521 20Q509 32 501 47T484 85L76 1254Z" />
<glyph unicode="W" glyph-name="W" horiz-adv-x="1880" d="M92 1261Q84 1291 82 1301T80 1318Q80 1334 87 1347T107 1369T134 1382T164 1387Q180 1387 192 1382T212 1369Q222 1359 226 1345T239 1302L486 362Q497 320 505 283T518 219Q524 186 529 160H533Q538
185 545 217Q551 244 560 281T581 362L830 1290Q845 1347 873 1367T945 1387Q988 1387 1016 1367T1060 1290L1308 367Q1319 325 1327 289T1342 223Q1349 190 1355 160H1359Q1365 190 1372 223Q1378 252 1386 288T1406 365L1644 1302Q1652 1331 1656 1345T1670 1369Q1678
1377 1691 1382T1720 1387Q1734 1387 1748 1383T1773 1370T1792 1350T1800 1322Q1800 1319 1800 1316T1798 1306T1795 1291T1788 1266L1469 92Q1463 69 1455 52T1435 23Q1420 8 1400 1T1351 -6Q1323 -6 1305 1T1271 23Q1259 35 1251 52T1237 91L990 1010Q979 1048
971 1084T955 1149Q947 1182 941 1212H937Q931 1182 924 1149Q918 1120 909 1084T890 1010L643 91Q637 69 629 52T609 23Q594 8 576 1T529 -6Q501 -6 481 1T445 23Q433 35 425 52T411 92L92 1261Z" />
<glyph unicode="X" glyph-name="X" horiz-adv-x="1187" d="M129 1229Q118 1244 111 1254T99 1273T92 1290T89 1307Q89 1323 96 1338T116 1363T143 1380T176 1387Q190 1387 201 1383T220 1370Q222 1368 224 1365T231 1357T242 1342T259 1318L603 816L933 1315Q943
1330 949 1339T960 1355T967 1364T973 1370Q981 1378 992 1382T1017 1387Q1032 1387 1046 1382T1072 1367T1091 1344T1098 1315Q1098 1298 1089 1283T1058 1237L684 707L1079 149Q1089 134 1097 124T1109 105T1116 88T1119 71Q1119 54 1112 40T1092 15T1064 -2T1032
-9Q1018 -9 1007 -5T988 8Q983 12 976 21T949 60L583 595L233 63Q213 34 206 24T193 8Q185 0 174 -4T149 -9Q134 -9 120 -4T94 11T75 34T68 63Q68 80 77 95T108 141L502 704L129 1229Z" />
<glyph unicode="Y" glyph-name="Y" horiz-adv-x="1094" d="M75 1237Q66 1252 60 1262T50 1281T44 1296T42 1312Q42 1328 50 1342T70 1366T97 1381T127 1387Q141 1387 151 1383T170 1370Q176 1364 183 1354T207 1315L493 829Q505 808 515 789T534 753Q544 735 552
719H556Q564 736 574 754Q582 770 593 790T618 834L891 1313Q908 1343 914 1353T927 1369Q936 1378 947 1382T971 1387Q986 1387 1000 1382T1026 1366T1045 1343T1052 1313Q1052 1298 1045 1283T1019 1239L622 590V61Q622 29 603 12T546 -6Q508 -6 489 11T470 61V590L75
1237Z" />
<glyph unicode="Z" glyph-name="Z" horiz-adv-x="1030" d="M894 130Q923 130 939 114T955 65Q955 33 939 17T894 0H176Q134 0 112 20T90 78Q90 98 97 118T122 168L761 1248H171Q142 1248 126 1265T110 1314Q110 1345 126 1361T171 1378H850Q892 1378 914 1358T936
1300Q936 1280 929 1260T904 1210L265 130H894Z" />
<glyph unicode="[" glyph-name="bracketleft" horiz-adv-x="625" d="M500 -242Q524 -242 539 -257T555 -302Q555 -332 540 -347T500 -362H268Q233 -362 214 -343T194 -288V1444Q194 1479 213 1498T268 1518H500Q524 1518 539 1503T555 1458Q555 1428 540 1413T500
1398H336V-242H500Z" />
<glyph unicode="\" glyph-name="backslash" horiz-adv-x="828" d="M77 1383Q71 1400 69 1408T67 1426Q67 1440 73 1452T91 1472T115 1485T143 1490Q157 1490 167 1486T184 1475T197 1456T208 1430L815 -233Q821 -250 823 -258T825 -276Q825 -290 819 -302T801
-322T777 -335T749 -340Q735 -340 725 -336T708 -325T695 -306T684 -280L77 1383Z" />
<glyph unicode="]" glyph-name="bracketright" horiz-adv-x="625" d="M289 1398H125Q101 1398 86 1413T70 1458Q70 1488 85 1503T125 1518H357Q392 1518 411 1499T431 1444V-288Q431 -323 412 -342T357 -362H125Q101 -362 86 -347T70 -302Q70 -272 85 -257T125
-242H289V1398Z" />
<glyph unicode="^" glyph-name="asciicircum" horiz-adv-x="1168" d="M286 748Q272 726 258 716T225 705Q212 705 201 710T180 723T166 743T160 769Q160 780 164 791T179 818L508 1348Q523 1372 542 1384T586 1397Q610 1397 628 1386T663 1348L988 822Q998 807
1003 796T1008 770Q1008 756 1002 745T986 725T962 711T935 706Q917 706 903 715T875 746L580 1218L286 748Z" />
<glyph unicode="_" glyph-name="underscore" horiz-adv-x="1168" d="M1111 -393Q1139 -393 1153 -408T1168 -453Q1168 -482 1154 -497T1111 -512H57Q29 -512 15 -497T0 -453Q0 -424 14 -409T57 -393H1111Z" />
<glyph unicode="`" glyph-name="grave" horiz-adv-x="1024" d="M374 1390Q370 1394 367 1398T360 1408T355 1419T353 1432Q353 1450 361 1465T383 1491T413 1509T445 1516Q453 1516 460 1514T472 1508T483 1498T494 1485L660 1242Q665 1234 670 1225T675 1206Q675
1195 671 1185T658 1167T639 1155T616 1150Q603 1150 592 1156T570 1176L374 1390Z" />
<glyph unicode="a" glyph-name="a" horiz-adv-x="1053" d="M731 387Q706 394 674 399Q647 404 611 408T530 412Q393 412 328 376T262 268Q262 233 275 204T314 152T378 117T465 104Q528 104 577 127T661 178Q701 211 731 252V387ZM731 639Q731 707 717 755T673
834T596 879T481 893Q422 893 379 884T305 863T253 842T216 832Q191 832 177 847T162 888Q162 901 166 911T181 932Q194 945 224 960T299 988T397 1011T512 1020Q696 1020 787 932T879 678V291Q879 226 882 185T889 119T896 79T899 51Q899 38 895 27T882 9T862
-3T836 -8Q816 -8 801 1T774 26T756 67T743 122H740Q707 83 662 52Q624 26 568 4T438 -18Q360 -18 299 3T195 61T131 150T109 260Q109 325 136 374T216 457T342 508T512 525Q564 525 605 522T674 513Q707 508 731 501V639Z" />
<glyph unicode="b" glyph-name="b" horiz-adv-x="1153" d="M184 1416Q184 1448 202 1465T258 1483Q295 1483 313 1466T332 1416V997Q332 964 331 934T327 868H330Q361 911 407 945Q426 959 450 973T504 998T568 1015T643 1022Q734 1022 808 991T936 899T1019 745T1049
528Q1049 398 1013 297T909 125T744 19T526 -18Q464 -18 411 -9T317 13T248 40T209 66Q203 72 198 79T190 94T186 112T184 135V1416ZM332 154Q353 139 385 128Q412 118 452 110T547 102Q625 102 689 128T800 206T871 334T897 510Q897 613 877 686T820 807T730 875T612
897Q577 897 547 889T490 869T442 840T402 806Q361 766 332 715V154Z" />
<glyph unicode="c" glyph-name="c" horiz-adv-x="916" d="M104 465Q104 595 141 698T245 874T404 984T606 1022Q651 1022 687 1016T749 1001T794 981T821 961Q832 950 837 938T842 909Q842 898 838 888T827 871T809 859T784 854Q769 854 753 860T714 875T661 890T586
897Q516 897 456 871T352 792T282 664T256 487Q256 397 281 327T351 209T459 135T598 109Q643 109 674 115T728 128T765 142T796 148Q807 148 816 145T832 135T842 119T846 98Q846 84 840 72T823 49Q810 36 787 24T731 3T658 -12T569 -18Q465 -18 380 16T233 113T138
265T104 465Z" />
<glyph unicode="d" glyph-name="d" horiz-adv-x="1153" d="M821 1416Q821 1448 839 1465T895 1483Q932 1483 950 1466T969 1416V54Q969 25 953 9T907 -8Q892 -8 881 -4T861 10T848 33T840 66L830 142H827Q796 97 750 62Q711 32 651 7T510 -18Q419 -18 345 13T217
105T134 259T104 476Q104 606 140 707T244 879T409 985T627 1022Q669 1022 704 1018T765 1008Q796 1002 821 995L824 996Q821 1060 821 1133V1416ZM821 853Q798 865 766 875Q739 883 699 890T606 898Q528 898 464 872T353 794T282 668T256 494Q256 390 276 317T333
197T423 129T541 107Q576 107 606 114T663 135T711 164T751 198Q792 238 821 289V853Z" />
<glyph unicode="e" glyph-name="e" horiz-adv-x="1058" d="M254 497V487Q254 398 279 328T349 209T458 135T598 109Q658 109 699 117T769 135T818 153T855 162Q867 162 876 158T891 148T901 132T905 112Q905 98 900 87T882 63Q870 51 844 37T779 11T689 -9T575
-18Q469 -18 382 16T234 113T138 267T104 469Q104 602 139 705T235 879T381 985T563 1022Q647 1022 717 993T838 909T917 775T946 596Q946 547 923 522T852 497H254ZM805 610Q791 759 725 830T543 901Q494 901 449 883T367 829T303 739T263 610H805Z" />
<glyph unicode="f" glyph-name="f" horiz-adv-x="634" d="M97 882Q71 882 56 898T40 943Q40 972 55 988T97 1004H220V1118Q220 1209 243 1278T311 1395T419 1466T560 1491Q614 1491 652 1478T706 1450Q717 1439 721 1427T726 1401Q726 1388 722 1378T710 1360T692
1348T671 1344Q659 1344 647 1347T621 1355T589 1364T544 1368Q462 1368 415 1314T368 1137V1004H560Q586 1004 601 988T617 943Q617 914 602 898T560 882H368V61Q368 29 350 12T294 -6Q257 -6 239 11T220 61V882H97Z" />
<glyph unicode="g" glyph-name="g" horiz-adv-x="1038" d="M814 924Q865 879 892 819T920 690Q920 612 893 547T815 435T688 362T516 336Q474 336 435 342T364 361Q347 347 334 329Q323 314 314 294T305 250Q305 225 315 204T349 168T414 144T516 135H631Q723
135 791 117T905 65T972 -19T995 -133Q995 -206 964 -271T870 -386T714 -463T498 -492Q389 -492 309 -468T176 -402T98 -306T72 -190Q72 -120 96 -69T151 17Q185 57 230 83Q195 114 181 152T166 231Q166 272 181 305T214 363Q235 391 263 415Q203 460 170 525T137
666Q137 744 164 809T242 921T369 994T541 1020Q589 1020 632 1012T713 987L834 1127Q854 1151 868 1159T901 1168Q913 1168 925 1163T947 1150T963 1129T969 1101Q969 1083 958 1068T923 1029L814 924ZM487 8Q439 8 402 13T329 29Q299 6 275 -24Q255 -50 238 -87T221
-172Q221 -214 238 -250T291 -312T382 -354T512 -369Q595 -369 657 -352T762 -306T825 -238T846 -156Q846 -118 834 -88T793 -36T717 -4T602 8H487ZM287 680Q287 631 303 591T351 521T427 475T530 459Q588 459 632 474T707 518T754 587T770 676Q770 725 754 765T706
835T629 881T526 897Q469 897 425 882T350 838T303 769T287 680Z" />
<glyph unicode="h" glyph-name="h" horiz-adv-x="1190" d="M184 1416Q184 1448 202 1465T258 1483Q295 1483 313 1466T332 1416V997Q332 964 331 934T327 868H330Q361 911 407 945Q426 959 450 973T504 998T568 1015T643 1022Q730 1022 799 996T916 918T990 790T1016
612V61Q1016 29 998 12T942 -6Q905 -6 887 11T868 61V588Q868 669 851 727T801 823T721 879T612 897Q577 897 547 889T490 869T442 840T402 806Q361 766 332 715V61Q332 29 314 12T258 -6Q221 -6 203 11T184 61V1416Z" />
<glyph unicode="i" glyph-name="i" horiz-adv-x="516" d="M184 943Q184 975 202 992T258 1010Q295 1010 313 993T332 943V61Q332 29 314 12T258 -6Q221 -6 203 11T184 61V943ZM149 1319Q149 1343 157 1363T180 1398T215 1421T260 1430Q282 1430 302 1422T336 1399T358
1365T367 1323Q367 1299 359 1279T336 1244T301 1221T256 1212Q233 1212 214 1220T180 1243T158 1276T149 1319Z" />
<glyph unicode="j" glyph-name="j" horiz-adv-x="516" d="M184 943Q184 975 202 992T258 1010Q295 1010 313 993T332 943V-23Q332 -98 322 -156T294 -260T253 -339T206 -397Q162 -441 116 -460T35 -479Q19 -479 7 -475T-13 -464T-26 -446T-31 -422Q-31 -402 -22
-390T4 -368Q49 -343 82 -317T138 -251T172 -152T184 -2V943ZM149 1319Q149 1343 157 1363T180 1398T215 1421T260 1430Q282 1430 302 1422T336 1399T358 1365T367 1323Q367 1299 359 1279T336 1244T301 1221T256 1212Q233 1212 214 1220T180 1243T158 1276T149
1319Z" />
<glyph unicode="k" glyph-name="k" horiz-adv-x="979" d="M751 961Q762 971 772 980T788 994Q798 1002 809 1007T835 1013Q850 1013 862 1007T885 992T900 970T906 945Q906 928 897 914T872 886L502 558L892 126Q909 107 914 95T920 69Q920 52 913 38T895 14T868
-3T838 -9Q827 -9 816 -5T794 10Q787 17 782 22T767 39L332 535V61Q332 29 314 12T258 -6Q221 -6 203 11T184 61V1416Q184 1448 202 1465T258 1483Q295 1483 313 1466T332 1416V578L751 961Z" />
<glyph unicode="l" glyph-name="l" horiz-adv-x="552" d="M180 1416Q180 1448 198 1465T254 1483Q291 1483 309 1466T328 1416V266Q328 222 334 193T352 147T380 123T418 115Q438 115 451 117T479 119Q490 119 498 116T513 105T522 89T526 70Q526 53 521 43T508
25Q502 19 492 13T468 1T435 -7T391 -10Q289 -10 235 47T180 225V1416Z" />
<glyph unicode="m" glyph-name="m" horiz-adv-x="1834" d="M184 950Q184 979 200 995T246 1012Q261 1012 272 1008T292 994T305 971T313 938L323 862H326Q356 907 401 942Q420 957 444 971T497 997T560 1015T633 1022Q756 1022 834 970T954 829Q989 883 1039 925Q1060
943 1087 960T1146 991T1215 1013T1297 1022Q1380 1022 1447 996T1561 918T1634 790T1660 612V61Q1660 29 1642 12T1586 -6Q1549 -6 1531 11T1512 61V588Q1512 669 1495 727T1446 823T1369 879T1266 897Q1232 897 1202 889T1146 867T1099 836T1060 801Q1020 759
990 705Q990 705 993 678T996 612V61Q996 29 978 12T922 -6Q885 -6 867 11T848 61V588Q848 669 831 727T782 823T705 879T602 897Q569 897 540 889T486 869T439 840T401 806Q361 766 332 715V61Q332 29 314 12T258 -6Q221 -6 203 11T184 61V950Z" />
<glyph unicode="n" glyph-name="n" horiz-adv-x="1190" d="M184 950Q184 979 200 995T246 1012Q261 1012 272 1008T292 994T305 971T313 938L323 862H326Q356 907 402 942Q421 957 446 971T501 997T566 1015T643 1022Q730 1022 799 996T916 918T990 790T1016 612V61Q1016
29 998 12T942 -6Q905 -6 887 11T868 61V588Q868 669 851 727T801 823T721 879T612 897Q577 897 547 889T490 869T442 840T402 806Q361 766 332 715V61Q332 29 314 12T258 -6Q221 -6 203 11T184 61V950Z" />
<glyph unicode="o" glyph-name="o" horiz-adv-x="1163" d="M104 484Q104 611 139 711T239 880T394 985T594 1022Q694 1022 779 987T926 885T1024 727T1059 520Q1059 393 1024 293T924 124T769 19T569 -18Q469 -18 384 17T237 119T139 277T104 484ZM256 504Q256
409 281 336T351 211T456 134T584 107Q653 107 712 132T815 208T882 331T907 500Q907 594 882 668T812 793T708 870T580 897Q510 897 451 872T349 796T281 673T256 504Z" />
<glyph unicode="p" glyph-name="p" horiz-adv-x="1153" d="M184 950Q184 979 200 995T246 1012Q261 1012 272 1008T292 994T305 971T313 938L323 862H326Q357 907 403 942Q422 957 447 971T502 997T567 1015T643 1022Q734 1022 808 991T936 899T1019 745T1049
528Q1049 398 1013 297T909 125T744 19T526 -18Q485 -18 450 -14T388 -5Q357 1 332 9L329 8Q331 -24 331 -58T332 -129V-412Q332 -444 314 -461T258 -479Q221 -479 203 -462T184 -412V950ZM332 147Q355 134 387 124Q414 116 453 109T547 102Q625 102 689 128T800
206T871 334T897 510Q897 613 877 686T820 807T730 875T612 897Q577 897 547 889T490 869T442 840T402 806Q361 766 332 715V147Z" />
<glyph unicode="q" glyph-name="q" horiz-adv-x="1153" d="M821 7Q821 40 822 70T826 136H823Q792 92 746 59Q707 30 649 6T510 -18Q419 -18 345 13T217 105T134 259T104 476Q104 606 140 707T244 879T409 985T627 1022Q688 1022 741 1013T836 991T905 964T944
938Q950 932 955 925T963 910T967 892T969 869V-412Q969 -444 951 -461T895 -479Q858 -479 840 -462T821 -412V7ZM821 852Q799 864 767 875Q740 883 700 890T606 898Q528 898 464 872T353 794T282 668T256 494Q256 390 276 317T333 197T423 129T541 107Q576 107
606 114T663 135T711 164T751 198Q792 238 821 289V852Z" />
<glyph unicode="r" glyph-name="r" horiz-adv-x="697" d="M184 950Q184 979 200 995T246 1012Q261 1012 272 1008T292 994T306 970T313 936L325 836H328Q349 876 376 910T436 969T505 1008T580 1022Q631 1022 656 999T682 936Q682 896 661 876T614 856Q603 856
596 857T581 859T565 862T547 864Q521 864 494 852T439 816T385 755T332 668V61Q332 29 314 12T258 -6Q221 -6 203 11T184 61V950Z" />
<glyph unicode="s" glyph-name="s" horiz-adv-x="895" d="M123 739Q123 797 147 848T217 938T332 999T489 1022Q540 1022 579 1016T647 1001T694 981T722 961Q735 948 740 936T745 907Q745 895 741 886T729 869T711 857T688 853Q673 853 655 860T611 876T553 892T473
899Q420 899 382 888T319 858T282 812T270 756Q270 712 292 683T352 633T436 596T532 563T629 524T713 471T772 394T795 285Q795 222 770 167T696 71T574 6T406 -18Q344 -18 298 -11T220 6T167 28T137 49Q126 60 121 72T115 103Q115 129 131 145T172 161Q187 161
205 152T252 133T321 114T422 105Q480 105 522 117T592 151T633 203T647 268Q647 313 625 343T565 395T481 433T385 467T289 506T205 557T146 632T123 739Z" />
<glyph unicode="t" glyph-name="t" horiz-adv-x="683" d="M93 882Q67 882 52 898T36 943Q36 972 51 988T93 1004H216L238 1202Q242 1239 260 1257T306 1276Q333 1276 348 1260T364 1215V1004H590Q616 1004 631 988T647 943Q647 914 632 898T590 882H364V269Q364
183 395 149T489 114Q514 114 531 117T562 124T585 131T606 134Q618 134 627 131T642 121T651 105T655 85Q655 68 649 58T634 38Q628 32 616 24T582 9T531 -4T461 -10Q337 -10 277 49T216 225V882H93Z" />
<glyph unicode="u" glyph-name="u" horiz-adv-x="1182" d="M174 943Q174 975 192 992T248 1010Q286 1010 304 993T322 943V416Q322 255 388 181T570 107Q605 107 635 114T692 135T740 164T780 198Q821 238 850 289V943Q850 975 868 992T924 1010Q962 1010 980
993T998 943V54Q998 25 982 9T936 -8Q921 -8 910 -4T890 10T877 33T869 66L859 142H856Q826 97 780 62Q760 47 736 33T681 7T616 -11T539 -18Q455 -18 388 8T273 86T200 214T174 392V943Z" />
<glyph unicode="v" glyph-name="v" horiz-adv-x="981" d="M68 883Q57 911 54 922T50 943Q50 960 58 973T78 995T104 1008T132 1013Q147 1013 158 1009T177 996Q184 989 189 977T206 937L443 313Q456 279 465 252T481 206Q488 184 493 167H497Q502 184 509 206Q515
225 524 252T547 313L783 941Q792 965 797 977T810 996Q818 1004 829 1008T855 1013Q868 1013 881 1009T906 997T924 977T931 949Q931 941 928 930T915 894L604 106Q592 76 581 54T557 19Q550 12 543 8T527 0T510 -4T490 -6Q479 -6 470 -5T452 0T437 7T422 19Q410
31 399 53T375 106L68 883Z" />
<glyph unicode="w" glyph-name="w" horiz-adv-x="1574" d="M93 890Q84 918 82 928T80 946Q80 962 87 975T107 996T133 1008T161 1013Q177 1013 188 1009T208 996Q216 988 221 975T235 931L422 305Q431 273 438 247T450 200Q455 177 460 158H464Q468 177 474 200Q479
220 486 246T503 305L687 905Q697 936 707 957T729 990T757 1008T794 1013Q815 1013 831 1008T859 991T882 958T902 906L1086 305Q1096 273 1103 247T1115 200Q1120 177 1125 158H1129Q1133 177 1139 200Q1144 220 1151 246T1167 305L1347 932Q1355 961 1360 975T1374
997Q1381 1004 1393 1008T1419 1013Q1432 1013 1445 1009T1469 998T1487 979T1494 952Q1494 945 1492 934T1481 895L1229 96Q1220 67 1211 49T1190 19Q1176 5 1159 0T1121 -6Q1100 -6 1084 -1T1054 17Q1042 29 1033 48T1014 96L830 696Q819 730 812 757T800 804Q795
827 791 845H787Q783 827 778 804Q773 784 767 757T749 696L565 96Q557 70 547 50T526 19Q513 6 497 0T456 -6Q430 -6 413 0T383 19Q372 30 363 47T345 92L93 890Z" />
<glyph unicode="x" glyph-name="x" horiz-adv-x="1016" d="M138 858Q127 872 119 882T105 901T97 918T94 934Q94 952 102 966T122 991T149 1007T177 1013Q189 1013 199 1009T217 997Q219 995 221 993T227 986T237 973T255 951L518 615L766 946Q777 961 784 970T795
984T802 991T806 996Q814 1004 823 1008T847 1013Q861 1013 875 1008T900 993T917 971T924 943Q924 935 922 928T914 911T900 891T879 866L597 519L900 146Q911 132 919 122T933 103T941 86T944 70Q944 52 936 38T916 13T889 -3T861 -9Q849 -9 839 -5T821 7Q819
9 817 11T811 18T801 31T783 53L498 415L229 58Q218 43 211 34T200 20T193 13T189 8Q181 0 171 -4T147 -9Q134 -9 121 -4T97 10T79 33T72 61Q72 69 74 76T82 93T96 113T117 138L419 511L138 858Z" />
<glyph unicode="y" glyph-name="y" horiz-adv-x="981" d="M68 883Q57 911 54 922T50 943Q50 960 58 973T78 995T104 1008T132 1013Q148 1013 158 1009T177 996Q184 989 189 977T206 937L442 313Q455 278 464 250T481 202Q489 178 494 161H498Q503 178 511 202Q517
222 526 250T549 313L783 942Q791 965 796 976T810 996Q818 1004 830 1008T855 1013Q868 1013 881 1009T906 998T924 978T931 949Q931 941 928 931T915 895L588 68Q525 -90 464 -196T340 -365T210 -456T70 -483Q38 -483 12 -476T-29 -455Q-47 -437 -47 -408Q-47
-382 -32 -367T11 -352Q20 -352 28 -352T44 -354T60 -355T77 -356Q129 -356 175 -332T262 -262T341 -148T414 7L68 883Z" />
<glyph unicode="z" glyph-name="z" horiz-adv-x="939" d="M658 882H183Q157 882 142 898T126 943Q126 972 141 988T183 1004H749Q792 1004 813 984T835 927Q835 907 826 887T793 836L279 122H800Q826 122 841 106T857 61Q857 32 842 16T800 0H188Q145 0 124 20T102
77Q102 97 111 117T144 168L658 882Z" />
<glyph unicode="{" glyph-name="braceleft" horiz-adv-x="659" d="M258 230Q258 269 256 307T249 380T233 442T205 487Q186 506 170 514T139 526T112 533T89 547Q81 555 77 567T72 596Q72 613 76 625T89 645Q99 655 111 658T138 666T169 678T205 705Q222 722 232
750T248 812T256 884T258 962V1206Q258 1293 274 1353T320 1452T395 1507T495 1524H499Q521 1524 537 1520T563 1508T578 1489T583 1464Q583 1450 579 1439T567 1421T546 1411T518 1407H510Q481 1407 461 1400T427 1373T408 1318T402 1225V982Q402 886 394 822T368
716T323 647T260 602V600Q296 581 323 556T367 490T393 390T402 245V-52Q402 -114 409 -152T430 -213T465 -244T516 -252H524Q554 -252 568 -267T583 -306Q583 -321 578 -332T561 -352T531 -364T488 -369H484Q430 -369 388 -353T317 -302T273 -210T258 -72V230Z"
/>
<glyph unicode="|" glyph-name="bar" horiz-adv-x="606" d="M237 1430Q237 1462 253 1478T302 1495Q334 1495 351 1479T369 1430V-426Q369 -458 352 -475T302 -492Q270 -492 254 -475T237 -426V1430Z" />
<glyph unicode="}" glyph-name="braceright" horiz-adv-x="659" d="M257 210Q257 306 265 370T291 476T336 545T399 590V592Q363 611 336 636T292 702T266 802T257 948V1207Q257 1268 250 1307T229 1368T194 1399T143 1407H135Q105 1407 91 1422T76 1461Q76 1476
81 1487T98 1507T128 1519T171 1524H175Q229 1524 271 1508T342 1457T386 1365T401 1227V962Q401 923 403 885T410 812T426 750T454 705Q473 686 489 678T520 666T547 659T570 645Q587 628 587 596Q587 579 583 567T570 547Q560 537 548 534T521 526T490 514T454
487Q437 470 427 442T411 380T403 308T401 230V-51Q401 -138 385 -198T339 -297T264 -352T164 -369H160Q138 -369 122 -365T96 -353T81 -334T76 -309Q76 -295 80 -284T92 -266T113 -256T141 -252H149Q178 -252 198 -245T232 -218T251 -163T257 -70V210Z" />
<glyph unicode="~" glyph-name="asciitilde" horiz-adv-x="1168" d="M414 722Q458 722 492 711T555 684T608 649T657 613T707 586T764 575Q812 575 849 604T916 682Q924 694 935 701T962 709Q974 709 985 705T1004 694T1018 676T1024 652Q1024 646 1023 640T1019
626Q1002 587 975 554T914 497T838 459T753 445Q709 445 675 456T612 483T559 518T510 554T460 581T403 592Q355 592 318 563T251 485Q243 473 232 466T205 458Q193 458 182 462T163 473T149 491T143 515Q143 528 148 541Q164 580 191 613T253 670T329 708T414
722Z" />
<glyph unicode="&#xa0;" glyph-name="uni00A0" horiz-adv-x="553" />
<glyph unicode="&#xa1;" glyph-name="exclamdown" horiz-adv-x="604" d="M235 625Q235 654 252 671T302 688Q334 688 352 671T370 625L384 -223Q385 -249 385 -269T386 -306T386 -336T386 -362Q386 -376 382 -388T367 -410T341 -424T302 -430Q279 -430 263 -425T237
-410T223 -389T218 -362Q218 -350 218 -337T218 -307T219 -270T220 -223L235 625ZM185 956Q185 981 194 1003T219 1041T257 1066T304 1075Q329 1075 350 1067T387 1043T410 1007T419 961Q419 935 410 914T385 876T347 851T300 842Q275 842 254 850T218 874T194
910T185 956Z" />
<glyph unicode="&#xa2;" glyph-name="cent" horiz-adv-x="1006" d="M520 132Q426 143 352 179T227 274T149 412T122 586Q122 691 149 778T229 931T354 1039T521 1098V1339Q521 1368 537 1382T582 1397Q611 1397 627 1383T643 1339V1107Q693 1106 732 1099T801
1082T850 1061T879 1040Q890 1029 895 1017T900 988Q900 966 885 950T842 933Q827 933 807 940T760 957T698 974T614 982Q537 982 474 957T367 884T298 765T274 602Q274 520 297 456T366 346T476 278T626 254Q677 254 713 261T776 276T821 292T854 299Q865 299
874 296T890 286T900 270T904 249Q904 223 881 200Q869 188 848 177T796 155T727 138T642 128V-106Q642 -135 626 -149T581 -164Q552 -164 536 -150T520 -106V132Z" />
<glyph unicode="&#xa3;" glyph-name="sterling" horiz-adv-x="1044" d="M179 646Q146 646 131 663T115 708Q115 735 130 752T179 770H252Q240 815 226 873T212 1002Q212 1084 242 1155T331 1278T475 1359T668 1389Q713 1389 749 1383T811 1368T856 1348T883 1328Q894
1317 899 1305T904 1276Q904 1265 900 1255T889 1238T871 1226T846 1221Q831 1221 815 1227T776 1242T723 1257T648 1264Q578 1264 525 1247T436 1197T382 1121T363 1022Q363 986 367 955T377 893T392 832T408 770H775Q808 770 823 753T839 708Q839 681 824 664T775
646H437Q461 495 424 370T296 133L298 131H910Q936 131 952 114T969 66Q969 35 953 18T910 0H226Q178 0 153 24T127 88Q127 104 129 117T138 144T153 172T177 206Q206 244 232 288T275 386T295 504T282 646H179Z" />
<glyph unicode="&#xa4;" glyph-name="currency" horiz-adv-x="1030" d="M219 265Q208 250 198 244T172 237Q160 237 148 242T127 257T113 277T107 300Q107 313 112 322T128 342L235 457Q197 503 177 564T156 701Q156 779 177 843T240 956L135 1067Q126 1077 120
1086T114 1109Q114 1121 120 1133T136 1154T158 1170T184 1176Q200 1176 210 1169T231 1147L321 1024Q363 1049 413 1062T523 1075Q636 1075 717 1026L811 1152Q822 1167 832 1173T858 1180Q870 1180 882 1175T903 1160T917 1140T923 1117Q923 1104 918 1095T902
1075L795 960Q833 914 853 853T874 717Q874 638 853 574T790 461L895 350Q904 340 910 331T916 308Q916 296 910 284T894 263T872 247T846 241Q830 241 820 248T799 270L709 392Q667 367 616 355T507 342Q450 342 402 354T312 390L219 265ZM287 711Q287 649 304
600T351 518T424 467T517 449Q567 449 608 466T680 516T726 597T743 707Q743 769 726 817T679 899T606 950T513 968Q463 968 422 951T350 901T304 820T287 711Z" />
<glyph unicode="&#xa5;" glyph-name="yen" horiz-adv-x="1214" d="M275 516Q242 516 228 532T213 574Q213 599 227 615T275 632H517L149 1236Q130 1267 122 1282T114 1313Q114 1329 121 1343T139 1366T165 1381T195 1387Q208 1387 219 1383T240 1369Q248 1361
257 1345T278 1311L553 846Q565 825 576 805T595 770Q605 752 612 736H616Q624 753 634 771Q642 787 653 807T678 851L942 1312Q959 1342 966 1352T979 1369Q997 1387 1023 1387Q1038 1387 1051 1382T1076 1367T1093 1344T1100 1316Q1100 1300 1092 1285T1066 1240L694
632H937Q970 632 984 616T999 574Q999 549 985 533T937 516H681V355H937Q970 355 984 339T999 297Q999 272 985 256T937 239H681V61Q681 29 663 12T606 -6Q568 -6 550 11T531 61V239H275Q242 239 228 255T213 297Q213 322 227 338T275 355H531V516H275Z" />
<glyph unicode="&#xa6;" glyph-name="brokenbar" horiz-adv-x="606" d="M237 1430Q237 1462 253 1478T302 1495Q334 1495 351 1479T369 1430V729Q369 697 352 681T302 664Q270 664 254 680T237 729V1430ZM237 291Q237 323 253 339T302 356Q334 356 351 340T369
291V-426Q369 -458 352 -475T302 -492Q270 -492 254 -475T237 -426V291Z" />
<glyph unicode="&#xa7;" glyph-name="section" horiz-adv-x="1094" d="M137 559Q137 674 191 749T346 874Q298 915 269 968T240 1096Q240 1163 264 1218T334 1313T446 1375T599 1397Q650 1397 689 1391T757 1376T804 1356T832 1336Q845 1323 850 1311T855 1282Q855
1270 851 1261T839 1244T821 1232T798 1228Q783 1228 765 1235T721 1251T663 1267T583 1274Q481 1274 434 1231T386 1113Q386 1063 410 1027T475 961T566 905T671 852T776 794T868 722T932 626T957 499Q957 384 902 309T748 184Q796 143 825 90T854 -38Q854 -105
830 -160T760 -255T647 -317T495 -339Q444 -339 405 -333T337 -318T290 -298T262 -278Q249 -265 244 -253T239 -224Q239 -212 243 -203T255 -186T273 -174T296 -170Q311 -170 329 -177T373 -193T431 -209T511 -216Q613 -216 660 -173T708 -55Q708 -6 684 31T619
97T528 152T423 205T318 263T226 336T162 432T137 559ZM289 576Q289 513 320 469T400 389T509 325T629 262Q714 297 759 350T805 482Q805 545 774 589T694 669T584 733T464 795Q379 760 334 707T289 576Z" />
<glyph unicode="&#xa8;" glyph-name="dieresis" horiz-adv-x="1024" d="M211 1319Q211 1342 219 1361T242 1395T276 1418T319 1427Q342 1427 361 1420T395 1398T416 1365T424 1323Q424 1300 416 1280T394 1246T360 1223T317 1214Q294 1214 275 1221T241 1243T219
1276T211 1319ZM600 1319Q600 1342 608 1361T631 1395T666 1418T709 1427Q732 1427 751 1420T784 1398T805 1365T813 1323Q813 1300 805 1280T783 1246T750 1223T707 1214Q684 1214 664 1221T630 1243T608 1276T600 1319Z" />
<glyph unicode="&#xa9;" glyph-name="copyright" horiz-adv-x="1604" d="M452 672Q452 774 480 855T560 991T683 1076T839 1106Q878 1106 909 1101T965 1087T1005 1069T1030 1050Q1041 1039 1045 1029T1049 1005Q1049 985 1037 972T1004 958Q990 958 977 965T946
980T900 995T829 1002Q777 1002 732 982T653 922T600 823T581 686Q581 614 599 560T651 468T732 411T838 392Q878 392 905 398T951 413T983 428T1010 435Q1030 435 1040 422T1051 391Q1051 367 1032 348Q1022 338 1004 328T958 308T896 293T818 287Q735 287 668
313T552 389T478 510T452 672ZM112 684Q112 844 163 975T307 1200T527 1345T807 1397Q960 1397 1086 1347T1302 1205T1442 984T1492 694Q1492 535 1441 404T1297 179T1077 34T797 -18Q644 -18 518 32T302 173T162 395T112 684ZM229 689Q229 551 271 439T389 248T570
127T802 84Q928 84 1033 126T1215 248T1333 439T1375 689Q1375 828 1333 940T1215 1131T1034 1252T802 1295Q676 1295 571 1253T389 1131T271 940T229 689Z" />
<glyph unicode="&#xaa;" glyph-name="ordfeminine" horiz-adv-x="829" d="M544 963Q528 967 509 971Q492 974 469 976T419 979Q255 979 255 889Q255 846 287 818T380 789Q419 789 449 803T501 834Q526 853 544 879V963ZM544 1132Q544 1173 536 1202T508 1250T459
1277T385 1286Q345 1286 316 1280T266 1266T231 1252T204 1246Q185 1246 173 1258T161 1291Q161 1302 165 1310T177 1327Q186 1336 207 1347T260 1367T329 1383T412 1389Q542 1389 605 1330T669 1157V911Q669 867 671 840T677 795T683 766T686 744Q686 724 672
710T631 696Q599 696 582 719T557 783H555Q533 756 503 736Q477 719 440 705T352 690Q298 690 256 704T185 745T141 806T126 883Q126 928 145 962T201 1019T288 1053T405 1065Q437 1065 463 1063T507 1057Q528 1053 544 1050V1132ZM687 567Q712 567 725 554T739
516Q739 492 726 479T687 465H142Q117 465 104 478T90 516Q90 540 103 553T142 567H687Z" />
<glyph unicode="&#xab;" glyph-name="guillemotleft" horiz-adv-x="1153" d="M565 177Q577 164 584 154T591 128Q591 114 586 102T571 81T549 67T523 62Q516 62 510 64T497 69T485 78T472 90L141 432Q126 448 117 464T108 501Q108 523 116 538T140 570L468 908Q481
922 494 932T525 942Q538 942 549 937T569 924T583 904T588 880Q588 865 579 853T559 828L267 505L565 177ZM1010 190Q1022 177 1028 166T1035 142Q1035 129 1030 117T1015 96T994 82T969 76Q962 76 956 77T944 82T932 90T918 104L601 432Q586 448 577 464T568
501Q568 523 576 538T600 570L915 895Q931 912 943 919T970 927Q982 927 993 922T1013 909T1027 890T1032 866Q1032 852 1025 841T1006 817L725 505L1010 190Z" />
<glyph unicode="&#xac;" glyph-name="logicalnot" horiz-adv-x="1168" d="M231 521Q205 521 190 538T174 582Q174 609 189 626T231 643H917Q995 643 995 565V263Q995 231 977 214T929 197Q899 197 881 214T863 263V521H231Z" />
<glyph unicode="&#xad;" glyph-name="uni00AD" horiz-adv-x="971" d="M741 596Q769 596 784 581T799 535Q799 504 784 489T741 473H229Q202 473 187 488T172 535Q172 565 187 580T229 596H741Z" />
<glyph unicode="&#xae;" glyph-name="registered" horiz-adv-x="987" d="M428 907Q428 891 419 882T389 872Q369 872 360 881T350 907V1269Q350 1286 359 1295T386 1304H492Q580 1304 619 1271T659 1185Q659 1137 632 1106T562 1064Q575 1028 591 1006T625 965Q639
951 651 942T670 927Q675 922 677 916T680 904Q680 891 670 882T640 872Q623 872 605 880T568 908Q545 931 526 962T488 1050H428V907ZM492 1113Q537 1113 557 1131T578 1178Q578 1206 558 1222T488 1239H428V1113H492ZM80 1085Q80 1174 111 1249T197 1379T328
1464T497 1495Q588 1495 663 1465T793 1382T877 1254T907 1091Q907 1002 876 927T790 796T658 711T490 680Q399 680 324 710T194 793T110 921T80 1085ZM164 1088Q164 1014 188 952T256 846T360 778T493 753Q565 753 626 777T730 846T798 952T823 1088Q823 1162
799 1223T731 1329T627 1397T494 1422Q422 1422 361 1398T257 1329T189 1224T164 1088Z" />
<glyph unicode="&#xaf;" glyph-name="macron" horiz-adv-x="1024" d="M758 1377Q787 1377 801 1363T815 1319Q815 1290 801 1276T758 1261H266Q237 1261 223 1275T209 1319Q209 1348 223 1362T266 1377H758Z" />
<glyph unicode="&#xb0;" glyph-name="degree" horiz-adv-x="827" d="M129 1221Q129 1279 150 1329T209 1416T301 1474T418 1495Q482 1495 533 1475T621 1420T678 1336T698 1229Q698 1170 677 1120T618 1033T527 975T410 954Q346 954 294 974T206 1029T149 1113T129
1221ZM252 1225Q252 1188 264 1158T297 1105T348 1071T414 1059Q449 1059 479 1071T530 1105T564 1157T576 1225Q576 1262 564 1292T531 1345T479 1379T414 1391Q378 1391 349 1379T298 1345T264 1293T252 1225Z" />
<glyph unicode="&#xb1;" glyph-name="plusminus" horiz-adv-x="1168" d="M222 648Q196 648 181 665T165 709Q165 736 180 753T222 770H518V1073Q518 1105 536 1122T584 1139Q614 1139 632 1122T650 1073V770H945Q971 770 987 753T1003 709Q1003 682 987 665T945
648H650V345Q650 313 632 296T584 279Q554 279 536 296T518 345V648H222ZM955 122Q981 122 997 105T1013 61Q1013 34 997 17T955 0H212Q186 0 171 17T155 61Q155 88 170 105T211 122H955Z" />
<glyph unicode="&#xb2;" glyph-name="two.superior" horiz-adv-x="679" d="M548 741Q571 741 584 726T597 685Q597 659 584 644T548 629H135Q97 629 77 648T56 698Q56 721 64 738T92 774L243 915Q292 961 326 996T382 1062T414 1119T424 1175Q424 1223 392 1252T293
1282Q265 1282 242 1278T200 1268T165 1258T139 1253Q120 1253 108 1265T95 1297Q95 1308 99 1318T112 1337Q122 1347 142 1356T190 1373T252 1386T326 1391Q387 1391 433 1376T510 1335T556 1274T572 1196Q572 1152 559 1113T518 1034T445 949T337 849L214 741H548Z"
/>
<glyph unicode="&#xb3;" glyph-name="three.superior" horiz-adv-x="692" d="M290 721Q365 721 404 756T443 843Q443 871 433 893T398 932T329 956T218 965Q204 965 198 966T187 973Q179 980 176 992T172 1018T175 1043T187 1063Q192 1068 198 1069T218 1071Q274
1071 312 1080T373 1104T407 1142T417 1190Q417 1232 388 1257T290 1283Q263 1283 242 1279T205 1269T176 1260T152 1255Q132 1255 120 1267T107 1300Q107 1314 111 1323T124 1340Q142 1358 193 1374T319 1391Q382 1391 428 1378T504 1340T548 1282T563 1208Q563
1148 528 1103T435 1034V1033Q510 1018 550 971T590 849Q590 801 571 759T513 685T419 635T289 616Q214 616 170 629T106 661Q98 669 94 678T89 703Q89 724 102 738T135 752Q147 752 159 747T188 737T230 726T290 721Z" />
<glyph unicode="&#xb4;" glyph-name="acute" horiz-adv-x="1024" d="M527 1485Q537 1500 548 1508T576 1516Q591 1516 607 1510T636 1492T659 1465T668 1432Q668 1425 666 1420T661 1409T655 1399T647 1390L451 1176Q440 1163 429 1157T405 1150Q393 1150 383
1154T364 1166T351 1184T346 1206Q346 1216 351 1225T361 1242L527 1485Z" />
<glyph unicode="&#xb5;" glyph-name="mu" horiz-adv-x="1192" d="M184 943Q184 975 202 992T258 1010Q296 1010 314 993T332 943V416Q332 255 398 181T580 107Q615 107 645 114T702 135T750 164T790 198Q831 238 860 289V943Q860 975 878 992T934 1010Q972 1010
990 993T1008 943V54Q1008 25 992 9T946 -8Q931 -8 920 -4T900 10T887 33T879 66L869 142H866Q836 97 790 62Q751 32 691 7T549 -18Q489 -18 446 -6T374 21Q341 38 319 60L317 58L331 -335Q331 -346 331 -355T332 -373T332 -390T332 -406Q332 -447 311 -463T258
-479Q221 -479 203 -462T184 -412V943Z" />
<glyph unicode="&#xb6;" glyph-name="paragraph" horiz-adv-x="1272" d="M733 -268Q733 -297 717 -312T668 -328Q636 -328 620 -313T603 -268V502Q483 502 394 530T247 613T159 749T130 938Q130 1043 160 1125T254 1263T415 1349T646 1378H988Q1025 1378 1044
1359T1064 1302V-268Q1064 -297 1048 -312T999 -328Q967 -328 951 -313T934 -268V1252H733V-268Z" />
<glyph unicode="&#xb7;" glyph-name="periodcentered" horiz-adv-x="561" d="M162 532Q162 557 171 579T197 618T235 643T283 653Q308 653 329 645T366 621T390 584T399 537Q399 511 390 489T364 451T326 426T279 416Q253 416 232 424T195 448T171 485T162 532Z" />
<glyph unicode="&#xb8;" glyph-name="cedilla" horiz-adv-x="1024" d="M589 0L560 -111Q596 -115 626 -127T677 -160T710 -210T722 -276Q722 -321 704 -360T651 -428T565 -475T448 -492Q416 -492 394 -487T359 -472T340 -452T334 -428Q334 -408 346 -395T383 -381Q395
-381 408 -382T434 -383Q474 -383 501 -376T546 -357T570 -327T578 -291Q578 -256 556 -237T484 -217H476Q453 -217 443 -203T439 -160L479 0H589Z" />
<glyph unicode="&#xb9;" glyph-name="one.superior" horiz-adv-x="543" d="M149 1193Q135 1188 121 1183T95 1177Q72 1177 58 1192T44 1228Q44 1239 48 1247T60 1264Q66 1270 79 1278T109 1296T148 1317T192 1339Q240 1362 269 1374T322 1386Q351 1386 369 1369T387
1321V685Q387 656 369 640T316 623Q281 623 263 639T245 685V1231L149 1193Z" />
<glyph unicode="&#xba;" glyph-name="ordmasculine" horiz-adv-x="891" d="M116 1027Q116 1112 140 1179T209 1293T315 1364T454 1389Q524 1389 583 1365T684 1297T751 1190T775 1051Q775 965 751 898T683 785T576 714T437 689Q367 689 308 713T207 781T140 888T116
1027ZM245 1040Q245 980 261 934T304 856T368 808T447 791Q490 791 526 807T589 854T631 931T646 1037Q646 1097 630 1143T587 1222T523 1270T444 1287Q402 1287 366 1271T302 1224T260 1147T245 1040ZM731 567Q756 567 769 554T783 516Q783 492 770 479T731 465H160Q135
465 122 478T108 516Q108 540 121 553T160 567H731Z" />
<glyph unicode="&#xbb;" glyph-name="guillemotright" horiz-adv-x="1153" d="M588 826Q576 839 569 849T562 875Q562 888 567 900T582 921T604 935T630 941Q644 941 656 934T681 913L1012 571Q1027 555 1036 539T1045 502Q1045 480 1037 465T1013 433L685 95Q672
81 659 71T628 61Q615 61 604 66T584 79T570 99T565 123Q565 138 574 150T594 175L886 498L588 826ZM143 813Q131 826 125 837T118 861Q118 874 123 886T138 907T159 921T184 927Q191 927 197 926T209 921T221 913T235 899L552 571Q567 555 576 539T585 502Q585
480 577 465T553 433L238 108Q222 91 210 84T183 76Q171 76 160 80T140 93T126 113T121 137Q121 151 128 162T147 186L428 498L143 813Z" />
<glyph unicode="&#xbc;" glyph-name="onequarter" horiz-adv-x="1518" d="M1033 1361Q1043 1378 1054 1387T1085 1396Q1097 1396 1108 1392T1129 1380T1144 1362T1150 1339Q1150 1330 1147 1322T1136 1300L374 18Q364 1 353 -8T322 -17Q310 -17 299 -13T278 -1T263
17T257 40Q257 49 260 57T271 79L1033 1361ZM149 1193Q135 1188 121 1183T95 1177Q72 1177 58 1192T44 1228Q44 1239 48 1247T60 1264Q66 1270 79 1278T109 1296T148 1317T192 1339Q240 1362 269 1374T322 1386Q351 1386 369 1369T387 1321V685Q387 656 369 640T316
623Q281 623 263 639T245 685V1231L149 1193ZM899 203Q857 203 836 222T815 277Q815 295 821 311T843 348L1107 694Q1121 712 1134 725T1161 745T1191 756T1229 760Q1275 760 1296 743T1318 688V310H1401Q1423 310 1435 297T1448 256Q1448 229 1436 216T1401 203H1318V57Q1318
28 1301 12T1249 -5Q1215 -5 1198 11T1180 57V203H899ZM1180 615L949 310H1180V615Z" />
<glyph unicode="&#xbd;" glyph-name="onehalf" horiz-adv-x="1561" d="M1033 1361Q1043 1378 1054 1387T1085 1396Q1097 1396 1108 1392T1129 1380T1144 1362T1150 1339Q1150 1330 1147 1322T1136 1300L374 18Q364 1 353 -8T322 -17Q310 -17 299 -13T278 -1T263
17T257 40Q257 49 260 57T271 79L1033 1361ZM149 1193Q135 1188 121 1183T95 1177Q72 1177 58 1192T44 1228Q44 1239 48 1247T60 1264Q66 1270 79 1278T109 1296T148 1317T192 1339Q240 1362 269 1374T322 1386Q351 1386 369 1369T387 1321V685Q387 656 369 640T316
623Q281 623 263 639T245 685V1231L149 1193ZM1430 113Q1453 113 1466 98T1479 57Q1479 31 1466 16T1430 1H1017Q979 1 959 20T938 70Q938 93 946 110T974 146L1125 287Q1174 333 1208 368T1264 434T1296 491T1306 547Q1306 595 1274 624T1175 654Q1147 654 1124
650T1082 640T1047 630T1021 625Q1002 625 990 637T977 669Q977 680 981 690T994 709Q1004 719 1024 728T1072 745T1134 758T1208 763Q1269 763 1315 748T1392 707T1438 646T1454 568Q1454 524 1441 485T1400 406T1327 321T1219 221L1096 113H1430Z" />
<glyph unicode="&#xbe;" glyph-name="threequarters" horiz-adv-x="1633" d="M1148 1361Q1158 1378 1169 1387T1200 1396Q1212 1396 1223 1392T1244 1380T1259 1362T1265 1339Q1265 1330 1262 1322T1251 1300L489 18Q479 1 468 -8T437 -17Q425 -17 414 -13T393
-1T378 17T372 40Q372 49 375 57T386 79L1148 1361ZM1014 203Q972 203 951 222T930 277Q930 295 936 311T958 348L1222 694Q1236 712 1249 725T1276 745T1306 756T1344 760Q1390 760 1411 743T1433 688V310H1516Q1538 310 1550 297T1563 256Q1563 229 1551 216T1516
203H1433V57Q1433 28 1416 12T1364 -5Q1330 -5 1313 11T1295 57V203H1014ZM1295 615L1064 310H1295V615ZM290 721Q365 721 404 756T443 843Q443 871 433 893T398 932T329 956T218 965Q204 965 198 966T187 973Q179 980 176 992T172 1018T175 1043T187 1063Q192
1068 198 1069T218 1071Q274 1071 312 1080T373 1104T407 1142T417 1190Q417 1232 388 1257T290 1283Q263 1283 242 1279T205 1269T176 1260T152 1255Q132 1255 120 1267T107 1300Q107 1314 111 1323T124 1340Q142 1358 193 1374T319 1391Q382 1391 428 1378T504
1340T548 1282T563 1208Q563 1148 528 1103T435 1034V1033Q510 1018 550 971T590 849Q590 801 571 759T513 685T419 635T289 616Q214 616 170 629T106 661Q98 669 94 678T89 703Q89 724 102 738T135 752Q147 752 159 747T188 737T230 726T290 721Z" />
<glyph unicode="&#xbf;" glyph-name="questiondown" horiz-adv-x="755" d="M396 496Q396 528 393 549T386 584T379 608T376 629Q376 655 394 671T446 688Q465 688 483 679T514 648T536 592T544 506Q544 433 520 377T458 275T378 189T298 106T237 16T212 -94Q212
-144 228 -184T275 -253T354 -297T464 -313Q515 -313 548 -307T603 -292T641 -277T673 -270Q696 -270 710 -283T724 -319Q724 -333 720 -344T704 -367Q692 -378 669 -390T612 -413T534 -431T437 -438Q342 -438 270 -415T150 -349T78 -247T54 -113Q54 -36 79 22T143
128T225 216T307 299T370 388T396 496ZM323 956Q323 981 332 1003T357 1041T394 1066T442 1075Q467 1075 488 1067T524 1043T547 1007T556 961Q556 935 547 914T522 876T484 851T437 842Q412 842 391 850T355 874T332 910T323 956Z" />
<glyph unicode="&#xc0;" glyph-name="Agrave" horiz-adv-x="1224" d="M219 76Q208 45 202 31T186 7Q179 0 167 -4T140 -9Q126 -9 112 -5T87 8T68 29T60 58Q60 68 62 79T76 119L500 1296Q504 1307 508 1316T516 1332T525 1346T536 1358Q549 1371 567 1377T611 1384Q637
1384 655 1378T686 1358Q692 1352 696 1346T705 1333T714 1316T722 1296L1148 120Q1159 91 1161 80T1164 61Q1164 44 1156 31T1136 9T1109 -4T1079 -9Q1065 -9 1053 -5T1033 8Q1025 16 1019 29T1002 73L893 382H323L219 76ZM849 509L672 1014Q658 1056 646 1092T625
1156Q614 1188 606 1215H602Q594 1188 584 1155Q576 1127 564 1091T538 1014L366 509H849ZM628 1682Q613 1693 604 1704T595 1733Q595 1748 602 1764T620 1792T647 1813T679 1822Q693 1822 703 1817T725 1800L942 1595Q956 1582 961 1573T966 1552Q966 1541 962
1531T950 1513T931 1500T908 1495Q897 1495 889 1498T869 1510L628 1682Z" />
<glyph unicode="&#xc1;" glyph-name="Aacute" horiz-adv-x="1224" d="M219 76Q208 45 202 31T186 7Q179 0 167 -4T140 -9Q126 -9 112 -5T87 8T68 29T60 58Q60 68 62 79T76 119L500 1296Q504 1307 508 1316T516 1332T525 1346T536 1358Q549 1371 567 1377T611 1384Q637
1384 655 1378T686 1358Q692 1352 696 1346T705 1333T714 1316T722 1296L1148 120Q1159 91 1161 80T1164 61Q1164 44 1156 31T1136 9T1109 -4T1079 -9Q1065 -9 1053 -5T1033 8Q1025 16 1019 29T1002 73L893 382H323L219 76ZM849 509L672 1014Q658 1056 646 1092T625
1156Q614 1188 606 1215H602Q594 1188 584 1155Q576 1127 564 1091T538 1014L366 509H849ZM737 1800Q748 1811 758 1816T783 1822Q800 1822 815 1814T841 1793T860 1764T867 1733Q867 1716 858 1705T834 1682L593 1510Q582 1502 574 1499T554 1495Q542 1495 531
1500T513 1513T501 1531T496 1552Q496 1563 501 1572T520 1595L737 1800Z" />
<glyph unicode="&#xc2;" glyph-name="Acircumflex" horiz-adv-x="1224" d="M219 76Q208 45 202 31T186 7Q179 0 167 -4T140 -9Q126 -9 112 -5T87 8T68 29T60 58Q60 68 62 79T76 119L500 1296Q504 1307 508 1316T516 1332T525 1346T536 1358Q549 1371 567 1377T611
1384Q637 1384 655 1378T686 1358Q692 1352 696 1346T705 1333T714 1316T722 1296L1148 120Q1159 91 1161 80T1164 61Q1164 44 1156 31T1136 9T1109 -4T1079 -9Q1065 -9 1053 -5T1033 8Q1025 16 1019 29T1002 73L893 382H323L219 76ZM849 509L672 1014Q658 1056
646 1092T625 1156Q614 1188 606 1215H602Q594 1188 584 1155Q576 1127 564 1091T538 1014L366 509H849ZM410 1517Q397 1507 389 1503T370 1499Q360 1499 351 1503T335 1514T323 1531T318 1551Q318 1561 322 1570T341 1593L530 1774Q550 1793 567 1803T608 1813Q631
1813 648 1803T685 1774L869 1591Q880 1580 883 1572T887 1555Q887 1544 883 1534T871 1517T853 1505T831 1501Q821 1501 812 1504T790 1518L599 1661L410 1517Z" />
<glyph unicode="&#xc3;" glyph-name="Atilde" horiz-adv-x="1224" d="M219 76Q208 45 202 31T186 7Q179 0 167 -4T140 -9Q126 -9 112 -5T87 8T68 29T60 58Q60 68 62 79T76 119L500 1296Q504 1307 508 1316T516 1332T525 1346T536 1358Q549 1371 567 1377T611 1384Q637
1384 655 1378T686 1358Q692 1352 696 1346T705 1333T714 1316T722 1296L1148 120Q1159 91 1161 80T1164 61Q1164 44 1156 31T1136 9T1109 -4T1079 -9Q1065 -9 1053 -5T1033 8Q1025 16 1019 29T1002 73L893 382H323L219 76ZM849 509L672 1014Q658 1056 646 1092T625
1156Q614 1188 606 1215H602Q594 1188 584 1155Q576 1127 564 1091T538 1014L366 509H849ZM462 1637Q430 1637 411 1625T378 1597T350 1569T315 1556Q297 1556 283 1568T269 1604Q269 1624 283 1651T323 1703T387 1745T470 1762Q519 1762 557 1747T629 1713T693
1680T758 1664Q790 1664 809 1676T842 1704T870 1732T905 1745Q923 1745 937 1733T951 1697Q951 1677 937 1650T897 1598T833 1556T750 1539Q701 1539 663 1554T591 1588T527 1621T462 1637Z" />
<glyph unicode="&#xc4;" glyph-name="Adieresis" horiz-adv-x="1224" d="M219 76Q208 45 202 31T186 7Q179 0 167 -4T140 -9Q126 -9 112 -5T87 8T68 29T60 58Q60 68 62 79T76 119L500 1296Q504 1307 508 1316T516 1332T525 1346T536 1358Q549 1371 567 1377T611
1384Q637 1384 655 1378T686 1358Q692 1352 696 1346T705 1333T714 1316T722 1296L1148 120Q1159 91 1161 80T1164 61Q1164 44 1156 31T1136 9T1109 -4T1079 -9Q1065 -9 1053 -5T1033 8Q1025 16 1019 29T1002 73L893 382H323L219 76ZM849 509L672 1014Q658 1056
646 1092T625 1156Q614 1188 606 1215H602Q594 1188 584 1155Q576 1127 564 1091T538 1014L366 509H849ZM290 1647Q290 1670 298 1689T321 1723T355 1746T398 1755Q421 1755 440 1748T474 1726T495 1693T503 1651Q503 1628 495 1608T473 1574T439 1551T396 1542Q373
1542 354 1549T320 1571T298 1604T290 1647ZM707 1647Q707 1670 715 1689T738 1723T773 1746T816 1755Q839 1755 858 1748T891 1726T912 1693T920 1651Q920 1628 912 1608T890 1574T857 1551T814 1542Q791 1542 771 1549T737 1571T715 1604T707 1647Z" />
<glyph unicode="&#xc5;" glyph-name="Aring" horiz-adv-x="1224" d="M219 76Q208 45 202 31T186 7Q179 0 167 -4T140 -9Q126 -9 112 -5T87 8T68 29T60 58Q60 68 62 79T76 119L500 1296Q504 1307 508 1316T516 1332T525 1346T536 1358Q549 1371 567 1377T611 1384Q637
1384 655 1378T686 1358Q692 1352 696 1346T705 1333T714 1316T722 1296L1148 120Q1159 91 1161 80T1164 61Q1164 44 1156 31T1136 9T1109 -4T1079 -9Q1065 -9 1053 -5T1033 8Q1025 16 1019 29T1002 73L893 382H323L219 76ZM849 509L672 1014Q658 1056 646 1092T625
1156Q614 1188 606 1215H602Q594 1188 584 1155Q576 1127 564 1091T538 1014L366 509H849ZM363 1712Q363 1759 381 1800T431 1871T509 1919T609 1937Q663 1937 707 1921T782 1875T830 1807T847 1720Q847 1673 829 1632T779 1561T701 1513T601 1495Q547 1495 503
1511T428 1557T380 1625T363 1712ZM466 1716Q466 1654 503 1617T605 1580Q669 1580 706 1617T744 1716Q744 1778 707 1815T605 1852Q541 1852 504 1815T466 1716Z" />
<glyph unicode="&#xc6;" glyph-name="AE" horiz-adv-x="1728" d="M160 66Q143 37 135 26T122 10Q113 1 102 -4T75 -9Q61 -9 48 -4T24 10T7 33T0 62Q0 71 2 78T8 95T19 115T35 141L751 1314Q763 1333 774 1345T797 1364T824 1375T859 1378H1569Q1598 1378 1614
1362T1630 1314Q1630 1282 1614 1265T1569 1248H1020V775H1495Q1524 775 1540 759T1556 710Q1556 678 1540 662T1495 645H1020V130H1573Q1602 130 1618 114T1634 65Q1634 33 1618 17T1573 0H944Q907 0 888 19T868 76V382H348L160 66ZM868 509V1248H865L425 509H868Z"
/>
<glyph unicode="&#xc7;" glyph-name="Ccedilla" horiz-adv-x="1195" d="M613 -7Q509 9 418 59T259 191T152 388T112 649Q112 826 160 965T295 1199T501 1345T763 1395Q827 1395 879 1385T971 1360T1037 1329T1076 1300Q1090 1286 1095 1273T1101 1243Q1101 1230
1097 1219T1084 1201T1065 1189T1039 1184Q1019 1184 997 1196T942 1224T861 1251T738 1264Q639 1264 554 1226T405 1112T305 926T268 670Q268 538 304 436T404 262T558 154T753 117Q822 117 870 129T953 155T1010 181T1052 193Q1064 193 1074 189T1090 178T1101
160T1105 139Q1105 124 1100 112T1081 87Q1065 71 1034 53T956 20T851 -6T721 -16L696 -111Q732 -115 762 -127T813 -160T846 -210T858 -276Q858 -321 840 -360T787 -428T701 -475T584 -492Q552 -492 530 -487T495 -472T476 -452T470 -428Q470 -408 482 -395T519
-381Q531 -381 544 -382T570 -383Q610 -383 637 -376T682 -357T706 -327T714 -291Q714 -256 692 -237T620 -217H612Q589 -217 579 -203T575 -160L613 -7Z" />
<glyph unicode="&#xc8;" glyph-name="Egrave" horiz-adv-x="1064" d="M356 130H909Q938 130 954 114T970 65Q970 33 954 17T909 0H280Q243 0 224 19T204 76V1302Q204 1339 223 1358T280 1378H905Q934 1378 950 1362T966 1314Q966 1282 950 1265T905 1248H356V775H831Q860
775 876 759T892 710Q892 678 876 662T831 645H356V130ZM596 1682Q581 1693 572 1704T563 1733Q563 1748 570 1764T588 1792T615 1813T647 1822Q661 1822 671 1817T693 1800L910 1595Q924 1582 929 1573T934 1552Q934 1541 930 1531T918 1513T899 1500T876 1495Q865
1495 857 1498T837 1510L596 1682Z" />
<glyph unicode="&#xc9;" glyph-name="Eacute" horiz-adv-x="1064" d="M356 130H909Q938 130 954 114T970 65Q970 33 954 17T909 0H280Q243 0 224 19T204 76V1302Q204 1339 223 1358T280 1378H905Q934 1378 950 1362T966 1314Q966 1282 950 1265T905 1248H356V775H831Q860
775 876 759T892 710Q892 678 876 662T831 645H356V130ZM739 1800Q750 1811 760 1816T785 1822Q802 1822 817 1814T843 1793T862 1764T869 1733Q869 1716 860 1705T836 1682L595 1510Q584 1502 576 1499T556 1495Q544 1495 533 1500T515 1513T503 1531T498 1552Q498
1563 503 1572T522 1595L739 1800Z" />
<glyph unicode="&#xca;" glyph-name="Ecircumflex" horiz-adv-x="1064" d="M356 130H909Q938 130 954 114T970 65Q970 33 954 17T909 0H280Q243 0 224 19T204 76V1302Q204 1339 223 1358T280 1378H905Q934 1378 950 1362T966 1314Q966 1282 950 1265T905 1248H356V775H831Q860
775 876 759T892 710Q892 678 876 662T831 645H356V130ZM389 1517Q376 1507 368 1503T349 1499Q339 1499 330 1503T314 1514T302 1531T297 1551Q297 1561 301 1570T320 1593L509 1774Q529 1793 546 1803T587 1813Q610 1813 627 1803T664 1774L848 1591Q859 1580
862 1572T866 1555Q866 1544 862 1534T850 1517T832 1505T810 1501Q800 1501 791 1504T769 1518L578 1661L389 1517Z" />
<glyph unicode="&#xcb;" glyph-name="Edieresis" horiz-adv-x="1064" d="M356 130H909Q938 130 954 114T970 65Q970 33 954 17T909 0H280Q243 0 224 19T204 76V1302Q204 1339 223 1358T280 1378H905Q934 1378 950 1362T966 1314Q966 1282 950 1265T905 1248H356V775H831Q860
775 876 759T892 710Q892 678 876 662T831 645H356V130ZM256 1647Q256 1670 264 1689T287 1723T321 1746T364 1755Q387 1755 406 1748T440 1726T461 1693T469 1651Q469 1628 461 1608T439 1574T405 1551T362 1542Q339 1542 320 1549T286 1571T264 1604T256 1647ZM673
1647Q673 1670 681 1689T704 1723T739 1746T782 1755Q805 1755 824 1748T857 1726T878 1693T886 1651Q886 1628 878 1608T856 1574T823 1551T780 1542Q757 1542 737 1549T703 1571T681 1604T673 1647Z" />
<glyph unicode="&#xcc;" glyph-name="Igrave" horiz-adv-x="560" d="M204 1317Q204 1349 223 1366T280 1384Q318 1384 337 1367T356 1317V61Q356 29 337 12T280 -6Q242 -6 223 11T204 61V1317ZM62 1682Q47 1693 38 1704T29 1733Q29 1748 36 1764T54 1792T81 1813T113
1822Q127 1822 137 1817T159 1800L376 1595Q390 1582 395 1573T400 1552Q400 1541 396 1531T384 1513T365 1500T342 1495Q331 1495 323 1498T303 1510L62 1682Z" />
<glyph unicode="&#xcd;" glyph-name="Iacute" horiz-adv-x="560" d="M204 1317Q204 1349 223 1366T280 1384Q318 1384 337 1367T356 1317V61Q356 29 337 12T280 -6Q242 -6 223 11T204 61V1317ZM397 1800Q408 1811 418 1816T443 1822Q460 1822 475 1814T501 1793T520
1764T527 1733Q527 1716 518 1705T494 1682L253 1510Q242 1502 234 1499T214 1495Q202 1495 191 1500T173 1513T161 1531T156 1552Q156 1563 161 1572T180 1595L397 1800Z" />
<glyph unicode="&#xce;" glyph-name="Icircumflex" horiz-adv-x="560" d="M204 1317Q204 1349 223 1366T280 1384Q318 1384 337 1367T356 1317V61Q356 29 337 12T280 -6Q242 -6 223 11T204 61V1317ZM87 1517Q74 1507 66 1503T47 1499Q37 1499 28 1503T12 1514T0
1531T-5 1551Q-5 1561 -1 1570T18 1593L207 1774Q227 1793 244 1803T285 1813Q308 1813 325 1803T362 1774L546 1591Q557 1580 560 1572T564 1555Q564 1544 560 1534T548 1517T530 1505T508 1501Q498 1501 489 1504T467 1518L276 1661L87 1517Z" />
<glyph unicode="&#xcf;" glyph-name="Idieresis" horiz-adv-x="560" d="M204 1317Q204 1349 223 1366T280 1384Q318 1384 337 1367T356 1317V61Q356 29 337 12T280 -6Q242 -6 223 11T204 61V1317ZM-33 1647Q-33 1670 -25 1689T-2 1723T32 1746T75 1755Q98 1755
117 1748T151 1726T172 1693T180 1651Q180 1628 172 1608T150 1574T116 1551T73 1542Q50 1542 31 1549T-3 1571T-25 1604T-33 1647ZM384 1647Q384 1670 392 1689T415 1723T450 1746T493 1755Q516 1755 535 1748T568 1726T589 1693T597 1651Q597 1628 589 1608T567
1574T534 1551T491 1542Q468 1542 448 1549T414 1571T392 1604T384 1647Z" />
<glyph unicode="&#xd0;" glyph-name="Eth" horiz-adv-x="1407" d="M107 665Q81 665 66 681T50 727Q50 756 65 772T107 789H227V1302Q227 1339 246 1358T303 1378H618Q785 1378 912 1335T1126 1207T1256 1001T1300 719Q1300 550 1252 417T1112 191T889 49T593 0H303Q266
0 247 19T227 76V665H107ZM379 130H606Q730 130 829 168T999 278T1106 457T1144 698Q1144 834 1109 937T1006 1109T838 1213T606 1248H379V789H660Q686 789 701 773T717 727Q717 698 702 682T660 665H379V130Z" />
<glyph unicode="&#xd1;" glyph-name="Ntilde" horiz-adv-x="1483" d="M204 1274Q204 1328 231 1356T313 1384Q337 1384 355 1378T388 1360T415 1332T441 1296L1018 397Q1043 359 1065 322T1104 255Q1123 221 1141 189L1145 191Q1142 227 1140 267Q1138 301 1137
344T1135 432L1133 1317Q1133 1349 1151 1366T1206 1384Q1243 1384 1261 1367T1279 1317V105Q1279 50 1252 22T1170 -6Q1146 -6 1128 0T1095 18T1068 46T1042 82L465 981Q440 1019 418 1056T379 1123Q359 1157 342 1189L338 1187Q340 1151 343 1111Q345 1077 346
1034T348 946L350 61Q350 29 332 12T277 -6Q240 -6 222 11T204 61V1274ZM612 1637Q580 1637 561 1625T528 1597T500 1569T465 1556Q447 1556 433 1568T419 1604Q419 1624 433 1651T473 1703T537 1745T620 1762Q669 1762 707 1747T779 1713T843 1680T908 1664Q940
1664 959 1676T992 1704T1020 1732T1055 1745Q1073 1745 1087 1733T1101 1697Q1101 1677 1087 1650T1047 1598T983 1556T900 1539Q851 1539 813 1554T741 1588T677 1621T612 1637Z" />
<glyph unicode="&#xd2;" glyph-name="Ograve" horiz-adv-x="1478" d="M112 671Q112 843 159 978T292 1206T494 1348T751 1397Q886 1397 999 1351T1193 1216T1320 999T1366 708Q1366 536 1319 401T1186 173T984 31T727 -18Q592 -18 479 28T285 163T158 380T112
671ZM268 691Q268 553 305 445T405 264T555 152T741 113Q840 113 925 151T1074 262T1173 442T1210 687Q1210 826 1173 933T1073 1115T923 1227T737 1266Q638 1266 553 1228T404 1117T305 937T268 691ZM493 1682Q478 1693 469 1704T460 1733Q460 1748 467 1764T485
1792T512 1813T544 1822Q558 1822 568 1817T590 1800L807 1595Q821 1582 826 1573T831 1552Q831 1541 827 1531T815 1513T796 1500T773 1495Q762 1495 754 1498T734 1510L493 1682Z" />
<glyph unicode="&#xd3;" glyph-name="Oacute" horiz-adv-x="1478" d="M112 671Q112 843 159 978T292 1206T494 1348T751 1397Q886 1397 999 1351T1193 1216T1320 999T1366 708Q1366 536 1319 401T1186 173T984 31T727 -18Q592 -18 479 28T285 163T158 380T112
671ZM268 691Q268 553 305 445T405 264T555 152T741 113Q840 113 925 151T1074 262T1173 442T1210 687Q1210 826 1173 933T1073 1115T923 1227T737 1266Q638 1266 553 1228T404 1117T305 937T268 691ZM868 1800Q879 1811 889 1816T914 1822Q931 1822 946 1814T972
1793T991 1764T998 1733Q998 1716 989 1705T965 1682L724 1510Q713 1502 705 1499T685 1495Q673 1495 662 1500T644 1513T632 1531T627 1552Q627 1563 632 1572T651 1595L868 1800Z" />
<glyph unicode="&#xd4;" glyph-name="Ocircumflex" horiz-adv-x="1478" d="M112 671Q112 843 159 978T292 1206T494 1348T751 1397Q886 1397 999 1351T1193 1216T1320 999T1366 708Q1366 536 1319 401T1186 173T984 31T727 -18Q592 -18 479 28T285 163T158 380T112
671ZM268 691Q268 553 305 445T405 264T555 152T741 113Q840 113 925 151T1074 262T1173 442T1210 687Q1210 826 1173 933T1073 1115T923 1227T737 1266Q638 1266 553 1228T404 1117T305 937T268 691ZM554 1517Q541 1507 533 1503T514 1499Q504 1499 495 1503T479
1514T467 1531T462 1551Q462 1561 466 1570T485 1593L674 1774Q694 1793 711 1803T752 1813Q775 1813 792 1803T829 1774L1013 1591Q1024 1580 1027 1572T1031 1555Q1031 1544 1027 1534T1015 1517T997 1505T975 1501Q965 1501 956 1504T934 1518L743 1661L554
1517Z" />
<glyph unicode="&#xd5;" glyph-name="Otilde" horiz-adv-x="1478" d="M112 671Q112 843 159 978T292 1206T494 1348T751 1397Q886 1397 999 1351T1193 1216T1320 999T1366 708Q1366 536 1319 401T1186 173T984 31T727 -18Q592 -18 479 28T285 163T158 380T112
671ZM268 691Q268 553 305 445T405 264T555 152T741 113Q840 113 925 151T1074 262T1173 442T1210 687Q1210 826 1173 933T1073 1115T923 1227T737 1266Q638 1266 553 1228T404 1117T305 937T268 691ZM591 1637Q559 1637 540 1625T507 1597T479 1569T444 1556Q426
1556 412 1568T398 1604Q398 1624 412 1651T452 1703T516 1745T599 1762Q648 1762 686 1747T758 1713T822 1680T887 1664Q919 1664 938 1676T971 1704T999 1732T1034 1745Q1052 1745 1066 1733T1080 1697Q1080 1677 1066 1650T1026 1598T962 1556T879 1539Q830
1539 792 1554T720 1588T656 1621T591 1637Z" />
<glyph unicode="&#xd6;" glyph-name="Odieresis" horiz-adv-x="1478" d="M112 671Q112 843 159 978T292 1206T494 1348T751 1397Q886 1397 999 1351T1193 1216T1320 999T1366 708Q1366 536 1319 401T1186 173T984 31T727 -18Q592 -18 479 28T285 163T158 380T112
671ZM268 691Q268 553 305 445T405 264T555 152T741 113Q840 113 925 151T1074 262T1173 442T1210 687Q1210 826 1173 933T1073 1115T923 1227T737 1266Q638 1266 553 1228T404 1117T305 937T268 691ZM420 1647Q420 1670 428 1689T451 1723T485 1746T528 1755Q551
1755 570 1748T604 1726T625 1693T633 1651Q633 1628 625 1608T603 1574T569 1551T526 1542Q503 1542 484 1549T450 1571T428 1604T420 1647ZM837 1647Q837 1670 845 1689T868 1723T903 1746T946 1755Q969 1755 988 1748T1021 1726T1042 1693T1050 1651Q1050 1628
1042 1608T1020 1574T987 1551T944 1542Q921 1542 901 1549T867 1571T845 1604T837 1647Z" />
<glyph unicode="&#xd7;" glyph-name="multiply" horiz-adv-x="1168" d="M214 860Q203 871 197 881T191 906Q191 919 196 931T211 952T233 967T259 973Q272 973 281 968T301 953L586 667L868 950Q879 961 889 966T912 972Q925 972 936 967T957 952T971 932T976
908Q976 895 969 884T951 861L672 582L954 300Q965 289 971 279T977 254Q977 241 972 229T957 208T935 193T909 187Q896 187 887 192T867 207L582 493L300 210Q289 199 279 194T256 188Q243 188 232 193T211 208T197 228T192 252Q192 265 199 276T217 299L496 578L214
860Z" />
<glyph unicode="&#xd8;" glyph-name="Oslash" horiz-adv-x="1502" d="M375 -128Q360 -155 354 -164T342 -180Q328 -194 304 -194Q291 -194 278 -189T255 -176T237 -155T230 -129Q230 -117 236 -105T257 -65L350 104Q296 147 252 203T177 330T129 485T112 671Q112
843 160 978T294 1206T499 1348T763 1397Q839 1397 908 1383T1037 1343L1127 1506Q1142 1533 1148 1542T1160 1558Q1174 1572 1198 1572Q1211 1572 1224 1567T1247 1554T1265 1533T1272 1507Q1272 1495 1266 1483T1245 1443L1152 1274Q1208 1230 1252 1172T1327
1043T1374 888T1390 708Q1390 536 1342 401T1208 173T1003 31T739 -18Q654 -18 585 -2T466 37L375 -128ZM968 1215Q930 1235 874 1250T749 1266Q646 1266 558 1228T406 1117T305 937T268 691Q268 540 310 428T428 241L968 1215ZM534 164Q584 138 639 126T753 113Q856
113 944 151T1096 262T1197 442T1234 687Q1234 821 1197 935T1074 1138L534 164Z" />
<glyph unicode="&#xd9;" glyph-name="Ugrave" horiz-adv-x="1419" d="M191 1317Q191 1349 210 1366T267 1384Q305 1384 324 1367T343 1317V565Q343 445 370 360T447 220T564 139T716 113Q794 113 860 138T974 216T1049 349T1076 541V1317Q1076 1349 1095 1366T1152
1384Q1190 1384 1209 1367T1228 1317V565Q1228 417 1191 308T1084 126T918 18T702 -18Q581 -18 486 16T326 120T226 295T191 541V1317ZM447 1682Q432 1693 423 1704T414 1733Q414 1748 421 1764T439 1792T466 1813T498 1822Q512 1822 522 1817T544 1800L761 1595Q775
1582 780 1573T785 1552Q785 1541 781 1531T769 1513T750 1500T727 1495Q716 1495 708 1498T688 1510L447 1682Z" />
<glyph unicode="&#xda;" glyph-name="Uacute" horiz-adv-x="1419" d="M191 1317Q191 1349 210 1366T267 1384Q305 1384 324 1367T343 1317V565Q343 445 370 360T447 220T564 139T716 113Q794 113 860 138T974 216T1049 349T1076 541V1317Q1076 1349 1095 1366T1152
1384Q1190 1384 1209 1367T1228 1317V565Q1228 417 1191 308T1084 126T918 18T702 -18Q581 -18 486 16T326 120T226 295T191 541V1317ZM868 1800Q879 1811 889 1816T914 1822Q931 1822 946 1814T972 1793T991 1764T998 1733Q998 1716 989 1705T965 1682L724 1510Q713
1502 705 1499T685 1495Q673 1495 662 1500T644 1513T632 1531T627 1552Q627 1563 632 1572T651 1595L868 1800Z" />
<glyph unicode="&#xdb;" glyph-name="Ucircumflex" horiz-adv-x="1419" d="M191 1317Q191 1349 210 1366T267 1384Q305 1384 324 1367T343 1317V565Q343 445 370 360T447 220T564 139T716 113Q794 113 860 138T974 216T1049 349T1076 541V1317Q1076 1349 1095
1366T1152 1384Q1190 1384 1209 1367T1228 1317V565Q1228 417 1191 308T1084 126T918 18T702 -18Q581 -18 486 16T326 120T226 295T191 541V1317ZM522 1517Q509 1507 501 1503T482 1499Q472 1499 463 1503T447 1514T435 1531T430 1551Q430 1561 434 1570T453 1593L642
1774Q662 1793 679 1803T720 1813Q743 1813 760 1803T797 1774L981 1591Q992 1580 995 1572T999 1555Q999 1544 995 1534T983 1517T965 1505T943 1501Q933 1501 924 1504T902 1518L711 1661L522 1517Z" />
<glyph unicode="&#xdc;" glyph-name="Udieresis" horiz-adv-x="1419" d="M191 1317Q191 1349 210 1366T267 1384Q305 1384 324 1367T343 1317V565Q343 445 370 360T447 220T564 139T716 113Q794 113 860 138T974 216T1049 349T1076 541V1317Q1076 1349 1095 1366T1152
1384Q1190 1384 1209 1367T1228 1317V565Q1228 417 1191 308T1084 126T918 18T702 -18Q581 -18 486 16T326 120T226 295T191 541V1317ZM400 1647Q400 1670 408 1689T431 1723T465 1746T508 1755Q531 1755 550 1748T584 1726T605 1693T613 1651Q613 1628 605 1608T583
1574T549 1551T506 1542Q483 1542 464 1549T430 1571T408 1604T400 1647ZM817 1647Q817 1670 825 1689T848 1723T883 1746T926 1755Q949 1755 968 1748T1001 1726T1022 1693T1030 1651Q1030 1628 1022 1608T1000 1574T967 1551T924 1542Q901 1542 881 1549T847
1571T825 1604T817 1647Z" />
<glyph unicode="&#xdd;" glyph-name="Yacute" horiz-adv-x="1094" d="M75 1237Q66 1252 60 1262T50 1281T44 1296T42 1312Q42 1328 50 1342T70 1366T97 1381T127 1387Q141 1387 151 1383T170 1370Q176 1364 183 1354T207 1315L493 829Q505 808 515 789T534 753Q544
735 552 719H556Q564 736 574 754Q582 770 593 790T618 834L891 1313Q908 1343 914 1353T927 1369Q936 1378 947 1382T971 1387Q986 1387 1000 1382T1026 1366T1045 1343T1052 1313Q1052 1298 1045 1283T1019 1239L622 590V61Q622 29 603 12T546 -6Q508 -6 489
11T470 61V590L75 1237ZM702 1800Q713 1811 723 1816T748 1822Q765 1822 780 1814T806 1793T825 1764T832 1733Q832 1716 823 1705T799 1682L558 1510Q547 1502 539 1499T519 1495Q507 1495 496 1500T478 1513T466 1531T461 1552Q461 1563 466 1572T485 1595L702
1800Z" />
<glyph unicode="&#xde;" glyph-name="Thorn" horiz-adv-x="1095" d="M356 61Q356 45 352 33T338 12T314 -1T280 -6Q242 -6 223 11T204 61V1317Q204 1349 223 1366T280 1384Q299 1384 313 1380T337 1367T351 1346T356 1317V1114H548Q669 1114 758 1087T906 1010T992
887T1021 725Q1021 630 988 551T892 415T736 326T523 294H356V61ZM536 423Q699 423 781 500T864 709Q864 840 786 912T536 984H356V423H536Z" />
<glyph unicode="&#xdf;" glyph-name="germandbls" horiz-adv-x="1175" d="M184 1078Q184 1176 212 1253T296 1384T431 1466T616 1495Q695 1495 756 1475T859 1418T921 1332T943 1224Q943 1162 924 1116T877 1032T815 965T753 905T705 847T686 781Q686 740 704
711T752 659T820 617T898 578T976 534T1044 477T1092 400T1110 295Q1110 229 1086 172T1015 72T902 6T751 -18Q702 -18 665 -13T602 0T558 18T530 38Q520 48 514 60T508 90Q508 103 512 114T524 132T542 144T565 148Q580 148 596 142T634 127T687 112T767 105Q861
105 911 153T962 278Q962 321 944 352T896 406T828 449T750 489T672 532T604 587T556 662T538 764Q538 819 557 861T604 938T666 1001T728 1061T776 1125T795 1202Q795 1280 745 1325T583 1370Q467 1370 400 1300T332 1097V61Q332 29 314 12T258 -6Q221 -6 203
11T184 61V1078Z" />
<glyph unicode="&#xe0;" glyph-name="agrave" horiz-adv-x="1053" d="M731 387Q706 394 674 399Q647 404 611 408T530 412Q393 412 328 376T262 268Q262 233 275 204T314 152T378 117T465 104Q528 104 577 127T661 178Q701 211 731 252V387ZM731 639Q731 707 717
755T673 834T596 879T481 893Q422 893 379 884T305 863T253 842T216 832Q191 832 177 847T162 888Q162 901 166 911T181 932Q194 945 224 960T299 988T397 1011T512 1020Q696 1020 787 932T879 678V291Q879 226 882 185T889 119T896 79T899 51Q899 38 895 27T882
9T862 -3T836 -8Q816 -8 801 1T774 26T756 67T743 122H740Q707 83 662 52Q624 26 568 4T438 -18Q360 -18 299 3T195 61T131 150T109 260Q109 325 136 374T216 457T342 508T512 525Q564 525 605 522T674 513Q707 508 731 501V639ZM570 1390Q566 1394 563 1398T556
1408T551 1419T549 1432Q549 1450 557 1465T579 1491T609 1509T641 1516Q649 1516 656 1514T668 1508T679 1498T690 1485L856 1242Q861 1234 866 1225T871 1206Q871 1195 867 1185T854 1167T835 1155T812 1150Q799 1150 788 1156T766 1176L570 1390Z" />
<glyph unicode="&#xe1;" glyph-name="aacute" horiz-adv-x="1053" d="M731 387Q706 394 674 399Q647 404 611 408T530 412Q393 412 328 376T262 268Q262 233 275 204T314 152T378 117T465 104Q528 104 577 127T661 178Q701 211 731 252V387ZM731 639Q731 707 717
755T673 834T596 879T481 893Q422 893 379 884T305 863T253 842T216 832Q191 832 177 847T162 888Q162 901 166 911T181 932Q194 945 224 960T299 988T397 1011T512 1020Q696 1020 787 932T879 678V291Q879 226 882 185T889 119T896 79T899 51Q899 38 895 27T882
9T862 -3T836 -8Q816 -8 801 1T774 26T756 67T743 122H740Q707 83 662 52Q624 26 568 4T438 -18Q360 -18 299 3T195 61T131 150T109 260Q109 325 136 374T216 457T342 508T512 525Q564 525 605 522T674 513Q707 508 731 501V639ZM621 1485Q631 1500 642 1508T670
1516Q685 1516 701 1510T730 1492T753 1465T762 1432Q762 1425 760 1420T755 1409T749 1399T741 1390L545 1176Q534 1163 523 1157T499 1150Q487 1150 477 1154T458 1166T445 1184T440 1206Q440 1216 445 1225T455 1242L621 1485Z" />
<glyph unicode="&#xe2;" glyph-name="acircumflex" horiz-adv-x="1053" d="M731 387Q706 394 674 399Q647 404 611 408T530 412Q393 412 328 376T262 268Q262 233 275 204T314 152T378 117T465 104Q528 104 577 127T661 178Q701 211 731 252V387ZM731 639Q731
707 717 755T673 834T596 879T481 893Q422 893 379 884T305 863T253 842T216 832Q191 832 177 847T162 888Q162 901 166 911T181 932Q194 945 224 960T299 988T397 1011T512 1020Q696 1020 787 932T879 678V291Q879 226 882 185T889 119T896 79T899 51Q899 38 895
27T882 9T862 -3T836 -8Q816 -8 801 1T774 26T756 67T743 122H740Q707 83 662 52Q624 26 568 4T438 -18Q360 -18 299 3T195 61T131 150T109 260Q109 325 136 374T216 457T342 508T512 525Q564 525 605 522T674 513Q707 508 731 501V639ZM332 1175Q321 1165 313
1161T294 1157Q284 1157 275 1161T258 1172T246 1189T241 1209Q241 1220 246 1228T260 1246L449 1455Q466 1475 483 1485T523 1495Q545 1495 562 1485T596 1456L777 1249Q785 1239 790 1231T796 1211Q796 1200 792 1190T779 1173T761 1161T739 1157Q728 1157 719
1161T697 1177L514 1340L332 1175Z" />
<glyph unicode="&#xe3;" glyph-name="atilde" horiz-adv-x="1053" d="M731 387Q706 394 674 399Q647 404 611 408T530 412Q393 412 328 376T262 268Q262 233 275 204T314 152T378 117T465 104Q528 104 577 127T661 178Q701 211 731 252V387ZM731 639Q731 707 717
755T673 834T596 879T481 893Q422 893 379 884T305 863T253 842T216 832Q191 832 177 847T162 888Q162 901 166 911T181 932Q194 945 224 960T299 988T397 1011T512 1020Q696 1020 787 932T879 678V291Q879 226 882 185T889 119T896 79T899 51Q899 38 895 27T882
9T862 -3T836 -8Q816 -8 801 1T774 26T756 67T743 122H740Q707 83 662 52Q624 26 568 4T438 -18Q360 -18 299 3T195 61T131 150T109 260Q109 325 136 374T216 457T342 508T512 525Q564 525 605 522T674 513Q707 508 731 501V639ZM380 1309Q347 1309 328 1296T294
1266T265 1237T228 1223Q218 1223 210 1226T195 1236T185 1250T181 1270Q181 1293 196 1321T238 1374T303 1416T388 1433Q437 1433 474 1417T543 1380T601 1343T658 1326Q691 1326 710 1339T744 1369T773 1398T810 1412Q820 1412 828 1409T843 1399T853 1385T857
1365Q857 1342 842 1314T800 1260T735 1219T650 1202Q600 1202 563 1218T495 1255T437 1292T380 1309Z" />
<glyph unicode="&#xe4;" glyph-name="adieresis" horiz-adv-x="1053" d="M731 387Q706 394 674 399Q647 404 611 408T530 412Q393 412 328 376T262 268Q262 233 275 204T314 152T378 117T465 104Q528 104 577 127T661 178Q701 211 731 252V387ZM731 639Q731 707
717 755T673 834T596 879T481 893Q422 893 379 884T305 863T253 842T216 832Q191 832 177 847T162 888Q162 901 166 911T181 932Q194 945 224 960T299 988T397 1011T512 1020Q696 1020 787 932T879 678V291Q879 226 882 185T889 119T896 79T899 51Q899 38 895 27T882
9T862 -3T836 -8Q816 -8 801 1T774 26T756 67T743 122H740Q707 83 662 52Q624 26 568 4T438 -18Q360 -18 299 3T195 61T131 150T109 260Q109 325 136 374T216 457T342 508T512 525Q564 525 605 522T674 513Q707 508 731 501V639ZM466 1319Q466 1342 474 1361T497
1395T531 1418T574 1427Q597 1427 616 1420T650 1398T671 1365T679 1323Q679 1300 671 1280T649 1246T615 1223T572 1214Q549 1214 530 1221T496 1243T474 1276T466 1319ZM855 1319Q855 1342 863 1361T886 1395T921 1418T964 1427Q987 1427 1006 1420T1039 1398T1060
1365T1068 1323Q1068 1300 1060 1280T1038 1246T1005 1223T962 1214Q939 1214 919 1221T885 1243T863 1276T855 1319Z" />
<glyph unicode="&#xe5;" glyph-name="aring" horiz-adv-x="1053" d="M731 387Q706 394 674 399Q647 404 611 408T530 412Q393 412 328 376T262 268Q262 233 275 204T314 152T378 117T465 104Q528 104 577 127T661 178Q701 211 731 252V387ZM731 639Q731 707 717
755T673 834T596 879T481 893Q422 893 379 884T305 863T253 842T216 832Q191 832 177 847T162 888Q162 901 166 911T181 932Q194 945 224 960T299 988T397 1011T512 1020Q696 1020 787 932T879 678V291Q879 226 882 185T889 119T896 79T899 51Q899 38 895 27T882
9T862 -3T836 -8Q816 -8 801 1T774 26T756 67T743 122H740Q707 83 662 52Q624 26 568 4T438 -18Q360 -18 299 3T195 61T131 150T109 260Q109 325 136 374T216 457T342 508T512 525Q564 525 605 522T674 513Q707 508 731 501V639ZM283 1339Q283 1386 300 1427T350
1498T426 1545T523 1563Q576 1563 619 1547T692 1502T738 1434T755 1348Q755 1301 738 1260T688 1189T612 1142T515 1124Q462 1124 419 1140T346 1185T300 1253T283 1339ZM386 1343Q386 1281 422 1245T519 1209Q580 1209 616 1245T652 1344Q652 1406 616 1442T519
1478Q458 1478 422 1442T386 1343Z" />
<glyph unicode="&#xe6;" glyph-name="ae" horiz-adv-x="1675" d="M761 252Q753 268 747 289Q741 307 736 331T726 387Q701 394 670 399Q644 404 608 408T530 412Q393 412 328 376T262 268Q262 233 275 204T315 152T380 117T470 104Q539 104 592 127T684 178Q728
211 761 252ZM726 639Q726 706 712 754T669 833T593 878T481 893Q422 893 379 884T305 863T253 842T216 832Q191 832 177 847T162 888Q162 901 166 911T181 932Q194 945 224 960T299 988T397 1011T512 1020Q585 1020 639 1006T732 969T795 914T834 847Q858 884
892 916T969 971T1065 1008T1180 1022Q1264 1022 1334 993T1455 909T1534 775T1563 596Q1563 547 1540 522T1469 497H871V487Q871 398 896 328T966 209T1075 135T1215 109Q1275 109 1316 117T1386 135T1435 153T1472 162Q1484 162 1493 158T1508 148T1518 132T1522
112Q1522 98 1517 87T1499 63Q1487 51 1461 37T1396 11T1306 -9T1192 -18Q1126 -18 1070 -6T966 30T881 85T815 155Q815 155 791 128T719 69T603 9T443 -18Q363 -18 301 3T196 61T131 150T109 260Q109 325 136 374T216 457T342 508T512 525Q563 525 602 522T669
513Q702 508 726 501V639ZM1422 610Q1408 759 1342 830T1160 901Q1111 901 1066 883T984 829T920 739T880 610H1422Z" />
<glyph unicode="&#xe7;" glyph-name="ccedilla" horiz-adv-x="916" d="M460 -7Q379 9 313 50T201 151T129 291T104 465Q104 595 141 698T245 874T404 984T606 1022Q651 1022 687 1016T749 1001T794 981T821 961Q832 950 837 938T842 909Q842 898 838 888T827 871T809
859T784 854Q769 854 753 860T714 875T661 890T586 897Q516 897 456 871T352 792T282 664T256 487Q256 397 281 327T351 209T459 135T598 109Q643 109 674 115T728 128T765 142T796 148Q807 148 816 145T832 135T842 119T846 98Q846 84 840 72T823 49Q810 36 787
24T730 3T656 -12T567 -18L543 -111Q579 -115 609 -127T660 -160T693 -210T705 -276Q705 -321 687 -360T634 -428T548 -475T431 -492Q399 -492 377 -487T342 -472T323 -452T317 -428Q317 -408 329 -395T366 -381Q378 -381 391 -382T417 -383Q457 -383 484 -376T529
-357T553 -327T561 -291Q561 -256 539 -237T467 -217H459Q436 -217 426 -203T422 -160L460 -7Z" />
<glyph unicode="&#xe8;" glyph-name="egrave" horiz-adv-x="1058" d="M254 497V487Q254 398 279 328T349 209T458 135T598 109Q658 109 699 117T769 135T818 153T855 162Q867 162 876 158T891 148T901 132T905 112Q905 98 900 87T882 63Q870 51 844 37T779 11T689
-9T575 -18Q469 -18 382 16T234 113T138 267T104 469Q104 602 139 705T235 879T381 985T563 1022Q647 1022 717 993T838 909T917 775T946 596Q946 547 923 522T852 497H254ZM805 610Q791 759 725 830T543 901Q494 901 449 883T367 829T303 739T263 610H805ZM581
1390Q577 1394 574 1398T567 1408T562 1419T560 1432Q560 1450 568 1465T590 1491T620 1509T652 1516Q660 1516 667 1514T679 1508T690 1498T701 1485L867 1242Q872 1234 877 1225T882 1206Q882 1195 878 1185T865 1167T846 1155T823 1150Q810 1150 799 1156T777
1176L581 1390Z" />
<glyph unicode="&#xe9;" glyph-name="eacute" horiz-adv-x="1058" d="M254 497V487Q254 398 279 328T349 209T458 135T598 109Q658 109 699 117T769 135T818 153T855 162Q867 162 876 158T891 148T901 132T905 112Q905 98 900 87T882 63Q870 51 844 37T779 11T689
-9T575 -18Q469 -18 382 16T234 113T138 267T104 469Q104 602 139 705T235 879T381 985T563 1022Q647 1022 717 993T838 909T917 775T946 596Q946 547 923 522T852 497H254ZM805 610Q791 759 725 830T543 901Q494 901 449 883T367 829T303 739T263 610H805ZM621
1485Q631 1500 642 1508T670 1516Q685 1516 701 1510T730 1492T753 1465T762 1432Q762 1425 760 1420T755 1409T749 1399T741 1390L545 1176Q534 1163 523 1157T499 1150Q487 1150 477 1154T458 1166T445 1184T440 1206Q440 1216 445 1225T455 1242L621 1485Z"
/>
<glyph unicode="&#xea;" glyph-name="ecircumflex" horiz-adv-x="1058" d="M254 497V487Q254 398 279 328T349 209T458 135T598 109Q658 109 699 117T769 135T818 153T855 162Q867 162 876 158T891 148T901 132T905 112Q905 98 900 87T882 63Q870 51 844 37T779
11T689 -9T575 -18Q469 -18 382 16T234 113T138 267T104 469Q104 602 139 705T235 879T381 985T563 1022Q647 1022 717 993T838 909T917 775T946 596Q946 547 923 522T852 497H254ZM805 610Q791 759 725 830T543 901Q494 901 449 883T367 829T303 739T263 610H805ZM352
1175Q341 1165 333 1161T314 1157Q304 1157 295 1161T278 1172T266 1189T261 1209Q261 1220 266 1228T280 1246L469 1455Q486 1475 503 1485T543 1495Q565 1495 582 1485T616 1456L797 1249Q805 1239 810 1231T816 1211Q816 1200 812 1190T799 1173T781 1161T759
1157Q748 1157 739 1161T717 1177L534 1340L352 1175Z" />
<glyph unicode="&#xeb;" glyph-name="edieresis" horiz-adv-x="1058" d="M254 497V487Q254 398 279 328T349 209T458 135T598 109Q658 109 699 117T769 135T818 153T855 162Q867 162 876 158T891 148T901 132T905 112Q905 98 900 87T882 63Q870 51 844 37T779
11T689 -9T575 -18Q469 -18 382 16T234 113T138 267T104 469Q104 602 139 705T235 879T381 985T563 1022Q647 1022 717 993T838 909T917 775T946 596Q946 547 923 522T852 497H254ZM805 610Q791 759 725 830T543 901Q494 901 449 883T367 829T303 739T263 610H805ZM236
1319Q236 1342 244 1361T267 1395T301 1418T344 1427Q367 1427 386 1420T420 1398T441 1365T449 1323Q449 1300 441 1280T419 1246T385 1223T342 1214Q319 1214 300 1221T266 1243T244 1276T236 1319ZM625 1319Q625 1342 633 1361T656 1395T691 1418T734 1427Q757
1427 776 1420T809 1398T830 1365T838 1323Q838 1300 830 1280T808 1246T775 1223T732 1214Q709 1214 689 1221T655 1243T633 1276T625 1319Z" />
<glyph unicode="&#xec;" glyph-name="igrave" horiz-adv-x="516" d="M79 1390Q75 1394 72 1398T65 1408T60 1419T58 1432Q58 1450 66 1465T88 1491T118 1509T150 1516Q158 1516 165 1514T177 1508T188 1498T199 1485L365 1242Q370 1234 375 1225T380 1206Q380
1195 376 1185T363 1167T344 1155T321 1150Q308 1150 297 1156T275 1176L79 1390ZM184 943Q184 975 202 992T258 1010Q295 1010 313 993T332 943V61Q332 29 314 12T258 -6Q221 -6 203 11T184 61V943Z" />
<glyph unicode="&#xed;" glyph-name="iacute" horiz-adv-x="516" d="M309 1485Q319 1500 330 1508T358 1516Q373 1516 389 1510T418 1492T441 1465T450 1432Q450 1425 448 1420T443 1409T437 1399T429 1390L233 1176Q222 1163 211 1157T187 1150Q175 1150 165
1154T146 1166T133 1184T128 1206Q128 1216 133 1225T143 1242L309 1485ZM184 943Q184 975 202 992T258 1010Q295 1010 313 993T332 943V61Q332 29 314 12T258 -6Q221 -6 203 11T184 61V943Z" />
<glyph unicode="&#xee;" glyph-name="icircumflex" horiz-adv-x="516" d="M184 943Q184 975 202 992T258 1010Q295 1010 313 993T332 943V61Q332 29 314 12T258 -6Q221 -6 203 11T184 61V943ZM101 1184Q87 1170 78 1164T54 1157Q43 1157 34 1161T18 1172T6 1188T2
1207Q2 1219 8 1229T24 1251L190 1456Q205 1475 222 1485T264 1495Q276 1495 286 1493T306 1485T322 1473T337 1457L498 1250Q507 1239 512 1230T518 1210Q518 1199 514 1190T501 1173T483 1161T461 1157Q448 1157 438 1163T413 1183L255 1340L101 1184Z" />
<glyph unicode="&#xef;" glyph-name="idieresis" horiz-adv-x="516" d="M184 943Q184 975 202 992T258 1010Q295 1010 313 993T332 943V61Q332 29 314 12T258 -6Q221 -6 203 11T184 61V943ZM-28 1319Q-28 1342 -20 1361T3 1395T37 1418T80 1427Q103 1427 122 1420T156
1398T177 1365T185 1323Q185 1300 177 1280T155 1246T121 1223T78 1214Q55 1214 36 1221T2 1243T-20 1276T-28 1319ZM333 1319Q333 1342 341 1361T364 1395T399 1418T442 1427Q465 1427 484 1420T517 1398T538 1365T546 1323Q546 1300 538 1280T516 1246T483 1223T440
1214Q417 1214 397 1221T363 1243T341 1276T333 1319Z" />
<glyph unicode="&#xf0;" glyph-name="eth" horiz-adv-x="1139" d="M728 1324Q799 1262 855 1185T950 1017T1009 822T1030 604Q1030 444 995 327T897 134T746 20T552 -18Q453 -18 371 15T229 112T137 268T104 478Q104 563 120 636T168 770T244 877T346 956T471
1005T616 1022Q659 1022 691 1017T747 1007Q773 1001 793 993Q760 1062 714 1124T612 1233L463 1115Q444 1100 425 1100Q413 1100 402 1105T383 1119T369 1139T364 1164Q364 1178 370 1189T392 1212L512 1306Q476 1327 448 1339T399 1360T364 1373T340 1388Q333
1395 330 1404T326 1425Q326 1439 330 1450T344 1470T366 1484T395 1489Q414 1489 442 1482T502 1462T568 1433T629 1398L772 1511Q791 1526 810 1526Q822 1526 833 1521T852 1507T866 1487T871 1462Q871 1448 865 1437T843 1414L728 1324ZM882 571Q882 643 874
709T850 837Q824 854 787 867Q755 878 709 887T602 897Q526 897 463 871T353 794T282 669T256 499Q256 401 279 328T343 205T442 132T567 107Q633 107 690 133T790 216T857 361T882 571Z" />
<glyph unicode="&#xf1;" glyph-name="ntilde" horiz-adv-x="1190" d="M184 950Q184 979 200 995T246 1012Q261 1012 272 1008T292 994T305 971T313 938L323 862H326Q356 907 402 942Q421 957 446 971T501 997T566 1015T643 1022Q730 1022 799 996T916 918T990
790T1016 612V61Q1016 29 998 12T942 -6Q905 -6 887 11T868 61V588Q868 669 851 727T801 823T721 879T612 897Q577 897 547 889T490 869T442 840T402 806Q361 766 332 715V61Q332 29 314 12T258 -6Q221 -6 203 11T184 61V950ZM459 1309Q426 1309 407 1296T373 1266T344
1237T307 1223Q297 1223 289 1226T274 1236T264 1250T260 1270Q260 1293 275 1321T317 1374T382 1416T467 1433Q516 1433 553 1417T622 1380T680 1343T737 1326Q770 1326 789 1339T823 1369T852 1398T889 1412Q899 1412 907 1409T922 1399T932 1385T936 1365Q936
1342 921 1314T879 1260T814 1219T729 1202Q679 1202 642 1218T574 1255T516 1292T459 1309Z" />
<glyph unicode="&#xf2;" glyph-name="ograve" horiz-adv-x="1163" d="M104 484Q104 611 139 711T239 880T394 985T594 1022Q694 1022 779 987T926 885T1024 727T1059 520Q1059 393 1024 293T924 124T769 19T569 -18Q469 -18 384 17T237 119T139 277T104 484ZM256
504Q256 409 281 336T351 211T456 134T584 107Q653 107 712 132T815 208T882 331T907 500Q907 594 882 668T812 793T708 870T580 897Q510 897 451 872T349 796T281 673T256 504ZM627 1390Q623 1394 620 1398T613 1408T608 1419T606 1432Q606 1450 614 1465T636
1491T666 1509T698 1516Q706 1516 713 1514T725 1508T736 1498T747 1485L913 1242Q918 1234 923 1225T928 1206Q928 1195 924 1185T911 1167T892 1155T869 1150Q856 1150 845 1156T823 1176L627 1390Z" />
<glyph unicode="&#xf3;" glyph-name="oacute" horiz-adv-x="1163" d="M104 484Q104 611 139 711T239 880T394 985T594 1022Q694 1022 779 987T926 885T1024 727T1059 520Q1059 393 1024 293T924 124T769 19T569 -18Q469 -18 384 17T237 119T139 277T104 484ZM256
504Q256 409 281 336T351 211T456 134T584 107Q653 107 712 132T815 208T882 331T907 500Q907 594 882 668T812 793T708 870T580 897Q510 897 451 872T349 796T281 673T256 504ZM642 1485Q652 1500 663 1508T691 1516Q706 1516 722 1510T751 1492T774 1465T783
1432Q783 1425 781 1420T776 1409T770 1399T762 1390L566 1176Q555 1163 544 1157T520 1150Q508 1150 498 1154T479 1166T466 1184T461 1206Q461 1216 466 1225T476 1242L642 1485Z" />
<glyph unicode="&#xf4;" glyph-name="ocircumflex" horiz-adv-x="1163" d="M104 484Q104 611 139 711T239 880T394 985T594 1022Q694 1022 779 987T926 885T1024 727T1059 520Q1059 393 1024 293T924 124T769 19T569 -18Q469 -18 384 17T237 119T139 277T104 484ZM256
504Q256 409 281 336T351 211T456 134T584 107Q653 107 712 132T815 208T882 331T907 500Q907 594 882 668T812 793T708 870T580 897Q510 897 451 872T349 796T281 673T256 504ZM396 1175Q385 1165 377 1161T358 1157Q348 1157 339 1161T322 1172T310 1189T305
1209Q305 1220 310 1228T324 1246L513 1455Q530 1475 547 1485T587 1495Q609 1495 626 1485T660 1456L841 1249Q849 1239 854 1231T860 1211Q860 1200 856 1190T843 1173T825 1161T803 1157Q792 1157 783 1161T761 1177L578 1340L396 1175Z" />
<glyph unicode="&#xf5;" glyph-name="otilde" horiz-adv-x="1163" d="M104 484Q104 611 139 711T239 880T394 985T594 1022Q694 1022 779 987T926 885T1024 727T1059 520Q1059 393 1024 293T924 124T769 19T569 -18Q469 -18 384 17T237 119T139 277T104 484ZM256
504Q256 409 281 336T351 211T456 134T584 107Q653 107 712 132T815 208T882 331T907 500Q907 594 882 668T812 793T708 870T580 897Q510 897 451 872T349 796T281 673T256 504ZM443 1309Q410 1309 391 1296T357 1266T328 1237T291 1223Q281 1223 273 1226T258
1236T248 1250T244 1270Q244 1293 259 1321T301 1374T366 1416T451 1433Q500 1433 537 1417T606 1380T664 1343T721 1326Q754 1326 773 1339T807 1369T836 1398T873 1412Q883 1412 891 1409T906 1399T916 1385T920 1365Q920 1342 905 1314T863 1260T798 1219T713
1202Q663 1202 626 1218T558 1255T500 1292T443 1309Z" />
<glyph unicode="&#xf6;" glyph-name="odieresis" horiz-adv-x="1163" d="M104 484Q104 611 139 711T239 880T394 985T594 1022Q694 1022 779 987T926 885T1024 727T1059 520Q1059 393 1024 293T924 124T769 19T569 -18Q469 -18 384 17T237 119T139 277T104 484ZM256
504Q256 409 281 336T351 211T456 134T584 107Q653 107 712 132T815 208T882 331T907 500Q907 594 882 668T812 793T708 870T580 897Q510 897 451 872T349 796T281 673T256 504ZM278 1319Q278 1342 286 1361T309 1395T343 1418T386 1427Q409 1427 428 1420T462
1398T483 1365T491 1323Q491 1300 483 1280T461 1246T427 1223T384 1214Q361 1214 342 1221T308 1243T286 1276T278 1319ZM667 1319Q667 1342 675 1361T698 1395T733 1418T776 1427Q799 1427 818 1420T851 1398T872 1365T880 1323Q880 1300 872 1280T850 1246T817
1223T774 1214Q751 1214 731 1221T697 1243T675 1276T667 1319Z" />
<glyph unicode="&#xf7;" glyph-name="divide" horiz-adv-x="1168" d="M955 643Q981 643 997 626T1013 582Q1013 555 997 538T955 521H212Q186 521 171 538T155 582Q155 609 170 626T212 643H955ZM488 277Q488 298 495 315T515 345T545 365T584 373Q605 373 622
366T653 346T673 316T680 277Q680 256 673 239T653 209T623 189T584 181Q563 181 546 188T516 208T496 238T488 277ZM488 887Q488 908 495 925T515 955T545 975T584 983Q605 983 622 976T652 956T672 926T680 887Q680 866 673 849T653 819T623 799T584 791Q563
791 546 798T515 818T495 848T488 887Z" />
<glyph unicode="&#xf8;" glyph-name="oslash" horiz-adv-x="1163" d="M261 94Q187 160 146 259T104 484Q104 611 139 711T239 880T394 985T594 1022Q648 1022 699 1011T793 980L885 1134Q898 1156 911 1164T942 1173Q955 1173 967 1168T990 1155T1006 1135T1012
1110Q1012 1102 1009 1093T998 1070L901 909Q975 843 1017 745T1059 520Q1059 393 1024 293T924 124T769 19T569 -18Q515 -18 465 -8T370 23L280 -127Q267 -149 254 -157T223 -166Q210 -166 198 -161T175 -148T159 -128T153 -103Q153 -95 156 -86T167 -63L261 94ZM439
142Q473 124 509 116T584 107Q653 107 712 132T815 208T882 331T907 500Q907 589 885 660T823 783L439 142ZM724 862Q695 878 659 887T580 897Q510 897 451 872T349 796T281 673T256 504Q256 415 278 344T340 221L724 862Z" />
<glyph unicode="&#xf9;" glyph-name="ugrave" horiz-adv-x="1182" d="M174 943Q174 975 192 992T248 1010Q286 1010 304 993T322 943V416Q322 255 388 181T570 107Q605 107 635 114T692 135T740 164T780 198Q821 238 850 289V943Q850 975 868 992T924 1010Q962
1010 980 993T998 943V54Q998 25 982 9T936 -8Q921 -8 910 -4T890 10T877 33T869 66L859 142H856Q826 97 780 62Q760 47 736 33T681 7T616 -11T539 -18Q455 -18 388 8T273 86T200 214T174 392V943ZM616 1390Q612 1394 609 1398T602 1408T597 1419T595 1432Q595
1450 603 1465T625 1491T655 1509T687 1516Q695 1516 702 1514T714 1508T725 1498T736 1485L902 1242Q907 1234 912 1225T917 1206Q917 1195 913 1185T900 1167T881 1155T858 1150Q845 1150 834 1156T812 1176L616 1390Z" />
<glyph unicode="&#xfa;" glyph-name="uacute" horiz-adv-x="1182" d="M174 943Q174 975 192 992T248 1010Q286 1010 304 993T322 943V416Q322 255 388 181T570 107Q605 107 635 114T692 135T740 164T780 198Q821 238 850 289V943Q850 975 868 992T924 1010Q962
1010 980 993T998 943V54Q998 25 982 9T936 -8Q921 -8 910 -4T890 10T877 33T869 66L859 142H856Q826 97 780 62Q760 47 736 33T681 7T616 -11T539 -18Q455 -18 388 8T273 86T200 214T174 392V943ZM666 1485Q676 1500 687 1508T715 1516Q730 1516 746 1510T775
1492T798 1465T807 1432Q807 1425 805 1420T800 1409T794 1399T786 1390L590 1176Q579 1163 568 1157T544 1150Q532 1150 522 1154T503 1166T490 1184T485 1206Q485 1216 490 1225T500 1242L666 1485Z" />
<glyph unicode="&#xfb;" glyph-name="ucircumflex" horiz-adv-x="1182" d="M174 943Q174 975 192 992T248 1010Q286 1010 304 993T322 943V416Q322 255 388 181T570 107Q605 107 635 114T692 135T740 164T780 198Q821 238 850 289V943Q850 975 868 992T924 1010Q962
1010 980 993T998 943V54Q998 25 982 9T936 -8Q921 -8 910 -4T890 10T877 33T869 66L859 142H856Q826 97 780 62Q760 47 736 33T681 7T616 -11T539 -18Q455 -18 388 8T273 86T200 214T174 392V943ZM405 1175Q394 1165 386 1161T367 1157Q357 1157 348 1161T331
1172T319 1189T314 1209Q314 1220 319 1228T333 1246L522 1455Q539 1475 556 1485T596 1495Q618 1495 635 1485T669 1456L850 1249Q858 1239 863 1231T869 1211Q869 1200 865 1190T852 1173T834 1161T812 1157Q801 1157 792 1161T770 1177L587 1340L405 1175Z"
/>
<glyph unicode="&#xfc;" glyph-name="udieresis" horiz-adv-x="1182" d="M174 943Q174 975 192 992T248 1010Q286 1010 304 993T322 943V416Q322 255 388 181T570 107Q605 107 635 114T692 135T740 164T780 198Q821 238 850 289V943Q850 975 868 992T924 1010Q962
1010 980 993T998 943V54Q998 25 982 9T936 -8Q921 -8 910 -4T890 10T877 33T869 66L859 142H856Q826 97 780 62Q760 47 736 33T681 7T616 -11T539 -18Q455 -18 388 8T273 86T200 214T174 392V943ZM284 1319Q284 1342 292 1361T315 1395T349 1418T392 1427Q415
1427 434 1420T468 1398T489 1365T497 1323Q497 1300 489 1280T467 1246T433 1223T390 1214Q367 1214 348 1221T314 1243T292 1276T284 1319ZM673 1319Q673 1342 681 1361T704 1395T739 1418T782 1427Q805 1427 824 1420T857 1398T878 1365T886 1323Q886 1300 878
1280T856 1246T823 1223T780 1214Q757 1214 737 1221T703 1243T681 1276T673 1319Z" />
<glyph unicode="&#xfd;" glyph-name="yacute" horiz-adv-x="981" d="M68 883Q57 911 54 922T50 943Q50 960 58 973T78 995T104 1008T132 1013Q148 1013 158 1009T177 996Q184 989 189 977T206 937L442 313Q455 278 464 250T481 202Q489 178 494 161H498Q503 178
511 202Q517 222 526 250T549 313L783 942Q791 965 796 976T810 996Q818 1004 830 1008T855 1013Q868 1013 881 1009T906 998T924 978T931 949Q931 941 928 931T915 895L588 68Q525 -90 464 -196T340 -365T210 -456T70 -483Q38 -483 12 -476T-29 -455Q-47 -437
-47 -408Q-47 -382 -32 -367T11 -352Q20 -352 28 -352T44 -354T60 -355T77 -356Q129 -356 175 -332T262 -262T341 -148T414 7L68 883ZM596 1485Q606 1500 617 1508T645 1516Q660 1516 676 1510T705 1492T728 1465T737 1432Q737 1425 735 1420T730 1409T724 1399T716
1390L520 1176Q509 1163 498 1157T474 1150Q462 1150 452 1154T433 1166T420 1184T415 1206Q415 1216 420 1225T430 1242L596 1485Z" />
<glyph unicode="&#xfe;" glyph-name="thorn" horiz-adv-x="1153" d="M332 147Q355 134 387 124Q414 116 453 109T547 102Q625 102 689 128T800 206T871 334T897 510Q897 613 877 686T820 807T730 875T612 897Q577 897 547 889T490 869T442 840T402 806Q361 766
332 715V147ZM184 1416Q184 1448 202 1465T258 1483Q295 1483 313 1466T332 1416V997Q332 964 331 934T327 868H330Q361 911 407 945Q426 959 450 973T504 998T568 1015T643 1022Q734 1022 808 991T936 899T1019 745T1049 528Q1049 398 1013 297T909 125T744 19T526
-18Q485 -18 450 -14T389 -5Q358 1 332 9L329 8Q331 -24 331 -58T332 -129V-412Q332 -444 314 -461T258 -479Q221 -479 203 -462T184 -412V1416Z" />
<glyph unicode="&#xff;" glyph-name="ydieresis" horiz-adv-x="981" d="M68 883Q57 911 54 922T50 943Q50 960 58 973T78 995T104 1008T132 1013Q148 1013 158 1009T177 996Q184 989 189 977T206 937L442 313Q455 278 464 250T481 202Q489 178 494 161H498Q503
178 511 202Q517 222 526 250T549 313L783 942Q791 965 796 976T810 996Q818 1004 830 1008T855 1013Q868 1013 881 1009T906 998T924 978T931 949Q931 941 928 931T915 895L588 68Q525 -90 464 -196T340 -365T210 -456T70 -483Q38 -483 12 -476T-29 -455Q-47 -437
-47 -408Q-47 -382 -32 -367T11 -352Q20 -352 28 -352T44 -354T60 -355T77 -356Q129 -356 175 -332T262 -262T341 -148T414 7L68 883ZM451 1319Q451 1342 459 1361T482 1395T516 1418T559 1427Q582 1427 601 1420T635 1398T656 1365T664 1323Q664 1300 656 1280T634
1246T600 1223T557 1214Q534 1214 515 1221T481 1243T459 1276T451 1319ZM840 1319Q840 1342 848 1361T871 1395T906 1418T949 1427Q972 1427 991 1420T1024 1398T1045 1365T1053 1323Q1053 1300 1045 1280T1023 1246T990 1223T947 1214Q924 1214 904 1221T870
1243T848 1276T840 1319Z" />
<glyph unicode="&#x100;" glyph-name="Amacron" horiz-adv-x="1224" d="M219 76Q208 45 202 31T186 7Q179 0 167 -4T140 -9Q126 -9 112 -5T87 8T68 29T60 58Q60 68 62 79T76 119L500 1296Q504 1307 508 1316T516 1332T525 1346T536 1358Q549 1371 567 1377T611
1384Q637 1384 655 1378T686 1358Q692 1352 696 1346T705 1333T714 1316T722 1296L1148 120Q1159 91 1161 80T1164 61Q1164 44 1156 31T1136 9T1109 -4T1079 -9Q1065 -9 1053 -5T1033 8Q1025 16 1019 29T1002 73L893 382H323L219 76ZM849 509L672 1014Q658 1056
646 1092T625 1156Q614 1188 606 1215H602Q594 1188 584 1155Q576 1127 564 1091T538 1014L366 509H849ZM857 1706Q886 1706 900 1691T914 1647Q914 1618 900 1603T857 1588H356Q327 1588 313 1603T299 1647Q299 1676 313 1691T356 1706H857Z" />
<glyph unicode="&#x101;" glyph-name="amacron" horiz-adv-x="1053" d="M731 387Q706 394 674 399Q647 404 611 408T530 412Q393 412 328 376T262 268Q262 233 275 204T314 152T378 117T465 104Q528 104 577 127T661 178Q701 211 731 252V387ZM731 639Q731 707
717 755T673 834T596 879T481 893Q422 893 379 884T305 863T253 842T216 832Q191 832 177 847T162 888Q162 901 166 911T181 932Q194 945 224 960T299 988T397 1011T512 1020Q696 1020 787 932T879 678V291Q879 226 882 185T889 119T896 79T899 51Q899 38 895 27T882
9T862 -3T836 -8Q816 -8 801 1T774 26T756 67T743 122H740Q707 83 662 52Q624 26 568 4T438 -18Q360 -18 299 3T195 61T131 150T109 260Q109 325 136 374T216 457T342 508T512 525Q564 525 605 522T674 513Q707 508 731 501V639ZM766 1377Q795 1377 809 1363T823
1319Q823 1290 809 1276T766 1261H274Q245 1261 231 1275T217 1319Q217 1348 231 1362T274 1377H766Z" />
<glyph unicode="&#x102;" glyph-name="Abreve" horiz-adv-x="1224" d="M219 76Q208 45 202 31T186 7Q179 0 167 -4T140 -9Q126 -9 112 -5T87 8T68 29T60 58Q60 68 62 79T76 119L500 1296Q504 1307 508 1316T516 1332T525 1346T536 1358Q549 1371 567 1377T611
1384Q637 1384 655 1378T686 1358Q692 1352 696 1346T705 1333T714 1316T722 1296L1148 120Q1159 91 1161 80T1164 61Q1164 44 1156 31T1136 9T1109 -4T1079 -9Q1065 -9 1053 -5T1033 8Q1025 16 1019 29T1002 73L893 382H323L219 76ZM849 509L672 1014Q658 1056
646 1092T625 1156Q614 1188 606 1215H602Q594 1188 584 1155Q576 1127 564 1091T538 1014L366 509H849ZM334 1753Q334 1784 350 1799T393 1815Q418 1815 432 1802T450 1764Q461 1698 500 1665T609 1632Q679 1632 715 1666T762 1764Q767 1789 780 1802T818 1815Q845
1815 861 1800T878 1753Q878 1704 857 1660T800 1581T713 1527T603 1507Q540 1507 490 1527T406 1581T353 1659T334 1753Z" />
<glyph unicode="&#x103;" glyph-name="abreve" horiz-adv-x="1053" d="M731 387Q706 394 674 399Q647 404 611 408T530 412Q393 412 328 376T262 268Q262 233 275 204T314 152T378 117T465 104Q528 104 577 127T661 178Q701 211 731 252V387ZM731 639Q731 707
717 755T673 834T596 879T481 893Q422 893 379 884T305 863T253 842T216 832Q191 832 177 847T162 888Q162 901 166 911T181 932Q194 945 224 960T299 988T397 1011T512 1020Q696 1020 787 932T879 678V291Q879 226 882 185T889 119T896 79T899 51Q899 38 895 27T882
9T862 -3T836 -8Q816 -8 801 1T774 26T756 67T743 122H740Q707 83 662 52Q624 26 568 4T438 -18Q360 -18 299 3T195 61T131 150T109 260Q109 325 136 374T216 457T342 508T512 525Q564 525 605 522T674 513Q707 508 731 501V639ZM253 1407Q253 1434 269 1449T311
1464Q333 1464 347 1452T365 1413Q373 1346 409 1308T520 1269Q557 1269 584 1280T629 1310T658 1355T671 1413Q673 1439 688 1451T725 1464Q751 1464 767 1449T783 1407Q783 1353 765 1306T711 1224T627 1169T514 1149Q460 1149 413 1166T330 1216T274 1297T253
1407Z" />
<glyph unicode="&#x104;" glyph-name="Aogonek" horiz-adv-x="1224" d="M849 509L672 1014Q658 1056 646 1092T625 1156Q614 1188 606 1215H602Q594 1188 584 1155Q576 1127 564 1091T538 1014L366 509H849ZM219 76Q208 45 202 31T186 7Q179 0 167 -4T140 -9Q126
-9 112 -5T87 8T68 29T60 58Q60 63 60 67T62 79T67 95T76 119L500 1296Q504 1307 508 1316T516 1332T525 1346T536 1358Q549 1371 567 1377T611 1384Q637 1384 655 1378T686 1358Q692 1352 696 1346T705 1333T714 1316T722 1296L1148 120Q1159 91 1161 80T1164
61Q1164 44 1156 30T1135 3Q1097 -34 1062 -69T1001 -140T959 -211T943 -285Q943 -330 964 -352T1028 -374Q1047 -374 1060 -372T1083 -366T1103 -360T1124 -357Q1145 -357 1156 -370T1168 -403Q1168 -415 1164 -425T1148 -447Q1130 -465 1091 -478T998 -492Q952
-492 916 -479T854 -443T815 -387T801 -313Q801 -265 822 -218T877 -128T950 -49T1027 15Q1022 21 1017 32T1002 73L893 382H323L219 76Z" />
<glyph unicode="&#x105;" glyph-name="aogonek" horiz-adv-x="1053" d="M731 387Q706 394 674 399Q647 404 611 408T530 412Q393 412 328 376T262 268Q262 233 275 204T314 152T378 117T465 104Q528 104 577 127T661 178Q701 211 731 252V387ZM731 639Q731 707
717 755T673 834T596 879T481 893Q422 893 379 884T305 863T253 842T216 832Q191 832 177 847T162 888Q162 901 166 911T181 932Q194 945 224 960T299 988T397 1011T512 1020Q696 1020 787 932T879 678V291Q879 226 882 185T889 119T896 79T899 51Q899 35 891 21T859
-17Q829 -47 798 -79T741 -146T700 -217T684 -290Q684 -332 704 -353T759 -374Q778 -374 791 -372T814 -366T834 -360T855 -357Q876 -357 887 -370T899 -403Q899 -415 895 -425T879 -447Q861 -465 822 -478T729 -492Q685 -492 651 -480T592 -444T555 -389T542 -318Q542
-269 564 -220T622 -127T698 -44T778 22Q766 37 758 62T743 122H740Q707 83 662 52Q624 26 568 4T438 -18Q360 -18 299 3T195 61T131 150T109 260Q109 325 136 374T216 457T342 508T512 525Q564 525 605 522T674 513Q707 508 731 501V639Z" />
<glyph unicode="&#x106;" glyph-name="Cacute" horiz-adv-x="1195" d="M112 649Q112 826 160 965T295 1199T501 1345T763 1395Q827 1395 879 1385T971 1360T1037 1329T1076 1300Q1090 1286 1095 1273T1101 1243Q1101 1230 1097 1219T1084 1201T1065 1189T1039
1184Q1019 1184 997 1196T942 1224T861 1251T738 1264Q639 1264 554 1226T405 1112T305 926T268 670Q268 538 304 436T404 262T558 154T753 117Q822 117 870 129T953 155T1010 181T1052 193Q1064 193 1074 189T1090 178T1101 160T1105 139Q1105 124 1100 112T1081
87Q1065 71 1034 53T957 20T854 -6T726 -16Q591 -16 478 30T284 162T158 372T112 649ZM839 1800Q850 1811 860 1816T885 1822Q902 1822 917 1814T943 1793T962 1764T969 1733Q969 1716 960 1705T936 1682L695 1510Q684 1502 676 1499T656 1495Q644 1495 633 1500T615
1513T603 1531T598 1552Q598 1563 603 1572T622 1595L839 1800Z" />
<glyph unicode="&#x107;" glyph-name="cacute" horiz-adv-x="916" d="M104 465Q104 595 141 698T245 874T404 984T606 1022Q651 1022 687 1016T749 1001T794 981T821 961Q832 950 837 938T842 909Q842 898 838 888T827 871T809 859T784 854Q769 854 753 860T714
875T661 890T586 897Q516 897 456 871T352 792T282 664T256 487Q256 397 281 327T351 209T459 135T598 109Q643 109 674 115T728 128T765 142T796 148Q807 148 816 145T832 135T842 119T846 98Q846 84 840 72T823 49Q810 36 787 24T731 3T658 -12T569 -18Q465 -18
380 16T233 113T138 265T104 465ZM615 1485Q625 1500 636 1508T664 1516Q679 1516 695 1510T724 1492T747 1465T756 1432Q756 1425 754 1420T749 1409T743 1399T735 1390L539 1176Q528 1163 517 1157T493 1150Q481 1150 471 1154T452 1166T439 1184T434 1206Q434
1216 439 1225T449 1242L615 1485Z" />
<glyph unicode="&#x108;" glyph-name="Ccircumflex" horiz-adv-x="1195" d="M112 649Q112 826 160 965T295 1199T501 1345T763 1395Q827 1395 879 1385T971 1360T1037 1329T1076 1300Q1090 1286 1095 1273T1101 1243Q1101 1230 1097 1219T1084 1201T1065 1189T1039
1184Q1019 1184 997 1196T942 1224T861 1251T738 1264Q639 1264 554 1226T405 1112T305 926T268 670Q268 538 304 436T404 262T558 154T753 117Q822 117 870 129T953 155T1010 181T1052 193Q1064 193 1074 189T1090 178T1101 160T1105 139Q1105 124 1100 112T1081
87Q1065 71 1034 53T957 20T854 -6T726 -16Q591 -16 478 30T284 162T158 372T112 649ZM509 1517Q496 1507 488 1503T469 1499Q459 1499 450 1503T434 1514T422 1531T417 1551Q417 1561 421 1570T440 1593L629 1774Q649 1793 666 1803T707 1813Q730 1813 747 1803T784
1774L968 1591Q979 1580 982 1572T986 1555Q986 1544 982 1534T970 1517T952 1505T930 1501Q920 1501 911 1504T889 1518L698 1661L509 1517Z" />
<glyph unicode="&#x109;" glyph-name="ccircumflex" horiz-adv-x="916" d="M104 465Q104 595 141 698T245 874T404 984T606 1022Q651 1022 687 1016T749 1001T794 981T821 961Q832 950 837 938T842 909Q842 898 838 888T827 871T809 859T784 854Q769 854 753 860T714
875T661 890T586 897Q516 897 456 871T352 792T282 664T256 487Q256 397 281 327T351 209T459 135T598 109Q643 109 674 115T728 128T765 142T796 148Q807 148 816 145T832 135T842 119T846 98Q846 84 840 72T823 49Q810 36 787 24T731 3T658 -12T569 -18Q465 -18
380 16T233 113T138 265T104 465ZM350 1175Q339 1165 331 1161T312 1157Q302 1157 293 1161T276 1172T264 1189T259 1209Q259 1220 264 1228T278 1246L467 1455Q484 1475 501 1485T541 1495Q563 1495 580 1485T614 1456L795 1249Q803 1239 808 1231T814 1211Q814
1200 810 1190T797 1173T779 1161T757 1157Q746 1157 737 1161T715 1177L532 1340L350 1175Z" />
<glyph unicode="&#x10a;" glyph-name="Cdotaccent" horiz-adv-x="1195" d="M112 649Q112 826 160 965T295 1199T501 1345T763 1395Q827 1395 879 1385T971 1360T1037 1329T1076 1300Q1090 1286 1095 1273T1101 1243Q1101 1230 1097 1219T1084 1201T1065 1189T1039
1184Q1019 1184 997 1196T942 1224T861 1251T738 1264Q639 1264 554 1226T405 1112T305 926T268 670Q268 538 304 436T404 262T558 154T753 117Q822 117 870 129T953 155T1010 181T1052 193Q1064 193 1074 189T1090 178T1101 160T1105 139Q1105 124 1100 112T1081
87Q1065 71 1034 53T957 20T854 -6T726 -16Q591 -16 478 30T284 162T158 372T112 649ZM604 1647Q604 1670 612 1689T635 1723T669 1746T712 1755Q735 1755 754 1748T787 1726T808 1693T816 1651Q816 1628 808 1608T786 1574T753 1551T710 1542Q687 1542 668 1549T634
1571T612 1604T604 1647Z" />
<glyph unicode="&#x10b;" glyph-name="cdotaccent" horiz-adv-x="916" d="M104 465Q104 595 141 698T245 874T404 984T606 1022Q651 1022 687 1016T749 1001T794 981T821 961Q832 950 837 938T842 909Q842 898 838 888T827 871T809 859T784 854Q769 854 753 860T714
875T661 890T586 897Q516 897 456 871T352 792T282 664T256 487Q256 397 281 327T351 209T459 135T598 109Q643 109 674 115T728 128T765 142T796 148Q807 148 816 145T832 135T842 119T846 98Q846 84 840 72T823 49Q810 36 787 24T731 3T658 -12T569 -18Q465 -18
380 16T233 113T138 265T104 465ZM433 1319Q433 1342 441 1361T464 1395T498 1418T541 1427Q564 1427 583 1420T616 1398T637 1365T645 1323Q645 1300 637 1280T615 1246T582 1223T539 1214Q516 1214 497 1221T463 1243T441 1276T433 1319Z" />
<glyph unicode="&#x10c;" glyph-name="Ccaron" horiz-adv-x="1195" d="M112 649Q112 826 160 965T295 1199T501 1345T763 1395Q827 1395 879 1385T971 1360T1037 1329T1076 1300Q1090 1286 1095 1273T1101 1243Q1101 1230 1097 1219T1084 1201T1065 1189T1039
1184Q1019 1184 997 1196T942 1224T861 1251T738 1264Q639 1264 554 1226T405 1112T305 926T268 670Q268 538 304 436T404 262T558 154T753 117Q822 117 870 129T953 155T1010 181T1052 193Q1064 193 1074 189T1090 178T1101 160T1105 139Q1105 124 1100 112T1081
87Q1065 71 1034 53T957 20T854 -6T726 -16Q591 -16 478 30T284 162T158 372T112 649ZM898 1797Q911 1807 919 1811T938 1815Q948 1815 957 1811T973 1800T985 1783T990 1763Q990 1753 986 1744T967 1721L778 1540Q758 1521 741 1511T700 1501Q677 1501 660 1511T623
1540L439 1723Q428 1734 425 1742T421 1759Q421 1770 425 1780T437 1797T455 1809T477 1813Q487 1813 496 1810T518 1796L709 1653L898 1797Z" />
<glyph unicode="&#x10d;" glyph-name="ccaron" horiz-adv-x="916" d="M104 465Q104 595 141 698T245 874T404 984T606 1022Q651 1022 687 1016T749 1001T794 981T821 961Q832 950 837 938T842 909Q842 898 838 888T827 871T809 859T784 854Q769 854 753 860T714
875T661 890T586 897Q516 897 456 871T352 792T282 664T256 487Q256 397 281 327T351 209T459 135T598 109Q643 109 674 115T728 128T765 142T796 148Q807 148 816 145T832 135T842 119T846 98Q846 84 840 72T823 49Q810 36 787 24T731 3T658 -12T569 -18Q465 -18
380 16T233 113T138 265T104 465ZM723 1477Q734 1487 742 1491T761 1495Q771 1495 780 1491T797 1480T809 1463T814 1443Q814 1432 809 1424T795 1406L606 1197Q589 1177 572 1167T532 1157Q510 1157 493 1167T459 1196L278 1403Q270 1413 265 1421T259 1441Q259
1452 263 1462T276 1479T294 1491T316 1495Q327 1495 336 1491T358 1475L541 1312L723 1477Z" />
<glyph unicode="&#x10e;" glyph-name="Dcaron" horiz-adv-x="1384" d="M204 1302Q204 1339 223 1358T280 1378H595Q762 1378 889 1335T1103 1207T1233 1001T1277 719Q1277 550 1229 417T1089 191T866 49T570 0H280Q243 0 224 19T204 76V1302ZM583 130Q707 130
806 168T976 278T1083 457T1121 698Q1121 834 1086 937T983 1109T815 1213T583 1248H356V130H583ZM825 1797Q838 1807 846 1811T865 1815Q875 1815 884 1811T900 1800T912 1783T917 1763Q917 1753 913 1744T894 1721L705 1540Q685 1521 668 1511T627 1501Q604 1501
587 1511T550 1540L366 1723Q355 1734 352 1742T348 1759Q348 1770 352 1780T364 1797T382 1809T404 1813Q414 1813 423 1810T445 1796L636 1653L825 1797Z" />
<glyph unicode="&#x10f;" glyph-name="dcaron" horiz-adv-x="1237" d="M825 1416Q825 1448 843 1465T899 1483Q936 1483 954 1466T973 1416V54Q973 25 957 9T911 -8Q896 -8 885 -4T865 10T852 33T844 66L834 142H831Q800 97 754 62Q715 32 655 7T514 -18Q423 -18
349 13T221 105T138 259T108 476Q108 606 144 707T248 879T413 985T631 1022Q673 1022 708 1018T769 1008Q800 1002 825 995L828 996Q825 1060 825 1133V1416ZM825 853Q802 865 770 875Q743 883 703 890T610 898Q532 898 468 872T357 794T286 668T260 494Q260 390
280 317T337 197T427 129T545 107Q580 107 610 114T667 135T715 164T755 198Q796 238 825 289V853ZM1166 1487Q1174 1517 1189 1530T1233 1543Q1250 1543 1266 1538T1294 1525T1313 1504T1321 1479Q1321 1471 1318 1462T1310 1440L1194 1185Q1186 1167 1174 1159T1145
1151Q1135 1151 1125 1154T1106 1163T1093 1178T1087 1198Q1087 1204 1088 1211T1094 1232L1166 1487Z" />
<glyph unicode="&#x110;" glyph-name="Dcroat" horiz-adv-x="1407" d="M107 665Q81 665 66 681T50 727Q50 756 65 772T107 789H227V1302Q227 1339 246 1358T303 1378H618Q785 1378 912 1335T1126 1207T1256 1001T1300 719Q1300 550 1252 417T1112 191T889 49T593
0H303Q266 0 247 19T227 76V665H107ZM379 130H606Q730 130 829 168T999 278T1106 457T1144 698Q1144 834 1109 937T1006 1109T838 1213T606 1248H379V789H660Q686 789 701 773T717 727Q717 698 702 682T660 665H379V130Z" />
<glyph unicode="&#x111;" glyph-name="dcroat" horiz-adv-x="1153" d="M570 1183Q544 1183 529 1198T513 1242Q513 1270 528 1285T570 1301H821V1416Q821 1432 825 1444T839 1465T863 1478T895 1483Q913 1483 927 1479T950 1466T964 1445T969 1416V1301H1079Q1105
1301 1120 1286T1136 1242Q1136 1214 1121 1199T1079 1183H969V54Q969 25 953 9T907 -8Q892 -8 881 -4T861 10T848 33T840 66L830 142H827Q796 97 750 62Q730 47 706 33T651 7T586 -11T510 -18Q420 -18 345 12T217 104T134 257T104 471Q104 599 140 699T244 869T409
975T627 1012Q669 1012 704 1008T765 998Q796 992 821 985L824 986Q821 1050 821 1123V1183H570ZM821 843Q798 855 766 865Q739 873 699 880T606 888Q528 888 464 862T353 785T282 660T256 489Q256 387 276 315T333 197T423 129T541 107Q576 107 606 114T663 135T711
164T751 198Q792 238 821 289V843Z" />
<glyph unicode="&#x112;" glyph-name="Emacron" horiz-adv-x="1064" d="M356 130H909Q938 130 954 114T970 65Q970 33 954 17T909 0H280Q243 0 224 19T204 76V1302Q204 1339 223 1358T280 1378H905Q934 1378 950 1362T966 1314Q966 1282 950 1265T905 1248H356V775H831Q860
775 876 759T892 710Q892 678 876 662T831 645H356V130ZM826 1706Q855 1706 869 1691T883 1647Q883 1618 869 1603T826 1588H325Q296 1588 282 1603T268 1647Q268 1676 282 1691T325 1706H826Z" />
<glyph unicode="&#x113;" glyph-name="emacron" horiz-adv-x="1058" d="M254 497V487Q254 398 279 328T349 209T458 135T598 109Q658 109 699 117T769 135T818 153T855 162Q867 162 876 158T891 148T901 132T905 112Q905 98 900 87T882 63Q870 51 844 37T779 11T689
-9T575 -18Q469 -18 382 16T234 113T138 267T104 469Q104 602 139 705T235 879T381 985T563 1022Q647 1022 717 993T838 909T917 775T946 596Q946 547 923 522T852 497H254ZM805 610Q791 759 725 830T543 901Q494 901 449 883T367 829T303 739T263 610H805ZM781
1377Q810 1377 824 1363T838 1319Q838 1290 824 1276T781 1261H289Q260 1261 246 1275T232 1319Q232 1348 246 1362T289 1377H781Z" />
<glyph unicode="&#x114;" glyph-name="Ebreve" horiz-adv-x="1064" d="M356 130H909Q938 130 954 114T970 65Q970 33 954 17T909 0H280Q243 0 224 19T204 76V1302Q204 1339 223 1358T280 1378H905Q934 1378 950 1362T966 1314Q966 1282 950 1265T905 1248H356V775H831Q860
775 876 759T892 710Q892 678 876 662T831 645H356V130ZM311 1753Q311 1784 327 1799T370 1815Q395 1815 409 1802T427 1764Q438 1698 477 1665T586 1632Q656 1632 692 1666T739 1764Q744 1789 757 1802T795 1815Q822 1815 838 1800T855 1753Q855 1704 834 1660T777
1581T690 1527T580 1507Q517 1507 467 1527T383 1581T330 1659T311 1753Z" />
<glyph unicode="&#x115;" glyph-name="ebreve" horiz-adv-x="1058" d="M254 497V487Q254 398 279 328T349 209T458 135T598 109Q658 109 699 117T769 135T818 153T855 162Q867 162 876 158T891 148T901 132T905 112Q905 98 900 87T882 63Q870 51 844 37T779 11T689
-9T575 -18Q469 -18 382 16T234 113T138 267T104 469Q104 602 139 705T235 879T381 985T563 1022Q647 1022 717 993T838 909T917 775T946 596Q946 547 923 522T852 497H254ZM805 610Q791 759 725 830T543 901Q494 901 449 883T367 829T303 739T263 610H805ZM271
1407Q271 1434 287 1449T329 1464Q351 1464 365 1452T383 1413Q391 1346 427 1308T538 1269Q575 1269 602 1280T647 1310T676 1355T689 1413Q691 1439 706 1451T743 1464Q769 1464 785 1449T801 1407Q801 1353 783 1306T729 1224T645 1169T532 1149Q478 1149 431
1166T348 1216T292 1297T271 1407Z" />
<glyph unicode="&#x116;" glyph-name="Edotaccent" horiz-adv-x="1064" d="M356 130H909Q938 130 954 114T970 65Q970 33 954 17T909 0H280Q243 0 224 19T204 76V1302Q204 1339 223 1358T280 1378H905Q934 1378 950 1362T966 1314Q966 1282 950 1265T905 1248H356V775H831Q860
775 876 759T892 710Q892 678 876 662T831 645H356V130ZM492 1647Q492 1670 500 1689T523 1723T557 1746T600 1755Q623 1755 642 1748T675 1726T696 1693T704 1651Q704 1628 696 1608T674 1574T641 1551T598 1542Q575 1542 556 1549T522 1571T500 1604T492 1647Z"
/>
<glyph unicode="&#x117;" glyph-name="edotaccent" horiz-adv-x="1058" d="M254 497V487Q254 398 279 328T349 209T458 135T598 109Q658 109 699 117T769 135T818 153T855 162Q867 162 876 158T891 148T901 132T905 112Q905 98 900 87T882 63Q870 51 844 37T779
11T689 -9T575 -18Q469 -18 382 16T234 113T138 267T104 469Q104 602 139 705T235 879T381 985T563 1022Q647 1022 717 993T838 909T917 775T946 596Q946 547 923 522T852 497H254ZM805 610Q791 759 725 830T543 901Q494 901 449 883T367 829T303 739T263 610H805ZM435
1319Q435 1342 443 1361T466 1395T500 1418T543 1427Q566 1427 585 1420T618 1398T639 1365T647 1323Q647 1300 639 1280T617 1246T584 1223T541 1214Q518 1214 499 1221T465 1243T443 1276T435 1319Z" />
<glyph unicode="&#x118;" glyph-name="Eogonek" horiz-adv-x="1064" d="M356 130H909Q938 130 954 114T970 65Q970 52 968 43T961 25T952 11T941 0Q906 -35 871 -70T808 -140T763 -212T745 -285Q745 -330 766 -352T830 -374Q849 -374 862 -372T885 -366T905 -360T926
-357Q947 -357 958 -370T970 -403Q970 -415 966 -425T950 -447Q932 -465 893 -478T800 -492Q754 -492 718 -479T656 -443T617 -387T603 -313Q603 -268 623 -224T674 -139T744 -63T817 0H280Q243 0 224 19T204 76V1302Q204 1339 223 1358T280 1378H905Q934 1378
950 1362T966 1314Q966 1282 950 1265T905 1248H356V775H831Q860 775 876 759T892 710Q892 678 876 662T831 645H356V130Z" />
<glyph unicode="&#x119;" glyph-name="eogonek" horiz-adv-x="1058" d="M254 497V487Q254 398 279 328T349 209T458 135T598 109Q658 109 699 117T769 135T818 153T855 162Q867 162 876 158T891 148T901 132T905 112Q905 98 900 87T882 63Q858 39 814 5T727 -73T652
-170T620 -285Q620 -330 641 -352T705 -374Q724 -374 737 -372T760 -366T780 -360T801 -357Q822 -357 833 -370T845 -403Q845 -415 841 -425T825 -447Q807 -465 768 -478T675 -492Q629 -492 593 -479T531 -443T492 -387T478 -313Q478 -269 494 -227T537 -145T596
-73T662 -13Q645 -15 623 -16T575 -18Q469 -18 382 16T234 113T138 267T104 469Q104 602 139 705T235 879T381 985T563 1022Q647 1022 717 993T838 909T917 775T946 596Q946 547 923 522T852 497H254ZM805 610Q791 759 725 830T543 901Q494 901 449 883T367 829T303
739T263 610H805Z" />
<glyph unicode="&#x11a;" glyph-name="Ecaron" horiz-adv-x="1064" d="M356 130H909Q938 130 954 114T970 65Q970 33 954 17T909 0H280Q243 0 224 19T204 76V1302Q204 1339 223 1358T280 1378H905Q934 1378 950 1362T966 1314Q966 1282 950 1265T905 1248H356V775H831Q860
775 876 759T892 710Q892 678 876 662T831 645H356V130ZM776 1797Q789 1807 797 1811T816 1815Q826 1815 835 1811T851 1800T863 1783T868 1763Q868 1753 864 1744T845 1721L656 1540Q636 1521 619 1511T578 1501Q555 1501 538 1511T501 1540L317 1723Q306 1734
303 1742T299 1759Q299 1770 303 1780T315 1797T333 1809T355 1813Q365 1813 374 1810T396 1796L587 1653L776 1797Z" />
<glyph unicode="&#x11b;" glyph-name="ecaron" horiz-adv-x="1058" d="M254 497V487Q254 398 279 328T349 209T458 135T598 109Q658 109 699 117T769 135T818 153T855 162Q867 162 876 158T891 148T901 132T905 112Q905 98 900 87T882 63Q870 51 844 37T779 11T689
-9T575 -18Q469 -18 382 16T234 113T138 267T104 469Q104 602 139 705T235 879T381 985T563 1022Q647 1022 717 993T838 909T917 775T946 596Q946 547 923 522T852 497H254ZM805 610Q791 759 725 830T543 901Q494 901 449 883T367 829T303 739T263 610H805ZM729
1477Q740 1487 748 1491T767 1495Q777 1495 786 1491T803 1480T815 1463T820 1443Q820 1432 815 1424T801 1406L612 1197Q595 1177 578 1167T538 1157Q516 1157 499 1167T465 1196L284 1403Q276 1413 271 1421T265 1441Q265 1452 269 1462T282 1479T300 1491T322
1495Q333 1495 342 1491T364 1475L547 1312L729 1477Z" />
<glyph unicode="&#x11c;" glyph-name="Gcircumflex" horiz-adv-x="1365" d="M792 581Q764 581 748 598T732 647Q732 678 748 694T792 711H1133Q1167 711 1186 692T1205 639V176Q1205 135 1193 111T1158 70Q1137 54 1102 38T1018 10T907 -10T769 -18Q619 -18 498
27T291 159T159 372T112 659Q112 833 163 969T306 1200T527 1345T812 1395Q890 1395 951 1384T1058 1356T1132 1322T1173 1292Q1187 1278 1192 1265T1198 1235Q1198 1222 1194 1211T1181 1193T1162 1181T1136 1176Q1116 1176 1093 1189T1032 1219T936 1250T787
1264Q671 1264 575 1225T411 1110T306 927T268 680Q268 540 306 434T413 257T580 149T796 113Q863 113 911 120T992 136Q1029 147 1054 160V581H792ZM559 1517Q546 1507 538 1503T519 1499Q509 1499 500 1503T484 1514T472 1531T467 1551Q467 1561 471 1570T490
1593L679 1774Q699 1793 716 1803T757 1813Q780 1813 797 1803T834 1774L1018 1591Q1029 1580 1032 1572T1036 1555Q1036 1544 1032 1534T1020 1517T1002 1505T980 1501Q970 1501 961 1504T939 1518L748 1661L559 1517Z" />
<glyph unicode="&#x11d;" glyph-name="gcircumflex" horiz-adv-x="1038" d="M814 924Q865 879 892 819T920 690Q920 612 893 547T815 435T688 362T516 336Q474 336 435 342T364 361Q347 347 334 329Q323 314 314 294T305 250Q305 225 315 204T349 168T414 144T516
135H631Q723 135 791 117T905 65T972 -19T995 -133Q995 -206 964 -271T870 -386T714 -463T498 -492Q389 -492 309 -468T176 -402T98 -306T72 -190Q72 -120 96 -69T151 17Q185 57 230 83Q195 114 181 152T166 231Q166 272 181 305T214 363Q235 391 263 415Q203 460
170 525T137 666Q137 744 164 809T242 921T369 994T541 1020Q589 1020 632 1012T713 987L834 1127Q854 1151 868 1159T901 1168Q913 1168 925 1163T947 1150T963 1129T969 1101Q969 1083 958 1068T923 1029L814 924ZM487 8Q439 8 402 13T329 29Q299 6 275 -24Q255
-50 238 -87T221 -172Q221 -214 238 -250T291 -312T382 -354T512 -369Q595 -369 657 -352T762 -306T825 -238T846 -156Q846 -118 834 -88T793 -36T717 -4T602 8H487ZM287 680Q287 631 303 591T351 521T427 475T530 459Q588 459 632 474T707 518T754 587T770 676Q770
725 754 765T706 835T629 881T526 897Q469 897 425 882T350 838T303 769T287 680ZM336 1212Q323 1202 315 1198T296 1194Q286 1194 277 1198T261 1209T249 1226T244 1246Q244 1256 248 1265T267 1288L456 1469Q476 1488 493 1498T534 1508Q557 1508 574 1498T611
1469L795 1286Q806 1275 809 1267T813 1250Q813 1239 809 1229T797 1212T779 1200T757 1196Q747 1196 738 1199T716 1213L525 1356L336 1212Z" />
<glyph unicode="&#x11e;" glyph-name="Gbreve" horiz-adv-x="1365" d="M792 581Q764 581 748 598T732 647Q732 678 748 694T792 711H1133Q1167 711 1186 692T1205 639V176Q1205 135 1193 111T1158 70Q1137 54 1102 38T1018 10T907 -10T769 -18Q619 -18 498 27T291
159T159 372T112 659Q112 833 163 969T306 1200T527 1345T812 1395Q890 1395 951 1384T1058 1356T1132 1322T1173 1292Q1187 1278 1192 1265T1198 1235Q1198 1222 1194 1211T1181 1193T1162 1181T1136 1176Q1116 1176 1093 1189T1032 1219T936 1250T787 1264Q671
1264 575 1225T411 1110T306 927T268 680Q268 540 306 434T413 257T580 149T796 113Q863 113 911 120T992 136Q1029 147 1054 160V581H792ZM449 1753Q449 1784 465 1799T508 1815Q533 1815 547 1802T565 1764Q576 1698 615 1665T724 1632Q794 1632 830 1666T877
1764Q882 1789 895 1802T933 1815Q960 1815 976 1800T993 1753Q993 1704 972 1660T915 1581T828 1527T718 1507Q655 1507 605 1527T521 1581T468 1659T449 1753Z" />
<glyph unicode="&#x11f;" glyph-name="gbreve" horiz-adv-x="1038" d="M814 924Q865 879 892 819T920 690Q920 612 893 547T815 435T688 362T516 336Q474 336 435 342T364 361Q347 347 334 329Q323 314 314 294T305 250Q305 225 315 204T349 168T414 144T516 135H631Q723
135 791 117T905 65T972 -19T995 -133Q995 -206 964 -271T870 -386T714 -463T498 -492Q389 -492 309 -468T176 -402T98 -306T72 -190Q72 -120 96 -69T151 17Q185 57 230 83Q195 114 181 152T166 231Q166 272 181 305T214 363Q235 391 263 415Q203 460 170 525T137
666Q137 744 164 809T242 921T369 994T541 1020Q589 1020 632 1012T713 987L834 1127Q854 1151 868 1159T901 1168Q913 1168 925 1163T947 1150T963 1129T969 1101Q969 1083 958 1068T923 1029L814 924ZM487 8Q439 8 402 13T329 29Q299 6 275 -24Q255 -50 238 -87T221
-172Q221 -214 238 -250T291 -312T382 -354T512 -369Q595 -369 657 -352T762 -306T825 -238T846 -156Q846 -118 834 -88T793 -36T717 -4T602 8H487ZM287 680Q287 631 303 591T351 521T427 475T530 459Q588 459 632 474T707 518T754 587T770 676Q770 725 754 765T706
835T629 881T526 897Q469 897 425 882T350 838T303 769T287 680ZM258 1407Q258 1434 274 1449T316 1464Q338 1464 352 1452T370 1413Q378 1346 414 1308T525 1269Q562 1269 589 1280T634 1310T663 1355T676 1413Q678 1439 693 1451T730 1464Q756 1464 772 1449T788
1407Q788 1353 770 1306T716 1224T632 1169T519 1149Q465 1149 418 1166T335 1216T279 1297T258 1407Z" />
<glyph unicode="&#x120;" glyph-name="Gdotaccent" horiz-adv-x="1365" d="M792 581Q764 581 748 598T732 647Q732 678 748 694T792 711H1133Q1167 711 1186 692T1205 639V176Q1205 135 1193 111T1158 70Q1137 54 1102 38T1018 10T907 -10T769 -18Q619 -18 498
27T291 159T159 372T112 659Q112 833 163 969T306 1200T527 1345T812 1395Q890 1395 951 1384T1058 1356T1132 1322T1173 1292Q1187 1278 1192 1265T1198 1235Q1198 1222 1194 1211T1181 1193T1162 1181T1136 1176Q1116 1176 1093 1189T1032 1219T936 1250T787
1264Q671 1264 575 1225T411 1110T306 927T268 680Q268 540 306 434T413 257T580 149T796 113Q863 113 911 120T992 136Q1029 147 1054 160V581H792ZM623 1647Q623 1670 631 1689T654 1723T688 1746T731 1755Q754 1755 773 1748T806 1726T827 1693T835 1651Q835
1628 827 1608T805 1574T772 1551T729 1542Q706 1542 687 1549T653 1571T631 1604T623 1647Z" />
<glyph unicode="&#x121;" glyph-name="gdotaccent" horiz-adv-x="1038" d="M814 924Q865 879 892 819T920 690Q920 612 893 547T815 435T688 362T516 336Q474 336 435 342T364 361Q347 347 334 329Q323 314 314 294T305 250Q305 225 315 204T349 168T414 144T516
135H631Q723 135 791 117T905 65T972 -19T995 -133Q995 -206 964 -271T870 -386T714 -463T498 -492Q389 -492 309 -468T176 -402T98 -306T72 -190Q72 -120 96 -69T151 17Q185 57 230 83Q195 114 181 152T166 231Q166 272 181 305T214 363Q235 391 263 415Q203 460
170 525T137 666Q137 744 164 809T242 921T369 994T541 1020Q589 1020 632 1012T713 987L834 1127Q854 1151 868 1159T901 1168Q913 1168 925 1163T947 1150T963 1129T969 1101Q969 1083 958 1068T923 1029L814 924ZM487 8Q439 8 402 13T329 29Q299 6 275 -24Q255
-50 238 -87T221 -172Q221 -214 238 -250T291 -312T382 -354T512 -369Q595 -369 657 -352T762 -306T825 -238T846 -156Q846 -118 834 -88T793 -36T717 -4T602 8H487ZM287 680Q287 631 303 591T351 521T427 475T530 459Q588 459 632 474T707 518T754 587T770 676Q770
725 754 765T706 835T629 881T526 897Q469 897 425 882T350 838T303 769T287 680ZM421 1319Q421 1342 429 1361T452 1395T486 1418T529 1427Q552 1427 571 1420T604 1398T625 1365T633 1323Q633 1300 625 1280T603 1246T570 1223T527 1214Q504 1214 485 1221T451
1243T429 1276T421 1319Z" />
<glyph unicode="&#x122;" glyph-name="Gcommaaccent" horiz-adv-x="1365" d="M792 581Q764 581 748 598T732 647Q732 678 748 694T792 711H1133Q1167 711 1186 692T1205 639V176Q1205 135 1193 111T1158 70Q1137 54 1102 38T1018 10T907 -10T769 -18Q619 -18 498
27T291 159T159 372T112 659Q112 833 163 969T306 1200T527 1345T812 1395Q890 1395 951 1384T1058 1356T1132 1322T1173 1292Q1187 1278 1192 1265T1198 1235Q1198 1222 1194 1211T1181 1193T1162 1181T1136 1176Q1116 1176 1093 1189T1032 1219T936 1250T787
1264Q671 1264 575 1225T411 1110T306 927T268 680Q268 540 306 434T413 257T580 149T796 113Q863 113 911 120T992 136Q1029 147 1054 160V581H792ZM642 -231Q642 -208 650 -189T672 -155T704 -133T745 -125Q767 -125 785 -132T817 -154T837 -189T845 -233Q845
-269 830 -301T791 -362T735 -414T671 -455T608 -481T554 -490Q531 -490 517 -479T503 -448Q503 -429 516 -416Q526 -406 544 -396T583 -374T626 -344T670 -300Q657 -287 650 -270T642 -231Z" />
<glyph unicode="&#x123;" glyph-name="gcommaaccent" horiz-adv-x="1038" d="M814 924Q865 879 892 819T920 690Q920 612 893 547T815 435T688 362T516 336Q474 336 435 342T364 361Q347 347 334 329Q323 314 314 294T305 250Q305 225 315 204T349 168T414 144T516
135H631Q723 135 791 117T905 65T972 -19T995 -133Q995 -206 964 -271T870 -386T714 -463T498 -492Q389 -492 309 -468T176 -402T98 -306T72 -190Q72 -120 96 -69T151 17Q185 57 230 83Q195 114 181 152T166 231Q166 272 181 305T214 363Q235 391 263 415Q203 460
170 525T137 666Q137 744 164 809T242 921T369 994T541 1020Q589 1020 632 1012T713 987L834 1127Q854 1151 868 1159T901 1168Q913 1168 925 1163T947 1150T963 1129T969 1101Q969 1083 958 1068T923 1029L814 924ZM487 8Q439 8 402 13T329 29Q299 6 275 -24Q255
-50 238 -87T221 -172Q221 -214 238 -250T291 -312T382 -354T512 -369Q595 -369 657 -352T762 -306T825 -238T846 -156Q846 -118 834 -88T793 -36T717 -4T602 8H487ZM287 680Q287 631 303 591T351 521T427 475T530 459Q588 459 632 474T707 518T754 587T770 676Q770
725 754 765T706 835T629 881T526 897Q469 897 425 882T350 838T303 769T287 680ZM424 1253Q424 1289 439 1322T479 1383T535 1435T599 1475T661 1501T715 1510Q738 1510 752 1499T766 1468Q766 1449 753 1436Q742 1425 725 1416T686 1394T643 1364T599 1320Q612
1307 619 1290T627 1251Q627 1228 619 1209T597 1175T565 1153T524 1145Q502 1145 484 1152T452 1174T432 1209T424 1253Z" />
<glyph unicode="&#x124;" glyph-name="Hcircumflex" horiz-adv-x="1425" d="M356 61Q356 29 337 12T280 -6Q242 -6 223 11T204 61V1317Q204 1349 223 1366T280 1384Q318 1384 337 1367T356 1317V774H1069V1317Q1069 1349 1088 1366T1145 1384Q1183 1384 1202 1367T1221
1317V61Q1221 29 1202 12T1145 -6Q1107 -6 1088 11T1069 61V647H356V61ZM527 1517Q514 1507 506 1503T487 1499Q477 1499 468 1503T452 1514T440 1531T435 1551Q435 1561 439 1570T458 1593L647 1774Q667 1793 684 1803T725 1813Q748 1813 765 1803T802 1774L986
1591Q997 1580 1000 1572T1004 1555Q1004 1544 1000 1534T988 1517T970 1505T948 1501Q938 1501 929 1504T907 1518L716 1661L527 1517Z" />
<glyph unicode="&#x125;" glyph-name="hcircumflex" horiz-adv-x="1190" d="M184 1416Q184 1448 202 1465T258 1483Q295 1483 313 1466T332 1416V997Q332 964 331 934T327 868H330Q361 911 407 945Q426 959 450 973T504 998T568 1015T643 1022Q730 1022 799 996T916
918T990 790T1016 612V61Q1016 29 998 12T942 -6Q905 -6 887 11T868 61V588Q868 669 851 727T801 823T721 879T612 897Q577 897 547 889T490 869T442 840T402 806Q361 766 332 715V61Q332 29 314 12T258 -6Q221 -6 203 11T184 61V1416ZM68 1577Q55 1567 47 1563T28
1559Q18 1559 9 1563T-7 1574T-19 1591T-24 1611Q-24 1621 -20 1630T-1 1653L188 1834Q208 1853 225 1863T266 1873Q289 1873 306 1863T343 1834L527 1651Q538 1640 541 1632T545 1615Q545 1604 541 1594T529 1577T511 1565T489 1561Q479 1561 470 1564T448 1578L257
1721L68 1577Z" />
<glyph unicode="&#x126;" glyph-name="Hbar" horiz-adv-x="1471" d="M379 61Q379 29 360 12T303 -6Q265 -6 246 11T227 61V995H107Q81 995 66 1011T50 1057Q50 1086 65 1102T107 1119H227V1317Q227 1349 246 1366T303 1384Q341 1384 360 1367T379 1317V1119H1092V1317Q1092
1349 1111 1366T1168 1384Q1206 1384 1225 1367T1244 1317V1119H1364Q1390 1119 1405 1103T1421 1057Q1421 1028 1406 1012T1364 995H1244V61Q1244 29 1225 12T1168 -6Q1130 -6 1111 11T1092 61V647H379V61ZM379 774H1092V995H379V774Z" />
<glyph unicode="&#x127;" glyph-name="hbar" horiz-adv-x="1190" d="M74 1183Q48 1183 33 1198T17 1242Q17 1270 32 1285T74 1301H184V1416Q184 1432 188 1444T202 1465T226 1478T258 1483Q276 1483 290 1479T313 1466T327 1445T332 1416V1301H583Q609 1301 624
1286T640 1242Q640 1214 625 1199T583 1183H332V987Q332 954 331 924T327 858H330Q361 901 407 935Q426 949 450 963T504 988T568 1005T643 1012Q730 1012 799 986T916 908T990 780T1016 602V61Q1016 29 998 12T942 -6Q905 -6 887 11T868 61V578Q868 659 851 717T801
813T721 869T612 887Q577 887 547 879T490 859T442 830T402 796Q361 756 332 705V61Q332 29 314 12T258 -6Q221 -6 203 11T184 61V1183H74Z" />
<glyph unicode="&#x128;" glyph-name="Itilde" horiz-adv-x="560" d="M204 1317Q204 1349 223 1366T280 1384Q318 1384 337 1367T356 1317V61Q356 29 337 12T280 -6Q242 -6 223 11T204 61V1317ZM135 1637Q103 1637 84 1625T51 1597T23 1569T-12 1556Q-30 1556
-44 1568T-58 1604Q-58 1624 -44 1651T-4 1703T60 1745T143 1762Q192 1762 230 1747T302 1713T366 1680T431 1664Q463 1664 482 1676T515 1704T543 1732T578 1745Q596 1745 610 1733T624 1697Q624 1677 610 1650T570 1598T506 1556T423 1539Q374 1539 336 1554T264
1588T200 1621T135 1637Z" />
<glyph unicode="&#x129;" glyph-name="itilde" horiz-adv-x="516" d="M184 943Q184 975 202 992T258 1010Q295 1010 313 993T332 943V61Q332 29 314 12T258 -6Q221 -6 203 11T184 61V943ZM137 1309Q112 1309 98 1296T71 1266T45 1237T10 1223Q-10 1223 -23 1235T-37
1270Q-37 1293 -24 1321T12 1374T69 1416T142 1433Q189 1433 223 1417T284 1380T335 1343T385 1326Q410 1326 424 1339T451 1369T477 1398T512 1412Q532 1412 545 1400T559 1365Q559 1342 546 1314T510 1260T453 1219T380 1202Q333 1202 299 1218T238 1255T187
1292T137 1309Z" />
<glyph unicode="&#x12a;" glyph-name="Imacron" horiz-adv-x="560" d="M204 1317Q204 1349 223 1366T280 1384Q318 1384 337 1367T356 1317V61Q356 29 337 12T280 -6Q242 -6 223 11T204 61V1317ZM535 1706Q564 1706 578 1691T592 1647Q592 1618 578 1603T535 1588H34Q5
1588 -9 1603T-23 1647Q-23 1676 -9 1691T34 1706H535Z" />
<glyph unicode="&#x12b;" glyph-name="imacron" horiz-adv-x="516" d="M184 943Q184 975 202 992T258 1010Q295 1010 313 993T332 943V61Q332 29 314 12T258 -6Q221 -6 203 11T184 61V943ZM472 1377Q501 1377 515 1363T529 1319Q529 1290 515 1276T472 1261H50Q21
1261 7 1275T-7 1319Q-7 1348 7 1362T50 1377H472Z" />
<glyph unicode="&#x12c;" glyph-name="Ibreve" horiz-adv-x="560" d="M204 1317Q204 1349 223 1366T280 1384Q318 1384 337 1367T356 1317V61Q356 29 337 12T280 -6Q242 -6 223 11T204 61V1317ZM12 1753Q12 1784 28 1799T71 1815Q96 1815 110 1802T128 1764Q139
1698 178 1665T287 1632Q357 1632 393 1666T440 1764Q445 1789 458 1802T496 1815Q523 1815 539 1800T556 1753Q556 1704 535 1660T478 1581T391 1527T281 1507Q218 1507 168 1527T84 1581T31 1659T12 1753Z" />
<glyph unicode="&#x12d;" glyph-name="ibreve" horiz-adv-x="516" d="M184 943Q184 975 202 992T258 1010Q295 1010 313 993T332 943V61Q332 29 314 12T258 -6Q221 -6 203 11T184 61V943ZM3 1407Q3 1434 19 1449T61 1464Q83 1464 97 1452T115 1413Q123 1346 156
1308T260 1269Q295 1269 320 1280T362 1310T388 1355T401 1413Q403 1439 418 1451T455 1464Q481 1464 497 1449T513 1407Q513 1353 496 1306T445 1224T363 1169T254 1149Q202 1149 156 1166T76 1216T23 1297T3 1407Z" />
<glyph unicode="&#x12e;" glyph-name="Iogonek" horiz-adv-x="560" d="M204 1317Q204 1349 223 1366T280 1384Q318 1384 337 1367T356 1317V61Q356 42 350 29T329 1Q309 -19 286 -49T244 -116T213 -194T200 -275Q200 -328 221 -351T285 -374Q304 -374 317 -372T340
-366T360 -360T381 -357Q402 -357 413 -370T425 -403Q425 -415 421 -425T405 -447Q387 -465 348 -478T255 -492Q209 -492 173 -479T111 -442T72 -382T58 -303Q58 -259 73 -214T113 -126T166 -49T222 12Q219 15 216 19T210 30T206 43T204 61V1317Z" />
<glyph unicode="&#x12f;" glyph-name="iogonek" horiz-adv-x="516" d="M184 943Q184 975 202 992T258 1010Q295 1010 313 993T332 943V61Q332 50 331 43T326 29T318 16T305 1Q285 -22 263 -52T221 -119T190 -195T178 -275Q178 -328 199 -351T263 -374Q282 -374
295 -372T318 -366T338 -360T359 -357Q380 -357 391 -370T403 -403Q403 -415 399 -425T383 -447Q365 -465 326 -478T233 -492Q187 -492 151 -479T89 -442T50 -382T36 -303Q36 -259 52 -214T92 -126T145 -48T201 13Q194 20 189 32T184 61V943ZM149 1319Q149 1343
157 1363T180 1398T215 1421T260 1430Q282 1430 302 1422T336 1399T358 1365T367 1323Q367 1299 359 1279T336 1244T301 1221T256 1212Q233 1212 214 1220T180 1243T158 1276T149 1319Z" />
<glyph unicode="&#x130;" glyph-name="Idotaccent" horiz-adv-x="560" d="M204 1317Q204 1349 223 1366T280 1384Q318 1384 337 1367T356 1317V61Q356 29 337 12T280 -6Q242 -6 223 11T204 61V1317ZM178 1647Q178 1670 186 1689T209 1723T243 1746T286 1755Q309
1755 328 1748T361 1726T382 1693T390 1651Q390 1628 382 1608T360 1574T327 1551T284 1542Q261 1542 242 1549T208 1571T186 1604T178 1647Z" />
<glyph unicode="&#x131;" glyph-name="dotlessi" horiz-adv-x="516" d="M184 943Q184 975 202 992T258 1010Q295 1010 313 993T332 943V61Q332 29 314 12T258 -6Q221 -6 203 11T184 61V943Z" />
<glyph unicode="&#x132;" glyph-name="IJ" horiz-adv-x="1128" d="M204 1317Q204 1349 223 1366T280 1384Q318 1384 337 1367T356 1317V61Q356 29 337 12T280 -6Q242 -6 223 11T204 61V1317ZM772 1317Q772 1349 791 1366T848 1384Q886 1384 905 1367T924 1317V160Q924
73 917 6T895 -113T856 -207T796 -283Q744 -335 692 -360T600 -385Q566 -385 550 -369T534 -328Q534 -309 542 -296T569 -272Q612 -248 649 -221T713 -153T756 -51T772 104V1317Z" />
<glyph unicode="&#x133;" glyph-name="ij" horiz-adv-x="1032" d="M184 943Q184 975 202 992T258 1010Q295 1010 313 993T332 943V61Q332 29 314 12T258 -6Q221 -6 203 11T184 61V943ZM149 1319Q149 1343 157 1363T180 1398T215 1421T260 1430Q282 1430 302 1422T336
1399T358 1365T367 1323Q367 1299 359 1279T336 1244T301 1221T256 1212Q233 1212 214 1220T180 1243T158 1276T149 1319ZM700 943Q700 975 718 992T774 1010Q811 1010 829 993T848 943V-23Q848 -98 838 -156T810 -260T769 -339T722 -397Q678 -441 632 -460T551
-479Q535 -479 523 -475T503 -464T490 -446T485 -422Q485 -402 494 -390T520 -368Q565 -343 598 -317T654 -251T688 -152T700 -2V943ZM665 1319Q665 1343 673 1363T696 1398T731 1421T776 1430Q798 1430 818 1422T852 1399T874 1365T883 1323Q883 1299 875 1279T852
1244T817 1221T772 1212Q749 1212 730 1220T696 1243T674 1276T665 1319Z" />
<glyph unicode="&#x134;" glyph-name="Jcircumflex" horiz-adv-x="568" d="M212 1317Q212 1349 231 1366T288 1384Q326 1384 345 1367T364 1317V160Q364 73 357 6T335 -113T296 -207T236 -283Q184 -335 132 -360T40 -385Q6 -385 -10 -369T-26 -328Q-26 -309 -18
-296T9 -272Q52 -248 89 -221T153 -153T196 -51T212 104V1317ZM97 1517Q84 1507 76 1503T57 1499Q47 1499 38 1503T22 1514T10 1531T5 1551Q5 1561 9 1570T28 1593L217 1774Q237 1793 254 1803T295 1813Q318 1813 335 1803T372 1774L556 1591Q567 1580 570 1572T574
1555Q574 1544 570 1534T558 1517T540 1505T518 1501Q508 1501 499 1504T477 1518L286 1661L97 1517Z" />
<glyph unicode="&#x135;" glyph-name="jcircumflex" horiz-adv-x="516" d="M184 943Q184 975 202 992T258 1010Q295 1010 313 993T332 943V-23Q332 -98 322 -156T294 -260T253 -339T206 -397Q162 -441 116 -460T35 -479Q19 -479 7 -475T-13 -464T-26 -446T-31
-422Q-31 -402 -22 -390T4 -368Q49 -343 82 -317T138 -251T172 -152T184 -2V943ZM74 1175Q63 1165 55 1161T36 1157Q26 1157 17 1161T0 1172T-12 1189T-17 1209Q-17 1220 -12 1228T2 1246L191 1455Q208 1475 225 1485T265 1495Q287 1495 304 1485T338 1456L519
1249Q527 1239 532 1231T538 1211Q538 1200 534 1190T521 1173T503 1161T481 1157Q470 1157 461 1161T439 1177L256 1340L74 1175Z" />
<glyph unicode="&#x136;" glyph-name="Kcommaaccent" horiz-adv-x="1126" d="M914 1334Q925 1345 931 1352T941 1362Q952 1373 964 1380T993 1387Q1009 1387 1023 1381T1048 1365T1065 1342T1072 1314Q1072 1300 1067 1288T1051 1265L520 720L1047 133Q1053 126
1059 119T1070 104T1078 88T1081 70Q1081 54 1074 40T1054 15T1028 -2T998 -9Q985 -9 973 -4T950 11Q945 16 941 20T927 35L356 674V61Q356 29 337 12T280 -6Q242 -6 223 11T204 61V1317Q204 1349 223 1366T280 1384Q318 1384 337 1367T356 1317V737L914 1334ZM517
-231Q517 -208 525 -189T547 -155T579 -133T620 -125Q642 -125 660 -132T692 -154T712 -189T720 -233Q720 -269 705 -301T666 -362T610 -414T546 -455T483 -481T429 -490Q406 -490 392 -479T378 -448Q378 -429 391 -416Q401 -406 419 -396T458 -374T501 -344T545
-300Q532 -287 525 -270T517 -231Z" />
<glyph unicode="&#x137;" glyph-name="kcommaaccent" horiz-adv-x="979" d="M751 961Q762 971 772 980T788 994Q798 1002 809 1007T835 1013Q850 1013 862 1007T885 992T900 970T906 945Q906 928 897 914T872 886L502 558L892 126Q909 107 914 95T920 69Q920 52
913 38T895 14T868 -3T838 -9Q827 -9 816 -5T794 10Q787 17 782 22T767 39L332 535V61Q332 29 314 12T258 -6Q221 -6 203 11T184 61V1416Q184 1448 202 1465T258 1483Q295 1483 313 1466T332 1416V578L751 961ZM445 -231Q445 -208 453 -189T475 -155T507 -133T548
-125Q570 -125 588 -132T620 -154T640 -189T648 -233Q648 -269 633 -301T594 -362T538 -414T474 -455T411 -481T357 -490Q334 -490 320 -479T306 -448Q306 -429 319 -416Q329 -406 347 -396T386 -374T429 -344T473 -300Q460 -287 453 -270T445 -231Z" />
<glyph unicode="&#x138;" glyph-name="kgreenlandic" horiz-adv-x="972" d="M773 980Q776 983 778 985T783 990Q806 1013 834 1013Q848 1013 861 1008T883 993T899 971T905 945Q905 922 891 907T863 877L499 525L870 140Q887 122 900 105T913 68Q913 53 906 40T888
15T863 -2T832 -9Q817 -9 806 -3T783 14Q778 19 773 24T754 44L332 498V61Q332 29 314 12T258 -6Q221 -6 203 11T184 61V943Q184 975 202 992T258 1010Q295 1010 313 993T332 943V541L773 980Z" />
<glyph unicode="&#x139;" glyph-name="Lacute" horiz-adv-x="985" d="M894 130Q923 130 939 114T955 65Q955 33 939 17T894 0H280Q243 0 224 19T204 76V1317Q204 1349 223 1366T280 1384Q318 1384 337 1367T356 1317V130H894ZM779 1800Q790 1811 800 1816T825
1822Q842 1822 857 1814T883 1793T902 1764T909 1733Q909 1716 900 1705T876 1682L635 1510Q624 1502 616 1499T596 1495Q584 1495 573 1500T555 1513T543 1531T538 1552Q538 1563 543 1572T562 1595L779 1800Z" />
<glyph unicode="&#x13a;" glyph-name="lacute" horiz-adv-x="552" d="M180 1416Q180 1448 198 1465T254 1483Q291 1483 309 1466T328 1416V266Q328 222 334 193T352 147T380 123T418 115Q438 115 451 117T479 119Q490 119 498 116T513 105T522 89T526 70Q526 53
521 43T508 25Q502 19 492 13T468 1T435 -7T391 -10Q289 -10 235 47T180 225V1416ZM368 1902Q379 1913 389 1918T414 1924Q431 1924 446 1916T472 1895T491 1866T498 1835Q498 1818 489 1807T465 1784L224 1612Q213 1604 205 1601T185 1597Q173 1597 162 1602T144
1615T132 1633T127 1654Q127 1665 132 1674T151 1697L368 1902Z" />
<glyph unicode="&#x13b;" glyph-name="Lcommaaccent" horiz-adv-x="985" d="M894 130Q923 130 939 114T955 65Q955 33 939 17T894 0H280Q243 0 224 19T204 76V1317Q204 1349 223 1366T280 1384Q318 1384 337 1367T356 1317V130H894ZM493 -231Q493 -208 501 -189T523
-155T555 -133T596 -125Q618 -125 636 -132T668 -154T688 -189T696 -233Q696 -269 681 -301T642 -362T586 -414T522 -455T459 -481T405 -490Q382 -490 368 -479T354 -448Q354 -429 367 -416Q377 -406 395 -396T434 -374T477 -344T521 -300Q508 -287 501 -270T493
-231Z" />
<glyph unicode="&#x13c;" glyph-name="lcommaaccent" horiz-adv-x="552" d="M180 1416Q180 1448 198 1465T254 1483Q291 1483 309 1466T328 1416V266Q328 222 334 193T352 147T380 123T418 115Q438 115 451 117T479 119Q490 119 498 116T513 105T522 89T526 70Q526
53 521 43T508 25Q502 19 492 13T468 1T435 -7T391 -10Q289 -10 235 47T180 225V1416ZM229 -231Q229 -208 237 -189T259 -155T291 -133T332 -125Q354 -125 372 -132T404 -154T424 -189T432 -233Q432 -269 417 -301T378 -362T322 -414T258 -455T195 -481T141 -490Q118
-490 104 -479T90 -448Q90 -429 103 -416Q113 -406 131 -396T170 -374T213 -344T257 -300Q244 -287 237 -270T229 -231Z" />
<glyph unicode="&#x13d;" glyph-name="Lcaron" horiz-adv-x="985" d="M894 130Q923 130 939 114T955 65Q955 33 939 17T894 0H280Q243 0 224 19T204 76V1317Q204 1349 223 1366T280 1384Q318 1384 337 1367T356 1317V130H894ZM474 1797Q487 1807 495 1811T514
1815Q524 1815 533 1811T549 1800T561 1783T566 1763Q566 1753 562 1744T543 1721L354 1540Q334 1521 317 1511T276 1501Q253 1501 236 1511T199 1540L15 1723Q4 1734 1 1742T-3 1759Q-3 1770 1 1780T13 1797T31 1809T53 1813Q63 1813 72 1810T94 1796L285 1653L474
1797Z" />
<glyph unicode="&#x13e;" glyph-name="lcaron" horiz-adv-x="582" d="M180 1416Q180 1448 198 1465T254 1483Q291 1483 309 1466T328 1416V266Q328 222 334 193T352 147T380 123T418 115Q438 115 451 117T479 119Q490 119 498 116T513 105T522 89T526 70Q526 53
521 43T508 25Q502 19 492 13T468 1T435 -7T391 -10Q289 -10 235 47T180 225V1416ZM521 1487Q529 1517 544 1530T588 1543Q605 1543 621 1538T649 1525T668 1504T676 1479Q676 1471 673 1462T665 1440L549 1185Q541 1167 529 1159T500 1151Q490 1151 480 1154T461
1163T448 1178T442 1198Q442 1204 443 1211T449 1232L521 1487Z" />
<glyph unicode="&#x13f;" glyph-name="Ldot" horiz-adv-x="1002" d="M894 130Q923 130 939 114T955 65Q955 33 939 17T894 0H280Q243 0 224 19T204 76V1317Q204 1349 223 1366T280 1384Q318 1384 337 1367T356 1317V130H894ZM666 748Q666 773 675 795T701 834T739
859T787 869Q812 869 833 861T870 837T894 800T903 753Q903 727 894 705T868 667T830 642T783 632Q757 632 736 640T699 664T675 701T666 748Z" />
<glyph unicode="&#x140;" glyph-name="ldot" horiz-adv-x="795" d="M180 1416Q180 1448 198 1465T254 1483Q291 1483 309 1466T328 1416V266Q328 222 334 193T352 147T380 123T418 115Q438 115 451 117T479 119Q490 119 498 116T513 105T522 89T526 70Q526 53
521 43T508 25Q502 19 492 13T468 1T435 -7T391 -10Q289 -10 235 47T180 225V1416ZM523 706Q523 731 532 753T558 792T596 817T644 827Q669 827 690 819T727 795T751 758T760 711Q760 685 751 663T725 625T687 600T640 590Q614 590 593 598T556 622T532 659T523
706Z" />
<glyph unicode="&#x141;" glyph-name="Lslash" horiz-adv-x="1005" d="M914 130Q943 130 959 114T975 65Q975 33 959 17T914 0H300Q263 0 244 19T224 76V732L144 696Q136 692 130 690T119 686T110 683T100 682Q85 682 74 688T55 705T44 727T40 750Q40 763 43 772T55
789Q61 795 69 799T95 812L224 869V1317Q224 1349 243 1366T300 1384Q338 1384 357 1367T376 1317V936L552 1015Q569 1023 577 1026T596 1029Q611 1029 622 1023T640 1006T652 983T656 961Q656 948 653 939T641 922Q635 916 627 912T601 899L376 799V130H914Z"
/>
<glyph unicode="&#x142;" glyph-name="lslash" horiz-adv-x="579" d="M105 824Q94 819 87 817T72 815Q59 815 49 821T31 836T19 856T15 880Q15 900 24 912T54 934L200 999V1416Q200 1448 218 1465T274 1483Q311 1483 329 1466T348 1416V1065L474 1121Q485 1126
492 1128T507 1130Q520 1130 530 1124T548 1109T560 1089T564 1065Q564 1045 555 1033T525 1011L348 932V266Q348 222 354 193T372 147T400 123T438 115Q458 115 471 117T499 119Q510 119 518 116T533 105T542 89T546 70Q546 53 541 43T528 25Q522 19 512 13T488
1T455 -7T411 -10Q309 -10 255 47T200 225V866L105 824Z" />
<glyph unicode="&#x143;" glyph-name="Nacute" horiz-adv-x="1483" d="M204 1274Q204 1328 231 1356T313 1384Q337 1384 355 1378T388 1360T415 1332T441 1296L1018 397Q1043 359 1065 322T1104 255Q1123 221 1141 189L1145 191Q1142 227 1140 267Q1138 301 1137
344T1135 432L1133 1317Q1133 1349 1151 1366T1206 1384Q1243 1384 1261 1367T1279 1317V105Q1279 50 1252 22T1170 -6Q1146 -6 1128 0T1095 18T1068 46T1042 82L465 981Q440 1019 418 1056T379 1123Q359 1157 342 1189L338 1187Q340 1151 343 1111Q345 1077 346
1034T348 946L350 61Q350 29 332 12T277 -6Q240 -6 222 11T204 61V1274ZM916 1800Q927 1811 937 1816T962 1822Q979 1822 994 1814T1020 1793T1039 1764T1046 1733Q1046 1716 1037 1705T1013 1682L772 1510Q761 1502 753 1499T733 1495Q721 1495 710 1500T692 1513T680
1531T675 1552Q675 1563 680 1572T699 1595L916 1800Z" />
<glyph unicode="&#x144;" glyph-name="nacute" horiz-adv-x="1190" d="M184 950Q184 979 200 995T246 1012Q261 1012 272 1008T292 994T305 971T313 938L323 862H326Q356 907 402 942Q421 957 446 971T501 997T566 1015T643 1022Q730 1022 799 996T916 918T990
790T1016 612V61Q1016 29 998 12T942 -6Q905 -6 887 11T868 61V588Q868 669 851 727T801 823T721 879T612 897Q577 897 547 889T490 869T442 840T402 806Q361 766 332 715V61Q332 29 314 12T258 -6Q221 -6 203 11T184 61V950ZM703 1485Q713 1500 724 1508T752 1516Q767
1516 783 1510T812 1492T835 1465T844 1432Q844 1425 842 1420T837 1409T831 1399T823 1390L627 1176Q616 1163 605 1157T581 1150Q569 1150 559 1154T540 1166T527 1184T522 1206Q522 1216 527 1225T537 1242L703 1485Z" />
<glyph unicode="&#x145;" glyph-name="Ncommaaccent" horiz-adv-x="1483" d="M204 1274Q204 1328 231 1356T313 1384Q337 1384 355 1378T388 1360T415 1332T441 1296L1018 397Q1043 359 1065 322T1104 255Q1123 221 1141 189L1145 191Q1142 227 1140 267Q1138
301 1137 344T1135 432L1133 1317Q1133 1349 1151 1366T1206 1384Q1243 1384 1261 1367T1279 1317V105Q1279 50 1252 22T1170 -6Q1146 -6 1128 0T1095 18T1068 46T1042 82L465 981Q440 1019 418 1056T379 1123Q359 1157 342 1189L338 1187Q340 1151 343 1111Q345
1077 346 1034T348 946L350 61Q350 29 332 12T277 -6Q240 -6 222 11T204 61V1274ZM669 -231Q669 -208 677 -189T699 -155T731 -133T772 -125Q794 -125 812 -132T844 -154T864 -189T872 -233Q872 -269 857 -301T818 -362T762 -414T698 -455T635 -481T581 -490Q558
-490 544 -479T530 -448Q530 -429 543 -416Q553 -406 571 -396T610 -374T653 -344T697 -300Q684 -287 677 -270T669 -231Z" />
<glyph unicode="&#x146;" glyph-name="ncommaaccent" horiz-adv-x="1190" d="M184 950Q184 979 200 995T246 1012Q261 1012 272 1008T292 994T305 971T313 938L323 862H326Q356 907 402 942Q421 957 446 971T501 997T566 1015T643 1022Q730 1022 799 996T916 918T990
790T1016 612V61Q1016 29 998 12T942 -6Q905 -6 887 11T868 61V588Q868 669 851 727T801 823T721 879T612 897Q577 897 547 889T490 869T442 840T402 806Q361 766 332 715V61Q332 29 314 12T258 -6Q221 -6 203 11T184 61V950ZM497 -231Q497 -208 505 -189T527 -155T559
-133T600 -125Q622 -125 640 -132T672 -154T692 -189T700 -233Q700 -269 685 -301T646 -362T590 -414T526 -455T463 -481T409 -490Q386 -490 372 -479T358 -448Q358 -429 371 -416Q381 -406 399 -396T438 -374T481 -344T525 -300Q512 -287 505 -270T497 -231Z"
/>
<glyph unicode="&#x147;" glyph-name="Ncaron" horiz-adv-x="1483" d="M204 1274Q204 1328 231 1356T313 1384Q337 1384 355 1378T388 1360T415 1332T441 1296L1018 397Q1043 359 1065 322T1104 255Q1123 221 1141 189L1145 191Q1142 227 1140 267Q1138 301 1137
344T1135 432L1133 1317Q1133 1349 1151 1366T1206 1384Q1243 1384 1261 1367T1279 1317V105Q1279 50 1252 22T1170 -6Q1146 -6 1128 0T1095 18T1068 46T1042 82L465 981Q440 1019 418 1056T379 1123Q359 1157 342 1189L338 1187Q340 1151 343 1111Q345 1077 346
1034T348 946L350 61Q350 29 332 12T277 -6Q240 -6 222 11T204 61V1274ZM949 1797Q962 1807 970 1811T989 1815Q999 1815 1008 1811T1024 1800T1036 1783T1041 1763Q1041 1753 1037 1744T1018 1721L829 1540Q809 1521 792 1511T751 1501Q728 1501 711 1511T674
1540L490 1723Q479 1734 476 1742T472 1759Q472 1770 476 1780T488 1797T506 1809T528 1813Q538 1813 547 1810T569 1796L760 1653L949 1797Z" />
<glyph unicode="&#x148;" glyph-name="ncaron" horiz-adv-x="1190" d="M184 950Q184 979 200 995T246 1012Q261 1012 272 1008T292 994T305 971T313 938L323 862H326Q356 907 402 942Q421 957 446 971T501 997T566 1015T643 1022Q730 1022 799 996T916 918T990
790T1016 612V61Q1016 29 998 12T942 -6Q905 -6 887 11T868 61V588Q868 669 851 727T801 823T721 879T612 897Q577 897 547 889T490 869T442 840T402 806Q361 766 332 715V61Q332 29 314 12T258 -6Q221 -6 203 11T184 61V950ZM781 1477Q792 1487 800 1491T819 1495Q829
1495 838 1491T855 1480T867 1463T872 1443Q872 1432 867 1424T853 1406L664 1197Q647 1177 630 1167T590 1157Q568 1157 551 1167T517 1196L336 1403Q328 1413 323 1421T317 1441Q317 1452 321 1462T334 1479T352 1491T374 1495Q385 1495 394 1491T416 1475L599
1312L781 1477Z" />
<glyph unicode="&#x149;" glyph-name="napostrophe" horiz-adv-x="1302" d="M296 950Q296 979 312 995T358 1012Q373 1012 384 1008T404 994T417 971T425 938L435 862H438Q468 907 514 942Q533 957 558 971T613 997T678 1015T755 1022Q842 1022 911 996T1028 918T1102
790T1128 612V61Q1128 29 1110 12T1054 -6Q1017 -6 999 11T980 61V588Q980 669 963 727T913 823T833 879T724 897Q689 897 659 889T602 869T554 840T514 806Q473 766 444 715V61Q444 29 426 12T370 -6Q333 -6 315 11T296 61V950ZM72 1446Q72 1467 80 1485T102 1517T135
1538T177 1546Q200 1546 218 1538T250 1516T270 1481T277 1434Q277 1399 267 1363T239 1294T198 1230T150 1174Q124 1148 106 1138T69 1128Q51 1128 39 1137T26 1167Q26 1184 36 1198T62 1233T95 1283T128 1360Q107 1368 90 1390T72 1446Z" />
<glyph unicode="&#x14a;" glyph-name="Eng" horiz-adv-x="1483" d="M204 1274Q204 1328 231 1356T313 1384Q337 1384 355 1378T388 1360T415 1332T441 1296L1018 397Q1043 359 1065 322T1104 255Q1123 221 1141 189L1145 191Q1142 227 1140 267Q1138 301 1137
344T1135 432L1133 1317Q1133 1349 1151 1366T1206 1384Q1243 1384 1261 1367T1279 1317V62Q1279 -25 1272 -92T1250 -211T1211 -305T1151 -381Q1099 -433 1047 -458T955 -483Q921 -483 905 -467T889 -427Q889 -409 897 -396T924 -372Q967 -348 1005 -321T1071
-254T1115 -155T1131 -11V-1Q1118 3 1108 9T1087 25T1065 49T1042 82L465 981Q440 1019 418 1056T379 1123Q359 1157 342 1189L338 1187Q340 1151 343 1111Q345 1077 346 1034T348 946L350 61Q350 29 332 12T277 -6Q240 -6 222 11T204 61V1274Z" />
<glyph unicode="&#x14b;" glyph-name="eng" horiz-adv-x="1180" d="M184 950Q184 979 200 995T246 1012Q261 1012 272 1008T292 994T305 971T313 938L323 862H326Q356 907 402 942Q421 957 446 971T501 997T566 1015T643 1022Q745 1022 816 990T931 897T996 752T1016
562V332Q1016 219 1013 130T1002 -28T984 -150T959 -242T927 -314T888 -373Q870 -396 848 -415T803 -449T755 -471T708 -479Q693 -479 682 -475T663 -464T651 -448T647 -426Q647 -417 649 -410T654 -397T663 -386T677 -377Q707 -361 732 -344T779 -297T817 -223T845
-107T862 65T868 309V538Q868 622 856 688T815 801T737 872T612 897Q577 897 547 889T490 869T442 840T402 806Q361 766 332 715V61Q332 29 314 12T258 -6Q221 -6 203 11T184 61V950Z" />
<glyph unicode="&#x14c;" glyph-name="Omacron" horiz-adv-x="1478" d="M112 671Q112 843 159 978T292 1206T494 1348T751 1397Q886 1397 999 1351T1193 1216T1320 999T1366 708Q1366 536 1319 401T1186 173T984 31T727 -18Q592 -18 479 28T285 163T158 380T112
671ZM268 691Q268 553 305 445T405 264T555 152T741 113Q840 113 925 151T1074 262T1173 442T1210 687Q1210 826 1173 933T1073 1115T923 1227T737 1266Q638 1266 553 1228T404 1117T305 937T268 691ZM982 1706Q1011 1706 1025 1691T1039 1647Q1039 1618 1025 1603T982
1588H481Q452 1588 438 1603T424 1647Q424 1676 438 1691T481 1706H982Z" />
<glyph unicode="&#x14d;" glyph-name="omacron" horiz-adv-x="1163" d="M104 484Q104 611 139 711T239 880T394 985T594 1022Q694 1022 779 987T926 885T1024 727T1059 520Q1059 393 1024 293T924 124T769 19T569 -18Q469 -18 384 17T237 119T139 277T104 484ZM256
504Q256 409 281 336T351 211T456 134T584 107Q653 107 712 132T815 208T882 331T907 500Q907 594 882 668T812 793T708 870T580 897Q510 897 451 872T349 796T281 673T256 504ZM825 1377Q854 1377 868 1363T882 1319Q882 1290 868 1276T825 1261H333Q304 1261
290 1275T276 1319Q276 1348 290 1362T333 1377H825Z" />
<glyph unicode="&#x14e;" glyph-name="Obreve" horiz-adv-x="1478" d="M112 671Q112 843 159 978T292 1206T494 1348T751 1397Q886 1397 999 1351T1193 1216T1320 999T1366 708Q1366 536 1319 401T1186 173T984 31T727 -18Q592 -18 479 28T285 163T158 380T112
671ZM268 691Q268 553 305 445T405 264T555 152T741 113Q840 113 925 151T1074 262T1173 442T1210 687Q1210 826 1173 933T1073 1115T923 1227T737 1266Q638 1266 553 1228T404 1117T305 937T268 691ZM465 1753Q465 1784 481 1799T524 1815Q549 1815 563 1802T581
1764Q592 1698 631 1665T740 1632Q810 1632 846 1666T893 1764Q898 1789 911 1802T949 1815Q976 1815 992 1800T1009 1753Q1009 1704 988 1660T931 1581T844 1527T734 1507Q671 1507 621 1527T537 1581T484 1659T465 1753Z" />
<glyph unicode="&#x14f;" glyph-name="obreve" horiz-adv-x="1163" d="M104 484Q104 611 139 711T239 880T394 985T594 1022Q694 1022 779 987T926 885T1024 727T1059 520Q1059 393 1024 293T924 124T769 19T569 -18Q469 -18 384 17T237 119T139 277T104 484ZM256
504Q256 409 281 336T351 211T456 134T584 107Q653 107 712 132T815 208T882 331T907 500Q907 594 882 668T812 793T708 870T580 897Q510 897 451 872T349 796T281 673T256 504ZM314 1407Q314 1434 330 1449T372 1464Q394 1464 408 1452T426 1413Q434 1346 470
1308T581 1269Q618 1269 645 1280T690 1310T719 1355T732 1413Q734 1439 749 1451T786 1464Q812 1464 828 1449T844 1407Q844 1353 826 1306T772 1224T688 1169T575 1149Q521 1149 474 1166T391 1216T335 1297T314 1407Z" />
<glyph unicode="&#x150;" glyph-name="Ohungarumlaut" horiz-adv-x="1478" d="M112 671Q112 843 159 978T292 1206T494 1348T751 1397Q886 1397 999 1351T1193 1216T1320 999T1366 708Q1366 536 1319 401T1186 173T984 31T727 -18Q592 -18 479 28T285 163T158
380T112 671ZM268 691Q268 553 305 445T405 264T555 152T741 113Q840 113 925 151T1074 262T1173 442T1210 687Q1210 826 1173 933T1073 1115T923 1227T737 1266Q638 1266 553 1228T404 1117T305 937T268 691ZM690 1781Q703 1796 715 1803T742 1811Q758 1811 774
1805T802 1787T822 1761T830 1731Q830 1717 823 1706T803 1683L584 1486Q573 1477 566 1473T548 1469Q537 1469 527 1473T509 1484T496 1502T491 1524Q491 1533 494 1540T508 1560L690 1781ZM1077 1749Q1094 1763 1105 1769T1130 1776Q1147 1776 1162 1768T1188
1747T1206 1718T1213 1687Q1213 1669 1205 1657T1174 1631L936 1480Q926 1474 919 1471T900 1467Q890 1467 880 1471T862 1484T849 1502T844 1524Q844 1537 849 1545T866 1564L1077 1749Z" />
<glyph unicode="&#x151;" glyph-name="ohungarumlaut" horiz-adv-x="1163" d="M104 484Q104 611 139 711T239 880T394 985T594 1022Q694 1022 779 987T926 885T1024 727T1059 520Q1059 393 1024 293T924 124T769 19T569 -18Q469 -18 384 17T237 119T139 277T104
484ZM256 504Q256 409 281 336T351 211T456 134T584 107Q653 107 712 132T815 208T882 331T907 500Q907 594 882 668T812 793T708 870T580 897Q510 897 451 872T349 796T281 673T256 504ZM508 1476Q520 1493 531 1501T562 1510Q578 1510 594 1504T622 1486T641
1461T649 1432Q649 1421 644 1411T628 1389L442 1182Q429 1168 419 1160T393 1152Q382 1152 372 1156T354 1167T341 1183T336 1202Q336 1212 340 1221T351 1241L508 1476ZM860 1474Q866 1481 871 1487T883 1496T896 1502T911 1504Q928 1504 944 1497T973 1477T993
1451T1001 1422Q1001 1411 996 1400T975 1374L767 1170Q756 1160 748 1156T728 1151Q718 1151 708 1155T689 1166T676 1183T670 1205Q670 1214 673 1221T683 1238L860 1474Z" />
<glyph unicode="&#x152;" glyph-name="OE" horiz-adv-x="1845" d="M985 1232Q939 1248 884 1257T757 1266Q651 1266 562 1228T407 1117T305 937T268 691Q268 553 305 445T408 264T564 152T761 113Q832 113 885 120T985 139V1232ZM1137 130H1690Q1719 130 1735
114T1751 65Q1751 33 1735 17T1690 0H1005Q943 -8 883 -13T747 -18Q604 -18 487 28T287 163T158 380T112 671Q112 843 160 978T295 1206T503 1348T771 1397Q838 1397 893 1392T1005 1378H1686Q1715 1378 1731 1362T1747 1314Q1747 1282 1731 1265T1686 1248H1137V775H1612Q1641
775 1657 759T1673 710Q1673 678 1657 662T1612 645H1137V130Z" />
<glyph unicode="&#x153;" glyph-name="oe" horiz-adv-x="1861" d="M256 504Q256 409 281 336T351 211T456 134T584 107Q653 107 712 132T815 208T882 331T907 500Q907 594 882 668T812 793T708 870T580 897Q510 897 451 872T349 796T281 673T256 504ZM1057 497V487Q1057
398 1082 328T1152 209T1261 135T1401 109Q1461 109 1502 117T1572 135T1621 153T1658 162Q1670 162 1679 158T1694 148T1704 132T1708 112Q1708 98 1703 87T1685 63Q1673 51 1647 37T1582 11T1492 -9T1378 -18Q1305 -18 1243 -2T1130 42T1040 110T973 198Q944
150 905 111T815 43T704 -2T569 -18Q469 -18 384 17T237 119T139 277T104 484Q104 611 139 711T239 880T394 985T594 1022Q666 1022 726 1005T836 957T922 887T983 800Q1009 846 1046 886T1130 957T1236 1004T1366 1022Q1450 1022 1520 993T1641 909T1720 775T1749
596Q1749 547 1726 522T1655 497H1057ZM1608 610Q1594 759 1528 830T1346 901Q1297 901 1252 883T1170 829T1106 739T1066 610H1608Z" />
<glyph unicode="&#x154;" glyph-name="Racute" horiz-adv-x="1152" d="M356 61Q356 29 337 12T280 -6Q242 -6 223 11T204 61V1303Q204 1339 223 1358T280 1378H552Q678 1378 769 1352T920 1277T1008 1163T1037 1016Q1037 939 1012 874T941 759T831 676T688 630L1028
124Q1037 110 1044 97T1052 68Q1052 52 1045 38T1025 14T997 -3T966 -9Q949 -9 938 -3T918 11Q915 14 913 17T907 23T900 33T890 49L522 611H356V61ZM540 740Q628 740 692 759T798 812T860 894T880 999Q880 1056 861 1102T802 1181T696 1230T540 1248H356V740H540ZM711
1800Q722 1811 732 1816T757 1822Q774 1822 789 1814T815 1793T834 1764T841 1733Q841 1716 832 1705T808 1682L567 1510Q556 1502 548 1499T528 1495Q516 1495 505 1500T487 1513T475 1531T470 1552Q470 1563 475 1572T494 1595L711 1800Z" />
<glyph unicode="&#x155;" glyph-name="racute" horiz-adv-x="697" d="M184 950Q184 979 200 995T246 1012Q261 1012 272 1008T292 994T306 970T313 936L325 836H328Q349 876 376 910T436 969T505 1008T580 1022Q631 1022 656 999T682 936Q682 896 661 876T614
856Q603 856 596 857T581 859T565 862T547 864Q521 864 494 852T439 816T385 755T332 668V61Q332 29 314 12T258 -6Q221 -6 203 11T184 61V950ZM764 1485Q774 1500 785 1508T813 1516Q828 1516 844 1510T873 1492T896 1465T905 1432Q905 1425 903 1420T898 1409T892
1399T884 1390L688 1176Q677 1163 666 1157T642 1150Q630 1150 620 1154T601 1166T588 1184T583 1206Q583 1216 588 1225T598 1242L764 1485Z" />
<glyph unicode="&#x156;" glyph-name="Rcommaaccent" horiz-adv-x="1152" d="M356 61Q356 29 337 12T280 -6Q242 -6 223 11T204 61V1303Q204 1339 223 1358T280 1378H552Q678 1378 769 1352T920 1277T1008 1163T1037 1016Q1037 939 1012 874T941 759T831 676T688
630L1028 124Q1037 110 1044 97T1052 68Q1052 52 1045 38T1025 14T997 -3T966 -9Q949 -9 938 -3T918 11Q915 14 913 17T907 23T900 33T890 49L522 611H356V61ZM540 740Q628 740 692 759T798 812T860 894T880 999Q880 1056 861 1102T802 1181T696 1230T540 1248H356V740H540ZM498
-231Q498 -208 506 -189T528 -155T560 -133T601 -125Q623 -125 641 -132T673 -154T693 -189T701 -233Q701 -269 686 -301T647 -362T591 -414T527 -455T464 -481T410 -490Q387 -490 373 -479T359 -448Q359 -429 372 -416Q382 -406 400 -396T439 -374T482 -344T526
-300Q513 -287 506 -270T498 -231Z" />
<glyph unicode="&#x157;" glyph-name="rcommaaccent" horiz-adv-x="697" d="M184 950Q184 979 200 995T246 1012Q261 1012 272 1008T292 994T306 970T313 936L325 836H328Q349 876 376 910T436 969T505 1008T580 1022Q631 1022 656 999T682 936Q682 896 661 876T614
856Q603 856 596 857T581 859T565 862T547 864Q521 864 494 852T439 816T385 755T332 668V61Q332 29 314 12T258 -6Q221 -6 203 11T184 61V950ZM206 -231Q206 -208 214 -189T236 -155T268 -133T309 -125Q331 -125 349 -132T381 -154T401 -189T409 -233Q409 -269
394 -301T355 -362T299 -414T235 -455T172 -481T118 -490Q95 -490 81 -479T67 -448Q67 -429 80 -416Q90 -406 108 -396T147 -374T190 -344T234 -300Q221 -287 214 -270T206 -231Z" />
<glyph unicode="&#x158;" glyph-name="Rcaron" horiz-adv-x="1152" d="M356 61Q356 29 337 12T280 -6Q242 -6 223 11T204 61V1303Q204 1339 223 1358T280 1378H552Q678 1378 769 1352T920 1277T1008 1163T1037 1016Q1037 939 1012 874T941 759T831 676T688 630L1028
124Q1037 110 1044 97T1052 68Q1052 52 1045 38T1025 14T997 -3T966 -9Q949 -9 938 -3T918 11Q915 14 913 17T907 23T900 33T890 49L522 611H356V61ZM540 740Q628 740 692 759T798 812T860 894T880 999Q880 1056 861 1102T802 1181T696 1230T540 1248H356V740H540ZM754
1797Q767 1807 775 1811T794 1815Q804 1815 813 1811T829 1800T841 1783T846 1763Q846 1753 842 1744T823 1721L634 1540Q614 1521 597 1511T556 1501Q533 1501 516 1511T479 1540L295 1723Q284 1734 281 1742T277 1759Q277 1770 281 1780T293 1797T311 1809T333
1813Q343 1813 352 1810T374 1796L565 1653L754 1797Z" />
<glyph unicode="&#x159;" glyph-name="rcaron" horiz-adv-x="697" d="M184 950Q184 979 200 995T246 1012Q261 1012 272 1008T292 994T306 970T313 936L325 836H328Q349 876 376 910T436 969T505 1008T580 1022Q631 1022 656 999T682 936Q682 896 661 876T614
856Q603 856 596 857T581 859T565 862T547 864Q521 864 494 852T439 816T385 755T332 668V61Q332 29 314 12T258 -6Q221 -6 203 11T184 61V950ZM830 1477Q841 1487 849 1491T868 1495Q878 1495 887 1491T904 1480T916 1463T921 1443Q921 1432 916 1424T902 1406L713
1197Q696 1177 679 1167T639 1157Q617 1157 600 1167T566 1196L385 1403Q377 1413 372 1421T366 1441Q366 1452 370 1462T383 1479T401 1491T423 1495Q434 1495 443 1491T465 1475L648 1312L830 1477Z" />
<glyph unicode="&#x15a;" glyph-name="Sacute" horiz-adv-x="1085" d="M140 1022Q140 1103 169 1171T256 1290T398 1368T593 1397Q651 1397 699 1390T783 1371T845 1345T883 1319Q897 1305 902 1292T908 1262Q908 1236 891 1220T846 1204Q826 1204 806 1213T756
1235T684 1256T577 1266Q506 1266 454 1249T366 1202T313 1131T295 1040Q295 976 323 934T399 861T505 809T627 764T749 713T856 641T931 536T960 383Q960 295 929 222T838 95T688 12T480 -18Q412 -18 358 -10T262 11T195 38T155 66Q141 80 136 93T130 123Q130
149 147 165T192 182Q212 182 232 171T284 148T367 124T497 113Q573 113 630 131T727 183T785 263T805 365Q805 434 777 480T701 559T595 615T473 662T351 712T244 779T169 878T140 1022ZM673 1800Q684 1811 694 1816T719 1822Q736 1822 751 1814T777 1793T796
1764T803 1733Q803 1716 794 1705T770 1682L529 1510Q518 1502 510 1499T490 1495Q478 1495 467 1500T449 1513T437 1531T432 1552Q432 1563 437 1572T456 1595L673 1800Z" />
<glyph unicode="&#x15b;" glyph-name="sacute" horiz-adv-x="895" d="M123 739Q123 797 147 848T217 938T332 999T489 1022Q540 1022 579 1016T647 1001T694 981T722 961Q735 948 740 936T745 907Q745 895 741 886T729 869T711 857T688 853Q673 853 655 860T611
876T553 892T473 899Q420 899 382 888T319 858T282 812T270 756Q270 712 292 683T352 633T436 596T532 563T629 524T713 471T772 394T795 285Q795 222 770 167T696 71T574 6T406 -18Q344 -18 298 -11T220 6T167 28T137 49Q126 60 121 72T115 103Q115 129 131 145T172
161Q187 161 205 152T252 133T321 114T422 105Q480 105 522 117T592 151T633 203T647 268Q647 313 625 343T565 395T481 433T385 467T289 506T205 557T146 632T123 739ZM530 1485Q540 1500 551 1508T579 1516Q594 1516 610 1510T639 1492T662 1465T671 1432Q671
1425 669 1420T664 1409T658 1399T650 1390L454 1176Q443 1163 432 1157T408 1150Q396 1150 386 1154T367 1166T354 1184T349 1206Q349 1216 354 1225T364 1242L530 1485Z" />
<glyph unicode="&#x15c;" glyph-name="Scircumflex" horiz-adv-x="1085" d="M140 1022Q140 1103 169 1171T256 1290T398 1368T593 1397Q651 1397 699 1390T783 1371T845 1345T883 1319Q897 1305 902 1292T908 1262Q908 1236 891 1220T846 1204Q826 1204 806 1213T756
1235T684 1256T577 1266Q506 1266 454 1249T366 1202T313 1131T295 1040Q295 976 323 934T399 861T505 809T627 764T749 713T856 641T931 536T960 383Q960 295 929 222T838 95T688 12T480 -18Q412 -18 358 -10T262 11T195 38T155 66Q141 80 136 93T130 123Q130
149 147 165T192 182Q212 182 232 171T284 148T367 124T497 113Q573 113 630 131T727 183T785 263T805 365Q805 434 777 480T701 559T595 615T473 662T351 712T244 779T169 878T140 1022ZM357 1517Q344 1507 336 1503T317 1499Q307 1499 298 1503T282 1514T270
1531T265 1551Q265 1561 269 1570T288 1593L477 1774Q497 1793 514 1803T555 1813Q578 1813 595 1803T632 1774L816 1591Q827 1580 830 1572T834 1555Q834 1544 830 1534T818 1517T800 1505T778 1501Q768 1501 759 1504T737 1518L546 1661L357 1517Z" />
<glyph unicode="&#x15d;" glyph-name="scircumflex" horiz-adv-x="895" d="M123 739Q123 797 147 848T217 938T332 999T489 1022Q540 1022 579 1016T647 1001T694 981T722 961Q735 948 740 936T745 907Q745 895 741 886T729 869T711 857T688 853Q673 853 655 860T611
876T553 892T473 899Q420 899 382 888T319 858T282 812T270 756Q270 712 292 683T352 633T436 596T532 563T629 524T713 471T772 394T795 285Q795 222 770 167T696 71T574 6T406 -18Q344 -18 298 -11T220 6T167 28T137 49Q126 60 121 72T115 103Q115 129 131 145T172
161Q187 161 205 152T252 133T321 114T422 105Q480 105 522 117T592 151T633 203T647 268Q647 313 625 343T565 395T481 433T385 467T289 506T205 557T146 632T123 739ZM523 1175Q512 1165 504 1161T485 1157Q475 1157 466 1161T449 1172T437 1189T432 1209Q432
1220 437 1228T451 1246L640 1455Q657 1475 674 1485T714 1495Q736 1495 753 1485T787 1456L968 1249Q976 1239 981 1231T987 1211Q987 1200 983 1190T970 1173T952 1161T930 1157Q919 1157 910 1161T888 1177L705 1340L523 1175Z" />
<glyph unicode="&#x15e;" glyph-name="Scedilla" horiz-adv-x="1085" d="M457 -18Q394 -16 344 -8T256 13T193 39T155 66Q141 80 136 93T130 123Q130 149 147 165T192 182Q212 182 232 171T284 148T367 124T497 113Q573 113 630 131T727 183T785 263T805 365Q805
434 777 480T701 559T595 615T473 662T351 712T244 779T169 878T140 1022Q140 1103 169 1171T256 1290T398 1368T593 1397Q651 1397 699 1390T783 1371T845 1345T883 1319Q897 1305 902 1292T908 1262Q908 1236 891 1220T846 1204Q826 1204 806 1213T756 1235T684
1256T577 1266Q506 1266 454 1249T366 1202T313 1131T295 1040Q295 976 323 934T399 861T505 809T627 764T749 713T856 641T931 536T960 383Q960 303 935 235T860 116T737 31T567 -13L542 -111Q578 -115 608 -127T659 -160T692 -210T704 -276Q704 -321 686 -360T633
-428T547 -475T430 -492Q398 -492 376 -487T341 -472T322 -452T316 -428Q316 -408 328 -395T365 -381Q377 -381 390 -382T416 -383Q456 -383 483 -376T528 -357T552 -327T560 -291Q560 -256 538 -237T466 -217H458Q435 -217 425 -203T421 -160L457 -18Z" />
<glyph unicode="&#x15f;" glyph-name="scedilla" horiz-adv-x="895" d="M376 -17Q324 -16 284 -9T215 7T166 28T137 49Q126 60 121 72T115 103Q115 129 131 145T172 161Q187 161 205 152T252 133T321 114T422 105Q480 105 522 117T592 151T633 203T647 268Q647
313 625 343T565 395T481 433T385 467T289 506T205 557T146 632T123 739Q123 797 147 848T217 938T332 999T489 1022Q540 1022 579 1016T647 1001T694 981T722 961Q735 948 740 936T745 907Q745 895 741 886T729 869T711 857T688 853Q673 853 655 860T611 876T553
892T473 899Q420 899 382 888T319 858T282 812T270 756Q270 712 292 683T352 633T436 596T532 563T629 524T713 471T772 394T795 285Q795 229 775 180T716 91T620 24T488 -13L462 -111Q498 -115 528 -127T579 -160T612 -210T624 -276Q624 -321 606 -360T553 -428T467
-475T350 -492Q318 -492 296 -487T261 -472T242 -452T236 -428Q236 -408 248 -395T285 -381Q297 -381 310 -382T336 -383Q376 -383 403 -376T448 -357T472 -327T480 -291Q480 -256 458 -237T386 -217H378Q355 -217 345 -203T341 -160L376 -17Z" />
<glyph unicode="&#x160;" glyph-name="Scaron" horiz-adv-x="1085" d="M140 1022Q140 1103 169 1171T256 1290T398 1368T593 1397Q651 1397 699 1390T783 1371T845 1345T883 1319Q897 1305 902 1292T908 1262Q908 1236 891 1220T846 1204Q826 1204 806 1213T756
1235T684 1256T577 1266Q506 1266 454 1249T366 1202T313 1131T295 1040Q295 976 323 934T399 861T505 809T627 764T749 713T856 641T931 536T960 383Q960 295 929 222T838 95T688 12T480 -18Q412 -18 358 -10T262 11T195 38T155 66Q141 80 136 93T130 123Q130
149 147 165T192 182Q212 182 232 171T284 148T367 124T497 113Q573 113 630 131T727 183T785 263T805 365Q805 434 777 480T701 559T595 615T473 662T351 712T244 779T169 878T140 1022ZM734 1797Q747 1807 755 1811T774 1815Q784 1815 793 1811T809 1800T821
1783T826 1763Q826 1753 822 1744T803 1721L614 1540Q594 1521 577 1511T536 1501Q513 1501 496 1511T459 1540L275 1723Q264 1734 261 1742T257 1759Q257 1770 261 1780T273 1797T291 1809T313 1813Q323 1813 332 1810T354 1796L545 1653L734 1797Z" />
<glyph unicode="&#x161;" glyph-name="scaron" horiz-adv-x="895" d="M123 739Q123 797 147 848T217 938T332 999T489 1022Q540 1022 579 1016T647 1001T694 981T722 961Q735 948 740 936T745 907Q745 895 741 886T729 869T711 857T688 853Q673 853 655 860T611
876T553 892T473 899Q420 899 382 888T319 858T282 812T270 756Q270 712 292 683T352 633T436 596T532 563T629 524T713 471T772 394T795 285Q795 222 770 167T696 71T574 6T406 -18Q344 -18 298 -11T220 6T167 28T137 49Q126 60 121 72T115 103Q115 129 131 145T172
161Q187 161 205 152T252 133T321 114T422 105Q480 105 522 117T592 151T633 203T647 268Q647 313 625 343T565 395T481 433T385 467T289 506T205 557T146 632T123 739ZM890 1477Q901 1487 909 1491T928 1495Q938 1495 947 1491T964 1480T976 1463T981 1443Q981
1432 976 1424T962 1406L773 1197Q756 1177 739 1167T699 1157Q677 1157 660 1167T626 1196L445 1403Q437 1413 432 1421T426 1441Q426 1452 430 1462T443 1479T461 1491T483 1495Q494 1495 503 1491T525 1475L708 1312L890 1477Z" />
<glyph unicode="&#x162;" glyph-name="uni0162" horiz-adv-x="1104" d="M90 1248Q62 1248 46 1265T30 1314Q30 1345 46 1361T90 1378H1013Q1042 1378 1058 1362T1074 1314Q1074 1282 1058 1265T1013 1248H628V61Q628 40 620 26T598 4L568 -111Q604 -115 634 -127T685
-160T718 -210T730 -276Q730 -321 712 -360T659 -428T573 -475T456 -492Q424 -492 402 -487T367 -472T348 -452T342 -428Q342 -408 354 -395T391 -381Q403 -381 416 -382T442 -383Q482 -383 509 -376T554 -357T578 -327T586 -291Q586 -256 564 -237T492 -217H484Q461
-217 451 -203T447 -160L491 16Q486 21 481 32T476 61V1248H90Z" />
<glyph unicode="&#x163;" glyph-name="uni0163" horiz-adv-x="683" d="M93 882Q67 882 52 898T36 943Q36 972 51 988T93 1004H216L238 1202Q242 1239 260 1257T306 1276Q333 1276 348 1260T364 1215V1004H589Q615 1004 631 988T647 943Q647 914 632 898T590 882H364V269Q364
183 395 149T489 114Q514 114 531 117T562 124T585 131T606 134Q618 134 627 131T642 121T651 105T655 85Q655 68 649 58T634 38Q628 32 615 24T580 7T525 -6T448 -10L421 -111Q457 -115 487 -127T538 -160T571 -210T583 -276Q583 -321 565 -360T512 -428T426 -475T309
-492Q277 -492 255 -487T220 -472T201 -452T195 -428Q195 -408 207 -395T244 -381Q256 -381 269 -382T295 -383Q335 -383 362 -376T407 -357T431 -327T439 -291Q439 -256 417 -237T345 -217H337Q314 -217 304 -203T300 -160L342 9Q283 30 250 83T216 225V882H93Z"
/>
<glyph unicode="&#x164;" glyph-name="Tcaron" horiz-adv-x="1104" d="M90 1248Q62 1248 46 1265T30 1314Q30 1345 46 1361T90 1378H1013Q1042 1378 1058 1362T1074 1314Q1074 1282 1058 1265T1013 1248H628V61Q628 29 609 12T552 -6Q514 -6 495 11T476 61V1248H90ZM745
1797Q758 1807 766 1811T785 1815Q795 1815 804 1811T820 1800T832 1783T837 1763Q837 1753 833 1744T814 1721L625 1540Q605 1521 588 1511T547 1501Q524 1501 507 1511T470 1540L286 1723Q275 1734 272 1742T268 1759Q268 1770 272 1780T284 1797T302 1809T324
1813Q334 1813 343 1810T365 1796L556 1653L745 1797Z" />
<glyph unicode="&#x165;" glyph-name="tcaron" horiz-adv-x="683" d="M93 882Q67 882 52 898T36 943Q36 972 51 988T93 1004H216L238 1202Q242 1239 260 1257T306 1276Q333 1276 348 1260T364 1215V1004H590Q616 1004 631 988T647 943Q647 914 632 898T590 882H364V269Q364
183 395 149T489 114Q514 114 531 117T562 124T585 131T606 134Q618 134 627 131T642 121T651 105T655 85Q655 68 649 58T634 38Q628 32 616 24T582 9T531 -4T461 -10Q337 -10 277 49T216 225V882H93ZM548 1487Q556 1517 571 1530T615 1543Q632 1543 648 1538T676
1525T695 1504T703 1479Q703 1471 700 1462T692 1440L576 1185Q568 1167 556 1159T527 1151Q517 1151 507 1154T488 1163T475 1178T469 1198Q469 1204 470 1211T476 1232L548 1487Z" />
<glyph unicode="&#x166;" glyph-name="Tbar" horiz-adv-x="1104" d="M90 1248Q62 1248 46 1265T30 1314Q30 1345 46 1361T90 1378H1013Q1042 1378 1058 1362T1074 1314Q1074 1282 1058 1265T1013 1248H628V783H881Q907 783 922 767T938 721Q938 692 923 676T881
659H628V61Q628 29 609 12T552 -6Q514 -6 495 11T476 61V659H223Q197 659 182 675T166 721Q166 750 181 766T223 783H476V1248H90Z" />
<glyph unicode="&#x167;" glyph-name="tbar" horiz-adv-x="743" d="M123 882Q97 882 82 898T66 943Q66 972 81 988T123 1004H246L268 1202Q272 1239 290 1257T336 1276Q363 1276 378 1260T394 1215V1004H620Q646 1004 661 988T677 943Q677 914 662 898T620 882H394V653H607Q633
653 648 637T664 593Q664 565 649 549T607 533H394V269Q394 183 425 149T519 114Q544 114 561 117T592 124T615 131T636 134Q648 134 657 131T672 121T681 105T685 85Q685 68 679 58T664 38Q658 32 646 24T612 9T561 -4T491 -10Q367 -10 307 49T246 225V533H125Q99
533 84 549T68 593Q68 621 83 637T125 653H246V882H123Z" />
<glyph unicode="&#x168;" glyph-name="Utilde" horiz-adv-x="1419" d="M191 1317Q191 1349 210 1366T267 1384Q305 1384 324 1367T343 1317V565Q343 445 370 360T447 220T564 139T716 113Q794 113 860 138T974 216T1049 349T1076 541V1317Q1076 1349 1095 1366T1152
1384Q1190 1384 1209 1367T1228 1317V565Q1228 417 1191 308T1084 126T918 18T702 -18Q581 -18 486 16T326 120T226 295T191 541V1317ZM565 1637Q533 1637 514 1625T481 1597T453 1569T418 1556Q400 1556 386 1568T372 1604Q372 1624 386 1651T426 1703T490 1745T573
1762Q622 1762 660 1747T732 1713T796 1680T861 1664Q893 1664 912 1676T945 1704T973 1732T1008 1745Q1026 1745 1040 1733T1054 1697Q1054 1677 1040 1650T1000 1598T936 1556T853 1539Q804 1539 766 1554T694 1588T630 1621T565 1637Z" />
<glyph unicode="&#x169;" glyph-name="utilde" horiz-adv-x="1182" d="M174 943Q174 975 192 992T248 1010Q286 1010 304 993T322 943V416Q322 255 388 181T570 107Q605 107 635 114T692 135T740 164T780 198Q821 238 850 289V943Q850 975 868 992T924 1010Q962
1010 980 993T998 943V54Q998 25 982 9T936 -8Q921 -8 910 -4T890 10T877 33T869 66L859 142H856Q826 97 780 62Q760 47 736 33T681 7T616 -11T539 -18Q455 -18 388 8T273 86T200 214T174 392V943ZM451 1309Q418 1309 399 1296T365 1266T336 1237T299 1223Q289
1223 281 1226T266 1236T256 1250T252 1270Q252 1293 267 1321T309 1374T374 1416T459 1433Q508 1433 545 1417T614 1380T672 1343T729 1326Q762 1326 781 1339T815 1369T844 1398T881 1412Q891 1412 899 1409T914 1399T924 1385T928 1365Q928 1342 913 1314T871
1260T806 1219T721 1202Q671 1202 634 1218T566 1255T508 1292T451 1309Z" />
<glyph unicode="&#x16a;" glyph-name="Umacron" horiz-adv-x="1419" d="M191 1317Q191 1349 210 1366T267 1384Q305 1384 324 1367T343 1317V565Q343 445 370 360T447 220T564 139T716 113Q794 113 860 138T974 216T1049 349T1076 541V1317Q1076 1349 1095 1366T1152
1384Q1190 1384 1209 1367T1228 1317V565Q1228 417 1191 308T1084 126T918 18T702 -18Q581 -18 486 16T326 120T226 295T191 541V1317ZM965 1706Q994 1706 1008 1691T1022 1647Q1022 1618 1008 1603T965 1588H464Q435 1588 421 1603T407 1647Q407 1676 421 1691T464
1706H965Z" />
<glyph unicode="&#x16b;" glyph-name="umacron" horiz-adv-x="1182" d="M174 943Q174 975 192 992T248 1010Q286 1010 304 993T322 943V416Q322 255 388 181T570 107Q605 107 635 114T692 135T740 164T780 198Q821 238 850 289V943Q850 975 868 992T924 1010Q962
1010 980 993T998 943V54Q998 25 982 9T936 -8Q921 -8 910 -4T890 10T877 33T869 66L859 142H856Q826 97 780 62Q760 47 736 33T681 7T616 -11T539 -18Q455 -18 388 8T273 86T200 214T174 392V943ZM832 1377Q861 1377 875 1363T889 1319Q889 1290 875 1276T832
1261H340Q311 1261 297 1275T283 1319Q283 1348 297 1362T340 1377H832Z" />
<glyph unicode="&#x16c;" glyph-name="Ubreve" horiz-adv-x="1419" d="M191 1317Q191 1349 210 1366T267 1384Q305 1384 324 1367T343 1317V565Q343 445 370 360T447 220T564 139T716 113Q794 113 860 138T974 216T1049 349T1076 541V1317Q1076 1349 1095 1366T1152
1384Q1190 1384 1209 1367T1228 1317V565Q1228 417 1191 308T1084 126T918 18T702 -18Q581 -18 486 16T326 120T226 295T191 541V1317ZM448 1753Q448 1784 464 1799T507 1815Q532 1815 546 1802T564 1764Q575 1698 614 1665T723 1632Q793 1632 829 1666T876 1764Q881
1789 894 1802T932 1815Q959 1815 975 1800T992 1753Q992 1704 971 1660T914 1581T827 1527T717 1507Q654 1507 604 1527T520 1581T467 1659T448 1753Z" />
<glyph unicode="&#x16d;" glyph-name="ubreve" horiz-adv-x="1182" d="M174 943Q174 975 192 992T248 1010Q286 1010 304 993T322 943V416Q322 255 388 181T570 107Q605 107 635 114T692 135T740 164T780 198Q821 238 850 289V943Q850 975 868 992T924 1010Q962
1010 980 993T998 943V54Q998 25 982 9T936 -8Q921 -8 910 -4T890 10T877 33T869 66L859 142H856Q826 97 780 62Q760 47 736 33T681 7T616 -11T539 -18Q455 -18 388 8T273 86T200 214T174 392V943ZM324 1407Q324 1434 340 1449T382 1464Q404 1464 418 1452T436
1413Q444 1346 480 1308T591 1269Q628 1269 655 1280T700 1310T729 1355T742 1413Q744 1439 759 1451T796 1464Q822 1464 838 1449T854 1407Q854 1353 836 1306T782 1224T698 1169T585 1149Q531 1149 484 1166T401 1216T345 1297T324 1407Z" />
<glyph unicode="&#x16e;" glyph-name="Uring" horiz-adv-x="1419" d="M191 1317Q191 1349 210 1366T267 1384Q305 1384 324 1367T343 1317V565Q343 445 370 360T447 220T564 139T716 113Q794 113 860 138T974 216T1049 349T1076 541V1317Q1076 1349 1095 1366T1152
1384Q1190 1384 1209 1367T1228 1317V565Q1228 417 1191 308T1084 126T918 18T702 -18Q581 -18 486 16T326 120T226 295T191 541V1317ZM476 1712Q476 1759 494 1800T544 1871T622 1919T722 1937Q776 1937 820 1921T895 1875T943 1807T960 1720Q960 1673 942 1632T892
1561T814 1513T714 1495Q660 1495 616 1511T541 1557T493 1625T476 1712ZM579 1716Q579 1654 616 1617T718 1580Q782 1580 819 1617T857 1716Q857 1778 820 1815T718 1852Q654 1852 617 1815T579 1716Z" />
<glyph unicode="&#x16f;" glyph-name="uring" horiz-adv-x="1182" d="M174 943Q174 975 192 992T248 1010Q286 1010 304 993T322 943V416Q322 255 388 181T570 107Q605 107 635 114T692 135T740 164T780 198Q821 238 850 289V943Q850 975 868 992T924 1010Q962
1010 980 993T998 943V54Q998 25 982 9T936 -8Q921 -8 910 -4T890 10T877 33T869 66L859 142H856Q826 97 780 62Q760 47 736 33T681 7T616 -11T539 -18Q455 -18 388 8T273 86T200 214T174 392V943ZM351 1339Q351 1386 368 1427T418 1498T494 1545T591 1563Q644
1563 687 1547T760 1502T806 1434T823 1348Q823 1301 806 1260T756 1189T680 1142T583 1124Q530 1124 487 1140T414 1185T368 1253T351 1339ZM454 1343Q454 1281 490 1245T587 1209Q648 1209 684 1245T720 1344Q720 1406 684 1442T587 1478Q526 1478 490 1442T454
1343Z" />
<glyph unicode="&#x170;" glyph-name="Uhungarumlaut" horiz-adv-x="1419" d="M191 1317Q191 1349 210 1366T267 1384Q305 1384 324 1367T343 1317V565Q343 445 370 360T447 220T564 139T716 113Q794 113 860 138T974 216T1049 349T1076 541V1317Q1076 1349 1095
1366T1152 1384Q1190 1384 1209 1367T1228 1317V565Q1228 417 1191 308T1084 126T918 18T702 -18Q581 -18 486 16T326 120T226 295T191 541V1317ZM675 1781Q688 1796 700 1803T727 1811Q743 1811 759 1805T787 1787T807 1761T815 1731Q815 1717 808 1706T788 1683L569
1486Q558 1477 551 1473T533 1469Q522 1469 512 1473T494 1484T481 1502T476 1524Q476 1533 479 1540T493 1560L675 1781ZM1062 1749Q1079 1763 1090 1769T1115 1776Q1132 1776 1147 1768T1173 1747T1191 1718T1198 1687Q1198 1669 1190 1657T1159 1631L921 1480Q911
1474 904 1471T885 1467Q875 1467 865 1471T847 1484T834 1502T829 1524Q829 1537 834 1545T851 1564L1062 1749Z" />
<glyph unicode="&#x171;" glyph-name="uhungarumlaut" horiz-adv-x="1182" d="M174 943Q174 975 192 992T248 1010Q286 1010 304 993T322 943V416Q322 255 388 181T570 107Q605 107 635 114T692 135T740 164T780 198Q821 238 850 289V943Q850 975 868 992T924
1010Q962 1010 980 993T998 943V54Q998 25 982 9T936 -8Q921 -8 910 -4T890 10T877 33T869 66L859 142H856Q826 97 780 62Q760 47 736 33T681 7T616 -11T539 -18Q455 -18 388 8T273 86T200 214T174 392V943ZM507 1476Q519 1493 530 1501T561 1510Q577 1510 593
1504T621 1486T640 1461T648 1432Q648 1421 643 1411T627 1389L441 1182Q428 1168 418 1160T392 1152Q381 1152 371 1156T353 1167T340 1183T335 1202Q335 1212 339 1221T350 1241L507 1476ZM859 1474Q865 1481 870 1487T882 1496T895 1502T910 1504Q927 1504 943
1497T972 1477T992 1451T1000 1422Q1000 1411 995 1400T974 1374L766 1170Q755 1160 747 1156T727 1151Q717 1151 707 1155T688 1166T675 1183T669 1205Q669 1214 672 1221T682 1238L859 1474Z" />
<glyph unicode="&#x172;" glyph-name="Uogonek" horiz-adv-x="1419" d="M191 1317Q191 1349 210 1366T267 1384Q305 1384 324 1367T343 1317V565Q343 445 370 360T447 220T564 139T716 113Q794 113 860 138T974 216T1049 349T1076 541V1317Q1076 1349 1095 1366T1152
1384Q1190 1384 1209 1367T1228 1317V565Q1228 487 1218 421T1188 299T1140 198T1077 118Q1054 95 1024 74T961 29T891 -22T821 -84Q771 -134 746 -182T721 -285Q721 -330 742 -352T806 -374Q825 -374 838 -372T861 -366T881 -360T902 -357Q923 -357 934 -370T946
-403Q946 -415 942 -425T926 -447Q908 -465 869 -478T776 -492Q730 -492 694 -479T632 -443T593 -387T579 -313Q579 -271 594 -230T634 -150T692 -77T760 -15Q746 -17 733 -17T702 -18Q581 -18 486 16T326 120T226 295T191 541V1317Z" />
<glyph unicode="&#x173;" glyph-name="uogonek" horiz-adv-x="1182" d="M174 943Q174 975 192 992T248 1010Q286 1010 304 993T322 943V416Q322 255 388 181T570 107Q605 107 635 114T692 135T740 164T780 198Q821 238 850 289V943Q850 975 868 992T924 1010Q962
1010 980 993T998 943V54Q998 34 991 22T966 -9Q930 -45 897 -80T838 -149T798 -219T783 -290Q783 -332 803 -353T858 -374Q877 -374 890 -372T913 -366T933 -360T954 -357Q975 -357 986 -370T998 -403Q998 -415 994 -425T978 -447Q960 -465 921 -478T828 -492Q784
-492 750 -480T691 -444T654 -389T641 -318Q641 -269 663 -220T721 -127T798 -44T881 24Q878 28 876 33Q874 38 873 45T869 66L859 142H856Q826 97 780 62Q760 47 736 33T681 7T616 -11T539 -18Q455 -18 388 8T273 86T200 214T174 392V943Z" />
<glyph unicode="&#x174;" glyph-name="Wcircumflex" horiz-adv-x="1880" d="M92 1261Q84 1291 82 1301T80 1318Q80 1334 87 1347T107 1369T134 1382T164 1387Q180 1387 192 1382T212 1369Q222 1359 226 1345T239 1302L486 362Q497 320 505 283T518 219Q524 186
529 160H533Q538 185 545 217Q551 244 560 281T581 362L830 1290Q845 1347 873 1367T945 1387Q988 1387 1016 1367T1060 1290L1308 367Q1319 325 1327 289T1342 223Q1349 190 1355 160H1359Q1365 190 1372 223Q1378 252 1386 288T1406 365L1644 1302Q1652 1331
1656 1345T1670 1369Q1678 1377 1691 1382T1720 1387Q1734 1387 1748 1383T1773 1370T1792 1350T1800 1322Q1800 1319 1800 1316T1798 1306T1795 1291T1788 1266L1469 92Q1463 69 1455 52T1435 23Q1420 8 1400 1T1351 -6Q1323 -6 1305 1T1271 23Q1259 35 1251 52T1237
91L990 1010Q979 1048 971 1084T955 1149Q947 1182 941 1212H937Q931 1182 924 1149Q918 1120 909 1084T890 1010L643 91Q637 69 629 52T609 23Q594 8 576 1T529 -6Q501 -6 481 1T445 23Q433 35 425 52T411 92L92 1261ZM751 1517Q738 1507 730 1503T711 1499Q701
1499 692 1503T676 1514T664 1531T659 1551Q659 1561 663 1570T682 1593L871 1774Q891 1793 908 1803T949 1813Q972 1813 989 1803T1026 1774L1210 1591Q1221 1580 1224 1572T1228 1555Q1228 1544 1224 1534T1212 1517T1194 1505T1172 1501Q1162 1501 1153 1504T1131
1518L940 1661L751 1517Z" />
<glyph unicode="&#x175;" glyph-name="wcircumflex" horiz-adv-x="1574" d="M93 890Q84 918 82 928T80 946Q80 962 87 975T107 996T133 1008T161 1013Q177 1013 188 1009T208 996Q216 988 221 975T235 931L422 305Q431 273 438 247T450 200Q455 177 460 158H464Q468
177 474 200Q479 220 486 246T503 305L687 905Q697 936 707 957T729 990T757 1008T794 1013Q815 1013 831 1008T859 991T882 958T902 906L1086 305Q1096 273 1103 247T1115 200Q1120 177 1125 158H1129Q1133 177 1139 200Q1144 220 1151 246T1167 305L1347 932Q1355
961 1360 975T1374 997Q1381 1004 1393 1008T1419 1013Q1432 1013 1445 1009T1469 998T1487 979T1494 952Q1494 945 1492 934T1481 895L1229 96Q1220 67 1211 49T1190 19Q1176 5 1159 0T1121 -6Q1100 -6 1084 -1T1054 17Q1042 29 1033 48T1014 96L830 696Q819 730
812 757T800 804Q795 827 791 845H787Q783 827 778 804Q773 784 767 757T749 696L565 96Q557 70 547 50T526 19Q513 6 497 0T456 -6Q430 -6 413 0T383 19Q372 30 363 47T345 92L93 890ZM608 1175Q597 1165 589 1161T570 1157Q560 1157 551 1161T534 1172T522 1189T517
1209Q517 1220 522 1228T536 1246L725 1455Q742 1475 759 1485T799 1495Q821 1495 838 1485T872 1456L1053 1249Q1061 1239 1066 1231T1072 1211Q1072 1200 1068 1190T1055 1173T1037 1161T1015 1157Q1004 1157 995 1161T973 1177L790 1340L608 1175Z" />
<glyph unicode="&#x176;" glyph-name="Ycircumflex" horiz-adv-x="1094" d="M75 1237Q66 1252 60 1262T50 1281T44 1296T42 1312Q42 1328 50 1342T70 1366T97 1381T127 1387Q141 1387 151 1383T170 1370Q176 1364 183 1354T207 1315L493 829Q505 808 515 789T534
753Q544 735 552 719H556Q564 736 574 754Q582 770 593 790T618 834L891 1313Q908 1343 914 1353T927 1369Q936 1378 947 1382T971 1387Q986 1387 1000 1382T1026 1366T1045 1343T1052 1313Q1052 1298 1045 1283T1019 1239L622 590V61Q622 29 603 12T546 -6Q508
-6 489 11T470 61V590L75 1237ZM358 1517Q345 1507 337 1503T318 1499Q308 1499 299 1503T283 1514T271 1531T266 1551Q266 1561 270 1570T289 1593L478 1774Q498 1793 515 1803T556 1813Q579 1813 596 1803T633 1774L817 1591Q828 1580 831 1572T835 1555Q835
1544 831 1534T819 1517T801 1505T779 1501Q769 1501 760 1504T738 1518L547 1661L358 1517Z" />
<glyph unicode="&#x177;" glyph-name="ycircumflex" horiz-adv-x="981" d="M68 883Q57 911 54 922T50 943Q50 960 58 973T78 995T104 1008T132 1013Q148 1013 158 1009T177 996Q184 989 189 977T206 937L442 313Q455 278 464 250T481 202Q489 178 494 161H498Q503
178 511 202Q517 222 526 250T549 313L783 942Q791 965 796 976T810 996Q818 1004 830 1008T855 1013Q868 1013 881 1009T906 998T924 978T931 949Q931 941 928 931T915 895L588 68Q525 -90 464 -196T340 -365T210 -456T70 -483Q38 -483 12 -476T-29 -455Q-47 -437
-47 -408Q-47 -382 -32 -367T11 -352Q20 -352 28 -352T44 -354T60 -355T77 -356Q129 -356 175 -332T262 -262T341 -148T414 7L68 883ZM559 1175Q548 1165 540 1161T521 1157Q511 1157 502 1161T485 1172T473 1189T468 1209Q468 1220 473 1228T487 1246L676 1455Q693
1475 710 1485T750 1495Q772 1495 789 1485T823 1456L1004 1249Q1012 1239 1017 1231T1023 1211Q1023 1200 1019 1190T1006 1173T988 1161T966 1157Q955 1157 946 1161T924 1177L741 1340L559 1175Z" />
<glyph unicode="&#x178;" glyph-name="Ydieresis" horiz-adv-x="1094" d="M75 1237Q66 1252 60 1262T50 1281T44 1296T42 1312Q42 1328 50 1342T70 1366T97 1381T127 1387Q141 1387 151 1383T170 1370Q176 1364 183 1354T207 1315L493 829Q505 808 515 789T534
753Q544 735 552 719H556Q564 736 574 754Q582 770 593 790T618 834L891 1313Q908 1343 914 1353T927 1369Q936 1378 947 1382T971 1387Q986 1387 1000 1382T1026 1366T1045 1343T1052 1313Q1052 1298 1045 1283T1019 1239L622 590V61Q622 29 603 12T546 -6Q508
-6 489 11T470 61V590L75 1237ZM233 1647Q233 1670 241 1689T264 1723T298 1746T341 1755Q364 1755 383 1748T417 1726T438 1693T446 1651Q446 1628 438 1608T416 1574T382 1551T339 1542Q316 1542 297 1549T263 1571T241 1604T233 1647ZM650 1647Q650 1670 658
1689T681 1723T716 1746T759 1755Q782 1755 801 1748T834 1726T855 1693T863 1651Q863 1628 855 1608T833 1574T800 1551T757 1542Q734 1542 714 1549T680 1571T658 1604T650 1647Z" />
<glyph unicode="&#x179;" glyph-name="Zacute" horiz-adv-x="1030" d="M894 130Q923 130 939 114T955 65Q955 33 939 17T894 0H176Q134 0 112 20T90 78Q90 98 97 118T122 168L761 1248H171Q142 1248 126 1265T110 1314Q110 1345 126 1361T171 1378H850Q892 1378
914 1358T936 1300Q936 1280 929 1260T904 1210L265 130H894ZM692 1800Q703 1811 713 1816T738 1822Q755 1822 770 1814T796 1793T815 1764T822 1733Q822 1716 813 1705T789 1682L548 1510Q537 1502 529 1499T509 1495Q497 1495 486 1500T468 1513T456 1531T451
1552Q451 1563 456 1572T475 1595L692 1800Z" />
</font>
</defs>
</svg>
